%TF.GenerationSoftware,KiCad,Pcbnew,(5.1.8)-1*%
%TF.CreationDate,2021-05-16T11:41:03-04:00*%
%TF.ProjectId,openEPR_Lock-In,6f70656e-4550-4525-9f4c-6f636b2d496e,B*%
%TF.SameCoordinates,Original*%
%TF.FileFunction,Copper,L4,Bot*%
%TF.FilePolarity,Positive*%
%FSLAX46Y46*%
G04 Gerber Fmt 4.6, Leading zero omitted, Abs format (unit mm)*
G04 Created by KiCad (PCBNEW (5.1.8)-1) date 2021-05-16 11:41:03*
%MOMM*%
%LPD*%
G01*
G04 APERTURE LIST*
%TA.AperFunction,ComponentPad*%
%ADD10O,1.700000X1.700000*%
%TD*%
%TA.AperFunction,ComponentPad*%
%ADD11R,1.700000X1.700000*%
%TD*%
%TA.AperFunction,ComponentPad*%
%ADD12C,3.048000*%
%TD*%
%TA.AperFunction,ComponentPad*%
%ADD13R,3.500000X3.500000*%
%TD*%
%TA.AperFunction,ComponentPad*%
%ADD14C,5.400000*%
%TD*%
%TA.AperFunction,SMDPad,CuDef*%
%ADD15R,1.350000X4.200000*%
%TD*%
%TA.AperFunction,ComponentPad*%
%ADD16R,1.600000X1.600000*%
%TD*%
%TA.AperFunction,ComponentPad*%
%ADD17C,1.600000*%
%TD*%
%TA.AperFunction,ViaPad*%
%ADD18C,0.800000*%
%TD*%
%TA.AperFunction,Conductor*%
%ADD19C,1.270000*%
%TD*%
%TA.AperFunction,Conductor*%
%ADD20C,0.254000*%
%TD*%
%TA.AperFunction,Conductor*%
%ADD21C,0.100000*%
%TD*%
G04 APERTURE END LIST*
D10*
%TO.P,J6,4*%
%TO.N,GND*%
X63500000Y-31750000D03*
%TO.P,J6,3*%
%TO.N,/V-*%
X60960000Y-31750000D03*
%TO.P,J6,2*%
%TO.N,/V+*%
X58420000Y-31750000D03*
D11*
%TO.P,J6,1*%
%TO.N,/Vin*%
X55880000Y-31750000D03*
%TD*%
D12*
%TO.P,U4,5*%
%TO.N,/V-*%
X91440000Y-30988000D03*
%TO.P,U4,4*%
%TO.N,GND*%
X91440000Y-41148000D03*
%TO.P,U4,3*%
%TO.N,/V+*%
X91440000Y-51308000D03*
%TO.P,U4,2*%
%TO.N,/Vin*%
X71120000Y-43688000D03*
%TO.P,U4,1*%
%TO.N,GND*%
X71120000Y-38608000D03*
%TD*%
%TO.P,J4,3*%
%TO.N,Net-(J4-Pad3)*%
%TA.AperFunction,ComponentPad*%
G36*
G01*
X40145000Y-33350000D02*
X41895000Y-33350000D01*
G75*
G02*
X42770000Y-34225000I0J-875000D01*
G01*
X42770000Y-35975000D01*
G75*
G02*
X41895000Y-36850000I-875000J0D01*
G01*
X40145000Y-36850000D01*
G75*
G02*
X39270000Y-35975000I0J875000D01*
G01*
X39270000Y-34225000D01*
G75*
G02*
X40145000Y-33350000I875000J0D01*
G01*
G37*
%TD.AperFunction*%
%TO.P,J4,2*%
%TO.N,GND*%
%TA.AperFunction,ComponentPad*%
G36*
G01*
X44720000Y-30600000D02*
X46720000Y-30600000D01*
G75*
G02*
X47470000Y-31350000I0J-750000D01*
G01*
X47470000Y-32850000D01*
G75*
G02*
X46720000Y-33600000I-750000J0D01*
G01*
X44720000Y-33600000D01*
G75*
G02*
X43970000Y-32850000I0J750000D01*
G01*
X43970000Y-31350000D01*
G75*
G02*
X44720000Y-30600000I750000J0D01*
G01*
G37*
%TD.AperFunction*%
D13*
%TO.P,J4,1*%
%TO.N,/Vin*%
X45720000Y-38100000D03*
%TD*%
D14*
%TO.P,H4,1*%
%TO.N,GND*%
X29210000Y-77470000D03*
%TD*%
%TO.P,H3,1*%
%TO.N,GND*%
X118110000Y-77470000D03*
%TD*%
%TO.P,H2,1*%
%TO.N,GND*%
X118110000Y-35560000D03*
%TD*%
%TO.P,H1,1*%
%TO.N,GND*%
X29210000Y-35560000D03*
%TD*%
D15*
%TO.P,J1,2*%
%TO.N,GND*%
X60675000Y-84128000D03*
X66325000Y-84128000D03*
%TD*%
%TO.P,J2,2*%
%TO.N,GND*%
X46005000Y-84128000D03*
X40355000Y-84128000D03*
%TD*%
%TO.P,J3,2*%
%TO.N,GND*%
X101315000Y-84128000D03*
X106965000Y-84128000D03*
%TD*%
%TO.P,J5,2*%
%TO.N,GND*%
X80995000Y-84128000D03*
X86645000Y-84128000D03*
%TD*%
D16*
%TO.P,C7,1*%
%TO.N,/Vin*%
X59690000Y-38735000D03*
D17*
%TO.P,C7,2*%
%TO.N,GND*%
X59690000Y-43735000D03*
%TD*%
D16*
%TO.P,C9,1*%
%TO.N,/V+*%
X99695000Y-51435000D03*
D17*
%TO.P,C9,2*%
%TO.N,GND*%
X99695000Y-53435000D03*
%TD*%
%TO.P,C11,2*%
%TO.N,/V-*%
X99695000Y-33115000D03*
D16*
%TO.P,C11,1*%
%TO.N,GND*%
X99695000Y-31115000D03*
%TD*%
D18*
%TO.N,GND*%
X53340000Y-69215000D03*
X69850000Y-83820000D03*
X72390000Y-83820000D03*
X74930000Y-83820000D03*
X77470000Y-83820000D03*
X69850000Y-81280000D03*
X72390000Y-81280000D03*
X74930000Y-81280000D03*
X77470000Y-81280000D03*
X72390000Y-78740000D03*
X69850000Y-78740000D03*
X67310000Y-78740000D03*
X64770000Y-78740000D03*
X62230000Y-78740000D03*
X62230000Y-76200000D03*
X64770000Y-76200000D03*
X67310000Y-76200000D03*
X69850000Y-76200000D03*
X62230000Y-69850000D03*
X64770000Y-69850000D03*
X67310000Y-69850000D03*
X67310000Y-67310000D03*
X64770000Y-67310000D03*
X62230000Y-67310000D03*
X59690000Y-67310000D03*
X59690000Y-69850000D03*
X57150000Y-69850000D03*
X59690000Y-64770000D03*
X62230000Y-64770000D03*
X64770000Y-64770000D03*
X67310000Y-64770000D03*
X67310000Y-62230000D03*
X64770000Y-62230000D03*
X62230000Y-62230000D03*
X52070000Y-59690000D03*
X72390000Y-72390000D03*
X74930000Y-72390000D03*
X74930000Y-69850000D03*
X72390000Y-69850000D03*
X72390000Y-67310000D03*
X74930000Y-64770000D03*
X72390000Y-62230000D03*
X74930000Y-62230000D03*
X77470000Y-62230000D03*
X84455000Y-68580000D03*
X90170000Y-83820000D03*
X92710000Y-83820000D03*
X95250000Y-83820000D03*
X97790000Y-83820000D03*
X49530000Y-83820000D03*
X52070000Y-83820000D03*
X54610000Y-83820000D03*
X57150000Y-83820000D03*
X57150000Y-81280000D03*
X54610000Y-81280000D03*
X52070000Y-81280000D03*
X49530000Y-81280000D03*
X82550000Y-78740000D03*
X110490000Y-83820000D03*
X110490000Y-81280000D03*
X36830000Y-83820000D03*
X36830000Y-81280000D03*
X39370000Y-72390000D03*
X41910000Y-64770000D03*
X62230000Y-57150000D03*
X62230000Y-59690000D03*
X64770000Y-59690000D03*
X67310000Y-59690000D03*
X69850000Y-59690000D03*
X72390000Y-59690000D03*
X74930000Y-59690000D03*
X77470000Y-59690000D03*
X80010000Y-59690000D03*
X83820000Y-55880000D03*
X83820000Y-58420000D03*
X91440000Y-58420000D03*
X88900000Y-58420000D03*
X86360000Y-58420000D03*
X86360000Y-55880000D03*
X88900000Y-55880000D03*
X91440000Y-55880000D03*
X93980000Y-58420000D03*
X93980000Y-55880000D03*
X96520000Y-55880000D03*
X96520000Y-58420000D03*
X54610000Y-62230000D03*
X54610000Y-59690000D03*
X52070000Y-62230000D03*
X38100000Y-27940000D03*
X38100000Y-30480000D03*
X34290000Y-52070000D03*
X34290000Y-59690000D03*
X109220000Y-27940000D03*
X109220000Y-30480000D03*
X113030000Y-45720000D03*
X101600000Y-46990000D03*
X101600000Y-35560000D03*
X116840000Y-59690000D03*
X34290000Y-39370000D03*
X34290000Y-69850000D03*
X34290000Y-67310000D03*
X34290000Y-74930000D03*
X34290000Y-78105000D03*
X36830000Y-78105000D03*
X52070000Y-52070000D03*
X44450000Y-57150000D03*
X90170000Y-81280000D03*
X92710000Y-81280000D03*
X95250000Y-81280000D03*
X97790000Y-81280000D03*
X110490000Y-76200000D03*
X107950000Y-76200000D03*
X113030000Y-76200000D03*
X110490000Y-78740000D03*
X113030000Y-78740000D03*
X107950000Y-73660000D03*
X110490000Y-73660000D03*
X113030000Y-73660000D03*
X107950000Y-71120000D03*
X110490000Y-71120000D03*
X113030000Y-71120000D03*
X107950000Y-68580000D03*
X110490000Y-68580000D03*
X113030000Y-68580000D03*
X110490000Y-66040000D03*
X107950000Y-66040000D03*
X113030000Y-66040000D03*
X113030000Y-63500000D03*
X110490000Y-63500000D03*
X107950000Y-63500000D03*
X88900000Y-60960000D03*
X83820000Y-60960000D03*
X86360000Y-60960000D03*
X91440000Y-60960000D03*
X93980000Y-60960000D03*
X96520000Y-60960000D03*
X101600000Y-58420000D03*
X104140000Y-58420000D03*
X99060000Y-58420000D03*
X113030000Y-60960000D03*
X107950000Y-60960000D03*
X110490000Y-60960000D03*
X107950000Y-58420000D03*
X113030000Y-58420000D03*
X110490000Y-58420000D03*
X104140000Y-55880000D03*
X101600000Y-55880000D03*
X95250000Y-78740000D03*
X92710000Y-78740000D03*
X92710000Y-76200000D03*
X95250000Y-76200000D03*
X88519000Y-68834000D03*
X85090000Y-78740000D03*
X87630000Y-78740000D03*
X67310000Y-57150000D03*
X72390000Y-57150000D03*
X74930000Y-57150000D03*
X80010000Y-57150000D03*
X64770000Y-57150000D03*
X69850000Y-57150000D03*
X77470000Y-57150000D03*
X46990000Y-54610000D03*
X52070000Y-54610000D03*
X57150000Y-54610000D03*
X49530000Y-54610000D03*
X59690000Y-54610000D03*
X54610000Y-54610000D03*
X62230000Y-54610000D03*
X54610000Y-57150000D03*
X57150000Y-57150000D03*
X59690000Y-57150000D03*
X49530000Y-57150000D03*
X52070000Y-57150000D03*
X46990000Y-57150000D03*
X36830000Y-74930000D03*
X39370000Y-74930000D03*
X36830000Y-72390000D03*
X34290000Y-72390000D03*
X36830000Y-69850000D03*
X39370000Y-69850000D03*
X41910000Y-69850000D03*
X39370000Y-67310000D03*
X41910000Y-67310000D03*
X36830000Y-67310000D03*
X41910000Y-62230000D03*
X41910000Y-59690000D03*
X44450000Y-59690000D03*
X44450000Y-62230000D03*
X44450000Y-64770000D03*
X44450000Y-67310000D03*
X39370000Y-64770000D03*
X67310000Y-54610000D03*
X64770000Y-54610000D03*
X72390000Y-54610000D03*
X80010000Y-54610000D03*
X74930000Y-54610000D03*
X69850000Y-54610000D03*
X77470000Y-54610000D03*
X104140000Y-60960000D03*
X101600000Y-60960000D03*
X99060000Y-60960000D03*
X83820000Y-63500000D03*
X83820000Y-66040000D03*
X84455000Y-71755000D03*
X36830000Y-64770000D03*
X39370000Y-62230000D03*
X81280000Y-30480000D03*
X73660000Y-30480000D03*
%TO.N,/V+*%
X80645000Y-77470000D03*
X48768000Y-64262000D03*
X100584000Y-62865000D03*
%TO.N,/V-*%
X60960000Y-72390000D03*
X90170000Y-77470000D03*
%TD*%
D19*
%TO.N,/V-*%
X81661000Y-40767000D02*
X81661000Y-74295000D01*
X91440000Y-30988000D02*
X81661000Y-40767000D01*
X62865000Y-74295000D02*
X60960000Y-72390000D01*
X81661000Y-74295000D02*
X62865000Y-74295000D01*
X86995000Y-74295000D02*
X90170000Y-77470000D01*
X81661000Y-74295000D02*
X86995000Y-74295000D01*
X63500000Y-34290000D02*
X60960000Y-31750000D01*
X74930000Y-34290000D02*
X63500000Y-34290000D01*
X81407000Y-40767000D02*
X74930000Y-34290000D01*
X81661000Y-40767000D02*
X81407000Y-40767000D01*
%TD*%
D20*
%TO.N,GND*%
X111100001Y-29242419D02*
X111102802Y-29270855D01*
X111102747Y-29278682D01*
X111103646Y-29287853D01*
X111129554Y-29534357D01*
X111141589Y-29592986D01*
X111152792Y-29651716D01*
X111155456Y-29660538D01*
X111228751Y-29897314D01*
X111251931Y-29952457D01*
X111274339Y-30007920D01*
X111278665Y-30016054D01*
X111278667Y-30016059D01*
X111278670Y-30016064D01*
X111396553Y-30234086D01*
X111429988Y-30283654D01*
X111462759Y-30333735D01*
X111468584Y-30340876D01*
X111626577Y-30531856D01*
X111669012Y-30573995D01*
X111710875Y-30616745D01*
X111717976Y-30622618D01*
X111910053Y-30779273D01*
X111959875Y-30812374D01*
X112009237Y-30846173D01*
X112017343Y-30850556D01*
X112236191Y-30966919D01*
X112291479Y-30989707D01*
X112346475Y-31013279D01*
X112355278Y-31016003D01*
X112592559Y-31087643D01*
X112651246Y-31099264D01*
X112709752Y-31111700D01*
X112718915Y-31112663D01*
X112718917Y-31112663D01*
X112965595Y-31136850D01*
X112965598Y-31136850D01*
X112997581Y-31140000D01*
X121895000Y-31140000D01*
X121895001Y-80620000D01*
X119215248Y-80620000D01*
X119388203Y-80567792D01*
X119967992Y-80258904D01*
X119975589Y-80253828D01*
X120275769Y-79815374D01*
X118110000Y-77649605D01*
X115944231Y-79815374D01*
X116244411Y-80253828D01*
X116823356Y-80564296D01*
X117006090Y-80620000D01*
X112997581Y-80620000D01*
X112969135Y-80622802D01*
X112961318Y-80622747D01*
X112952147Y-80623646D01*
X112705644Y-80649554D01*
X112647028Y-80661586D01*
X112588284Y-80672792D01*
X112579462Y-80675456D01*
X112342686Y-80748751D01*
X112287555Y-80771926D01*
X112232080Y-80794339D01*
X112223944Y-80798666D01*
X112005914Y-80916554D01*
X111956346Y-80949988D01*
X111906265Y-80982760D01*
X111899124Y-80988584D01*
X111708144Y-81146577D01*
X111666005Y-81189012D01*
X111623255Y-81230875D01*
X111617381Y-81237976D01*
X111460727Y-81430054D01*
X111427655Y-81479831D01*
X111393826Y-81529237D01*
X111389444Y-81537343D01*
X111273081Y-81756191D01*
X111250298Y-81811468D01*
X111226721Y-81866475D01*
X111223997Y-81875278D01*
X111152357Y-82112559D01*
X111140736Y-82171246D01*
X111128300Y-82229752D01*
X111127337Y-82238917D01*
X111103150Y-82485595D01*
X111100000Y-82517582D01*
X111100001Y-85700000D01*
X108277178Y-85700000D01*
X108275000Y-84413750D01*
X108116250Y-84255000D01*
X107092000Y-84255000D01*
X107092000Y-84275000D01*
X106838000Y-84275000D01*
X106838000Y-84255000D01*
X105813750Y-84255000D01*
X105655000Y-84413750D01*
X105652822Y-85700000D01*
X102627178Y-85700000D01*
X102625000Y-84413750D01*
X102466250Y-84255000D01*
X101442000Y-84255000D01*
X101442000Y-84275000D01*
X101188000Y-84275000D01*
X101188000Y-84255000D01*
X100163750Y-84255000D01*
X100005000Y-84413750D01*
X100002822Y-85700000D01*
X87957178Y-85700000D01*
X87955000Y-84413750D01*
X87796250Y-84255000D01*
X86772000Y-84255000D01*
X86772000Y-84275000D01*
X86518000Y-84275000D01*
X86518000Y-84255000D01*
X85493750Y-84255000D01*
X85335000Y-84413750D01*
X85332822Y-85700000D01*
X82307178Y-85700000D01*
X82305000Y-84413750D01*
X82146250Y-84255000D01*
X81122000Y-84255000D01*
X81122000Y-84275000D01*
X80868000Y-84275000D01*
X80868000Y-84255000D01*
X79843750Y-84255000D01*
X79685000Y-84413750D01*
X79682822Y-85700000D01*
X67637178Y-85700000D01*
X67635000Y-84413750D01*
X67476250Y-84255000D01*
X66452000Y-84255000D01*
X66452000Y-84275000D01*
X66198000Y-84275000D01*
X66198000Y-84255000D01*
X65173750Y-84255000D01*
X65015000Y-84413750D01*
X65012822Y-85700000D01*
X61987178Y-85700000D01*
X61985000Y-84413750D01*
X61826250Y-84255000D01*
X60802000Y-84255000D01*
X60802000Y-84275000D01*
X60548000Y-84275000D01*
X60548000Y-84255000D01*
X59523750Y-84255000D01*
X59365000Y-84413750D01*
X59362822Y-85700000D01*
X47317178Y-85700000D01*
X47315000Y-84413750D01*
X47156250Y-84255000D01*
X46132000Y-84255000D01*
X46132000Y-84275000D01*
X45878000Y-84275000D01*
X45878000Y-84255000D01*
X44853750Y-84255000D01*
X44695000Y-84413750D01*
X44692822Y-85700000D01*
X41667178Y-85700000D01*
X41665000Y-84413750D01*
X41506250Y-84255000D01*
X40482000Y-84255000D01*
X40482000Y-84275000D01*
X40228000Y-84275000D01*
X40228000Y-84255000D01*
X39203750Y-84255000D01*
X39045000Y-84413750D01*
X39042822Y-85700000D01*
X36220000Y-85700000D01*
X36220000Y-82517581D01*
X36217198Y-82489135D01*
X36217253Y-82481318D01*
X36216354Y-82472147D01*
X36190446Y-82225644D01*
X36178414Y-82167028D01*
X36167208Y-82108284D01*
X36164544Y-82099462D01*
X36142423Y-82028000D01*
X39041928Y-82028000D01*
X39045000Y-83842250D01*
X39203750Y-84001000D01*
X40228000Y-84001000D01*
X40228000Y-81551750D01*
X40482000Y-81551750D01*
X40482000Y-84001000D01*
X41506250Y-84001000D01*
X41665000Y-83842250D01*
X41668072Y-82028000D01*
X44691928Y-82028000D01*
X44695000Y-83842250D01*
X44853750Y-84001000D01*
X45878000Y-84001000D01*
X45878000Y-81551750D01*
X46132000Y-81551750D01*
X46132000Y-84001000D01*
X47156250Y-84001000D01*
X47315000Y-83842250D01*
X47318072Y-82028000D01*
X59361928Y-82028000D01*
X59365000Y-83842250D01*
X59523750Y-84001000D01*
X60548000Y-84001000D01*
X60548000Y-81551750D01*
X60802000Y-81551750D01*
X60802000Y-84001000D01*
X61826250Y-84001000D01*
X61985000Y-83842250D01*
X61988072Y-82028000D01*
X65011928Y-82028000D01*
X65015000Y-83842250D01*
X65173750Y-84001000D01*
X66198000Y-84001000D01*
X66198000Y-81551750D01*
X66452000Y-81551750D01*
X66452000Y-84001000D01*
X67476250Y-84001000D01*
X67635000Y-83842250D01*
X67638072Y-82028000D01*
X79681928Y-82028000D01*
X79685000Y-83842250D01*
X79843750Y-84001000D01*
X80868000Y-84001000D01*
X80868000Y-81551750D01*
X81122000Y-81551750D01*
X81122000Y-84001000D01*
X82146250Y-84001000D01*
X82305000Y-83842250D01*
X82308072Y-82028000D01*
X85331928Y-82028000D01*
X85335000Y-83842250D01*
X85493750Y-84001000D01*
X86518000Y-84001000D01*
X86518000Y-81551750D01*
X86772000Y-81551750D01*
X86772000Y-84001000D01*
X87796250Y-84001000D01*
X87955000Y-83842250D01*
X87958072Y-82028000D01*
X100001928Y-82028000D01*
X100005000Y-83842250D01*
X100163750Y-84001000D01*
X101188000Y-84001000D01*
X101188000Y-81551750D01*
X101442000Y-81551750D01*
X101442000Y-84001000D01*
X102466250Y-84001000D01*
X102625000Y-83842250D01*
X102628072Y-82028000D01*
X105651928Y-82028000D01*
X105655000Y-83842250D01*
X105813750Y-84001000D01*
X106838000Y-84001000D01*
X106838000Y-81551750D01*
X107092000Y-81551750D01*
X107092000Y-84001000D01*
X108116250Y-84001000D01*
X108275000Y-83842250D01*
X108278072Y-82028000D01*
X108265812Y-81903518D01*
X108229502Y-81783820D01*
X108170537Y-81673506D01*
X108091185Y-81576815D01*
X107994494Y-81497463D01*
X107884180Y-81438498D01*
X107764482Y-81402188D01*
X107640000Y-81389928D01*
X107250750Y-81393000D01*
X107092000Y-81551750D01*
X106838000Y-81551750D01*
X106679250Y-81393000D01*
X106290000Y-81389928D01*
X106165518Y-81402188D01*
X106045820Y-81438498D01*
X105935506Y-81497463D01*
X105838815Y-81576815D01*
X105759463Y-81673506D01*
X105700498Y-81783820D01*
X105664188Y-81903518D01*
X105651928Y-82028000D01*
X102628072Y-82028000D01*
X102615812Y-81903518D01*
X102579502Y-81783820D01*
X102520537Y-81673506D01*
X102441185Y-81576815D01*
X102344494Y-81497463D01*
X102234180Y-81438498D01*
X102114482Y-81402188D01*
X101990000Y-81389928D01*
X101600750Y-81393000D01*
X101442000Y-81551750D01*
X101188000Y-81551750D01*
X101029250Y-81393000D01*
X100640000Y-81389928D01*
X100515518Y-81402188D01*
X100395820Y-81438498D01*
X100285506Y-81497463D01*
X100188815Y-81576815D01*
X100109463Y-81673506D01*
X100050498Y-81783820D01*
X100014188Y-81903518D01*
X100001928Y-82028000D01*
X87958072Y-82028000D01*
X87945812Y-81903518D01*
X87909502Y-81783820D01*
X87850537Y-81673506D01*
X87771185Y-81576815D01*
X87674494Y-81497463D01*
X87564180Y-81438498D01*
X87444482Y-81402188D01*
X87320000Y-81389928D01*
X86930750Y-81393000D01*
X86772000Y-81551750D01*
X86518000Y-81551750D01*
X86359250Y-81393000D01*
X85970000Y-81389928D01*
X85845518Y-81402188D01*
X85725820Y-81438498D01*
X85615506Y-81497463D01*
X85518815Y-81576815D01*
X85439463Y-81673506D01*
X85380498Y-81783820D01*
X85344188Y-81903518D01*
X85331928Y-82028000D01*
X82308072Y-82028000D01*
X82295812Y-81903518D01*
X82259502Y-81783820D01*
X82200537Y-81673506D01*
X82121185Y-81576815D01*
X82024494Y-81497463D01*
X81914180Y-81438498D01*
X81794482Y-81402188D01*
X81670000Y-81389928D01*
X81280750Y-81393000D01*
X81122000Y-81551750D01*
X80868000Y-81551750D01*
X80709250Y-81393000D01*
X80320000Y-81389928D01*
X80195518Y-81402188D01*
X80075820Y-81438498D01*
X79965506Y-81497463D01*
X79868815Y-81576815D01*
X79789463Y-81673506D01*
X79730498Y-81783820D01*
X79694188Y-81903518D01*
X79681928Y-82028000D01*
X67638072Y-82028000D01*
X67625812Y-81903518D01*
X67589502Y-81783820D01*
X67530537Y-81673506D01*
X67451185Y-81576815D01*
X67354494Y-81497463D01*
X67244180Y-81438498D01*
X67124482Y-81402188D01*
X67000000Y-81389928D01*
X66610750Y-81393000D01*
X66452000Y-81551750D01*
X66198000Y-81551750D01*
X66039250Y-81393000D01*
X65650000Y-81389928D01*
X65525518Y-81402188D01*
X65405820Y-81438498D01*
X65295506Y-81497463D01*
X65198815Y-81576815D01*
X65119463Y-81673506D01*
X65060498Y-81783820D01*
X65024188Y-81903518D01*
X65011928Y-82028000D01*
X61988072Y-82028000D01*
X61975812Y-81903518D01*
X61939502Y-81783820D01*
X61880537Y-81673506D01*
X61801185Y-81576815D01*
X61704494Y-81497463D01*
X61594180Y-81438498D01*
X61474482Y-81402188D01*
X61350000Y-81389928D01*
X60960750Y-81393000D01*
X60802000Y-81551750D01*
X60548000Y-81551750D01*
X60389250Y-81393000D01*
X60000000Y-81389928D01*
X59875518Y-81402188D01*
X59755820Y-81438498D01*
X59645506Y-81497463D01*
X59548815Y-81576815D01*
X59469463Y-81673506D01*
X59410498Y-81783820D01*
X59374188Y-81903518D01*
X59361928Y-82028000D01*
X47318072Y-82028000D01*
X47305812Y-81903518D01*
X47269502Y-81783820D01*
X47210537Y-81673506D01*
X47131185Y-81576815D01*
X47034494Y-81497463D01*
X46924180Y-81438498D01*
X46804482Y-81402188D01*
X46680000Y-81389928D01*
X46290750Y-81393000D01*
X46132000Y-81551750D01*
X45878000Y-81551750D01*
X45719250Y-81393000D01*
X45330000Y-81389928D01*
X45205518Y-81402188D01*
X45085820Y-81438498D01*
X44975506Y-81497463D01*
X44878815Y-81576815D01*
X44799463Y-81673506D01*
X44740498Y-81783820D01*
X44704188Y-81903518D01*
X44691928Y-82028000D01*
X41668072Y-82028000D01*
X41655812Y-81903518D01*
X41619502Y-81783820D01*
X41560537Y-81673506D01*
X41481185Y-81576815D01*
X41384494Y-81497463D01*
X41274180Y-81438498D01*
X41154482Y-81402188D01*
X41030000Y-81389928D01*
X40640750Y-81393000D01*
X40482000Y-81551750D01*
X40228000Y-81551750D01*
X40069250Y-81393000D01*
X39680000Y-81389928D01*
X39555518Y-81402188D01*
X39435820Y-81438498D01*
X39325506Y-81497463D01*
X39228815Y-81576815D01*
X39149463Y-81673506D01*
X39090498Y-81783820D01*
X39054188Y-81903518D01*
X39041928Y-82028000D01*
X36142423Y-82028000D01*
X36091249Y-81862686D01*
X36068074Y-81807555D01*
X36045661Y-81752080D01*
X36041334Y-81743944D01*
X35923446Y-81525914D01*
X35890012Y-81476346D01*
X35857240Y-81426265D01*
X35851416Y-81419124D01*
X35693423Y-81228144D01*
X35650988Y-81186005D01*
X35609125Y-81143255D01*
X35602024Y-81137381D01*
X35409946Y-80980727D01*
X35360169Y-80947655D01*
X35310763Y-80913826D01*
X35302657Y-80909444D01*
X35083809Y-80793081D01*
X35028532Y-80770298D01*
X34973525Y-80746721D01*
X34964722Y-80743997D01*
X34727441Y-80672357D01*
X34668754Y-80660736D01*
X34610248Y-80648300D01*
X34601085Y-80647337D01*
X34601083Y-80647337D01*
X34354405Y-80623150D01*
X34354402Y-80623150D01*
X34322419Y-80620000D01*
X30315248Y-80620000D01*
X30488203Y-80567792D01*
X31067992Y-80258904D01*
X31075589Y-80253828D01*
X31375769Y-79815374D01*
X29210000Y-77649605D01*
X27044231Y-79815374D01*
X27344411Y-80253828D01*
X27923356Y-80564296D01*
X28106090Y-80620000D01*
X25425000Y-80620000D01*
X25425000Y-77465431D01*
X25858866Y-77465431D01*
X25922366Y-78119293D01*
X26112208Y-78748203D01*
X26421096Y-79327992D01*
X26426172Y-79335589D01*
X26864626Y-79635769D01*
X29030395Y-77470000D01*
X29389605Y-77470000D01*
X31555374Y-79635769D01*
X31993828Y-79335589D01*
X32304296Y-78756644D01*
X32495852Y-78128254D01*
X32561134Y-77474569D01*
X32550791Y-77368061D01*
X79610000Y-77368061D01*
X79610000Y-77571939D01*
X79649774Y-77771898D01*
X79727795Y-77960256D01*
X79841063Y-78129774D01*
X79985226Y-78273937D01*
X80154744Y-78387205D01*
X80343102Y-78465226D01*
X80543061Y-78505000D01*
X80746939Y-78505000D01*
X80946898Y-78465226D01*
X81135256Y-78387205D01*
X81304774Y-78273937D01*
X81448937Y-78129774D01*
X81562205Y-77960256D01*
X81640226Y-77771898D01*
X81680000Y-77571939D01*
X81680000Y-77368061D01*
X81640226Y-77168102D01*
X81562205Y-76979744D01*
X81448937Y-76810226D01*
X81304774Y-76666063D01*
X81135256Y-76552795D01*
X80946898Y-76474774D01*
X80746939Y-76435000D01*
X80543061Y-76435000D01*
X80343102Y-76474774D01*
X80154744Y-76552795D01*
X79985226Y-76666063D01*
X79841063Y-76810226D01*
X79727795Y-76979744D01*
X79649774Y-77168102D01*
X79610000Y-77368061D01*
X32550791Y-77368061D01*
X32497634Y-76820707D01*
X32307792Y-76191797D01*
X31998904Y-75612008D01*
X31993828Y-75604411D01*
X31555374Y-75304231D01*
X29389605Y-77470000D01*
X29030395Y-77470000D01*
X26864626Y-75304231D01*
X26426172Y-75604411D01*
X26115704Y-76183356D01*
X25924148Y-76811746D01*
X25858866Y-77465431D01*
X25425000Y-77465431D01*
X25425000Y-75124626D01*
X27044231Y-75124626D01*
X29210000Y-77290395D01*
X31375769Y-75124626D01*
X31075589Y-74686172D01*
X30496644Y-74375704D01*
X29868254Y-74184148D01*
X29214569Y-74118866D01*
X28560707Y-74182366D01*
X27931797Y-74372208D01*
X27352008Y-74681096D01*
X27344411Y-74686172D01*
X27044231Y-75124626D01*
X25425000Y-75124626D01*
X25425000Y-64160061D01*
X47733000Y-64160061D01*
X47733000Y-64363939D01*
X47772774Y-64563898D01*
X47850795Y-64752256D01*
X47964063Y-64921774D01*
X48108226Y-65065937D01*
X48277744Y-65179205D01*
X48466102Y-65257226D01*
X48666061Y-65297000D01*
X48869939Y-65297000D01*
X49069898Y-65257226D01*
X49258256Y-65179205D01*
X49427774Y-65065937D01*
X49571937Y-64921774D01*
X49685205Y-64752256D01*
X49763226Y-64563898D01*
X49803000Y-64363939D01*
X49803000Y-64160061D01*
X49763226Y-63960102D01*
X49685205Y-63771744D01*
X49571937Y-63602226D01*
X49427774Y-63458063D01*
X49258256Y-63344795D01*
X49069898Y-63266774D01*
X48869939Y-63227000D01*
X48666061Y-63227000D01*
X48466102Y-63266774D01*
X48277744Y-63344795D01*
X48108226Y-63458063D01*
X47964063Y-63602226D01*
X47850795Y-63771744D01*
X47772774Y-63960102D01*
X47733000Y-64160061D01*
X25425000Y-64160061D01*
X25425000Y-44727702D01*
X58876903Y-44727702D01*
X58948486Y-44971671D01*
X59203996Y-45092571D01*
X59478184Y-45161300D01*
X59760512Y-45175217D01*
X60040130Y-45133787D01*
X60306292Y-45038603D01*
X60431514Y-44971671D01*
X60503097Y-44727702D01*
X59690000Y-43914605D01*
X58876903Y-44727702D01*
X25425000Y-44727702D01*
X25425000Y-43805512D01*
X58249783Y-43805512D01*
X58291213Y-44085130D01*
X58386397Y-44351292D01*
X58453329Y-44476514D01*
X58697298Y-44548097D01*
X59510395Y-43735000D01*
X59869605Y-43735000D01*
X60682702Y-44548097D01*
X60926671Y-44476514D01*
X61047571Y-44221004D01*
X61116300Y-43946816D01*
X61130217Y-43664488D01*
X61102195Y-43475357D01*
X68961000Y-43475357D01*
X68961000Y-43900643D01*
X69043970Y-44317757D01*
X69206719Y-44710670D01*
X69442996Y-45064282D01*
X69743718Y-45365004D01*
X70097330Y-45601281D01*
X70490243Y-45764030D01*
X70907357Y-45847000D01*
X71332643Y-45847000D01*
X71749757Y-45764030D01*
X72142670Y-45601281D01*
X72496282Y-45365004D01*
X72797004Y-45064282D01*
X73033281Y-44710670D01*
X73196030Y-44317757D01*
X73279000Y-43900643D01*
X73279000Y-43475357D01*
X73196030Y-43058243D01*
X73033281Y-42665330D01*
X72797004Y-42311718D01*
X72496282Y-42010996D01*
X72142670Y-41774719D01*
X71749757Y-41611970D01*
X71332643Y-41529000D01*
X70907357Y-41529000D01*
X70490243Y-41611970D01*
X70097330Y-41774719D01*
X69743718Y-42010996D01*
X69442996Y-42311718D01*
X69206719Y-42665330D01*
X69043970Y-43058243D01*
X68961000Y-43475357D01*
X61102195Y-43475357D01*
X61088787Y-43384870D01*
X60993603Y-43118708D01*
X60926671Y-42993486D01*
X60682702Y-42921903D01*
X59869605Y-43735000D01*
X59510395Y-43735000D01*
X58697298Y-42921903D01*
X58453329Y-42993486D01*
X58332429Y-43248996D01*
X58263700Y-43523184D01*
X58249783Y-43805512D01*
X25425000Y-43805512D01*
X25425000Y-42742298D01*
X58876903Y-42742298D01*
X59690000Y-43555395D01*
X60503097Y-42742298D01*
X60431514Y-42498329D01*
X60176004Y-42377429D01*
X59901816Y-42308700D01*
X59619488Y-42294783D01*
X59339870Y-42336213D01*
X59073708Y-42431397D01*
X58948486Y-42498329D01*
X58876903Y-42742298D01*
X25425000Y-42742298D01*
X25425000Y-37905374D01*
X27044231Y-37905374D01*
X27344411Y-38343828D01*
X27923356Y-38654296D01*
X28551746Y-38845852D01*
X29205431Y-38911134D01*
X29859293Y-38847634D01*
X30488203Y-38657792D01*
X31067992Y-38348904D01*
X31075589Y-38343828D01*
X31375769Y-37905374D01*
X29210000Y-35739605D01*
X27044231Y-37905374D01*
X25425000Y-37905374D01*
X25425000Y-35555431D01*
X25858866Y-35555431D01*
X25922366Y-36209293D01*
X26112208Y-36838203D01*
X26421096Y-37417992D01*
X26426172Y-37425589D01*
X26864626Y-37725769D01*
X29030395Y-35560000D01*
X29389605Y-35560000D01*
X31555374Y-37725769D01*
X31993828Y-37425589D01*
X32304296Y-36846644D01*
X32495852Y-36218254D01*
X32561134Y-35564569D01*
X32497634Y-34910707D01*
X32307792Y-34281797D01*
X32277533Y-34225000D01*
X38631928Y-34225000D01*
X38631928Y-35975000D01*
X38661001Y-36270186D01*
X38747104Y-36554028D01*
X38886927Y-36815618D01*
X39075097Y-37044903D01*
X39304382Y-37233073D01*
X39565972Y-37372896D01*
X39849814Y-37458999D01*
X40145000Y-37488072D01*
X41895000Y-37488072D01*
X42190186Y-37458999D01*
X42474028Y-37372896D01*
X42735618Y-37233073D01*
X42964903Y-37044903D01*
X43153073Y-36815618D01*
X43292896Y-36554028D01*
X43331928Y-36425357D01*
X43331928Y-39850000D01*
X43344188Y-39974482D01*
X43380498Y-40094180D01*
X43439463Y-40204494D01*
X43518815Y-40301185D01*
X43615506Y-40380537D01*
X43725820Y-40439502D01*
X43845518Y-40475812D01*
X43970000Y-40488072D01*
X47470000Y-40488072D01*
X47594482Y-40475812D01*
X47714180Y-40439502D01*
X47824494Y-40380537D01*
X47921185Y-40301185D01*
X48000537Y-40204494D01*
X48059502Y-40094180D01*
X48095812Y-39974482D01*
X48108072Y-39850000D01*
X48108072Y-37935000D01*
X58251928Y-37935000D01*
X58251928Y-39535000D01*
X58264188Y-39659482D01*
X58300498Y-39779180D01*
X58359463Y-39889494D01*
X58438815Y-39986185D01*
X58535506Y-40065537D01*
X58645820Y-40124502D01*
X58765518Y-40160812D01*
X58890000Y-40173072D01*
X60490000Y-40173072D01*
X60614482Y-40160812D01*
X60734180Y-40124502D01*
X60748701Y-40116740D01*
X69790865Y-40116740D01*
X69949764Y-40434758D01*
X70328632Y-40627959D01*
X70737913Y-40743534D01*
X71161876Y-40777042D01*
X71584230Y-40727194D01*
X71988744Y-40595908D01*
X72290236Y-40434758D01*
X72449135Y-40116740D01*
X71120000Y-38787605D01*
X69790865Y-40116740D01*
X60748701Y-40116740D01*
X60844494Y-40065537D01*
X60941185Y-39986185D01*
X61020537Y-39889494D01*
X61079502Y-39779180D01*
X61115812Y-39659482D01*
X61128072Y-39535000D01*
X61128072Y-38649876D01*
X68950958Y-38649876D01*
X69000806Y-39072230D01*
X69132092Y-39476744D01*
X69293242Y-39778236D01*
X69611260Y-39937135D01*
X70940395Y-38608000D01*
X71299605Y-38608000D01*
X72628740Y-39937135D01*
X72946758Y-39778236D01*
X73139959Y-39399368D01*
X73255534Y-38990087D01*
X73289042Y-38566124D01*
X73239194Y-38143770D01*
X73107908Y-37739256D01*
X72946758Y-37437764D01*
X72628740Y-37278865D01*
X71299605Y-38608000D01*
X70940395Y-38608000D01*
X69611260Y-37278865D01*
X69293242Y-37437764D01*
X69100041Y-37816632D01*
X68984466Y-38225913D01*
X68950958Y-38649876D01*
X61128072Y-38649876D01*
X61128072Y-37935000D01*
X61115812Y-37810518D01*
X61079502Y-37690820D01*
X61020537Y-37580506D01*
X60941185Y-37483815D01*
X60844494Y-37404463D01*
X60734180Y-37345498D01*
X60614482Y-37309188D01*
X60490000Y-37296928D01*
X58890000Y-37296928D01*
X58765518Y-37309188D01*
X58645820Y-37345498D01*
X58535506Y-37404463D01*
X58438815Y-37483815D01*
X58359463Y-37580506D01*
X58300498Y-37690820D01*
X58264188Y-37810518D01*
X58251928Y-37935000D01*
X48108072Y-37935000D01*
X48108072Y-37099260D01*
X69790865Y-37099260D01*
X71120000Y-38428395D01*
X72449135Y-37099260D01*
X72290236Y-36781242D01*
X71911368Y-36588041D01*
X71502087Y-36472466D01*
X71078124Y-36438958D01*
X70655770Y-36488806D01*
X70251256Y-36620092D01*
X69949764Y-36781242D01*
X69790865Y-37099260D01*
X48108072Y-37099260D01*
X48108072Y-36350000D01*
X48095812Y-36225518D01*
X48059502Y-36105820D01*
X48000537Y-35995506D01*
X47921185Y-35898815D01*
X47824494Y-35819463D01*
X47714180Y-35760498D01*
X47594482Y-35724188D01*
X47470000Y-35711928D01*
X43970000Y-35711928D01*
X43845518Y-35724188D01*
X43725820Y-35760498D01*
X43615506Y-35819463D01*
X43518815Y-35898815D01*
X43439463Y-35995506D01*
X43398506Y-36072131D01*
X43408072Y-35975000D01*
X43408072Y-34225000D01*
X43378999Y-33929814D01*
X43292896Y-33645972D01*
X43268324Y-33600000D01*
X43331928Y-33600000D01*
X43344188Y-33724482D01*
X43380498Y-33844180D01*
X43439463Y-33954494D01*
X43518815Y-34051185D01*
X43615506Y-34130537D01*
X43725820Y-34189502D01*
X43845518Y-34225812D01*
X43970000Y-34238072D01*
X45434250Y-34235000D01*
X45593000Y-34076250D01*
X45593000Y-32227000D01*
X45847000Y-32227000D01*
X45847000Y-34076250D01*
X46005750Y-34235000D01*
X47470000Y-34238072D01*
X47594482Y-34225812D01*
X47714180Y-34189502D01*
X47824494Y-34130537D01*
X47921185Y-34051185D01*
X48000537Y-33954494D01*
X48059502Y-33844180D01*
X48095812Y-33724482D01*
X48108072Y-33600000D01*
X48105000Y-32385750D01*
X47946250Y-32227000D01*
X45847000Y-32227000D01*
X45593000Y-32227000D01*
X43493750Y-32227000D01*
X43335000Y-32385750D01*
X43331928Y-33600000D01*
X43268324Y-33600000D01*
X43153073Y-33384382D01*
X42964903Y-33155097D01*
X42735618Y-32966927D01*
X42474028Y-32827104D01*
X42190186Y-32741001D01*
X41895000Y-32711928D01*
X40145000Y-32711928D01*
X39849814Y-32741001D01*
X39565972Y-32827104D01*
X39304382Y-32966927D01*
X39075097Y-33155097D01*
X38886927Y-33384382D01*
X38747104Y-33645972D01*
X38661001Y-33929814D01*
X38631928Y-34225000D01*
X32277533Y-34225000D01*
X31998904Y-33702008D01*
X31993828Y-33694411D01*
X31555374Y-33394231D01*
X29389605Y-35560000D01*
X29030395Y-35560000D01*
X26864626Y-33394231D01*
X26426172Y-33694411D01*
X26115704Y-34273356D01*
X25924148Y-34901746D01*
X25858866Y-35555431D01*
X25425000Y-35555431D01*
X25425000Y-33214626D01*
X27044231Y-33214626D01*
X29210000Y-35380395D01*
X31375769Y-33214626D01*
X31075589Y-32776172D01*
X30496644Y-32465704D01*
X29868254Y-32274148D01*
X29214569Y-32208866D01*
X28560707Y-32272366D01*
X27931797Y-32462208D01*
X27352008Y-32771096D01*
X27344411Y-32776172D01*
X27044231Y-33214626D01*
X25425000Y-33214626D01*
X25425000Y-31140000D01*
X34322419Y-31140000D01*
X34350865Y-31137198D01*
X34358682Y-31137253D01*
X34367853Y-31136354D01*
X34614357Y-31110446D01*
X34672986Y-31098411D01*
X34731716Y-31087208D01*
X34740532Y-31084546D01*
X34740536Y-31084545D01*
X34740539Y-31084544D01*
X34977314Y-31011249D01*
X35032457Y-30988069D01*
X35087920Y-30965661D01*
X35096054Y-30961335D01*
X35096059Y-30961333D01*
X35096064Y-30961330D01*
X35314086Y-30843447D01*
X35363654Y-30810012D01*
X35413735Y-30777241D01*
X35420876Y-30771416D01*
X35611856Y-30613423D01*
X35625185Y-30600000D01*
X43331928Y-30600000D01*
X43335000Y-31814250D01*
X43493750Y-31973000D01*
X45593000Y-31973000D01*
X45593000Y-30123750D01*
X45847000Y-30123750D01*
X45847000Y-31973000D01*
X47946250Y-31973000D01*
X48105000Y-31814250D01*
X48107313Y-30900000D01*
X54391928Y-30900000D01*
X54391928Y-32600000D01*
X54404188Y-32724482D01*
X54440498Y-32844180D01*
X54499463Y-32954494D01*
X54578815Y-33051185D01*
X54675506Y-33130537D01*
X54785820Y-33189502D01*
X54905518Y-33225812D01*
X55030000Y-33238072D01*
X56730000Y-33238072D01*
X56854482Y-33225812D01*
X56974180Y-33189502D01*
X57084494Y-33130537D01*
X57181185Y-33051185D01*
X57260537Y-32954494D01*
X57319502Y-32844180D01*
X57341513Y-32771620D01*
X57473368Y-32903475D01*
X57716589Y-33065990D01*
X57986842Y-33177932D01*
X58273740Y-33235000D01*
X58566260Y-33235000D01*
X58853158Y-33177932D01*
X59123411Y-33065990D01*
X59366632Y-32903475D01*
X59573475Y-32696632D01*
X59690000Y-32522240D01*
X59806525Y-32696632D01*
X60013368Y-32903475D01*
X60256589Y-33065990D01*
X60526842Y-33177932D01*
X60608031Y-33194082D01*
X62557863Y-35143914D01*
X62597630Y-35192370D01*
X62791012Y-35351075D01*
X63011641Y-35469003D01*
X63178416Y-35519594D01*
X63251036Y-35541623D01*
X63276755Y-35544156D01*
X63437620Y-35560000D01*
X63437626Y-35560000D01*
X63499999Y-35566143D01*
X63562372Y-35560000D01*
X74403950Y-35560000D01*
X80391000Y-41547051D01*
X80391001Y-73025000D01*
X63391052Y-73025000D01*
X61813916Y-71447866D01*
X61668987Y-71328926D01*
X61448359Y-71210998D01*
X61208963Y-71138377D01*
X60960000Y-71113857D01*
X60711037Y-71138377D01*
X60471641Y-71210998D01*
X60251013Y-71328926D01*
X60057630Y-71487630D01*
X59898926Y-71681013D01*
X59780998Y-71901641D01*
X59708377Y-72141037D01*
X59683857Y-72390000D01*
X59708377Y-72638963D01*
X59780998Y-72878359D01*
X59898926Y-73098987D01*
X60017866Y-73243916D01*
X61922868Y-75148919D01*
X61962630Y-75197370D01*
X62011080Y-75237132D01*
X62011083Y-75237135D01*
X62061086Y-75278171D01*
X62156012Y-75356075D01*
X62376641Y-75474003D01*
X62616037Y-75546623D01*
X62865000Y-75571144D01*
X62927380Y-75565000D01*
X81598620Y-75565000D01*
X81661000Y-75571144D01*
X81723380Y-75565000D01*
X86468950Y-75565000D01*
X89316083Y-78412134D01*
X89461012Y-78531074D01*
X89681640Y-78649002D01*
X89921036Y-78721623D01*
X90169999Y-78746143D01*
X90418963Y-78721623D01*
X90658359Y-78649002D01*
X90878987Y-78531074D01*
X91072370Y-78372370D01*
X91231074Y-78178987D01*
X91349002Y-77958359D01*
X91421623Y-77718963D01*
X91446143Y-77469999D01*
X91445694Y-77465431D01*
X114758866Y-77465431D01*
X114822366Y-78119293D01*
X115012208Y-78748203D01*
X115321096Y-79327992D01*
X115326172Y-79335589D01*
X115764626Y-79635769D01*
X117930395Y-77470000D01*
X118289605Y-77470000D01*
X120455374Y-79635769D01*
X120893828Y-79335589D01*
X121204296Y-78756644D01*
X121395852Y-78128254D01*
X121461134Y-77474569D01*
X121397634Y-76820707D01*
X121207792Y-76191797D01*
X120898904Y-75612008D01*
X120893828Y-75604411D01*
X120455374Y-75304231D01*
X118289605Y-77470000D01*
X117930395Y-77470000D01*
X115764626Y-75304231D01*
X115326172Y-75604411D01*
X115015704Y-76183356D01*
X114824148Y-76811746D01*
X114758866Y-77465431D01*
X91445694Y-77465431D01*
X91421623Y-77221036D01*
X91349002Y-76981640D01*
X91231074Y-76761012D01*
X91112134Y-76616083D01*
X89620677Y-75124626D01*
X115944231Y-75124626D01*
X118110000Y-77290395D01*
X120275769Y-75124626D01*
X119975589Y-74686172D01*
X119396644Y-74375704D01*
X118768254Y-74184148D01*
X118114569Y-74118866D01*
X117460707Y-74182366D01*
X116831797Y-74372208D01*
X116252008Y-74681096D01*
X116244411Y-74686172D01*
X115944231Y-75124626D01*
X89620677Y-75124626D01*
X87937141Y-73441091D01*
X87897370Y-73392630D01*
X87703988Y-73233925D01*
X87483359Y-73115997D01*
X87243963Y-73043377D01*
X87057380Y-73025000D01*
X87057373Y-73025000D01*
X86995000Y-73018857D01*
X86932627Y-73025000D01*
X82931000Y-73025000D01*
X82931000Y-62763061D01*
X99549000Y-62763061D01*
X99549000Y-62966939D01*
X99588774Y-63166898D01*
X99666795Y-63355256D01*
X99780063Y-63524774D01*
X99924226Y-63668937D01*
X100093744Y-63782205D01*
X100282102Y-63860226D01*
X100482061Y-63900000D01*
X100685939Y-63900000D01*
X100885898Y-63860226D01*
X101074256Y-63782205D01*
X101243774Y-63668937D01*
X101387937Y-63524774D01*
X101501205Y-63355256D01*
X101579226Y-63166898D01*
X101619000Y-62966939D01*
X101619000Y-62763061D01*
X101579226Y-62563102D01*
X101501205Y-62374744D01*
X101387937Y-62205226D01*
X101243774Y-62061063D01*
X101074256Y-61947795D01*
X100885898Y-61869774D01*
X100685939Y-61830000D01*
X100482061Y-61830000D01*
X100282102Y-61869774D01*
X100093744Y-61947795D01*
X99924226Y-62061063D01*
X99780063Y-62205226D01*
X99666795Y-62374744D01*
X99588774Y-62563102D01*
X99549000Y-62763061D01*
X82931000Y-62763061D01*
X82931000Y-54427702D01*
X98881903Y-54427702D01*
X98953486Y-54671671D01*
X99208996Y-54792571D01*
X99483184Y-54861300D01*
X99765512Y-54875217D01*
X100045130Y-54833787D01*
X100311292Y-54738603D01*
X100436514Y-54671671D01*
X100508097Y-54427702D01*
X99695000Y-53614605D01*
X98881903Y-54427702D01*
X82931000Y-54427702D01*
X82931000Y-53505512D01*
X98254783Y-53505512D01*
X98296213Y-53785130D01*
X98391397Y-54051292D01*
X98458329Y-54176514D01*
X98702298Y-54248097D01*
X99515395Y-53435000D01*
X99501253Y-53420858D01*
X99680858Y-53241253D01*
X99695000Y-53255395D01*
X99709143Y-53241253D01*
X99888748Y-53420858D01*
X99874605Y-53435000D01*
X100687702Y-54248097D01*
X100931671Y-54176514D01*
X101052571Y-53921004D01*
X101121300Y-53646816D01*
X101135217Y-53364488D01*
X101093787Y-53084870D01*
X100998603Y-52818708D01*
X100933384Y-52696691D01*
X100946185Y-52686185D01*
X101025537Y-52589494D01*
X101084502Y-52479180D01*
X101120812Y-52359482D01*
X101133072Y-52235000D01*
X101133072Y-50635000D01*
X101120812Y-50510518D01*
X101084502Y-50390820D01*
X101025537Y-50280506D01*
X100946185Y-50183815D01*
X100849494Y-50104463D01*
X100739180Y-50045498D01*
X100619482Y-50009188D01*
X100495000Y-49996928D01*
X98895000Y-49996928D01*
X98770518Y-50009188D01*
X98650820Y-50045498D01*
X98540506Y-50104463D01*
X98443815Y-50183815D01*
X98364463Y-50280506D01*
X98305498Y-50390820D01*
X98269188Y-50510518D01*
X98256928Y-50635000D01*
X98256928Y-52235000D01*
X98269188Y-52359482D01*
X98305498Y-52479180D01*
X98364463Y-52589494D01*
X98443815Y-52686185D01*
X98456758Y-52696807D01*
X98337429Y-52948996D01*
X98268700Y-53223184D01*
X98254783Y-53505512D01*
X82931000Y-53505512D01*
X82931000Y-51095357D01*
X89281000Y-51095357D01*
X89281000Y-51520643D01*
X89363970Y-51937757D01*
X89526719Y-52330670D01*
X89762996Y-52684282D01*
X90063718Y-52985004D01*
X90417330Y-53221281D01*
X90810243Y-53384030D01*
X91227357Y-53467000D01*
X91652643Y-53467000D01*
X92069757Y-53384030D01*
X92462670Y-53221281D01*
X92816282Y-52985004D01*
X93117004Y-52684282D01*
X93353281Y-52330670D01*
X93516030Y-51937757D01*
X93599000Y-51520643D01*
X93599000Y-51095357D01*
X93516030Y-50678243D01*
X93353281Y-50285330D01*
X93117004Y-49931718D01*
X92816282Y-49630996D01*
X92462670Y-49394719D01*
X92069757Y-49231970D01*
X91652643Y-49149000D01*
X91227357Y-49149000D01*
X90810243Y-49231970D01*
X90417330Y-49394719D01*
X90063718Y-49630996D01*
X89762996Y-49931718D01*
X89526719Y-50285330D01*
X89363970Y-50678243D01*
X89281000Y-51095357D01*
X82931000Y-51095357D01*
X82931000Y-42656740D01*
X90110865Y-42656740D01*
X90269764Y-42974758D01*
X90648632Y-43167959D01*
X91057913Y-43283534D01*
X91481876Y-43317042D01*
X91904230Y-43267194D01*
X92308744Y-43135908D01*
X92610236Y-42974758D01*
X92769135Y-42656740D01*
X91440000Y-41327605D01*
X90110865Y-42656740D01*
X82931000Y-42656740D01*
X82931000Y-41293050D01*
X83034174Y-41189876D01*
X89270958Y-41189876D01*
X89320806Y-41612230D01*
X89452092Y-42016744D01*
X89613242Y-42318236D01*
X89931260Y-42477135D01*
X91260395Y-41148000D01*
X91619605Y-41148000D01*
X92948740Y-42477135D01*
X93266758Y-42318236D01*
X93459959Y-41939368D01*
X93575534Y-41530087D01*
X93609042Y-41106124D01*
X93559194Y-40683770D01*
X93427908Y-40279256D01*
X93266758Y-39977764D01*
X92948740Y-39818865D01*
X91619605Y-41148000D01*
X91260395Y-41148000D01*
X89931260Y-39818865D01*
X89613242Y-39977764D01*
X89420041Y-40356632D01*
X89304466Y-40765913D01*
X89270958Y-41189876D01*
X83034174Y-41189876D01*
X84584790Y-39639260D01*
X90110865Y-39639260D01*
X91440000Y-40968395D01*
X92769135Y-39639260D01*
X92610236Y-39321242D01*
X92231368Y-39128041D01*
X91822087Y-39012466D01*
X91398124Y-38978958D01*
X90975770Y-39028806D01*
X90571256Y-39160092D01*
X90269764Y-39321242D01*
X90110865Y-39639260D01*
X84584790Y-39639260D01*
X86318676Y-37905374D01*
X115944231Y-37905374D01*
X116244411Y-38343828D01*
X116823356Y-38654296D01*
X117451746Y-38845852D01*
X118105431Y-38911134D01*
X118759293Y-38847634D01*
X119388203Y-38657792D01*
X119967992Y-38348904D01*
X119975589Y-38343828D01*
X120275769Y-37905374D01*
X118110000Y-35739605D01*
X115944231Y-37905374D01*
X86318676Y-37905374D01*
X88668619Y-35555431D01*
X114758866Y-35555431D01*
X114822366Y-36209293D01*
X115012208Y-36838203D01*
X115321096Y-37417992D01*
X115326172Y-37425589D01*
X115764626Y-37725769D01*
X117930395Y-35560000D01*
X118289605Y-35560000D01*
X120455374Y-37725769D01*
X120893828Y-37425589D01*
X121204296Y-36846644D01*
X121395852Y-36218254D01*
X121461134Y-35564569D01*
X121397634Y-34910707D01*
X121207792Y-34281797D01*
X120898904Y-33702008D01*
X120893828Y-33694411D01*
X120455374Y-33394231D01*
X118289605Y-35560000D01*
X117930395Y-35560000D01*
X115764626Y-33394231D01*
X115326172Y-33694411D01*
X115015704Y-34273356D01*
X114824148Y-34901746D01*
X114758866Y-35555431D01*
X88668619Y-35555431D01*
X91101988Y-33122062D01*
X91227357Y-33147000D01*
X91652643Y-33147000D01*
X92069757Y-33064030D01*
X92462670Y-32901281D01*
X92816282Y-32665004D01*
X93117004Y-32364282D01*
X93353281Y-32010670D01*
X93392908Y-31915000D01*
X98256928Y-31915000D01*
X98269188Y-32039482D01*
X98305498Y-32159180D01*
X98364463Y-32269494D01*
X98443815Y-32366185D01*
X98460393Y-32379790D01*
X98423320Y-32435273D01*
X98315147Y-32696426D01*
X98260000Y-32973665D01*
X98260000Y-33256335D01*
X98315147Y-33533574D01*
X98423320Y-33794727D01*
X98580363Y-34029759D01*
X98780241Y-34229637D01*
X99015273Y-34386680D01*
X99276426Y-34494853D01*
X99553665Y-34550000D01*
X99836335Y-34550000D01*
X100113574Y-34494853D01*
X100374727Y-34386680D01*
X100609759Y-34229637D01*
X100809637Y-34029759D01*
X100966680Y-33794727D01*
X101074853Y-33533574D01*
X101130000Y-33256335D01*
X101130000Y-33214626D01*
X115944231Y-33214626D01*
X118110000Y-35380395D01*
X120275769Y-33214626D01*
X119975589Y-32776172D01*
X119396644Y-32465704D01*
X118768254Y-32274148D01*
X118114569Y-32208866D01*
X117460707Y-32272366D01*
X116831797Y-32462208D01*
X116252008Y-32771096D01*
X116244411Y-32776172D01*
X115944231Y-33214626D01*
X101130000Y-33214626D01*
X101130000Y-32973665D01*
X101074853Y-32696426D01*
X100966680Y-32435273D01*
X100929607Y-32379790D01*
X100946185Y-32366185D01*
X101025537Y-32269494D01*
X101084502Y-32159180D01*
X101120812Y-32039482D01*
X101133072Y-31915000D01*
X101130000Y-31400750D01*
X100971250Y-31242000D01*
X99822000Y-31242000D01*
X99822000Y-31262000D01*
X99568000Y-31262000D01*
X99568000Y-31242000D01*
X98418750Y-31242000D01*
X98260000Y-31400750D01*
X98256928Y-31915000D01*
X93392908Y-31915000D01*
X93516030Y-31617757D01*
X93599000Y-31200643D01*
X93599000Y-30775357D01*
X93516030Y-30358243D01*
X93498119Y-30315000D01*
X98256928Y-30315000D01*
X98260000Y-30829250D01*
X98418750Y-30988000D01*
X99568000Y-30988000D01*
X99568000Y-29838750D01*
X99822000Y-29838750D01*
X99822000Y-30988000D01*
X100971250Y-30988000D01*
X101130000Y-30829250D01*
X101133072Y-30315000D01*
X101120812Y-30190518D01*
X101084502Y-30070820D01*
X101025537Y-29960506D01*
X100946185Y-29863815D01*
X100849494Y-29784463D01*
X100739180Y-29725498D01*
X100619482Y-29689188D01*
X100495000Y-29676928D01*
X99980750Y-29680000D01*
X99822000Y-29838750D01*
X99568000Y-29838750D01*
X99409250Y-29680000D01*
X98895000Y-29676928D01*
X98770518Y-29689188D01*
X98650820Y-29725498D01*
X98540506Y-29784463D01*
X98443815Y-29863815D01*
X98364463Y-29960506D01*
X98305498Y-30070820D01*
X98269188Y-30190518D01*
X98256928Y-30315000D01*
X93498119Y-30315000D01*
X93353281Y-29965330D01*
X93117004Y-29611718D01*
X92816282Y-29310996D01*
X92462670Y-29074719D01*
X92069757Y-28911970D01*
X91652643Y-28829000D01*
X91227357Y-28829000D01*
X90810243Y-28911970D01*
X90417330Y-29074719D01*
X90063718Y-29310996D01*
X89762996Y-29611718D01*
X89526719Y-29965330D01*
X89363970Y-30358243D01*
X89281000Y-30775357D01*
X89281000Y-31200643D01*
X89305938Y-31326012D01*
X81534000Y-39097950D01*
X75872141Y-33436091D01*
X75832370Y-33387630D01*
X75638988Y-33228925D01*
X75418359Y-33110997D01*
X75178963Y-33038377D01*
X74992380Y-33020000D01*
X74992373Y-33020000D01*
X74930000Y-33013857D01*
X74867627Y-33020000D01*
X64269120Y-33020000D01*
X64500269Y-32847588D01*
X64695178Y-32631355D01*
X64844157Y-32381252D01*
X64941481Y-32106891D01*
X64820814Y-31877000D01*
X63627000Y-31877000D01*
X63627000Y-31897000D01*
X63373000Y-31897000D01*
X63373000Y-31877000D01*
X63353000Y-31877000D01*
X63353000Y-31623000D01*
X63373000Y-31623000D01*
X63373000Y-30429845D01*
X63627000Y-30429845D01*
X63627000Y-31623000D01*
X64820814Y-31623000D01*
X64941481Y-31393109D01*
X64844157Y-31118748D01*
X64695178Y-30868645D01*
X64500269Y-30652412D01*
X64266920Y-30478359D01*
X64004099Y-30353175D01*
X63856890Y-30308524D01*
X63627000Y-30429845D01*
X63373000Y-30429845D01*
X63143110Y-30308524D01*
X62995901Y-30353175D01*
X62733080Y-30478359D01*
X62499731Y-30652412D01*
X62304822Y-30868645D01*
X62235195Y-30985534D01*
X62113475Y-30803368D01*
X61906632Y-30596525D01*
X61663411Y-30434010D01*
X61393158Y-30322068D01*
X61106260Y-30265000D01*
X60813740Y-30265000D01*
X60526842Y-30322068D01*
X60256589Y-30434010D01*
X60013368Y-30596525D01*
X59806525Y-30803368D01*
X59690000Y-30977760D01*
X59573475Y-30803368D01*
X59366632Y-30596525D01*
X59123411Y-30434010D01*
X58853158Y-30322068D01*
X58566260Y-30265000D01*
X58273740Y-30265000D01*
X57986842Y-30322068D01*
X57716589Y-30434010D01*
X57473368Y-30596525D01*
X57341513Y-30728380D01*
X57319502Y-30655820D01*
X57260537Y-30545506D01*
X57181185Y-30448815D01*
X57084494Y-30369463D01*
X56974180Y-30310498D01*
X56854482Y-30274188D01*
X56730000Y-30261928D01*
X55030000Y-30261928D01*
X54905518Y-30274188D01*
X54785820Y-30310498D01*
X54675506Y-30369463D01*
X54578815Y-30448815D01*
X54499463Y-30545506D01*
X54440498Y-30655820D01*
X54404188Y-30775518D01*
X54391928Y-30900000D01*
X48107313Y-30900000D01*
X48108072Y-30600000D01*
X48095812Y-30475518D01*
X48059502Y-30355820D01*
X48000537Y-30245506D01*
X47921185Y-30148815D01*
X47824494Y-30069463D01*
X47714180Y-30010498D01*
X47594482Y-29974188D01*
X47470000Y-29961928D01*
X46005750Y-29965000D01*
X45847000Y-30123750D01*
X45593000Y-30123750D01*
X45434250Y-29965000D01*
X43970000Y-29961928D01*
X43845518Y-29974188D01*
X43725820Y-30010498D01*
X43615506Y-30069463D01*
X43518815Y-30148815D01*
X43439463Y-30245506D01*
X43380498Y-30355820D01*
X43344188Y-30475518D01*
X43331928Y-30600000D01*
X35625185Y-30600000D01*
X35653995Y-30570988D01*
X35696745Y-30529125D01*
X35702618Y-30522024D01*
X35859273Y-30329947D01*
X35892374Y-30280125D01*
X35926173Y-30230763D01*
X35930556Y-30222657D01*
X36046919Y-30003809D01*
X36069707Y-29948521D01*
X36093279Y-29893525D01*
X36096003Y-29884722D01*
X36167643Y-29647441D01*
X36179264Y-29588754D01*
X36191700Y-29530248D01*
X36192663Y-29521083D01*
X36216850Y-29274405D01*
X36216850Y-29274402D01*
X36220000Y-29242419D01*
X36220000Y-26060000D01*
X111100000Y-26060000D01*
X111100001Y-29242419D01*
%TA.AperFunction,Conductor*%
D21*
G36*
X111100001Y-29242419D02*
G01*
X111102802Y-29270855D01*
X111102747Y-29278682D01*
X111103646Y-29287853D01*
X111129554Y-29534357D01*
X111141589Y-29592986D01*
X111152792Y-29651716D01*
X111155456Y-29660538D01*
X111228751Y-29897314D01*
X111251931Y-29952457D01*
X111274339Y-30007920D01*
X111278665Y-30016054D01*
X111278667Y-30016059D01*
X111278670Y-30016064D01*
X111396553Y-30234086D01*
X111429988Y-30283654D01*
X111462759Y-30333735D01*
X111468584Y-30340876D01*
X111626577Y-30531856D01*
X111669012Y-30573995D01*
X111710875Y-30616745D01*
X111717976Y-30622618D01*
X111910053Y-30779273D01*
X111959875Y-30812374D01*
X112009237Y-30846173D01*
X112017343Y-30850556D01*
X112236191Y-30966919D01*
X112291479Y-30989707D01*
X112346475Y-31013279D01*
X112355278Y-31016003D01*
X112592559Y-31087643D01*
X112651246Y-31099264D01*
X112709752Y-31111700D01*
X112718915Y-31112663D01*
X112718917Y-31112663D01*
X112965595Y-31136850D01*
X112965598Y-31136850D01*
X112997581Y-31140000D01*
X121895000Y-31140000D01*
X121895001Y-80620000D01*
X119215248Y-80620000D01*
X119388203Y-80567792D01*
X119967992Y-80258904D01*
X119975589Y-80253828D01*
X120275769Y-79815374D01*
X118110000Y-77649605D01*
X115944231Y-79815374D01*
X116244411Y-80253828D01*
X116823356Y-80564296D01*
X117006090Y-80620000D01*
X112997581Y-80620000D01*
X112969135Y-80622802D01*
X112961318Y-80622747D01*
X112952147Y-80623646D01*
X112705644Y-80649554D01*
X112647028Y-80661586D01*
X112588284Y-80672792D01*
X112579462Y-80675456D01*
X112342686Y-80748751D01*
X112287555Y-80771926D01*
X112232080Y-80794339D01*
X112223944Y-80798666D01*
X112005914Y-80916554D01*
X111956346Y-80949988D01*
X111906265Y-80982760D01*
X111899124Y-80988584D01*
X111708144Y-81146577D01*
X111666005Y-81189012D01*
X111623255Y-81230875D01*
X111617381Y-81237976D01*
X111460727Y-81430054D01*
X111427655Y-81479831D01*
X111393826Y-81529237D01*
X111389444Y-81537343D01*
X111273081Y-81756191D01*
X111250298Y-81811468D01*
X111226721Y-81866475D01*
X111223997Y-81875278D01*
X111152357Y-82112559D01*
X111140736Y-82171246D01*
X111128300Y-82229752D01*
X111127337Y-82238917D01*
X111103150Y-82485595D01*
X111100000Y-82517582D01*
X111100001Y-85700000D01*
X108277178Y-85700000D01*
X108275000Y-84413750D01*
X108116250Y-84255000D01*
X107092000Y-84255000D01*
X107092000Y-84275000D01*
X106838000Y-84275000D01*
X106838000Y-84255000D01*
X105813750Y-84255000D01*
X105655000Y-84413750D01*
X105652822Y-85700000D01*
X102627178Y-85700000D01*
X102625000Y-84413750D01*
X102466250Y-84255000D01*
X101442000Y-84255000D01*
X101442000Y-84275000D01*
X101188000Y-84275000D01*
X101188000Y-84255000D01*
X100163750Y-84255000D01*
X100005000Y-84413750D01*
X100002822Y-85700000D01*
X87957178Y-85700000D01*
X87955000Y-84413750D01*
X87796250Y-84255000D01*
X86772000Y-84255000D01*
X86772000Y-84275000D01*
X86518000Y-84275000D01*
X86518000Y-84255000D01*
X85493750Y-84255000D01*
X85335000Y-84413750D01*
X85332822Y-85700000D01*
X82307178Y-85700000D01*
X82305000Y-84413750D01*
X82146250Y-84255000D01*
X81122000Y-84255000D01*
X81122000Y-84275000D01*
X80868000Y-84275000D01*
X80868000Y-84255000D01*
X79843750Y-84255000D01*
X79685000Y-84413750D01*
X79682822Y-85700000D01*
X67637178Y-85700000D01*
X67635000Y-84413750D01*
X67476250Y-84255000D01*
X66452000Y-84255000D01*
X66452000Y-84275000D01*
X66198000Y-84275000D01*
X66198000Y-84255000D01*
X65173750Y-84255000D01*
X65015000Y-84413750D01*
X65012822Y-85700000D01*
X61987178Y-85700000D01*
X61985000Y-84413750D01*
X61826250Y-84255000D01*
X60802000Y-84255000D01*
X60802000Y-84275000D01*
X60548000Y-84275000D01*
X60548000Y-84255000D01*
X59523750Y-84255000D01*
X59365000Y-84413750D01*
X59362822Y-85700000D01*
X47317178Y-85700000D01*
X47315000Y-84413750D01*
X47156250Y-84255000D01*
X46132000Y-84255000D01*
X46132000Y-84275000D01*
X45878000Y-84275000D01*
X45878000Y-84255000D01*
X44853750Y-84255000D01*
X44695000Y-84413750D01*
X44692822Y-85700000D01*
X41667178Y-85700000D01*
X41665000Y-84413750D01*
X41506250Y-84255000D01*
X40482000Y-84255000D01*
X40482000Y-84275000D01*
X40228000Y-84275000D01*
X40228000Y-84255000D01*
X39203750Y-84255000D01*
X39045000Y-84413750D01*
X39042822Y-85700000D01*
X36220000Y-85700000D01*
X36220000Y-82517581D01*
X36217198Y-82489135D01*
X36217253Y-82481318D01*
X36216354Y-82472147D01*
X36190446Y-82225644D01*
X36178414Y-82167028D01*
X36167208Y-82108284D01*
X36164544Y-82099462D01*
X36142423Y-82028000D01*
X39041928Y-82028000D01*
X39045000Y-83842250D01*
X39203750Y-84001000D01*
X40228000Y-84001000D01*
X40228000Y-81551750D01*
X40482000Y-81551750D01*
X40482000Y-84001000D01*
X41506250Y-84001000D01*
X41665000Y-83842250D01*
X41668072Y-82028000D01*
X44691928Y-82028000D01*
X44695000Y-83842250D01*
X44853750Y-84001000D01*
X45878000Y-84001000D01*
X45878000Y-81551750D01*
X46132000Y-81551750D01*
X46132000Y-84001000D01*
X47156250Y-84001000D01*
X47315000Y-83842250D01*
X47318072Y-82028000D01*
X59361928Y-82028000D01*
X59365000Y-83842250D01*
X59523750Y-84001000D01*
X60548000Y-84001000D01*
X60548000Y-81551750D01*
X60802000Y-81551750D01*
X60802000Y-84001000D01*
X61826250Y-84001000D01*
X61985000Y-83842250D01*
X61988072Y-82028000D01*
X65011928Y-82028000D01*
X65015000Y-83842250D01*
X65173750Y-84001000D01*
X66198000Y-84001000D01*
X66198000Y-81551750D01*
X66452000Y-81551750D01*
X66452000Y-84001000D01*
X67476250Y-84001000D01*
X67635000Y-83842250D01*
X67638072Y-82028000D01*
X79681928Y-82028000D01*
X79685000Y-83842250D01*
X79843750Y-84001000D01*
X80868000Y-84001000D01*
X80868000Y-81551750D01*
X81122000Y-81551750D01*
X81122000Y-84001000D01*
X82146250Y-84001000D01*
X82305000Y-83842250D01*
X82308072Y-82028000D01*
X85331928Y-82028000D01*
X85335000Y-83842250D01*
X85493750Y-84001000D01*
X86518000Y-84001000D01*
X86518000Y-81551750D01*
X86772000Y-81551750D01*
X86772000Y-84001000D01*
X87796250Y-84001000D01*
X87955000Y-83842250D01*
X87958072Y-82028000D01*
X100001928Y-82028000D01*
X100005000Y-83842250D01*
X100163750Y-84001000D01*
X101188000Y-84001000D01*
X101188000Y-81551750D01*
X101442000Y-81551750D01*
X101442000Y-84001000D01*
X102466250Y-84001000D01*
X102625000Y-83842250D01*
X102628072Y-82028000D01*
X105651928Y-82028000D01*
X105655000Y-83842250D01*
X105813750Y-84001000D01*
X106838000Y-84001000D01*
X106838000Y-81551750D01*
X107092000Y-81551750D01*
X107092000Y-84001000D01*
X108116250Y-84001000D01*
X108275000Y-83842250D01*
X108278072Y-82028000D01*
X108265812Y-81903518D01*
X108229502Y-81783820D01*
X108170537Y-81673506D01*
X108091185Y-81576815D01*
X107994494Y-81497463D01*
X107884180Y-81438498D01*
X107764482Y-81402188D01*
X107640000Y-81389928D01*
X107250750Y-81393000D01*
X107092000Y-81551750D01*
X106838000Y-81551750D01*
X106679250Y-81393000D01*
X106290000Y-81389928D01*
X106165518Y-81402188D01*
X106045820Y-81438498D01*
X105935506Y-81497463D01*
X105838815Y-81576815D01*
X105759463Y-81673506D01*
X105700498Y-81783820D01*
X105664188Y-81903518D01*
X105651928Y-82028000D01*
X102628072Y-82028000D01*
X102615812Y-81903518D01*
X102579502Y-81783820D01*
X102520537Y-81673506D01*
X102441185Y-81576815D01*
X102344494Y-81497463D01*
X102234180Y-81438498D01*
X102114482Y-81402188D01*
X101990000Y-81389928D01*
X101600750Y-81393000D01*
X101442000Y-81551750D01*
X101188000Y-81551750D01*
X101029250Y-81393000D01*
X100640000Y-81389928D01*
X100515518Y-81402188D01*
X100395820Y-81438498D01*
X100285506Y-81497463D01*
X100188815Y-81576815D01*
X100109463Y-81673506D01*
X100050498Y-81783820D01*
X100014188Y-81903518D01*
X100001928Y-82028000D01*
X87958072Y-82028000D01*
X87945812Y-81903518D01*
X87909502Y-81783820D01*
X87850537Y-81673506D01*
X87771185Y-81576815D01*
X87674494Y-81497463D01*
X87564180Y-81438498D01*
X87444482Y-81402188D01*
X87320000Y-81389928D01*
X86930750Y-81393000D01*
X86772000Y-81551750D01*
X86518000Y-81551750D01*
X86359250Y-81393000D01*
X85970000Y-81389928D01*
X85845518Y-81402188D01*
X85725820Y-81438498D01*
X85615506Y-81497463D01*
X85518815Y-81576815D01*
X85439463Y-81673506D01*
X85380498Y-81783820D01*
X85344188Y-81903518D01*
X85331928Y-82028000D01*
X82308072Y-82028000D01*
X82295812Y-81903518D01*
X82259502Y-81783820D01*
X82200537Y-81673506D01*
X82121185Y-81576815D01*
X82024494Y-81497463D01*
X81914180Y-81438498D01*
X81794482Y-81402188D01*
X81670000Y-81389928D01*
X81280750Y-81393000D01*
X81122000Y-81551750D01*
X80868000Y-81551750D01*
X80709250Y-81393000D01*
X80320000Y-81389928D01*
X80195518Y-81402188D01*
X80075820Y-81438498D01*
X79965506Y-81497463D01*
X79868815Y-81576815D01*
X79789463Y-81673506D01*
X79730498Y-81783820D01*
X79694188Y-81903518D01*
X79681928Y-82028000D01*
X67638072Y-82028000D01*
X67625812Y-81903518D01*
X67589502Y-81783820D01*
X67530537Y-81673506D01*
X67451185Y-81576815D01*
X67354494Y-81497463D01*
X67244180Y-81438498D01*
X67124482Y-81402188D01*
X67000000Y-81389928D01*
X66610750Y-81393000D01*
X66452000Y-81551750D01*
X66198000Y-81551750D01*
X66039250Y-81393000D01*
X65650000Y-81389928D01*
X65525518Y-81402188D01*
X65405820Y-81438498D01*
X65295506Y-81497463D01*
X65198815Y-81576815D01*
X65119463Y-81673506D01*
X65060498Y-81783820D01*
X65024188Y-81903518D01*
X65011928Y-82028000D01*
X61988072Y-82028000D01*
X61975812Y-81903518D01*
X61939502Y-81783820D01*
X61880537Y-81673506D01*
X61801185Y-81576815D01*
X61704494Y-81497463D01*
X61594180Y-81438498D01*
X61474482Y-81402188D01*
X61350000Y-81389928D01*
X60960750Y-81393000D01*
X60802000Y-81551750D01*
X60548000Y-81551750D01*
X60389250Y-81393000D01*
X60000000Y-81389928D01*
X59875518Y-81402188D01*
X59755820Y-81438498D01*
X59645506Y-81497463D01*
X59548815Y-81576815D01*
X59469463Y-81673506D01*
X59410498Y-81783820D01*
X59374188Y-81903518D01*
X59361928Y-82028000D01*
X47318072Y-82028000D01*
X47305812Y-81903518D01*
X47269502Y-81783820D01*
X47210537Y-81673506D01*
X47131185Y-81576815D01*
X47034494Y-81497463D01*
X46924180Y-81438498D01*
X46804482Y-81402188D01*
X46680000Y-81389928D01*
X46290750Y-81393000D01*
X46132000Y-81551750D01*
X45878000Y-81551750D01*
X45719250Y-81393000D01*
X45330000Y-81389928D01*
X45205518Y-81402188D01*
X45085820Y-81438498D01*
X44975506Y-81497463D01*
X44878815Y-81576815D01*
X44799463Y-81673506D01*
X44740498Y-81783820D01*
X44704188Y-81903518D01*
X44691928Y-82028000D01*
X41668072Y-82028000D01*
X41655812Y-81903518D01*
X41619502Y-81783820D01*
X41560537Y-81673506D01*
X41481185Y-81576815D01*
X41384494Y-81497463D01*
X41274180Y-81438498D01*
X41154482Y-81402188D01*
X41030000Y-81389928D01*
X40640750Y-81393000D01*
X40482000Y-81551750D01*
X40228000Y-81551750D01*
X40069250Y-81393000D01*
X39680000Y-81389928D01*
X39555518Y-81402188D01*
X39435820Y-81438498D01*
X39325506Y-81497463D01*
X39228815Y-81576815D01*
X39149463Y-81673506D01*
X39090498Y-81783820D01*
X39054188Y-81903518D01*
X39041928Y-82028000D01*
X36142423Y-82028000D01*
X36091249Y-81862686D01*
X36068074Y-81807555D01*
X36045661Y-81752080D01*
X36041334Y-81743944D01*
X35923446Y-81525914D01*
X35890012Y-81476346D01*
X35857240Y-81426265D01*
X35851416Y-81419124D01*
X35693423Y-81228144D01*
X35650988Y-81186005D01*
X35609125Y-81143255D01*
X35602024Y-81137381D01*
X35409946Y-80980727D01*
X35360169Y-80947655D01*
X35310763Y-80913826D01*
X35302657Y-80909444D01*
X35083809Y-80793081D01*
X35028532Y-80770298D01*
X34973525Y-80746721D01*
X34964722Y-80743997D01*
X34727441Y-80672357D01*
X34668754Y-80660736D01*
X34610248Y-80648300D01*
X34601085Y-80647337D01*
X34601083Y-80647337D01*
X34354405Y-80623150D01*
X34354402Y-80623150D01*
X34322419Y-80620000D01*
X30315248Y-80620000D01*
X30488203Y-80567792D01*
X31067992Y-80258904D01*
X31075589Y-80253828D01*
X31375769Y-79815374D01*
X29210000Y-77649605D01*
X27044231Y-79815374D01*
X27344411Y-80253828D01*
X27923356Y-80564296D01*
X28106090Y-80620000D01*
X25425000Y-80620000D01*
X25425000Y-77465431D01*
X25858866Y-77465431D01*
X25922366Y-78119293D01*
X26112208Y-78748203D01*
X26421096Y-79327992D01*
X26426172Y-79335589D01*
X26864626Y-79635769D01*
X29030395Y-77470000D01*
X29389605Y-77470000D01*
X31555374Y-79635769D01*
X31993828Y-79335589D01*
X32304296Y-78756644D01*
X32495852Y-78128254D01*
X32561134Y-77474569D01*
X32550791Y-77368061D01*
X79610000Y-77368061D01*
X79610000Y-77571939D01*
X79649774Y-77771898D01*
X79727795Y-77960256D01*
X79841063Y-78129774D01*
X79985226Y-78273937D01*
X80154744Y-78387205D01*
X80343102Y-78465226D01*
X80543061Y-78505000D01*
X80746939Y-78505000D01*
X80946898Y-78465226D01*
X81135256Y-78387205D01*
X81304774Y-78273937D01*
X81448937Y-78129774D01*
X81562205Y-77960256D01*
X81640226Y-77771898D01*
X81680000Y-77571939D01*
X81680000Y-77368061D01*
X81640226Y-77168102D01*
X81562205Y-76979744D01*
X81448937Y-76810226D01*
X81304774Y-76666063D01*
X81135256Y-76552795D01*
X80946898Y-76474774D01*
X80746939Y-76435000D01*
X80543061Y-76435000D01*
X80343102Y-76474774D01*
X80154744Y-76552795D01*
X79985226Y-76666063D01*
X79841063Y-76810226D01*
X79727795Y-76979744D01*
X79649774Y-77168102D01*
X79610000Y-77368061D01*
X32550791Y-77368061D01*
X32497634Y-76820707D01*
X32307792Y-76191797D01*
X31998904Y-75612008D01*
X31993828Y-75604411D01*
X31555374Y-75304231D01*
X29389605Y-77470000D01*
X29030395Y-77470000D01*
X26864626Y-75304231D01*
X26426172Y-75604411D01*
X26115704Y-76183356D01*
X25924148Y-76811746D01*
X25858866Y-77465431D01*
X25425000Y-77465431D01*
X25425000Y-75124626D01*
X27044231Y-75124626D01*
X29210000Y-77290395D01*
X31375769Y-75124626D01*
X31075589Y-74686172D01*
X30496644Y-74375704D01*
X29868254Y-74184148D01*
X29214569Y-74118866D01*
X28560707Y-74182366D01*
X27931797Y-74372208D01*
X27352008Y-74681096D01*
X27344411Y-74686172D01*
X27044231Y-75124626D01*
X25425000Y-75124626D01*
X25425000Y-64160061D01*
X47733000Y-64160061D01*
X47733000Y-64363939D01*
X47772774Y-64563898D01*
X47850795Y-64752256D01*
X47964063Y-64921774D01*
X48108226Y-65065937D01*
X48277744Y-65179205D01*
X48466102Y-65257226D01*
X48666061Y-65297000D01*
X48869939Y-65297000D01*
X49069898Y-65257226D01*
X49258256Y-65179205D01*
X49427774Y-65065937D01*
X49571937Y-64921774D01*
X49685205Y-64752256D01*
X49763226Y-64563898D01*
X49803000Y-64363939D01*
X49803000Y-64160061D01*
X49763226Y-63960102D01*
X49685205Y-63771744D01*
X49571937Y-63602226D01*
X49427774Y-63458063D01*
X49258256Y-63344795D01*
X49069898Y-63266774D01*
X48869939Y-63227000D01*
X48666061Y-63227000D01*
X48466102Y-63266774D01*
X48277744Y-63344795D01*
X48108226Y-63458063D01*
X47964063Y-63602226D01*
X47850795Y-63771744D01*
X47772774Y-63960102D01*
X47733000Y-64160061D01*
X25425000Y-64160061D01*
X25425000Y-44727702D01*
X58876903Y-44727702D01*
X58948486Y-44971671D01*
X59203996Y-45092571D01*
X59478184Y-45161300D01*
X59760512Y-45175217D01*
X60040130Y-45133787D01*
X60306292Y-45038603D01*
X60431514Y-44971671D01*
X60503097Y-44727702D01*
X59690000Y-43914605D01*
X58876903Y-44727702D01*
X25425000Y-44727702D01*
X25425000Y-43805512D01*
X58249783Y-43805512D01*
X58291213Y-44085130D01*
X58386397Y-44351292D01*
X58453329Y-44476514D01*
X58697298Y-44548097D01*
X59510395Y-43735000D01*
X59869605Y-43735000D01*
X60682702Y-44548097D01*
X60926671Y-44476514D01*
X61047571Y-44221004D01*
X61116300Y-43946816D01*
X61130217Y-43664488D01*
X61102195Y-43475357D01*
X68961000Y-43475357D01*
X68961000Y-43900643D01*
X69043970Y-44317757D01*
X69206719Y-44710670D01*
X69442996Y-45064282D01*
X69743718Y-45365004D01*
X70097330Y-45601281D01*
X70490243Y-45764030D01*
X70907357Y-45847000D01*
X71332643Y-45847000D01*
X71749757Y-45764030D01*
X72142670Y-45601281D01*
X72496282Y-45365004D01*
X72797004Y-45064282D01*
X73033281Y-44710670D01*
X73196030Y-44317757D01*
X73279000Y-43900643D01*
X73279000Y-43475357D01*
X73196030Y-43058243D01*
X73033281Y-42665330D01*
X72797004Y-42311718D01*
X72496282Y-42010996D01*
X72142670Y-41774719D01*
X71749757Y-41611970D01*
X71332643Y-41529000D01*
X70907357Y-41529000D01*
X70490243Y-41611970D01*
X70097330Y-41774719D01*
X69743718Y-42010996D01*
X69442996Y-42311718D01*
X69206719Y-42665330D01*
X69043970Y-43058243D01*
X68961000Y-43475357D01*
X61102195Y-43475357D01*
X61088787Y-43384870D01*
X60993603Y-43118708D01*
X60926671Y-42993486D01*
X60682702Y-42921903D01*
X59869605Y-43735000D01*
X59510395Y-43735000D01*
X58697298Y-42921903D01*
X58453329Y-42993486D01*
X58332429Y-43248996D01*
X58263700Y-43523184D01*
X58249783Y-43805512D01*
X25425000Y-43805512D01*
X25425000Y-42742298D01*
X58876903Y-42742298D01*
X59690000Y-43555395D01*
X60503097Y-42742298D01*
X60431514Y-42498329D01*
X60176004Y-42377429D01*
X59901816Y-42308700D01*
X59619488Y-42294783D01*
X59339870Y-42336213D01*
X59073708Y-42431397D01*
X58948486Y-42498329D01*
X58876903Y-42742298D01*
X25425000Y-42742298D01*
X25425000Y-37905374D01*
X27044231Y-37905374D01*
X27344411Y-38343828D01*
X27923356Y-38654296D01*
X28551746Y-38845852D01*
X29205431Y-38911134D01*
X29859293Y-38847634D01*
X30488203Y-38657792D01*
X31067992Y-38348904D01*
X31075589Y-38343828D01*
X31375769Y-37905374D01*
X29210000Y-35739605D01*
X27044231Y-37905374D01*
X25425000Y-37905374D01*
X25425000Y-35555431D01*
X25858866Y-35555431D01*
X25922366Y-36209293D01*
X26112208Y-36838203D01*
X26421096Y-37417992D01*
X26426172Y-37425589D01*
X26864626Y-37725769D01*
X29030395Y-35560000D01*
X29389605Y-35560000D01*
X31555374Y-37725769D01*
X31993828Y-37425589D01*
X32304296Y-36846644D01*
X32495852Y-36218254D01*
X32561134Y-35564569D01*
X32497634Y-34910707D01*
X32307792Y-34281797D01*
X32277533Y-34225000D01*
X38631928Y-34225000D01*
X38631928Y-35975000D01*
X38661001Y-36270186D01*
X38747104Y-36554028D01*
X38886927Y-36815618D01*
X39075097Y-37044903D01*
X39304382Y-37233073D01*
X39565972Y-37372896D01*
X39849814Y-37458999D01*
X40145000Y-37488072D01*
X41895000Y-37488072D01*
X42190186Y-37458999D01*
X42474028Y-37372896D01*
X42735618Y-37233073D01*
X42964903Y-37044903D01*
X43153073Y-36815618D01*
X43292896Y-36554028D01*
X43331928Y-36425357D01*
X43331928Y-39850000D01*
X43344188Y-39974482D01*
X43380498Y-40094180D01*
X43439463Y-40204494D01*
X43518815Y-40301185D01*
X43615506Y-40380537D01*
X43725820Y-40439502D01*
X43845518Y-40475812D01*
X43970000Y-40488072D01*
X47470000Y-40488072D01*
X47594482Y-40475812D01*
X47714180Y-40439502D01*
X47824494Y-40380537D01*
X47921185Y-40301185D01*
X48000537Y-40204494D01*
X48059502Y-40094180D01*
X48095812Y-39974482D01*
X48108072Y-39850000D01*
X48108072Y-37935000D01*
X58251928Y-37935000D01*
X58251928Y-39535000D01*
X58264188Y-39659482D01*
X58300498Y-39779180D01*
X58359463Y-39889494D01*
X58438815Y-39986185D01*
X58535506Y-40065537D01*
X58645820Y-40124502D01*
X58765518Y-40160812D01*
X58890000Y-40173072D01*
X60490000Y-40173072D01*
X60614482Y-40160812D01*
X60734180Y-40124502D01*
X60748701Y-40116740D01*
X69790865Y-40116740D01*
X69949764Y-40434758D01*
X70328632Y-40627959D01*
X70737913Y-40743534D01*
X71161876Y-40777042D01*
X71584230Y-40727194D01*
X71988744Y-40595908D01*
X72290236Y-40434758D01*
X72449135Y-40116740D01*
X71120000Y-38787605D01*
X69790865Y-40116740D01*
X60748701Y-40116740D01*
X60844494Y-40065537D01*
X60941185Y-39986185D01*
X61020537Y-39889494D01*
X61079502Y-39779180D01*
X61115812Y-39659482D01*
X61128072Y-39535000D01*
X61128072Y-38649876D01*
X68950958Y-38649876D01*
X69000806Y-39072230D01*
X69132092Y-39476744D01*
X69293242Y-39778236D01*
X69611260Y-39937135D01*
X70940395Y-38608000D01*
X71299605Y-38608000D01*
X72628740Y-39937135D01*
X72946758Y-39778236D01*
X73139959Y-39399368D01*
X73255534Y-38990087D01*
X73289042Y-38566124D01*
X73239194Y-38143770D01*
X73107908Y-37739256D01*
X72946758Y-37437764D01*
X72628740Y-37278865D01*
X71299605Y-38608000D01*
X70940395Y-38608000D01*
X69611260Y-37278865D01*
X69293242Y-37437764D01*
X69100041Y-37816632D01*
X68984466Y-38225913D01*
X68950958Y-38649876D01*
X61128072Y-38649876D01*
X61128072Y-37935000D01*
X61115812Y-37810518D01*
X61079502Y-37690820D01*
X61020537Y-37580506D01*
X60941185Y-37483815D01*
X60844494Y-37404463D01*
X60734180Y-37345498D01*
X60614482Y-37309188D01*
X60490000Y-37296928D01*
X58890000Y-37296928D01*
X58765518Y-37309188D01*
X58645820Y-37345498D01*
X58535506Y-37404463D01*
X58438815Y-37483815D01*
X58359463Y-37580506D01*
X58300498Y-37690820D01*
X58264188Y-37810518D01*
X58251928Y-37935000D01*
X48108072Y-37935000D01*
X48108072Y-37099260D01*
X69790865Y-37099260D01*
X71120000Y-38428395D01*
X72449135Y-37099260D01*
X72290236Y-36781242D01*
X71911368Y-36588041D01*
X71502087Y-36472466D01*
X71078124Y-36438958D01*
X70655770Y-36488806D01*
X70251256Y-36620092D01*
X69949764Y-36781242D01*
X69790865Y-37099260D01*
X48108072Y-37099260D01*
X48108072Y-36350000D01*
X48095812Y-36225518D01*
X48059502Y-36105820D01*
X48000537Y-35995506D01*
X47921185Y-35898815D01*
X47824494Y-35819463D01*
X47714180Y-35760498D01*
X47594482Y-35724188D01*
X47470000Y-35711928D01*
X43970000Y-35711928D01*
X43845518Y-35724188D01*
X43725820Y-35760498D01*
X43615506Y-35819463D01*
X43518815Y-35898815D01*
X43439463Y-35995506D01*
X43398506Y-36072131D01*
X43408072Y-35975000D01*
X43408072Y-34225000D01*
X43378999Y-33929814D01*
X43292896Y-33645972D01*
X43268324Y-33600000D01*
X43331928Y-33600000D01*
X43344188Y-33724482D01*
X43380498Y-33844180D01*
X43439463Y-33954494D01*
X43518815Y-34051185D01*
X43615506Y-34130537D01*
X43725820Y-34189502D01*
X43845518Y-34225812D01*
X43970000Y-34238072D01*
X45434250Y-34235000D01*
X45593000Y-34076250D01*
X45593000Y-32227000D01*
X45847000Y-32227000D01*
X45847000Y-34076250D01*
X46005750Y-34235000D01*
X47470000Y-34238072D01*
X47594482Y-34225812D01*
X47714180Y-34189502D01*
X47824494Y-34130537D01*
X47921185Y-34051185D01*
X48000537Y-33954494D01*
X48059502Y-33844180D01*
X48095812Y-33724482D01*
X48108072Y-33600000D01*
X48105000Y-32385750D01*
X47946250Y-32227000D01*
X45847000Y-32227000D01*
X45593000Y-32227000D01*
X43493750Y-32227000D01*
X43335000Y-32385750D01*
X43331928Y-33600000D01*
X43268324Y-33600000D01*
X43153073Y-33384382D01*
X42964903Y-33155097D01*
X42735618Y-32966927D01*
X42474028Y-32827104D01*
X42190186Y-32741001D01*
X41895000Y-32711928D01*
X40145000Y-32711928D01*
X39849814Y-32741001D01*
X39565972Y-32827104D01*
X39304382Y-32966927D01*
X39075097Y-33155097D01*
X38886927Y-33384382D01*
X38747104Y-33645972D01*
X38661001Y-33929814D01*
X38631928Y-34225000D01*
X32277533Y-34225000D01*
X31998904Y-33702008D01*
X31993828Y-33694411D01*
X31555374Y-33394231D01*
X29389605Y-35560000D01*
X29030395Y-35560000D01*
X26864626Y-33394231D01*
X26426172Y-33694411D01*
X26115704Y-34273356D01*
X25924148Y-34901746D01*
X25858866Y-35555431D01*
X25425000Y-35555431D01*
X25425000Y-33214626D01*
X27044231Y-33214626D01*
X29210000Y-35380395D01*
X31375769Y-33214626D01*
X31075589Y-32776172D01*
X30496644Y-32465704D01*
X29868254Y-32274148D01*
X29214569Y-32208866D01*
X28560707Y-32272366D01*
X27931797Y-32462208D01*
X27352008Y-32771096D01*
X27344411Y-32776172D01*
X27044231Y-33214626D01*
X25425000Y-33214626D01*
X25425000Y-31140000D01*
X34322419Y-31140000D01*
X34350865Y-31137198D01*
X34358682Y-31137253D01*
X34367853Y-31136354D01*
X34614357Y-31110446D01*
X34672986Y-31098411D01*
X34731716Y-31087208D01*
X34740532Y-31084546D01*
X34740536Y-31084545D01*
X34740539Y-31084544D01*
X34977314Y-31011249D01*
X35032457Y-30988069D01*
X35087920Y-30965661D01*
X35096054Y-30961335D01*
X35096059Y-30961333D01*
X35096064Y-30961330D01*
X35314086Y-30843447D01*
X35363654Y-30810012D01*
X35413735Y-30777241D01*
X35420876Y-30771416D01*
X35611856Y-30613423D01*
X35625185Y-30600000D01*
X43331928Y-30600000D01*
X43335000Y-31814250D01*
X43493750Y-31973000D01*
X45593000Y-31973000D01*
X45593000Y-30123750D01*
X45847000Y-30123750D01*
X45847000Y-31973000D01*
X47946250Y-31973000D01*
X48105000Y-31814250D01*
X48107313Y-30900000D01*
X54391928Y-30900000D01*
X54391928Y-32600000D01*
X54404188Y-32724482D01*
X54440498Y-32844180D01*
X54499463Y-32954494D01*
X54578815Y-33051185D01*
X54675506Y-33130537D01*
X54785820Y-33189502D01*
X54905518Y-33225812D01*
X55030000Y-33238072D01*
X56730000Y-33238072D01*
X56854482Y-33225812D01*
X56974180Y-33189502D01*
X57084494Y-33130537D01*
X57181185Y-33051185D01*
X57260537Y-32954494D01*
X57319502Y-32844180D01*
X57341513Y-32771620D01*
X57473368Y-32903475D01*
X57716589Y-33065990D01*
X57986842Y-33177932D01*
X58273740Y-33235000D01*
X58566260Y-33235000D01*
X58853158Y-33177932D01*
X59123411Y-33065990D01*
X59366632Y-32903475D01*
X59573475Y-32696632D01*
X59690000Y-32522240D01*
X59806525Y-32696632D01*
X60013368Y-32903475D01*
X60256589Y-33065990D01*
X60526842Y-33177932D01*
X60608031Y-33194082D01*
X62557863Y-35143914D01*
X62597630Y-35192370D01*
X62791012Y-35351075D01*
X63011641Y-35469003D01*
X63178416Y-35519594D01*
X63251036Y-35541623D01*
X63276755Y-35544156D01*
X63437620Y-35560000D01*
X63437626Y-35560000D01*
X63499999Y-35566143D01*
X63562372Y-35560000D01*
X74403950Y-35560000D01*
X80391000Y-41547051D01*
X80391001Y-73025000D01*
X63391052Y-73025000D01*
X61813916Y-71447866D01*
X61668987Y-71328926D01*
X61448359Y-71210998D01*
X61208963Y-71138377D01*
X60960000Y-71113857D01*
X60711037Y-71138377D01*
X60471641Y-71210998D01*
X60251013Y-71328926D01*
X60057630Y-71487630D01*
X59898926Y-71681013D01*
X59780998Y-71901641D01*
X59708377Y-72141037D01*
X59683857Y-72390000D01*
X59708377Y-72638963D01*
X59780998Y-72878359D01*
X59898926Y-73098987D01*
X60017866Y-73243916D01*
X61922868Y-75148919D01*
X61962630Y-75197370D01*
X62011080Y-75237132D01*
X62011083Y-75237135D01*
X62061086Y-75278171D01*
X62156012Y-75356075D01*
X62376641Y-75474003D01*
X62616037Y-75546623D01*
X62865000Y-75571144D01*
X62927380Y-75565000D01*
X81598620Y-75565000D01*
X81661000Y-75571144D01*
X81723380Y-75565000D01*
X86468950Y-75565000D01*
X89316083Y-78412134D01*
X89461012Y-78531074D01*
X89681640Y-78649002D01*
X89921036Y-78721623D01*
X90169999Y-78746143D01*
X90418963Y-78721623D01*
X90658359Y-78649002D01*
X90878987Y-78531074D01*
X91072370Y-78372370D01*
X91231074Y-78178987D01*
X91349002Y-77958359D01*
X91421623Y-77718963D01*
X91446143Y-77469999D01*
X91445694Y-77465431D01*
X114758866Y-77465431D01*
X114822366Y-78119293D01*
X115012208Y-78748203D01*
X115321096Y-79327992D01*
X115326172Y-79335589D01*
X115764626Y-79635769D01*
X117930395Y-77470000D01*
X118289605Y-77470000D01*
X120455374Y-79635769D01*
X120893828Y-79335589D01*
X121204296Y-78756644D01*
X121395852Y-78128254D01*
X121461134Y-77474569D01*
X121397634Y-76820707D01*
X121207792Y-76191797D01*
X120898904Y-75612008D01*
X120893828Y-75604411D01*
X120455374Y-75304231D01*
X118289605Y-77470000D01*
X117930395Y-77470000D01*
X115764626Y-75304231D01*
X115326172Y-75604411D01*
X115015704Y-76183356D01*
X114824148Y-76811746D01*
X114758866Y-77465431D01*
X91445694Y-77465431D01*
X91421623Y-77221036D01*
X91349002Y-76981640D01*
X91231074Y-76761012D01*
X91112134Y-76616083D01*
X89620677Y-75124626D01*
X115944231Y-75124626D01*
X118110000Y-77290395D01*
X120275769Y-75124626D01*
X119975589Y-74686172D01*
X119396644Y-74375704D01*
X118768254Y-74184148D01*
X118114569Y-74118866D01*
X117460707Y-74182366D01*
X116831797Y-74372208D01*
X116252008Y-74681096D01*
X116244411Y-74686172D01*
X115944231Y-75124626D01*
X89620677Y-75124626D01*
X87937141Y-73441091D01*
X87897370Y-73392630D01*
X87703988Y-73233925D01*
X87483359Y-73115997D01*
X87243963Y-73043377D01*
X87057380Y-73025000D01*
X87057373Y-73025000D01*
X86995000Y-73018857D01*
X86932627Y-73025000D01*
X82931000Y-73025000D01*
X82931000Y-62763061D01*
X99549000Y-62763061D01*
X99549000Y-62966939D01*
X99588774Y-63166898D01*
X99666795Y-63355256D01*
X99780063Y-63524774D01*
X99924226Y-63668937D01*
X100093744Y-63782205D01*
X100282102Y-63860226D01*
X100482061Y-63900000D01*
X100685939Y-63900000D01*
X100885898Y-63860226D01*
X101074256Y-63782205D01*
X101243774Y-63668937D01*
X101387937Y-63524774D01*
X101501205Y-63355256D01*
X101579226Y-63166898D01*
X101619000Y-62966939D01*
X101619000Y-62763061D01*
X101579226Y-62563102D01*
X101501205Y-62374744D01*
X101387937Y-62205226D01*
X101243774Y-62061063D01*
X101074256Y-61947795D01*
X100885898Y-61869774D01*
X100685939Y-61830000D01*
X100482061Y-61830000D01*
X100282102Y-61869774D01*
X100093744Y-61947795D01*
X99924226Y-62061063D01*
X99780063Y-62205226D01*
X99666795Y-62374744D01*
X99588774Y-62563102D01*
X99549000Y-62763061D01*
X82931000Y-62763061D01*
X82931000Y-54427702D01*
X98881903Y-54427702D01*
X98953486Y-54671671D01*
X99208996Y-54792571D01*
X99483184Y-54861300D01*
X99765512Y-54875217D01*
X100045130Y-54833787D01*
X100311292Y-54738603D01*
X100436514Y-54671671D01*
X100508097Y-54427702D01*
X99695000Y-53614605D01*
X98881903Y-54427702D01*
X82931000Y-54427702D01*
X82931000Y-53505512D01*
X98254783Y-53505512D01*
X98296213Y-53785130D01*
X98391397Y-54051292D01*
X98458329Y-54176514D01*
X98702298Y-54248097D01*
X99515395Y-53435000D01*
X99501253Y-53420858D01*
X99680858Y-53241253D01*
X99695000Y-53255395D01*
X99709143Y-53241253D01*
X99888748Y-53420858D01*
X99874605Y-53435000D01*
X100687702Y-54248097D01*
X100931671Y-54176514D01*
X101052571Y-53921004D01*
X101121300Y-53646816D01*
X101135217Y-53364488D01*
X101093787Y-53084870D01*
X100998603Y-52818708D01*
X100933384Y-52696691D01*
X100946185Y-52686185D01*
X101025537Y-52589494D01*
X101084502Y-52479180D01*
X101120812Y-52359482D01*
X101133072Y-52235000D01*
X101133072Y-50635000D01*
X101120812Y-50510518D01*
X101084502Y-50390820D01*
X101025537Y-50280506D01*
X100946185Y-50183815D01*
X100849494Y-50104463D01*
X100739180Y-50045498D01*
X100619482Y-50009188D01*
X100495000Y-49996928D01*
X98895000Y-49996928D01*
X98770518Y-50009188D01*
X98650820Y-50045498D01*
X98540506Y-50104463D01*
X98443815Y-50183815D01*
X98364463Y-50280506D01*
X98305498Y-50390820D01*
X98269188Y-50510518D01*
X98256928Y-50635000D01*
X98256928Y-52235000D01*
X98269188Y-52359482D01*
X98305498Y-52479180D01*
X98364463Y-52589494D01*
X98443815Y-52686185D01*
X98456758Y-52696807D01*
X98337429Y-52948996D01*
X98268700Y-53223184D01*
X98254783Y-53505512D01*
X82931000Y-53505512D01*
X82931000Y-51095357D01*
X89281000Y-51095357D01*
X89281000Y-51520643D01*
X89363970Y-51937757D01*
X89526719Y-52330670D01*
X89762996Y-52684282D01*
X90063718Y-52985004D01*
X90417330Y-53221281D01*
X90810243Y-53384030D01*
X91227357Y-53467000D01*
X91652643Y-53467000D01*
X92069757Y-53384030D01*
X92462670Y-53221281D01*
X92816282Y-52985004D01*
X93117004Y-52684282D01*
X93353281Y-52330670D01*
X93516030Y-51937757D01*
X93599000Y-51520643D01*
X93599000Y-51095357D01*
X93516030Y-50678243D01*
X93353281Y-50285330D01*
X93117004Y-49931718D01*
X92816282Y-49630996D01*
X92462670Y-49394719D01*
X92069757Y-49231970D01*
X91652643Y-49149000D01*
X91227357Y-49149000D01*
X90810243Y-49231970D01*
X90417330Y-49394719D01*
X90063718Y-49630996D01*
X89762996Y-49931718D01*
X89526719Y-50285330D01*
X89363970Y-50678243D01*
X89281000Y-51095357D01*
X82931000Y-51095357D01*
X82931000Y-42656740D01*
X90110865Y-42656740D01*
X90269764Y-42974758D01*
X90648632Y-43167959D01*
X91057913Y-43283534D01*
X91481876Y-43317042D01*
X91904230Y-43267194D01*
X92308744Y-43135908D01*
X92610236Y-42974758D01*
X92769135Y-42656740D01*
X91440000Y-41327605D01*
X90110865Y-42656740D01*
X82931000Y-42656740D01*
X82931000Y-41293050D01*
X83034174Y-41189876D01*
X89270958Y-41189876D01*
X89320806Y-41612230D01*
X89452092Y-42016744D01*
X89613242Y-42318236D01*
X89931260Y-42477135D01*
X91260395Y-41148000D01*
X91619605Y-41148000D01*
X92948740Y-42477135D01*
X93266758Y-42318236D01*
X93459959Y-41939368D01*
X93575534Y-41530087D01*
X93609042Y-41106124D01*
X93559194Y-40683770D01*
X93427908Y-40279256D01*
X93266758Y-39977764D01*
X92948740Y-39818865D01*
X91619605Y-41148000D01*
X91260395Y-41148000D01*
X89931260Y-39818865D01*
X89613242Y-39977764D01*
X89420041Y-40356632D01*
X89304466Y-40765913D01*
X89270958Y-41189876D01*
X83034174Y-41189876D01*
X84584790Y-39639260D01*
X90110865Y-39639260D01*
X91440000Y-40968395D01*
X92769135Y-39639260D01*
X92610236Y-39321242D01*
X92231368Y-39128041D01*
X91822087Y-39012466D01*
X91398124Y-38978958D01*
X90975770Y-39028806D01*
X90571256Y-39160092D01*
X90269764Y-39321242D01*
X90110865Y-39639260D01*
X84584790Y-39639260D01*
X86318676Y-37905374D01*
X115944231Y-37905374D01*
X116244411Y-38343828D01*
X116823356Y-38654296D01*
X117451746Y-38845852D01*
X118105431Y-38911134D01*
X118759293Y-38847634D01*
X119388203Y-38657792D01*
X119967992Y-38348904D01*
X119975589Y-38343828D01*
X120275769Y-37905374D01*
X118110000Y-35739605D01*
X115944231Y-37905374D01*
X86318676Y-37905374D01*
X88668619Y-35555431D01*
X114758866Y-35555431D01*
X114822366Y-36209293D01*
X115012208Y-36838203D01*
X115321096Y-37417992D01*
X115326172Y-37425589D01*
X115764626Y-37725769D01*
X117930395Y-35560000D01*
X118289605Y-35560000D01*
X120455374Y-37725769D01*
X120893828Y-37425589D01*
X121204296Y-36846644D01*
X121395852Y-36218254D01*
X121461134Y-35564569D01*
X121397634Y-34910707D01*
X121207792Y-34281797D01*
X120898904Y-33702008D01*
X120893828Y-33694411D01*
X120455374Y-33394231D01*
X118289605Y-35560000D01*
X117930395Y-35560000D01*
X115764626Y-33394231D01*
X115326172Y-33694411D01*
X115015704Y-34273356D01*
X114824148Y-34901746D01*
X114758866Y-35555431D01*
X88668619Y-35555431D01*
X91101988Y-33122062D01*
X91227357Y-33147000D01*
X91652643Y-33147000D01*
X92069757Y-33064030D01*
X92462670Y-32901281D01*
X92816282Y-32665004D01*
X93117004Y-32364282D01*
X93353281Y-32010670D01*
X93392908Y-31915000D01*
X98256928Y-31915000D01*
X98269188Y-32039482D01*
X98305498Y-32159180D01*
X98364463Y-32269494D01*
X98443815Y-32366185D01*
X98460393Y-32379790D01*
X98423320Y-32435273D01*
X98315147Y-32696426D01*
X98260000Y-32973665D01*
X98260000Y-33256335D01*
X98315147Y-33533574D01*
X98423320Y-33794727D01*
X98580363Y-34029759D01*
X98780241Y-34229637D01*
X99015273Y-34386680D01*
X99276426Y-34494853D01*
X99553665Y-34550000D01*
X99836335Y-34550000D01*
X100113574Y-34494853D01*
X100374727Y-34386680D01*
X100609759Y-34229637D01*
X100809637Y-34029759D01*
X100966680Y-33794727D01*
X101074853Y-33533574D01*
X101130000Y-33256335D01*
X101130000Y-33214626D01*
X115944231Y-33214626D01*
X118110000Y-35380395D01*
X120275769Y-33214626D01*
X119975589Y-32776172D01*
X119396644Y-32465704D01*
X118768254Y-32274148D01*
X118114569Y-32208866D01*
X117460707Y-32272366D01*
X116831797Y-32462208D01*
X116252008Y-32771096D01*
X116244411Y-32776172D01*
X115944231Y-33214626D01*
X101130000Y-33214626D01*
X101130000Y-32973665D01*
X101074853Y-32696426D01*
X100966680Y-32435273D01*
X100929607Y-32379790D01*
X100946185Y-32366185D01*
X101025537Y-32269494D01*
X101084502Y-32159180D01*
X101120812Y-32039482D01*
X101133072Y-31915000D01*
X101130000Y-31400750D01*
X100971250Y-31242000D01*
X99822000Y-31242000D01*
X99822000Y-31262000D01*
X99568000Y-31262000D01*
X99568000Y-31242000D01*
X98418750Y-31242000D01*
X98260000Y-31400750D01*
X98256928Y-31915000D01*
X93392908Y-31915000D01*
X93516030Y-31617757D01*
X93599000Y-31200643D01*
X93599000Y-30775357D01*
X93516030Y-30358243D01*
X93498119Y-30315000D01*
X98256928Y-30315000D01*
X98260000Y-30829250D01*
X98418750Y-30988000D01*
X99568000Y-30988000D01*
X99568000Y-29838750D01*
X99822000Y-29838750D01*
X99822000Y-30988000D01*
X100971250Y-30988000D01*
X101130000Y-30829250D01*
X101133072Y-30315000D01*
X101120812Y-30190518D01*
X101084502Y-30070820D01*
X101025537Y-29960506D01*
X100946185Y-29863815D01*
X100849494Y-29784463D01*
X100739180Y-29725498D01*
X100619482Y-29689188D01*
X100495000Y-29676928D01*
X99980750Y-29680000D01*
X99822000Y-29838750D01*
X99568000Y-29838750D01*
X99409250Y-29680000D01*
X98895000Y-29676928D01*
X98770518Y-29689188D01*
X98650820Y-29725498D01*
X98540506Y-29784463D01*
X98443815Y-29863815D01*
X98364463Y-29960506D01*
X98305498Y-30070820D01*
X98269188Y-30190518D01*
X98256928Y-30315000D01*
X93498119Y-30315000D01*
X93353281Y-29965330D01*
X93117004Y-29611718D01*
X92816282Y-29310996D01*
X92462670Y-29074719D01*
X92069757Y-28911970D01*
X91652643Y-28829000D01*
X91227357Y-28829000D01*
X90810243Y-28911970D01*
X90417330Y-29074719D01*
X90063718Y-29310996D01*
X89762996Y-29611718D01*
X89526719Y-29965330D01*
X89363970Y-30358243D01*
X89281000Y-30775357D01*
X89281000Y-31200643D01*
X89305938Y-31326012D01*
X81534000Y-39097950D01*
X75872141Y-33436091D01*
X75832370Y-33387630D01*
X75638988Y-33228925D01*
X75418359Y-33110997D01*
X75178963Y-33038377D01*
X74992380Y-33020000D01*
X74992373Y-33020000D01*
X74930000Y-33013857D01*
X74867627Y-33020000D01*
X64269120Y-33020000D01*
X64500269Y-32847588D01*
X64695178Y-32631355D01*
X64844157Y-32381252D01*
X64941481Y-32106891D01*
X64820814Y-31877000D01*
X63627000Y-31877000D01*
X63627000Y-31897000D01*
X63373000Y-31897000D01*
X63373000Y-31877000D01*
X63353000Y-31877000D01*
X63353000Y-31623000D01*
X63373000Y-31623000D01*
X63373000Y-30429845D01*
X63627000Y-30429845D01*
X63627000Y-31623000D01*
X64820814Y-31623000D01*
X64941481Y-31393109D01*
X64844157Y-31118748D01*
X64695178Y-30868645D01*
X64500269Y-30652412D01*
X64266920Y-30478359D01*
X64004099Y-30353175D01*
X63856890Y-30308524D01*
X63627000Y-30429845D01*
X63373000Y-30429845D01*
X63143110Y-30308524D01*
X62995901Y-30353175D01*
X62733080Y-30478359D01*
X62499731Y-30652412D01*
X62304822Y-30868645D01*
X62235195Y-30985534D01*
X62113475Y-30803368D01*
X61906632Y-30596525D01*
X61663411Y-30434010D01*
X61393158Y-30322068D01*
X61106260Y-30265000D01*
X60813740Y-30265000D01*
X60526842Y-30322068D01*
X60256589Y-30434010D01*
X60013368Y-30596525D01*
X59806525Y-30803368D01*
X59690000Y-30977760D01*
X59573475Y-30803368D01*
X59366632Y-30596525D01*
X59123411Y-30434010D01*
X58853158Y-30322068D01*
X58566260Y-30265000D01*
X58273740Y-30265000D01*
X57986842Y-30322068D01*
X57716589Y-30434010D01*
X57473368Y-30596525D01*
X57341513Y-30728380D01*
X57319502Y-30655820D01*
X57260537Y-30545506D01*
X57181185Y-30448815D01*
X57084494Y-30369463D01*
X56974180Y-30310498D01*
X56854482Y-30274188D01*
X56730000Y-30261928D01*
X55030000Y-30261928D01*
X54905518Y-30274188D01*
X54785820Y-30310498D01*
X54675506Y-30369463D01*
X54578815Y-30448815D01*
X54499463Y-30545506D01*
X54440498Y-30655820D01*
X54404188Y-30775518D01*
X54391928Y-30900000D01*
X48107313Y-30900000D01*
X48108072Y-30600000D01*
X48095812Y-30475518D01*
X48059502Y-30355820D01*
X48000537Y-30245506D01*
X47921185Y-30148815D01*
X47824494Y-30069463D01*
X47714180Y-30010498D01*
X47594482Y-29974188D01*
X47470000Y-29961928D01*
X46005750Y-29965000D01*
X45847000Y-30123750D01*
X45593000Y-30123750D01*
X45434250Y-29965000D01*
X43970000Y-29961928D01*
X43845518Y-29974188D01*
X43725820Y-30010498D01*
X43615506Y-30069463D01*
X43518815Y-30148815D01*
X43439463Y-30245506D01*
X43380498Y-30355820D01*
X43344188Y-30475518D01*
X43331928Y-30600000D01*
X35625185Y-30600000D01*
X35653995Y-30570988D01*
X35696745Y-30529125D01*
X35702618Y-30522024D01*
X35859273Y-30329947D01*
X35892374Y-30280125D01*
X35926173Y-30230763D01*
X35930556Y-30222657D01*
X36046919Y-30003809D01*
X36069707Y-29948521D01*
X36093279Y-29893525D01*
X36096003Y-29884722D01*
X36167643Y-29647441D01*
X36179264Y-29588754D01*
X36191700Y-29530248D01*
X36192663Y-29521083D01*
X36216850Y-29274405D01*
X36216850Y-29274402D01*
X36220000Y-29242419D01*
X36220000Y-26060000D01*
X111100000Y-26060000D01*
X111100001Y-29242419D01*
G37*
%TD.AperFunction*%
%TD*%
M02*
