%TF.GenerationSoftware,KiCad,Pcbnew,(5.1.8)-1*%
%TF.CreationDate,2021-05-16T11:41:04-04:00*%
%TF.ProjectId,openEPR_Lock-In,6f70656e-4550-4525-9f4c-6f636b2d496e,B*%
%TF.SameCoordinates,Original*%
%TF.FileFunction,Soldermask,Bot*%
%TF.FilePolarity,Negative*%
%FSLAX46Y46*%
G04 Gerber Fmt 4.6, Leading zero omitted, Abs format (unit mm)*
G04 Created by KiCad (PCBNEW (5.1.8)-1) date 2021-05-16 11:41:04*
%MOMM*%
%LPD*%
G01*
G04 APERTURE LIST*
%ADD10O,1.700000X1.700000*%
%ADD11R,1.700000X1.700000*%
%ADD12C,3.048000*%
%ADD13R,3.500000X3.500000*%
%ADD14C,5.400000*%
%ADD15R,1.350000X4.200000*%
%ADD16R,1.600000X1.600000*%
%ADD17C,1.600000*%
G04 APERTURE END LIST*
D10*
%TO.C,J6*%
X63500000Y-31750000D03*
X60960000Y-31750000D03*
X58420000Y-31750000D03*
D11*
X55880000Y-31750000D03*
%TD*%
D12*
%TO.C,U4*%
X91440000Y-30988000D03*
X91440000Y-41148000D03*
X91440000Y-51308000D03*
X71120000Y-43688000D03*
X71120000Y-38608000D03*
%TD*%
%TO.C,J4*%
G36*
G01*
X40145000Y-33350000D02*
X41895000Y-33350000D01*
G75*
G02*
X42770000Y-34225000I0J-875000D01*
G01*
X42770000Y-35975000D01*
G75*
G02*
X41895000Y-36850000I-875000J0D01*
G01*
X40145000Y-36850000D01*
G75*
G02*
X39270000Y-35975000I0J875000D01*
G01*
X39270000Y-34225000D01*
G75*
G02*
X40145000Y-33350000I875000J0D01*
G01*
G37*
G36*
G01*
X44720000Y-30600000D02*
X46720000Y-30600000D01*
G75*
G02*
X47470000Y-31350000I0J-750000D01*
G01*
X47470000Y-32850000D01*
G75*
G02*
X46720000Y-33600000I-750000J0D01*
G01*
X44720000Y-33600000D01*
G75*
G02*
X43970000Y-32850000I0J750000D01*
G01*
X43970000Y-31350000D01*
G75*
G02*
X44720000Y-30600000I750000J0D01*
G01*
G37*
D13*
X45720000Y-38100000D03*
%TD*%
D14*
%TO.C,H4*%
X29210000Y-77470000D03*
%TD*%
%TO.C,H3*%
X118110000Y-77470000D03*
%TD*%
%TO.C,H2*%
X118110000Y-35560000D03*
%TD*%
%TO.C,H1*%
X29210000Y-35560000D03*
%TD*%
D15*
%TO.C,J1*%
X60675000Y-84128000D03*
X66325000Y-84128000D03*
%TD*%
%TO.C,J2*%
X46005000Y-84128000D03*
X40355000Y-84128000D03*
%TD*%
%TO.C,J3*%
X101315000Y-84128000D03*
X106965000Y-84128000D03*
%TD*%
%TO.C,J5*%
X80995000Y-84128000D03*
X86645000Y-84128000D03*
%TD*%
D16*
%TO.C,C7*%
X59690000Y-38735000D03*
D17*
X59690000Y-43735000D03*
%TD*%
D16*
%TO.C,C9*%
X99695000Y-51435000D03*
D17*
X99695000Y-53435000D03*
%TD*%
%TO.C,C11*%
X99695000Y-33115000D03*
D16*
X99695000Y-31115000D03*
%TD*%
M02*
