%TF.GenerationSoftware,KiCad,Pcbnew,(5.1.8)-1*%
%TF.CreationDate,2021-05-16T11:41:03-04:00*%
%TF.ProjectId,openEPR_Lock-In,6f70656e-4550-4525-9f4c-6f636b2d496e,B*%
%TF.SameCoordinates,Original*%
%TF.FileFunction,Paste,Top*%
%TF.FilePolarity,Positive*%
%FSLAX46Y46*%
G04 Gerber Fmt 4.6, Leading zero omitted, Abs format (unit mm)*
G04 Created by KiCad (PCBNEW (5.1.8)-1) date 2021-05-16 11:41:03*
%MOMM*%
%LPD*%
G01*
G04 APERTURE LIST*
%ADD10R,1.350000X4.200000*%
%ADD11R,1.270000X3.600000*%
G04 APERTURE END LIST*
%TO.C,R13*%
G36*
G01*
X49511000Y-79178999D02*
X49511000Y-80079001D01*
G75*
G02*
X49261001Y-80329000I-249999J0D01*
G01*
X48560999Y-80329000D01*
G75*
G02*
X48311000Y-80079001I0J249999D01*
G01*
X48311000Y-79178999D01*
G75*
G02*
X48560999Y-78929000I249999J0D01*
G01*
X49261001Y-78929000D01*
G75*
G02*
X49511000Y-79178999I0J-249999D01*
G01*
G37*
G36*
G01*
X51511000Y-79178999D02*
X51511000Y-80079001D01*
G75*
G02*
X51261001Y-80329000I-249999J0D01*
G01*
X50560999Y-80329000D01*
G75*
G02*
X50311000Y-80079001I0J249999D01*
G01*
X50311000Y-79178999D01*
G75*
G02*
X50560999Y-78929000I249999J0D01*
G01*
X51261001Y-78929000D01*
G75*
G02*
X51511000Y-79178999I0J-249999D01*
G01*
G37*
%TD*%
%TO.C,R7*%
G36*
G01*
X94929000Y-64700999D02*
X94929000Y-65601001D01*
G75*
G02*
X94679001Y-65851000I-249999J0D01*
G01*
X93978999Y-65851000D01*
G75*
G02*
X93729000Y-65601001I0J249999D01*
G01*
X93729000Y-64700999D01*
G75*
G02*
X93978999Y-64451000I249999J0D01*
G01*
X94679001Y-64451000D01*
G75*
G02*
X94929000Y-64700999I0J-249999D01*
G01*
G37*
G36*
G01*
X92929000Y-64700999D02*
X92929000Y-65601001D01*
G75*
G02*
X92679001Y-65851000I-249999J0D01*
G01*
X91978999Y-65851000D01*
G75*
G02*
X91729000Y-65601001I0J249999D01*
G01*
X91729000Y-64700999D01*
G75*
G02*
X91978999Y-64451000I249999J0D01*
G01*
X92679001Y-64451000D01*
G75*
G02*
X92929000Y-64700999I0J-249999D01*
G01*
G37*
%TD*%
%TO.C,C15*%
G36*
G01*
X88323000Y-74836000D02*
X88323000Y-75786000D01*
G75*
G02*
X88073000Y-76036000I-250000J0D01*
G01*
X87398000Y-76036000D01*
G75*
G02*
X87148000Y-75786000I0J250000D01*
G01*
X87148000Y-74836000D01*
G75*
G02*
X87398000Y-74586000I250000J0D01*
G01*
X88073000Y-74586000D01*
G75*
G02*
X88323000Y-74836000I0J-250000D01*
G01*
G37*
G36*
G01*
X90398000Y-74836000D02*
X90398000Y-75786000D01*
G75*
G02*
X90148000Y-76036000I-250000J0D01*
G01*
X89473000Y-76036000D01*
G75*
G02*
X89223000Y-75786000I0J250000D01*
G01*
X89223000Y-74836000D01*
G75*
G02*
X89473000Y-74586000I250000J0D01*
G01*
X90148000Y-74586000D01*
G75*
G02*
X90398000Y-74836000I0J-250000D01*
G01*
G37*
%TD*%
%TO.C,C1*%
G36*
G01*
X44610000Y-75612500D02*
X45560000Y-75612500D01*
G75*
G02*
X45810000Y-75862500I0J-250000D01*
G01*
X45810000Y-76537500D01*
G75*
G02*
X45560000Y-76787500I-250000J0D01*
G01*
X44610000Y-76787500D01*
G75*
G02*
X44360000Y-76537500I0J250000D01*
G01*
X44360000Y-75862500D01*
G75*
G02*
X44610000Y-75612500I250000J0D01*
G01*
G37*
G36*
G01*
X44610000Y-77687500D02*
X45560000Y-77687500D01*
G75*
G02*
X45810000Y-77937500I0J-250000D01*
G01*
X45810000Y-78612500D01*
G75*
G02*
X45560000Y-78862500I-250000J0D01*
G01*
X44610000Y-78862500D01*
G75*
G02*
X44360000Y-78612500I0J250000D01*
G01*
X44360000Y-77937500D01*
G75*
G02*
X44610000Y-77687500I250000J0D01*
G01*
G37*
%TD*%
%TO.C,C2*%
G36*
G01*
X49482500Y-76741000D02*
X49482500Y-77691000D01*
G75*
G02*
X49232500Y-77941000I-250000J0D01*
G01*
X48557500Y-77941000D01*
G75*
G02*
X48307500Y-77691000I0J250000D01*
G01*
X48307500Y-76741000D01*
G75*
G02*
X48557500Y-76491000I250000J0D01*
G01*
X49232500Y-76491000D01*
G75*
G02*
X49482500Y-76741000I0J-250000D01*
G01*
G37*
G36*
G01*
X51557500Y-76741000D02*
X51557500Y-77691000D01*
G75*
G02*
X51307500Y-77941000I-250000J0D01*
G01*
X50632500Y-77941000D01*
G75*
G02*
X50382500Y-77691000I0J250000D01*
G01*
X50382500Y-76741000D01*
G75*
G02*
X50632500Y-76491000I250000J0D01*
G01*
X51307500Y-76491000D01*
G75*
G02*
X51557500Y-76741000I0J-250000D01*
G01*
G37*
%TD*%
%TO.C,C3*%
G36*
G01*
X56355000Y-76787500D02*
X55405000Y-76787500D01*
G75*
G02*
X55155000Y-76537500I0J250000D01*
G01*
X55155000Y-75862500D01*
G75*
G02*
X55405000Y-75612500I250000J0D01*
G01*
X56355000Y-75612500D01*
G75*
G02*
X56605000Y-75862500I0J-250000D01*
G01*
X56605000Y-76537500D01*
G75*
G02*
X56355000Y-76787500I-250000J0D01*
G01*
G37*
G36*
G01*
X56355000Y-78862500D02*
X55405000Y-78862500D01*
G75*
G02*
X55155000Y-78612500I0J250000D01*
G01*
X55155000Y-77937500D01*
G75*
G02*
X55405000Y-77687500I250000J0D01*
G01*
X56355000Y-77687500D01*
G75*
G02*
X56605000Y-77937500I0J-250000D01*
G01*
X56605000Y-78612500D01*
G75*
G02*
X56355000Y-78862500I-250000J0D01*
G01*
G37*
%TD*%
%TO.C,C5*%
G36*
G01*
X54160400Y-64080900D02*
X55110400Y-64080900D01*
G75*
G02*
X55360400Y-64330900I0J-250000D01*
G01*
X55360400Y-65005900D01*
G75*
G02*
X55110400Y-65255900I-250000J0D01*
G01*
X54160400Y-65255900D01*
G75*
G02*
X53910400Y-65005900I0J250000D01*
G01*
X53910400Y-64330900D01*
G75*
G02*
X54160400Y-64080900I250000J0D01*
G01*
G37*
G36*
G01*
X54160400Y-66155900D02*
X55110400Y-66155900D01*
G75*
G02*
X55360400Y-66405900I0J-250000D01*
G01*
X55360400Y-67080900D01*
G75*
G02*
X55110400Y-67330900I-250000J0D01*
G01*
X54160400Y-67330900D01*
G75*
G02*
X53910400Y-67080900I0J250000D01*
G01*
X53910400Y-66405900D01*
G75*
G02*
X54160400Y-66155900I250000J0D01*
G01*
G37*
%TD*%
%TO.C,C8*%
G36*
G01*
X49355500Y-66073000D02*
X49355500Y-67023000D01*
G75*
G02*
X49105500Y-67273000I-250000J0D01*
G01*
X48430500Y-67273000D01*
G75*
G02*
X48180500Y-67023000I0J250000D01*
G01*
X48180500Y-66073000D01*
G75*
G02*
X48430500Y-65823000I250000J0D01*
G01*
X49105500Y-65823000D01*
G75*
G02*
X49355500Y-66073000I0J-250000D01*
G01*
G37*
G36*
G01*
X47280500Y-66073000D02*
X47280500Y-67023000D01*
G75*
G02*
X47030500Y-67273000I-250000J0D01*
G01*
X46355500Y-67273000D01*
G75*
G02*
X46105500Y-67023000I0J250000D01*
G01*
X46105500Y-66073000D01*
G75*
G02*
X46355500Y-65823000I250000J0D01*
G01*
X47030500Y-65823000D01*
G75*
G02*
X47280500Y-66073000I0J-250000D01*
G01*
G37*
%TD*%
%TO.C,C12*%
G36*
G01*
X79497500Y-76995000D02*
X79497500Y-77945000D01*
G75*
G02*
X79247500Y-78195000I-250000J0D01*
G01*
X78572500Y-78195000D01*
G75*
G02*
X78322500Y-77945000I0J250000D01*
G01*
X78322500Y-76995000D01*
G75*
G02*
X78572500Y-76745000I250000J0D01*
G01*
X79247500Y-76745000D01*
G75*
G02*
X79497500Y-76995000I0J-250000D01*
G01*
G37*
G36*
G01*
X77422500Y-76995000D02*
X77422500Y-77945000D01*
G75*
G02*
X77172500Y-78195000I-250000J0D01*
G01*
X76497500Y-78195000D01*
G75*
G02*
X76247500Y-77945000I0J250000D01*
G01*
X76247500Y-76995000D01*
G75*
G02*
X76497500Y-76745000I250000J0D01*
G01*
X77172500Y-76745000D01*
G75*
G02*
X77422500Y-76995000I0J-250000D01*
G01*
G37*
%TD*%
D10*
%TO.C,J1*%
X60675000Y-84128000D03*
X66325000Y-84128000D03*
D11*
X63500000Y-84328000D03*
%TD*%
%TO.C,J2*%
X43180000Y-84328000D03*
D10*
X46005000Y-84128000D03*
X40355000Y-84128000D03*
%TD*%
%TO.C,J3*%
X101315000Y-84128000D03*
X106965000Y-84128000D03*
D11*
X104140000Y-84328000D03*
%TD*%
%TO.C,R1*%
G36*
G01*
X42094999Y-75600000D02*
X42995001Y-75600000D01*
G75*
G02*
X43245000Y-75849999I0J-249999D01*
G01*
X43245000Y-76550001D01*
G75*
G02*
X42995001Y-76800000I-249999J0D01*
G01*
X42094999Y-76800000D01*
G75*
G02*
X41845000Y-76550001I0J249999D01*
G01*
X41845000Y-75849999D01*
G75*
G02*
X42094999Y-75600000I249999J0D01*
G01*
G37*
G36*
G01*
X42094999Y-77600000D02*
X42995001Y-77600000D01*
G75*
G02*
X43245000Y-77849999I0J-249999D01*
G01*
X43245000Y-78550001D01*
G75*
G02*
X42995001Y-78800000I-249999J0D01*
G01*
X42094999Y-78800000D01*
G75*
G02*
X41845000Y-78550001I0J249999D01*
G01*
X41845000Y-77849999D01*
G75*
G02*
X42094999Y-77600000I249999J0D01*
G01*
G37*
%TD*%
%TO.C,R2*%
G36*
G01*
X57969999Y-77632000D02*
X58870001Y-77632000D01*
G75*
G02*
X59120000Y-77881999I0J-249999D01*
G01*
X59120000Y-78582001D01*
G75*
G02*
X58870001Y-78832000I-249999J0D01*
G01*
X57969999Y-78832000D01*
G75*
G02*
X57720000Y-78582001I0J249999D01*
G01*
X57720000Y-77881999D01*
G75*
G02*
X57969999Y-77632000I249999J0D01*
G01*
G37*
G36*
G01*
X57969999Y-75632000D02*
X58870001Y-75632000D01*
G75*
G02*
X59120000Y-75881999I0J-249999D01*
G01*
X59120000Y-76582001D01*
G75*
G02*
X58870001Y-76832000I-249999J0D01*
G01*
X57969999Y-76832000D01*
G75*
G02*
X57720000Y-76582001I0J249999D01*
G01*
X57720000Y-75881999D01*
G75*
G02*
X57969999Y-75632000I249999J0D01*
G01*
G37*
%TD*%
%TO.C,R3*%
G36*
G01*
X44761999Y-72044000D02*
X45662001Y-72044000D01*
G75*
G02*
X45912000Y-72293999I0J-249999D01*
G01*
X45912000Y-72994001D01*
G75*
G02*
X45662001Y-73244000I-249999J0D01*
G01*
X44761999Y-73244000D01*
G75*
G02*
X44512000Y-72994001I0J249999D01*
G01*
X44512000Y-72293999D01*
G75*
G02*
X44761999Y-72044000I249999J0D01*
G01*
G37*
G36*
G01*
X44761999Y-70044000D02*
X45662001Y-70044000D01*
G75*
G02*
X45912000Y-70293999I0J-249999D01*
G01*
X45912000Y-70994001D01*
G75*
G02*
X45662001Y-71244000I-249999J0D01*
G01*
X44761999Y-71244000D01*
G75*
G02*
X44512000Y-70994001I0J249999D01*
G01*
X44512000Y-70293999D01*
G75*
G02*
X44761999Y-70044000I249999J0D01*
G01*
G37*
%TD*%
%TO.C,R6*%
G36*
G01*
X57600001Y-67275000D02*
X56699999Y-67275000D01*
G75*
G02*
X56450000Y-67025001I0J249999D01*
G01*
X56450000Y-66324999D01*
G75*
G02*
X56699999Y-66075000I249999J0D01*
G01*
X57600001Y-66075000D01*
G75*
G02*
X57850000Y-66324999I0J-249999D01*
G01*
X57850000Y-67025001D01*
G75*
G02*
X57600001Y-67275000I-249999J0D01*
G01*
G37*
G36*
G01*
X57600001Y-65275000D02*
X56699999Y-65275000D01*
G75*
G02*
X56450000Y-65025001I0J249999D01*
G01*
X56450000Y-64324999D01*
G75*
G02*
X56699999Y-64075000I249999J0D01*
G01*
X57600001Y-64075000D01*
G75*
G02*
X57850000Y-64324999I0J-249999D01*
G01*
X57850000Y-65025001D01*
G75*
G02*
X57600001Y-65275000I-249999J0D01*
G01*
G37*
%TD*%
%TO.C,U2*%
G36*
G01*
X48156000Y-75143000D02*
X47856000Y-75143000D01*
G75*
G02*
X47706000Y-74993000I0J150000D01*
G01*
X47706000Y-73343000D01*
G75*
G02*
X47856000Y-73193000I150000J0D01*
G01*
X48156000Y-73193000D01*
G75*
G02*
X48306000Y-73343000I0J-150000D01*
G01*
X48306000Y-74993000D01*
G75*
G02*
X48156000Y-75143000I-150000J0D01*
G01*
G37*
G36*
G01*
X49426000Y-75143000D02*
X49126000Y-75143000D01*
G75*
G02*
X48976000Y-74993000I0J150000D01*
G01*
X48976000Y-73343000D01*
G75*
G02*
X49126000Y-73193000I150000J0D01*
G01*
X49426000Y-73193000D01*
G75*
G02*
X49576000Y-73343000I0J-150000D01*
G01*
X49576000Y-74993000D01*
G75*
G02*
X49426000Y-75143000I-150000J0D01*
G01*
G37*
G36*
G01*
X50696000Y-75143000D02*
X50396000Y-75143000D01*
G75*
G02*
X50246000Y-74993000I0J150000D01*
G01*
X50246000Y-73343000D01*
G75*
G02*
X50396000Y-73193000I150000J0D01*
G01*
X50696000Y-73193000D01*
G75*
G02*
X50846000Y-73343000I0J-150000D01*
G01*
X50846000Y-74993000D01*
G75*
G02*
X50696000Y-75143000I-150000J0D01*
G01*
G37*
G36*
G01*
X51966000Y-75143000D02*
X51666000Y-75143000D01*
G75*
G02*
X51516000Y-74993000I0J150000D01*
G01*
X51516000Y-73343000D01*
G75*
G02*
X51666000Y-73193000I150000J0D01*
G01*
X51966000Y-73193000D01*
G75*
G02*
X52116000Y-73343000I0J-150000D01*
G01*
X52116000Y-74993000D01*
G75*
G02*
X51966000Y-75143000I-150000J0D01*
G01*
G37*
G36*
G01*
X51966000Y-70193000D02*
X51666000Y-70193000D01*
G75*
G02*
X51516000Y-70043000I0J150000D01*
G01*
X51516000Y-68393000D01*
G75*
G02*
X51666000Y-68243000I150000J0D01*
G01*
X51966000Y-68243000D01*
G75*
G02*
X52116000Y-68393000I0J-150000D01*
G01*
X52116000Y-70043000D01*
G75*
G02*
X51966000Y-70193000I-150000J0D01*
G01*
G37*
G36*
G01*
X50696000Y-70193000D02*
X50396000Y-70193000D01*
G75*
G02*
X50246000Y-70043000I0J150000D01*
G01*
X50246000Y-68393000D01*
G75*
G02*
X50396000Y-68243000I150000J0D01*
G01*
X50696000Y-68243000D01*
G75*
G02*
X50846000Y-68393000I0J-150000D01*
G01*
X50846000Y-70043000D01*
G75*
G02*
X50696000Y-70193000I-150000J0D01*
G01*
G37*
G36*
G01*
X49426000Y-70193000D02*
X49126000Y-70193000D01*
G75*
G02*
X48976000Y-70043000I0J150000D01*
G01*
X48976000Y-68393000D01*
G75*
G02*
X49126000Y-68243000I150000J0D01*
G01*
X49426000Y-68243000D01*
G75*
G02*
X49576000Y-68393000I0J-150000D01*
G01*
X49576000Y-70043000D01*
G75*
G02*
X49426000Y-70193000I-150000J0D01*
G01*
G37*
G36*
G01*
X48156000Y-70193000D02*
X47856000Y-70193000D01*
G75*
G02*
X47706000Y-70043000I0J150000D01*
G01*
X47706000Y-68393000D01*
G75*
G02*
X47856000Y-68243000I150000J0D01*
G01*
X48156000Y-68243000D01*
G75*
G02*
X48306000Y-68393000I0J-150000D01*
G01*
X48306000Y-70043000D01*
G75*
G02*
X48156000Y-70193000I-150000J0D01*
G01*
G37*
%TD*%
%TO.C,U3*%
G36*
G01*
X68415000Y-63650000D02*
X68415000Y-63350000D01*
G75*
G02*
X68565000Y-63200000I150000J0D01*
G01*
X70315000Y-63200000D01*
G75*
G02*
X70465000Y-63350000I0J-150000D01*
G01*
X70465000Y-63650000D01*
G75*
G02*
X70315000Y-63800000I-150000J0D01*
G01*
X68565000Y-63800000D01*
G75*
G02*
X68415000Y-63650000I0J150000D01*
G01*
G37*
G36*
G01*
X68415000Y-64920000D02*
X68415000Y-64620000D01*
G75*
G02*
X68565000Y-64470000I150000J0D01*
G01*
X70315000Y-64470000D01*
G75*
G02*
X70465000Y-64620000I0J-150000D01*
G01*
X70465000Y-64920000D01*
G75*
G02*
X70315000Y-65070000I-150000J0D01*
G01*
X68565000Y-65070000D01*
G75*
G02*
X68415000Y-64920000I0J150000D01*
G01*
G37*
G36*
G01*
X68415000Y-66190000D02*
X68415000Y-65890000D01*
G75*
G02*
X68565000Y-65740000I150000J0D01*
G01*
X70315000Y-65740000D01*
G75*
G02*
X70465000Y-65890000I0J-150000D01*
G01*
X70465000Y-66190000D01*
G75*
G02*
X70315000Y-66340000I-150000J0D01*
G01*
X68565000Y-66340000D01*
G75*
G02*
X68415000Y-66190000I0J150000D01*
G01*
G37*
G36*
G01*
X68415000Y-67460000D02*
X68415000Y-67160000D01*
G75*
G02*
X68565000Y-67010000I150000J0D01*
G01*
X70315000Y-67010000D01*
G75*
G02*
X70465000Y-67160000I0J-150000D01*
G01*
X70465000Y-67460000D01*
G75*
G02*
X70315000Y-67610000I-150000J0D01*
G01*
X68565000Y-67610000D01*
G75*
G02*
X68415000Y-67460000I0J150000D01*
G01*
G37*
G36*
G01*
X68415000Y-68730000D02*
X68415000Y-68430000D01*
G75*
G02*
X68565000Y-68280000I150000J0D01*
G01*
X70315000Y-68280000D01*
G75*
G02*
X70465000Y-68430000I0J-150000D01*
G01*
X70465000Y-68730000D01*
G75*
G02*
X70315000Y-68880000I-150000J0D01*
G01*
X68565000Y-68880000D01*
G75*
G02*
X68415000Y-68730000I0J150000D01*
G01*
G37*
G36*
G01*
X68415000Y-70000000D02*
X68415000Y-69700000D01*
G75*
G02*
X68565000Y-69550000I150000J0D01*
G01*
X70315000Y-69550000D01*
G75*
G02*
X70465000Y-69700000I0J-150000D01*
G01*
X70465000Y-70000000D01*
G75*
G02*
X70315000Y-70150000I-150000J0D01*
G01*
X68565000Y-70150000D01*
G75*
G02*
X68415000Y-70000000I0J150000D01*
G01*
G37*
G36*
G01*
X68415000Y-71270000D02*
X68415000Y-70970000D01*
G75*
G02*
X68565000Y-70820000I150000J0D01*
G01*
X70315000Y-70820000D01*
G75*
G02*
X70465000Y-70970000I0J-150000D01*
G01*
X70465000Y-71270000D01*
G75*
G02*
X70315000Y-71420000I-150000J0D01*
G01*
X68565000Y-71420000D01*
G75*
G02*
X68415000Y-71270000I0J150000D01*
G01*
G37*
G36*
G01*
X68415000Y-72540000D02*
X68415000Y-72240000D01*
G75*
G02*
X68565000Y-72090000I150000J0D01*
G01*
X70315000Y-72090000D01*
G75*
G02*
X70465000Y-72240000I0J-150000D01*
G01*
X70465000Y-72540000D01*
G75*
G02*
X70315000Y-72690000I-150000J0D01*
G01*
X68565000Y-72690000D01*
G75*
G02*
X68415000Y-72540000I0J150000D01*
G01*
G37*
G36*
G01*
X68415000Y-73810000D02*
X68415000Y-73510000D01*
G75*
G02*
X68565000Y-73360000I150000J0D01*
G01*
X70315000Y-73360000D01*
G75*
G02*
X70465000Y-73510000I0J-150000D01*
G01*
X70465000Y-73810000D01*
G75*
G02*
X70315000Y-73960000I-150000J0D01*
G01*
X68565000Y-73960000D01*
G75*
G02*
X68415000Y-73810000I0J150000D01*
G01*
G37*
G36*
G01*
X68415000Y-75080000D02*
X68415000Y-74780000D01*
G75*
G02*
X68565000Y-74630000I150000J0D01*
G01*
X70315000Y-74630000D01*
G75*
G02*
X70465000Y-74780000I0J-150000D01*
G01*
X70465000Y-75080000D01*
G75*
G02*
X70315000Y-75230000I-150000J0D01*
G01*
X68565000Y-75230000D01*
G75*
G02*
X68415000Y-75080000I0J150000D01*
G01*
G37*
G36*
G01*
X77715000Y-75080000D02*
X77715000Y-74780000D01*
G75*
G02*
X77865000Y-74630000I150000J0D01*
G01*
X79615000Y-74630000D01*
G75*
G02*
X79765000Y-74780000I0J-150000D01*
G01*
X79765000Y-75080000D01*
G75*
G02*
X79615000Y-75230000I-150000J0D01*
G01*
X77865000Y-75230000D01*
G75*
G02*
X77715000Y-75080000I0J150000D01*
G01*
G37*
G36*
G01*
X77715000Y-73810000D02*
X77715000Y-73510000D01*
G75*
G02*
X77865000Y-73360000I150000J0D01*
G01*
X79615000Y-73360000D01*
G75*
G02*
X79765000Y-73510000I0J-150000D01*
G01*
X79765000Y-73810000D01*
G75*
G02*
X79615000Y-73960000I-150000J0D01*
G01*
X77865000Y-73960000D01*
G75*
G02*
X77715000Y-73810000I0J150000D01*
G01*
G37*
G36*
G01*
X77715000Y-72540000D02*
X77715000Y-72240000D01*
G75*
G02*
X77865000Y-72090000I150000J0D01*
G01*
X79615000Y-72090000D01*
G75*
G02*
X79765000Y-72240000I0J-150000D01*
G01*
X79765000Y-72540000D01*
G75*
G02*
X79615000Y-72690000I-150000J0D01*
G01*
X77865000Y-72690000D01*
G75*
G02*
X77715000Y-72540000I0J150000D01*
G01*
G37*
G36*
G01*
X77715000Y-71270000D02*
X77715000Y-70970000D01*
G75*
G02*
X77865000Y-70820000I150000J0D01*
G01*
X79615000Y-70820000D01*
G75*
G02*
X79765000Y-70970000I0J-150000D01*
G01*
X79765000Y-71270000D01*
G75*
G02*
X79615000Y-71420000I-150000J0D01*
G01*
X77865000Y-71420000D01*
G75*
G02*
X77715000Y-71270000I0J150000D01*
G01*
G37*
G36*
G01*
X77715000Y-70000000D02*
X77715000Y-69700000D01*
G75*
G02*
X77865000Y-69550000I150000J0D01*
G01*
X79615000Y-69550000D01*
G75*
G02*
X79765000Y-69700000I0J-150000D01*
G01*
X79765000Y-70000000D01*
G75*
G02*
X79615000Y-70150000I-150000J0D01*
G01*
X77865000Y-70150000D01*
G75*
G02*
X77715000Y-70000000I0J150000D01*
G01*
G37*
G36*
G01*
X77715000Y-68730000D02*
X77715000Y-68430000D01*
G75*
G02*
X77865000Y-68280000I150000J0D01*
G01*
X79615000Y-68280000D01*
G75*
G02*
X79765000Y-68430000I0J-150000D01*
G01*
X79765000Y-68730000D01*
G75*
G02*
X79615000Y-68880000I-150000J0D01*
G01*
X77865000Y-68880000D01*
G75*
G02*
X77715000Y-68730000I0J150000D01*
G01*
G37*
G36*
G01*
X77715000Y-67460000D02*
X77715000Y-67160000D01*
G75*
G02*
X77865000Y-67010000I150000J0D01*
G01*
X79615000Y-67010000D01*
G75*
G02*
X79765000Y-67160000I0J-150000D01*
G01*
X79765000Y-67460000D01*
G75*
G02*
X79615000Y-67610000I-150000J0D01*
G01*
X77865000Y-67610000D01*
G75*
G02*
X77715000Y-67460000I0J150000D01*
G01*
G37*
G36*
G01*
X77715000Y-66190000D02*
X77715000Y-65890000D01*
G75*
G02*
X77865000Y-65740000I150000J0D01*
G01*
X79615000Y-65740000D01*
G75*
G02*
X79765000Y-65890000I0J-150000D01*
G01*
X79765000Y-66190000D01*
G75*
G02*
X79615000Y-66340000I-150000J0D01*
G01*
X77865000Y-66340000D01*
G75*
G02*
X77715000Y-66190000I0J150000D01*
G01*
G37*
G36*
G01*
X77715000Y-64920000D02*
X77715000Y-64620000D01*
G75*
G02*
X77865000Y-64470000I150000J0D01*
G01*
X79615000Y-64470000D01*
G75*
G02*
X79765000Y-64620000I0J-150000D01*
G01*
X79765000Y-64920000D01*
G75*
G02*
X79615000Y-65070000I-150000J0D01*
G01*
X77865000Y-65070000D01*
G75*
G02*
X77715000Y-64920000I0J150000D01*
G01*
G37*
G36*
G01*
X77715000Y-63650000D02*
X77715000Y-63350000D01*
G75*
G02*
X77865000Y-63200000I150000J0D01*
G01*
X79615000Y-63200000D01*
G75*
G02*
X79765000Y-63350000I0J-150000D01*
G01*
X79765000Y-63650000D01*
G75*
G02*
X79615000Y-63800000I-150000J0D01*
G01*
X77865000Y-63800000D01*
G75*
G02*
X77715000Y-63650000I0J150000D01*
G01*
G37*
%TD*%
D10*
%TO.C,J5*%
X80995000Y-84128000D03*
X86645000Y-84128000D03*
D11*
X83820000Y-84328000D03*
%TD*%
%TO.C,C13*%
G36*
G01*
X55085000Y-72172500D02*
X54135000Y-72172500D01*
G75*
G02*
X53885000Y-71922500I0J250000D01*
G01*
X53885000Y-71247500D01*
G75*
G02*
X54135000Y-70997500I250000J0D01*
G01*
X55085000Y-70997500D01*
G75*
G02*
X55335000Y-71247500I0J-250000D01*
G01*
X55335000Y-71922500D01*
G75*
G02*
X55085000Y-72172500I-250000J0D01*
G01*
G37*
G36*
G01*
X55085000Y-74247500D02*
X54135000Y-74247500D01*
G75*
G02*
X53885000Y-73997500I0J250000D01*
G01*
X53885000Y-73322500D01*
G75*
G02*
X54135000Y-73072500I250000J0D01*
G01*
X55085000Y-73072500D01*
G75*
G02*
X55335000Y-73322500I0J-250000D01*
G01*
X55335000Y-73997500D01*
G75*
G02*
X55085000Y-74247500I-250000J0D01*
G01*
G37*
%TD*%
%TO.C,C14*%
G36*
G01*
X65565000Y-71802500D02*
X66515000Y-71802500D01*
G75*
G02*
X66765000Y-72052500I0J-250000D01*
G01*
X66765000Y-72727500D01*
G75*
G02*
X66515000Y-72977500I-250000J0D01*
G01*
X65565000Y-72977500D01*
G75*
G02*
X65315000Y-72727500I0J250000D01*
G01*
X65315000Y-72052500D01*
G75*
G02*
X65565000Y-71802500I250000J0D01*
G01*
G37*
G36*
G01*
X65565000Y-73877500D02*
X66515000Y-73877500D01*
G75*
G02*
X66765000Y-74127500I0J-250000D01*
G01*
X66765000Y-74802500D01*
G75*
G02*
X66515000Y-75052500I-250000J0D01*
G01*
X65565000Y-75052500D01*
G75*
G02*
X65315000Y-74802500I0J250000D01*
G01*
X65315000Y-74127500D01*
G75*
G02*
X65565000Y-73877500I250000J0D01*
G01*
G37*
%TD*%
%TO.C,C4*%
G36*
G01*
X88301500Y-72296000D02*
X88301500Y-73246000D01*
G75*
G02*
X88051500Y-73496000I-250000J0D01*
G01*
X87376500Y-73496000D01*
G75*
G02*
X87126500Y-73246000I0J250000D01*
G01*
X87126500Y-72296000D01*
G75*
G02*
X87376500Y-72046000I250000J0D01*
G01*
X88051500Y-72046000D01*
G75*
G02*
X88301500Y-72296000I0J-250000D01*
G01*
G37*
G36*
G01*
X90376500Y-72296000D02*
X90376500Y-73246000D01*
G75*
G02*
X90126500Y-73496000I-250000J0D01*
G01*
X89451500Y-73496000D01*
G75*
G02*
X89201500Y-73246000I0J250000D01*
G01*
X89201500Y-72296000D01*
G75*
G02*
X89451500Y-72046000I250000J0D01*
G01*
X90126500Y-72046000D01*
G75*
G02*
X90376500Y-72296000I0J-250000D01*
G01*
G37*
%TD*%
%TO.C,C6*%
G36*
G01*
X90376500Y-64676000D02*
X90376500Y-65626000D01*
G75*
G02*
X90126500Y-65876000I-250000J0D01*
G01*
X89451500Y-65876000D01*
G75*
G02*
X89201500Y-65626000I0J250000D01*
G01*
X89201500Y-64676000D01*
G75*
G02*
X89451500Y-64426000I250000J0D01*
G01*
X90126500Y-64426000D01*
G75*
G02*
X90376500Y-64676000I0J-250000D01*
G01*
G37*
G36*
G01*
X88301500Y-64676000D02*
X88301500Y-65626000D01*
G75*
G02*
X88051500Y-65876000I-250000J0D01*
G01*
X87376500Y-65876000D01*
G75*
G02*
X87126500Y-65626000I0J250000D01*
G01*
X87126500Y-64676000D01*
G75*
G02*
X87376500Y-64426000I250000J0D01*
G01*
X88051500Y-64426000D01*
G75*
G02*
X88301500Y-64676000I0J-250000D01*
G01*
G37*
%TD*%
%TO.C,C10*%
G36*
G01*
X100080500Y-64991000D02*
X100080500Y-64041000D01*
G75*
G02*
X100330500Y-63791000I250000J0D01*
G01*
X101005500Y-63791000D01*
G75*
G02*
X101255500Y-64041000I0J-250000D01*
G01*
X101255500Y-64991000D01*
G75*
G02*
X101005500Y-65241000I-250000J0D01*
G01*
X100330500Y-65241000D01*
G75*
G02*
X100080500Y-64991000I0J250000D01*
G01*
G37*
G36*
G01*
X102155500Y-64991000D02*
X102155500Y-64041000D01*
G75*
G02*
X102405500Y-63791000I250000J0D01*
G01*
X103080500Y-63791000D01*
G75*
G02*
X103330500Y-64041000I0J-250000D01*
G01*
X103330500Y-64991000D01*
G75*
G02*
X103080500Y-65241000I-250000J0D01*
G01*
X102405500Y-65241000D01*
G75*
G02*
X102155500Y-64991000I0J250000D01*
G01*
G37*
%TD*%
%TO.C,C16*%
G36*
G01*
X102325500Y-77056000D02*
X102325500Y-76106000D01*
G75*
G02*
X102575500Y-75856000I250000J0D01*
G01*
X103250500Y-75856000D01*
G75*
G02*
X103500500Y-76106000I0J-250000D01*
G01*
X103500500Y-77056000D01*
G75*
G02*
X103250500Y-77306000I-250000J0D01*
G01*
X102575500Y-77306000D01*
G75*
G02*
X102325500Y-77056000I0J250000D01*
G01*
G37*
G36*
G01*
X100250500Y-77056000D02*
X100250500Y-76106000D01*
G75*
G02*
X100500500Y-75856000I250000J0D01*
G01*
X101175500Y-75856000D01*
G75*
G02*
X101425500Y-76106000I0J-250000D01*
G01*
X101425500Y-77056000D01*
G75*
G02*
X101175500Y-77306000I-250000J0D01*
G01*
X100500500Y-77306000D01*
G75*
G02*
X100250500Y-77056000I0J250000D01*
G01*
G37*
%TD*%
%TO.C,C17*%
G36*
G01*
X103373500Y-71153000D02*
X103373500Y-72103000D01*
G75*
G02*
X103123500Y-72353000I-250000J0D01*
G01*
X102448500Y-72353000D01*
G75*
G02*
X102198500Y-72103000I0J250000D01*
G01*
X102198500Y-71153000D01*
G75*
G02*
X102448500Y-70903000I250000J0D01*
G01*
X103123500Y-70903000D01*
G75*
G02*
X103373500Y-71153000I0J-250000D01*
G01*
G37*
G36*
G01*
X101298500Y-71153000D02*
X101298500Y-72103000D01*
G75*
G02*
X101048500Y-72353000I-250000J0D01*
G01*
X100373500Y-72353000D01*
G75*
G02*
X100123500Y-72103000I0J250000D01*
G01*
X100123500Y-71153000D01*
G75*
G02*
X100373500Y-70903000I250000J0D01*
G01*
X101048500Y-70903000D01*
G75*
G02*
X101298500Y-71153000I0J-250000D01*
G01*
G37*
%TD*%
%TO.C,R4*%
G36*
G01*
X82099999Y-71790000D02*
X83000001Y-71790000D01*
G75*
G02*
X83250000Y-72039999I0J-249999D01*
G01*
X83250000Y-72740001D01*
G75*
G02*
X83000001Y-72990000I-249999J0D01*
G01*
X82099999Y-72990000D01*
G75*
G02*
X81850000Y-72740001I0J249999D01*
G01*
X81850000Y-72039999D01*
G75*
G02*
X82099999Y-71790000I249999J0D01*
G01*
G37*
G36*
G01*
X82099999Y-69790000D02*
X83000001Y-69790000D01*
G75*
G02*
X83250000Y-70039999I0J-249999D01*
G01*
X83250000Y-70740001D01*
G75*
G02*
X83000001Y-70990000I-249999J0D01*
G01*
X82099999Y-70990000D01*
G75*
G02*
X81850000Y-70740001I0J249999D01*
G01*
X81850000Y-70039999D01*
G75*
G02*
X82099999Y-69790000I249999J0D01*
G01*
G37*
%TD*%
%TO.C,R5*%
G36*
G01*
X90389000Y-69780999D02*
X90389000Y-70681001D01*
G75*
G02*
X90139001Y-70931000I-249999J0D01*
G01*
X89438999Y-70931000D01*
G75*
G02*
X89189000Y-70681001I0J249999D01*
G01*
X89189000Y-69780999D01*
G75*
G02*
X89438999Y-69531000I249999J0D01*
G01*
X90139001Y-69531000D01*
G75*
G02*
X90389000Y-69780999I0J-249999D01*
G01*
G37*
G36*
G01*
X88389000Y-69780999D02*
X88389000Y-70681001D01*
G75*
G02*
X88139001Y-70931000I-249999J0D01*
G01*
X87438999Y-70931000D01*
G75*
G02*
X87189000Y-70681001I0J249999D01*
G01*
X87189000Y-69780999D01*
G75*
G02*
X87438999Y-69531000I249999J0D01*
G01*
X88139001Y-69531000D01*
G75*
G02*
X88389000Y-69780999I0J-249999D01*
G01*
G37*
%TD*%
%TO.C,R8*%
G36*
G01*
X89189000Y-68141001D02*
X89189000Y-67240999D01*
G75*
G02*
X89438999Y-66991000I249999J0D01*
G01*
X90139001Y-66991000D01*
G75*
G02*
X90389000Y-67240999I0J-249999D01*
G01*
X90389000Y-68141001D01*
G75*
G02*
X90139001Y-68391000I-249999J0D01*
G01*
X89438999Y-68391000D01*
G75*
G02*
X89189000Y-68141001I0J249999D01*
G01*
G37*
G36*
G01*
X87189000Y-68141001D02*
X87189000Y-67240999D01*
G75*
G02*
X87438999Y-66991000I249999J0D01*
G01*
X88139001Y-66991000D01*
G75*
G02*
X88389000Y-67240999I0J-249999D01*
G01*
X88389000Y-68141001D01*
G75*
G02*
X88139001Y-68391000I-249999J0D01*
G01*
X87438999Y-68391000D01*
G75*
G02*
X87189000Y-68141001I0J249999D01*
G01*
G37*
%TD*%
%TO.C,R9*%
G36*
G01*
X96063000Y-74491001D02*
X96063000Y-73590999D01*
G75*
G02*
X96312999Y-73341000I249999J0D01*
G01*
X97013001Y-73341000D01*
G75*
G02*
X97263000Y-73590999I0J-249999D01*
G01*
X97263000Y-74491001D01*
G75*
G02*
X97013001Y-74741000I-249999J0D01*
G01*
X96312999Y-74741000D01*
G75*
G02*
X96063000Y-74491001I0J249999D01*
G01*
G37*
G36*
G01*
X98063000Y-74491001D02*
X98063000Y-73590999D01*
G75*
G02*
X98312999Y-73341000I249999J0D01*
G01*
X99013001Y-73341000D01*
G75*
G02*
X99263000Y-73590999I0J-249999D01*
G01*
X99263000Y-74491001D01*
G75*
G02*
X99013001Y-74741000I-249999J0D01*
G01*
X98312999Y-74741000D01*
G75*
G02*
X98063000Y-74491001I0J249999D01*
G01*
G37*
%TD*%
%TO.C,R10*%
G36*
G01*
X101438000Y-73590999D02*
X101438000Y-74491001D01*
G75*
G02*
X101188001Y-74741000I-249999J0D01*
G01*
X100487999Y-74741000D01*
G75*
G02*
X100238000Y-74491001I0J249999D01*
G01*
X100238000Y-73590999D01*
G75*
G02*
X100487999Y-73341000I249999J0D01*
G01*
X101188001Y-73341000D01*
G75*
G02*
X101438000Y-73590999I0J-249999D01*
G01*
G37*
G36*
G01*
X103438000Y-73590999D02*
X103438000Y-74491001D01*
G75*
G02*
X103188001Y-74741000I-249999J0D01*
G01*
X102487999Y-74741000D01*
G75*
G02*
X102238000Y-74491001I0J249999D01*
G01*
X102238000Y-73590999D01*
G75*
G02*
X102487999Y-73341000I249999J0D01*
G01*
X103188001Y-73341000D01*
G75*
G02*
X103438000Y-73590999I0J-249999D01*
G01*
G37*
%TD*%
%TO.C,R11*%
G36*
G01*
X103311000Y-68891999D02*
X103311000Y-69792001D01*
G75*
G02*
X103061001Y-70042000I-249999J0D01*
G01*
X102360999Y-70042000D01*
G75*
G02*
X102111000Y-69792001I0J249999D01*
G01*
X102111000Y-68891999D01*
G75*
G02*
X102360999Y-68642000I249999J0D01*
G01*
X103061001Y-68642000D01*
G75*
G02*
X103311000Y-68891999I0J-249999D01*
G01*
G37*
G36*
G01*
X101311000Y-68891999D02*
X101311000Y-69792001D01*
G75*
G02*
X101061001Y-70042000I-249999J0D01*
G01*
X100360999Y-70042000D01*
G75*
G02*
X100111000Y-69792001I0J249999D01*
G01*
X100111000Y-68891999D01*
G75*
G02*
X100360999Y-68642000I249999J0D01*
G01*
X101061001Y-68642000D01*
G75*
G02*
X101311000Y-68891999I0J-249999D01*
G01*
G37*
%TD*%
%TO.C,R12*%
G36*
G01*
X101311000Y-66605999D02*
X101311000Y-67506001D01*
G75*
G02*
X101061001Y-67756000I-249999J0D01*
G01*
X100360999Y-67756000D01*
G75*
G02*
X100111000Y-67506001I0J249999D01*
G01*
X100111000Y-66605999D01*
G75*
G02*
X100360999Y-66356000I249999J0D01*
G01*
X101061001Y-66356000D01*
G75*
G02*
X101311000Y-66605999I0J-249999D01*
G01*
G37*
G36*
G01*
X103311000Y-66605999D02*
X103311000Y-67506001D01*
G75*
G02*
X103061001Y-67756000I-249999J0D01*
G01*
X102360999Y-67756000D01*
G75*
G02*
X102111000Y-67506001I0J249999D01*
G01*
X102111000Y-66605999D01*
G75*
G02*
X102360999Y-66356000I249999J0D01*
G01*
X103061001Y-66356000D01*
G75*
G02*
X103311000Y-66605999I0J-249999D01*
G01*
G37*
%TD*%
%TO.C,U1*%
G36*
G01*
X91608000Y-68222000D02*
X91608000Y-67922000D01*
G75*
G02*
X91758000Y-67772000I150000J0D01*
G01*
X93408000Y-67772000D01*
G75*
G02*
X93558000Y-67922000I0J-150000D01*
G01*
X93558000Y-68222000D01*
G75*
G02*
X93408000Y-68372000I-150000J0D01*
G01*
X91758000Y-68372000D01*
G75*
G02*
X91608000Y-68222000I0J150000D01*
G01*
G37*
G36*
G01*
X91608000Y-69492000D02*
X91608000Y-69192000D01*
G75*
G02*
X91758000Y-69042000I150000J0D01*
G01*
X93408000Y-69042000D01*
G75*
G02*
X93558000Y-69192000I0J-150000D01*
G01*
X93558000Y-69492000D01*
G75*
G02*
X93408000Y-69642000I-150000J0D01*
G01*
X91758000Y-69642000D01*
G75*
G02*
X91608000Y-69492000I0J150000D01*
G01*
G37*
G36*
G01*
X91608000Y-70762000D02*
X91608000Y-70462000D01*
G75*
G02*
X91758000Y-70312000I150000J0D01*
G01*
X93408000Y-70312000D01*
G75*
G02*
X93558000Y-70462000I0J-150000D01*
G01*
X93558000Y-70762000D01*
G75*
G02*
X93408000Y-70912000I-150000J0D01*
G01*
X91758000Y-70912000D01*
G75*
G02*
X91608000Y-70762000I0J150000D01*
G01*
G37*
G36*
G01*
X91608000Y-72032000D02*
X91608000Y-71732000D01*
G75*
G02*
X91758000Y-71582000I150000J0D01*
G01*
X93408000Y-71582000D01*
G75*
G02*
X93558000Y-71732000I0J-150000D01*
G01*
X93558000Y-72032000D01*
G75*
G02*
X93408000Y-72182000I-150000J0D01*
G01*
X91758000Y-72182000D01*
G75*
G02*
X91608000Y-72032000I0J150000D01*
G01*
G37*
G36*
G01*
X96558000Y-72032000D02*
X96558000Y-71732000D01*
G75*
G02*
X96708000Y-71582000I150000J0D01*
G01*
X98358000Y-71582000D01*
G75*
G02*
X98508000Y-71732000I0J-150000D01*
G01*
X98508000Y-72032000D01*
G75*
G02*
X98358000Y-72182000I-150000J0D01*
G01*
X96708000Y-72182000D01*
G75*
G02*
X96558000Y-72032000I0J150000D01*
G01*
G37*
G36*
G01*
X96558000Y-70762000D02*
X96558000Y-70462000D01*
G75*
G02*
X96708000Y-70312000I150000J0D01*
G01*
X98358000Y-70312000D01*
G75*
G02*
X98508000Y-70462000I0J-150000D01*
G01*
X98508000Y-70762000D01*
G75*
G02*
X98358000Y-70912000I-150000J0D01*
G01*
X96708000Y-70912000D01*
G75*
G02*
X96558000Y-70762000I0J150000D01*
G01*
G37*
G36*
G01*
X96558000Y-69492000D02*
X96558000Y-69192000D01*
G75*
G02*
X96708000Y-69042000I150000J0D01*
G01*
X98358000Y-69042000D01*
G75*
G02*
X98508000Y-69192000I0J-150000D01*
G01*
X98508000Y-69492000D01*
G75*
G02*
X98358000Y-69642000I-150000J0D01*
G01*
X96708000Y-69642000D01*
G75*
G02*
X96558000Y-69492000I0J150000D01*
G01*
G37*
G36*
G01*
X96558000Y-68222000D02*
X96558000Y-67922000D01*
G75*
G02*
X96708000Y-67772000I150000J0D01*
G01*
X98358000Y-67772000D01*
G75*
G02*
X98508000Y-67922000I0J-150000D01*
G01*
X98508000Y-68222000D01*
G75*
G02*
X98358000Y-68372000I-150000J0D01*
G01*
X96708000Y-68372000D01*
G75*
G02*
X96558000Y-68222000I0J150000D01*
G01*
G37*
%TD*%
M02*
