%TF.GenerationSoftware,KiCad,Pcbnew,(5.1.8)-1*%
%TF.CreationDate,2021-05-16T11:41:04-04:00*%
%TF.ProjectId,openEPR_Lock-In,6f70656e-4550-4525-9f4c-6f636b2d496e,B*%
%TF.SameCoordinates,Original*%
%TF.FileFunction,Legend,Top*%
%TF.FilePolarity,Positive*%
%FSLAX46Y46*%
G04 Gerber Fmt 4.6, Leading zero omitted, Abs format (unit mm)*
G04 Created by KiCad (PCBNEW (5.1.8)-1) date 2021-05-16 11:41:04*
%MOMM*%
%LPD*%
G01*
G04 APERTURE LIST*
%ADD10C,0.150000*%
%ADD11C,0.120000*%
G04 APERTURE END LIST*
D10*
X55332380Y-29598809D02*
X56332380Y-29265476D01*
X55332380Y-28932142D01*
X56332380Y-28598809D02*
X55665714Y-28598809D01*
X55332380Y-28598809D02*
X55380000Y-28646428D01*
X55427619Y-28598809D01*
X55380000Y-28551190D01*
X55332380Y-28598809D01*
X55427619Y-28598809D01*
X55665714Y-28122619D02*
X56332380Y-28122619D01*
X55760952Y-28122619D02*
X55713333Y-28075000D01*
X55665714Y-27979761D01*
X55665714Y-27836904D01*
X55713333Y-27741666D01*
X55808571Y-27694047D01*
X56332380Y-27694047D01*
X44696190Y-46442380D02*
X45029523Y-47442380D01*
X45362857Y-46442380D01*
X45696190Y-47442380D02*
X45696190Y-46775714D01*
X45696190Y-46442380D02*
X45648571Y-46490000D01*
X45696190Y-46537619D01*
X45743809Y-46490000D01*
X45696190Y-46442380D01*
X45696190Y-46537619D01*
X46172380Y-46775714D02*
X46172380Y-47442380D01*
X46172380Y-46870952D02*
X46220000Y-46823333D01*
X46315238Y-46775714D01*
X46458095Y-46775714D01*
X46553333Y-46823333D01*
X46600952Y-46918571D01*
X46600952Y-47442380D01*
X63000000Y-29336904D02*
X62952380Y-29432142D01*
X62952380Y-29575000D01*
X63000000Y-29717857D01*
X63095238Y-29813095D01*
X63190476Y-29860714D01*
X63380952Y-29908333D01*
X63523809Y-29908333D01*
X63714285Y-29860714D01*
X63809523Y-29813095D01*
X63904761Y-29717857D01*
X63952380Y-29575000D01*
X63952380Y-29479761D01*
X63904761Y-29336904D01*
X63857142Y-29289285D01*
X63523809Y-29289285D01*
X63523809Y-29479761D01*
X63952380Y-28860714D02*
X62952380Y-28860714D01*
X63952380Y-28289285D01*
X62952380Y-28289285D01*
X63952380Y-27813095D02*
X62952380Y-27813095D01*
X62952380Y-27575000D01*
X63000000Y-27432142D01*
X63095238Y-27336904D01*
X63190476Y-27289285D01*
X63380952Y-27241666D01*
X63523809Y-27241666D01*
X63714285Y-27289285D01*
X63809523Y-27336904D01*
X63904761Y-27432142D01*
X63952380Y-27575000D01*
X63952380Y-27813095D01*
X61031428Y-29908333D02*
X61031428Y-29146428D01*
X61412380Y-28146428D02*
X61412380Y-28717857D01*
X61412380Y-28432142D02*
X60412380Y-28432142D01*
X60555238Y-28527380D01*
X60650476Y-28622619D01*
X60698095Y-28717857D01*
X60507619Y-27765476D02*
X60460000Y-27717857D01*
X60412380Y-27622619D01*
X60412380Y-27384523D01*
X60460000Y-27289285D01*
X60507619Y-27241666D01*
X60602857Y-27194047D01*
X60698095Y-27194047D01*
X60840952Y-27241666D01*
X61412380Y-27813095D01*
X61412380Y-27194047D01*
X58491428Y-29908333D02*
X58491428Y-29146428D01*
X58872380Y-29527380D02*
X58110476Y-29527380D01*
X58872380Y-28146428D02*
X58872380Y-28717857D01*
X58872380Y-28432142D02*
X57872380Y-28432142D01*
X58015238Y-28527380D01*
X58110476Y-28622619D01*
X58158095Y-28717857D01*
X57967619Y-27765476D02*
X57920000Y-27717857D01*
X57872380Y-27622619D01*
X57872380Y-27384523D01*
X57920000Y-27289285D01*
X57967619Y-27241666D01*
X58062857Y-27194047D01*
X58158095Y-27194047D01*
X58300952Y-27241666D01*
X58872380Y-27813095D01*
X58872380Y-27194047D01*
X109998095Y-38171428D02*
X110760000Y-38171428D01*
X111760000Y-38552380D02*
X111188571Y-38552380D01*
X111474285Y-38552380D02*
X111474285Y-37552380D01*
X111379047Y-37695238D01*
X111283809Y-37790476D01*
X111188571Y-37838095D01*
X112140952Y-37647619D02*
X112188571Y-37600000D01*
X112283809Y-37552380D01*
X112521904Y-37552380D01*
X112617142Y-37600000D01*
X112664761Y-37647619D01*
X112712380Y-37742857D01*
X112712380Y-37838095D01*
X112664761Y-37980952D01*
X112093333Y-38552380D01*
X112712380Y-38552380D01*
X112998095Y-37552380D02*
X113331428Y-38552380D01*
X113664761Y-37552380D01*
X109998095Y-48331428D02*
X110760000Y-48331428D01*
X110379047Y-48712380D02*
X110379047Y-47950476D01*
X111760000Y-48712380D02*
X111188571Y-48712380D01*
X111474285Y-48712380D02*
X111474285Y-47712380D01*
X111379047Y-47855238D01*
X111283809Y-47950476D01*
X111188571Y-47998095D01*
X112140952Y-47807619D02*
X112188571Y-47760000D01*
X112283809Y-47712380D01*
X112521904Y-47712380D01*
X112617142Y-47760000D01*
X112664761Y-47807619D01*
X112712380Y-47902857D01*
X112712380Y-47998095D01*
X112664761Y-48140952D01*
X112093333Y-48712380D01*
X112712380Y-48712380D01*
X112998095Y-47712380D02*
X113331428Y-48712380D01*
X113664761Y-47712380D01*
X110998095Y-42680000D02*
X110902857Y-42632380D01*
X110760000Y-42632380D01*
X110617142Y-42680000D01*
X110521904Y-42775238D01*
X110474285Y-42870476D01*
X110426666Y-43060952D01*
X110426666Y-43203809D01*
X110474285Y-43394285D01*
X110521904Y-43489523D01*
X110617142Y-43584761D01*
X110760000Y-43632380D01*
X110855238Y-43632380D01*
X110998095Y-43584761D01*
X111045714Y-43537142D01*
X111045714Y-43203809D01*
X110855238Y-43203809D01*
X111474285Y-43632380D02*
X111474285Y-42632380D01*
X112045714Y-43632380D01*
X112045714Y-42632380D01*
X112521904Y-43632380D02*
X112521904Y-42632380D01*
X112760000Y-42632380D01*
X112902857Y-42680000D01*
X112998095Y-42775238D01*
X113045714Y-42870476D01*
X113093333Y-43060952D01*
X113093333Y-43203809D01*
X113045714Y-43394285D01*
X112998095Y-43489523D01*
X112902857Y-43584761D01*
X112760000Y-43632380D01*
X112521904Y-43632380D01*
X119832380Y-66618095D02*
X119784761Y-66713333D01*
X119737142Y-66760952D01*
X119641904Y-66808571D01*
X119356190Y-66808571D01*
X119260952Y-66760952D01*
X119213333Y-66713333D01*
X119165714Y-66618095D01*
X119165714Y-66475238D01*
X119213333Y-66380000D01*
X119260952Y-66332380D01*
X119356190Y-66284761D01*
X119641904Y-66284761D01*
X119737142Y-66332380D01*
X119784761Y-66380000D01*
X119832380Y-66475238D01*
X119832380Y-66618095D01*
X119165714Y-65856190D02*
X120165714Y-65856190D01*
X119213333Y-65856190D02*
X119165714Y-65760952D01*
X119165714Y-65570476D01*
X119213333Y-65475238D01*
X119260952Y-65427619D01*
X119356190Y-65380000D01*
X119641904Y-65380000D01*
X119737142Y-65427619D01*
X119784761Y-65475238D01*
X119832380Y-65570476D01*
X119832380Y-65760952D01*
X119784761Y-65856190D01*
X119784761Y-64570476D02*
X119832380Y-64665714D01*
X119832380Y-64856190D01*
X119784761Y-64951428D01*
X119689523Y-64999047D01*
X119308571Y-64999047D01*
X119213333Y-64951428D01*
X119165714Y-64856190D01*
X119165714Y-64665714D01*
X119213333Y-64570476D01*
X119308571Y-64522857D01*
X119403809Y-64522857D01*
X119499047Y-64999047D01*
X119165714Y-64094285D02*
X119832380Y-64094285D01*
X119260952Y-64094285D02*
X119213333Y-64046666D01*
X119165714Y-63951428D01*
X119165714Y-63808571D01*
X119213333Y-63713333D01*
X119308571Y-63665714D01*
X119832380Y-63665714D01*
X119308571Y-63189523D02*
X119308571Y-62856190D01*
X119832380Y-62713333D02*
X119832380Y-63189523D01*
X118832380Y-63189523D01*
X118832380Y-62713333D01*
X119832380Y-62284761D02*
X118832380Y-62284761D01*
X118832380Y-61903809D01*
X118880000Y-61808571D01*
X118927619Y-61760952D01*
X119022857Y-61713333D01*
X119165714Y-61713333D01*
X119260952Y-61760952D01*
X119308571Y-61808571D01*
X119356190Y-61903809D01*
X119356190Y-62284761D01*
X119832380Y-60713333D02*
X119356190Y-61046666D01*
X119832380Y-61284761D02*
X118832380Y-61284761D01*
X118832380Y-60903809D01*
X118880000Y-60808571D01*
X118927619Y-60760952D01*
X119022857Y-60713333D01*
X119165714Y-60713333D01*
X119260952Y-60760952D01*
X119308571Y-60808571D01*
X119356190Y-60903809D01*
X119356190Y-61284761D01*
X119832380Y-59046666D02*
X119832380Y-59522857D01*
X118832380Y-59522857D01*
X119832380Y-58570476D02*
X119784761Y-58665714D01*
X119737142Y-58713333D01*
X119641904Y-58760952D01*
X119356190Y-58760952D01*
X119260952Y-58713333D01*
X119213333Y-58665714D01*
X119165714Y-58570476D01*
X119165714Y-58427619D01*
X119213333Y-58332380D01*
X119260952Y-58284761D01*
X119356190Y-58237142D01*
X119641904Y-58237142D01*
X119737142Y-58284761D01*
X119784761Y-58332380D01*
X119832380Y-58427619D01*
X119832380Y-58570476D01*
X119784761Y-57380000D02*
X119832380Y-57475238D01*
X119832380Y-57665714D01*
X119784761Y-57760952D01*
X119737142Y-57808571D01*
X119641904Y-57856190D01*
X119356190Y-57856190D01*
X119260952Y-57808571D01*
X119213333Y-57760952D01*
X119165714Y-57665714D01*
X119165714Y-57475238D01*
X119213333Y-57380000D01*
X119832380Y-56951428D02*
X118832380Y-56951428D01*
X119451428Y-56856190D02*
X119832380Y-56570476D01*
X119165714Y-56570476D02*
X119546666Y-56951428D01*
X119451428Y-56141904D02*
X119451428Y-55380000D01*
X119832380Y-54903809D02*
X118832380Y-54903809D01*
X119165714Y-54427619D02*
X119832380Y-54427619D01*
X119260952Y-54427619D02*
X119213333Y-54380000D01*
X119165714Y-54284761D01*
X119165714Y-54141904D01*
X119213333Y-54046666D01*
X119308571Y-53999047D01*
X119832380Y-53999047D01*
X119546666Y-52808571D02*
X119546666Y-52332380D01*
X119832380Y-52903809D02*
X118832380Y-52570476D01*
X119832380Y-52237142D01*
X119832380Y-51903809D02*
X119165714Y-51903809D01*
X119260952Y-51903809D02*
X119213333Y-51856190D01*
X119165714Y-51760952D01*
X119165714Y-51618095D01*
X119213333Y-51522857D01*
X119308571Y-51475238D01*
X119832380Y-51475238D01*
X119308571Y-51475238D02*
X119213333Y-51427619D01*
X119165714Y-51332380D01*
X119165714Y-51189523D01*
X119213333Y-51094285D01*
X119308571Y-51046666D01*
X119832380Y-51046666D01*
X119165714Y-50570476D02*
X120165714Y-50570476D01*
X119213333Y-50570476D02*
X119165714Y-50475238D01*
X119165714Y-50284761D01*
X119213333Y-50189523D01*
X119260952Y-50141904D01*
X119356190Y-50094285D01*
X119641904Y-50094285D01*
X119737142Y-50141904D01*
X119784761Y-50189523D01*
X119832380Y-50284761D01*
X119832380Y-50475238D01*
X119784761Y-50570476D01*
X119832380Y-48332380D02*
X119356190Y-48665714D01*
X119832380Y-48903809D02*
X118832380Y-48903809D01*
X118832380Y-48522857D01*
X118880000Y-48427619D01*
X118927619Y-48380000D01*
X119022857Y-48332380D01*
X119165714Y-48332380D01*
X119260952Y-48380000D01*
X119308571Y-48427619D01*
X119356190Y-48522857D01*
X119356190Y-48903809D01*
X119784761Y-47522857D02*
X119832380Y-47618095D01*
X119832380Y-47808571D01*
X119784761Y-47903809D01*
X119689523Y-47951428D01*
X119308571Y-47951428D01*
X119213333Y-47903809D01*
X119165714Y-47808571D01*
X119165714Y-47618095D01*
X119213333Y-47522857D01*
X119308571Y-47475238D01*
X119403809Y-47475238D01*
X119499047Y-47951428D01*
X119165714Y-47141904D02*
X119832380Y-46903809D01*
X119165714Y-46665714D01*
X119308571Y-45189523D02*
X119356190Y-45046666D01*
X119403809Y-44999047D01*
X119499047Y-44951428D01*
X119641904Y-44951428D01*
X119737142Y-44999047D01*
X119784761Y-45046666D01*
X119832380Y-45141904D01*
X119832380Y-45522857D01*
X118832380Y-45522857D01*
X118832380Y-45189523D01*
X118880000Y-45094285D01*
X118927619Y-45046666D01*
X119022857Y-44999047D01*
X119118095Y-44999047D01*
X119213333Y-45046666D01*
X119260952Y-45094285D01*
X119308571Y-45189523D01*
X119308571Y-45522857D01*
X97552000Y-82002380D02*
X97742476Y-82002380D01*
X97837714Y-82050000D01*
X97932952Y-82145238D01*
X97980571Y-82335714D01*
X97980571Y-82669047D01*
X97932952Y-82859523D01*
X97837714Y-82954761D01*
X97742476Y-83002380D01*
X97552000Y-83002380D01*
X97456761Y-82954761D01*
X97361523Y-82859523D01*
X97313904Y-82669047D01*
X97313904Y-82335714D01*
X97361523Y-82145238D01*
X97456761Y-82050000D01*
X97552000Y-82002380D01*
X98409142Y-82002380D02*
X98409142Y-82811904D01*
X98456761Y-82907142D01*
X98504380Y-82954761D01*
X98599619Y-83002380D01*
X98790095Y-83002380D01*
X98885333Y-82954761D01*
X98932952Y-82907142D01*
X98980571Y-82811904D01*
X98980571Y-82002380D01*
X99313904Y-82002380D02*
X99885333Y-82002380D01*
X99599619Y-83002380D02*
X99599619Y-82002380D01*
X77827238Y-83002380D02*
X77493904Y-82526190D01*
X77255809Y-83002380D02*
X77255809Y-82002380D01*
X77636761Y-82002380D01*
X77732000Y-82050000D01*
X77779619Y-82097619D01*
X77827238Y-82192857D01*
X77827238Y-82335714D01*
X77779619Y-82430952D01*
X77732000Y-82478571D01*
X77636761Y-82526190D01*
X77255809Y-82526190D01*
X78636761Y-82954761D02*
X78541523Y-83002380D01*
X78351047Y-83002380D01*
X78255809Y-82954761D01*
X78208190Y-82859523D01*
X78208190Y-82478571D01*
X78255809Y-82383333D01*
X78351047Y-82335714D01*
X78541523Y-82335714D01*
X78636761Y-82383333D01*
X78684380Y-82478571D01*
X78684380Y-82573809D01*
X78208190Y-82669047D01*
X78970095Y-82335714D02*
X79351047Y-82335714D01*
X79112952Y-83002380D02*
X79112952Y-82145238D01*
X79160571Y-82050000D01*
X79255809Y-82002380D01*
X79351047Y-82002380D01*
X57467619Y-82002380D02*
X57800952Y-83002380D01*
X58134285Y-82002380D01*
X58467619Y-82621428D02*
X59229523Y-82621428D01*
X58848571Y-83002380D02*
X58848571Y-82240476D01*
X37147619Y-82129380D02*
X37480952Y-83129380D01*
X37814285Y-82129380D01*
X38147619Y-82748428D02*
X38909523Y-82748428D01*
D11*
%TO.C,R13*%
X50138064Y-80364000D02*
X49683936Y-80364000D01*
X50138064Y-78894000D02*
X49683936Y-78894000D01*
%TO.C,J6*%
X64830000Y-33080000D02*
X64830000Y-30420000D01*
X57150000Y-33080000D02*
X64830000Y-33080000D01*
X57150000Y-30420000D02*
X64830000Y-30420000D01*
X57150000Y-33080000D02*
X57150000Y-30420000D01*
X55880000Y-33080000D02*
X54550000Y-33080000D01*
X54550000Y-33080000D02*
X54550000Y-31750000D01*
%TO.C,R7*%
X93556064Y-65886000D02*
X93101936Y-65886000D01*
X93556064Y-64416000D02*
X93101936Y-64416000D01*
%TO.C,TP8*%
X83500000Y-76200000D02*
G75*
G03*
X83500000Y-76200000I-950000J0D01*
G01*
%TO.C,TP7*%
X108900000Y-78740000D02*
G75*
G03*
X108900000Y-78740000I-950000J0D01*
G01*
%TO.C,TP6*%
X59624000Y-60198000D02*
G75*
G03*
X59624000Y-60198000I-950000J0D01*
G01*
%TO.C,TP5*%
X49210000Y-61214000D02*
G75*
G03*
X49210000Y-61214000I-950000J0D01*
G01*
%TO.C,U4*%
X93980000Y-43688000D02*
X93980000Y-48768000D01*
X93980000Y-38608000D02*
X93980000Y-33528000D01*
X93980000Y-30988000D02*
X93980000Y-28448000D01*
X91440000Y-28448000D02*
X93980000Y-28448000D01*
X91440000Y-28448000D02*
X88900000Y-28448000D01*
X93980000Y-51308000D02*
X93980000Y-53848000D01*
X93980000Y-53848000D02*
X88900000Y-53848000D01*
X83820000Y-53848000D02*
X78740000Y-53848000D01*
X73660000Y-53848000D02*
X68580000Y-53848000D01*
X68580000Y-53848000D02*
X68580000Y-51308000D01*
X68580000Y-48768000D02*
X68580000Y-43688000D01*
X68580000Y-38608000D02*
X68580000Y-33528000D01*
X83820000Y-28448000D02*
X78740000Y-28448000D01*
X73660000Y-28448000D02*
X68580000Y-28448000D01*
X68580000Y-28448000D02*
X68580000Y-30988000D01*
%TO.C,TP4*%
X109400000Y-38100000D02*
G75*
G03*
X109400000Y-38100000I-1450000J0D01*
G01*
%TO.C,TP3*%
X109400000Y-48260000D02*
G75*
G03*
X109400000Y-48260000I-1450000J0D01*
G01*
%TO.C,TP2*%
X47170000Y-44450000D02*
G75*
G03*
X47170000Y-44450000I-1450000J0D01*
G01*
%TO.C,TP1*%
X109400000Y-43180000D02*
G75*
G03*
X109400000Y-43180000I-1450000J0D01*
G01*
%TO.C,J4*%
X50320000Y-39000000D02*
X47720000Y-39000000D01*
X50320000Y-24300000D02*
X50320000Y-39000000D01*
X41120000Y-39000000D02*
X41120000Y-37100000D01*
X43820000Y-39000000D02*
X41120000Y-39000000D01*
X41120000Y-24300000D02*
X50320000Y-24300000D01*
X41120000Y-33100000D02*
X41120000Y-24300000D01*
X50520000Y-38150000D02*
X50520000Y-39200000D01*
X49470000Y-39200000D02*
X50520000Y-39200000D01*
%TO.C,C15*%
X89034252Y-74576000D02*
X88511748Y-74576000D01*
X89034252Y-76046000D02*
X88511748Y-76046000D01*
%TO.C,C1*%
X44350000Y-76976248D02*
X44350000Y-77498752D01*
X45820000Y-76976248D02*
X45820000Y-77498752D01*
%TO.C,C2*%
X50193752Y-77951000D02*
X49671248Y-77951000D01*
X50193752Y-76481000D02*
X49671248Y-76481000D01*
%TO.C,C3*%
X55145000Y-77498752D02*
X55145000Y-76976248D01*
X56615000Y-77498752D02*
X56615000Y-76976248D01*
%TO.C,C5*%
X53900400Y-65444648D02*
X53900400Y-65967152D01*
X55370400Y-65444648D02*
X55370400Y-65967152D01*
%TO.C,C8*%
X47991752Y-65813000D02*
X47469248Y-65813000D01*
X47991752Y-67283000D02*
X47469248Y-67283000D01*
%TO.C,C12*%
X78133752Y-76735000D02*
X77611248Y-76735000D01*
X78133752Y-78205000D02*
X77611248Y-78205000D01*
%TO.C,J1*%
X64340000Y-82418000D02*
X65450000Y-82418000D01*
X61550000Y-82418000D02*
X62660000Y-82418000D01*
X64340000Y-86128000D02*
X65450000Y-86128000D01*
X61550000Y-86128000D02*
X62660000Y-86128000D01*
X63500000Y-81868000D02*
X63750000Y-81368000D01*
X63750000Y-81368000D02*
X63250000Y-81368000D01*
X63250000Y-81368000D02*
X63500000Y-81868000D01*
%TO.C,J2*%
X42930000Y-81368000D02*
X43180000Y-81868000D01*
X43430000Y-81368000D02*
X42930000Y-81368000D01*
X43180000Y-81868000D02*
X43430000Y-81368000D01*
X41230000Y-86128000D02*
X42340000Y-86128000D01*
X44020000Y-86128000D02*
X45130000Y-86128000D01*
X41230000Y-82418000D02*
X42340000Y-82418000D01*
X44020000Y-82418000D02*
X45130000Y-82418000D01*
%TO.C,J3*%
X104980000Y-82418000D02*
X106090000Y-82418000D01*
X102190000Y-82418000D02*
X103300000Y-82418000D01*
X104980000Y-86128000D02*
X106090000Y-86128000D01*
X102190000Y-86128000D02*
X103300000Y-86128000D01*
X104140000Y-81868000D02*
X104390000Y-81368000D01*
X104390000Y-81368000D02*
X103890000Y-81368000D01*
X103890000Y-81368000D02*
X104140000Y-81868000D01*
%TO.C,R1*%
X41810000Y-76972936D02*
X41810000Y-77427064D01*
X43280000Y-76972936D02*
X43280000Y-77427064D01*
%TO.C,R2*%
X59155000Y-77004936D02*
X59155000Y-77459064D01*
X57685000Y-77004936D02*
X57685000Y-77459064D01*
%TO.C,R3*%
X45947000Y-71416936D02*
X45947000Y-71871064D01*
X44477000Y-71416936D02*
X44477000Y-71871064D01*
%TO.C,R6*%
X57885000Y-65902064D02*
X57885000Y-65447936D01*
X56415000Y-65902064D02*
X56415000Y-65447936D01*
%TO.C,U2*%
X47351000Y-71693000D02*
X47351000Y-75143000D01*
X47351000Y-71693000D02*
X47351000Y-69743000D01*
X52471000Y-71693000D02*
X52471000Y-73643000D01*
X52471000Y-71693000D02*
X52471000Y-69743000D01*
%TO.C,U3*%
X70230000Y-62940000D02*
X68415000Y-62940000D01*
X70230000Y-62705000D02*
X70230000Y-62940000D01*
X74090000Y-62705000D02*
X70230000Y-62705000D01*
X77950000Y-62705000D02*
X77950000Y-62940000D01*
X74090000Y-62705000D02*
X77950000Y-62705000D01*
X70230000Y-75725000D02*
X70230000Y-75490000D01*
X74090000Y-75725000D02*
X70230000Y-75725000D01*
X77950000Y-75725000D02*
X77950000Y-75490000D01*
X74090000Y-75725000D02*
X77950000Y-75725000D01*
%TO.C,J5*%
X84660000Y-82418000D02*
X85770000Y-82418000D01*
X81870000Y-82418000D02*
X82980000Y-82418000D01*
X84660000Y-86128000D02*
X85770000Y-86128000D01*
X81870000Y-86128000D02*
X82980000Y-86128000D01*
X83820000Y-81868000D02*
X84070000Y-81368000D01*
X84070000Y-81368000D02*
X83570000Y-81368000D01*
X83570000Y-81368000D02*
X83820000Y-81868000D01*
%TO.C,C13*%
X53875000Y-72883752D02*
X53875000Y-72361248D01*
X55345000Y-72883752D02*
X55345000Y-72361248D01*
%TO.C,C14*%
X65305000Y-73166248D02*
X65305000Y-73688752D01*
X66775000Y-73166248D02*
X66775000Y-73688752D01*
%TO.C,C7*%
X63810000Y-41235000D02*
G75*
G03*
X63810000Y-41235000I-4120000J0D01*
G01*
X63770000Y-41235000D02*
X55610000Y-41235000D01*
X63770000Y-41275000D02*
X55610000Y-41275000D01*
X63770000Y-41315000D02*
X55610000Y-41315000D01*
X63769000Y-41355000D02*
X55611000Y-41355000D01*
X63767000Y-41395000D02*
X55613000Y-41395000D01*
X63766000Y-41435000D02*
X55614000Y-41435000D01*
X63764000Y-41475000D02*
X55616000Y-41475000D01*
X63761000Y-41515000D02*
X55619000Y-41515000D01*
X63758000Y-41555000D02*
X55622000Y-41555000D01*
X63755000Y-41595000D02*
X55625000Y-41595000D01*
X63751000Y-41635000D02*
X55629000Y-41635000D01*
X63747000Y-41675000D02*
X55633000Y-41675000D01*
X63742000Y-41715000D02*
X55638000Y-41715000D01*
X63738000Y-41755000D02*
X55642000Y-41755000D01*
X63732000Y-41795000D02*
X55648000Y-41795000D01*
X63727000Y-41835000D02*
X55653000Y-41835000D01*
X63720000Y-41875000D02*
X55660000Y-41875000D01*
X63714000Y-41915000D02*
X55666000Y-41915000D01*
X63707000Y-41956000D02*
X55673000Y-41956000D01*
X63700000Y-41996000D02*
X55680000Y-41996000D01*
X63692000Y-42036000D02*
X55688000Y-42036000D01*
X63684000Y-42076000D02*
X55696000Y-42076000D01*
X63675000Y-42116000D02*
X55705000Y-42116000D01*
X63666000Y-42156000D02*
X55714000Y-42156000D01*
X63657000Y-42196000D02*
X55723000Y-42196000D01*
X63647000Y-42236000D02*
X55733000Y-42236000D01*
X63637000Y-42276000D02*
X55743000Y-42276000D01*
X63626000Y-42316000D02*
X55754000Y-42316000D01*
X63615000Y-42356000D02*
X55765000Y-42356000D01*
X63604000Y-42396000D02*
X55776000Y-42396000D01*
X63592000Y-42436000D02*
X55788000Y-42436000D01*
X63579000Y-42476000D02*
X55801000Y-42476000D01*
X63567000Y-42516000D02*
X55813000Y-42516000D01*
X63553000Y-42556000D02*
X55827000Y-42556000D01*
X63540000Y-42596000D02*
X55840000Y-42596000D01*
X63525000Y-42636000D02*
X55855000Y-42636000D01*
X63511000Y-42676000D02*
X55869000Y-42676000D01*
X63495000Y-42716000D02*
X60730000Y-42716000D01*
X58650000Y-42716000D02*
X55885000Y-42716000D01*
X63480000Y-42756000D02*
X60730000Y-42756000D01*
X58650000Y-42756000D02*
X55900000Y-42756000D01*
X63464000Y-42796000D02*
X60730000Y-42796000D01*
X58650000Y-42796000D02*
X55916000Y-42796000D01*
X63447000Y-42836000D02*
X60730000Y-42836000D01*
X58650000Y-42836000D02*
X55933000Y-42836000D01*
X63430000Y-42876000D02*
X60730000Y-42876000D01*
X58650000Y-42876000D02*
X55950000Y-42876000D01*
X63412000Y-42916000D02*
X60730000Y-42916000D01*
X58650000Y-42916000D02*
X55968000Y-42916000D01*
X63394000Y-42956000D02*
X60730000Y-42956000D01*
X58650000Y-42956000D02*
X55986000Y-42956000D01*
X63376000Y-42996000D02*
X60730000Y-42996000D01*
X58650000Y-42996000D02*
X56004000Y-42996000D01*
X63356000Y-43036000D02*
X60730000Y-43036000D01*
X58650000Y-43036000D02*
X56024000Y-43036000D01*
X63337000Y-43076000D02*
X60730000Y-43076000D01*
X58650000Y-43076000D02*
X56043000Y-43076000D01*
X63317000Y-43116000D02*
X60730000Y-43116000D01*
X58650000Y-43116000D02*
X56063000Y-43116000D01*
X63296000Y-43156000D02*
X60730000Y-43156000D01*
X58650000Y-43156000D02*
X56084000Y-43156000D01*
X63274000Y-43196000D02*
X60730000Y-43196000D01*
X58650000Y-43196000D02*
X56106000Y-43196000D01*
X63252000Y-43236000D02*
X60730000Y-43236000D01*
X58650000Y-43236000D02*
X56128000Y-43236000D01*
X63230000Y-43276000D02*
X60730000Y-43276000D01*
X58650000Y-43276000D02*
X56150000Y-43276000D01*
X63207000Y-43316000D02*
X60730000Y-43316000D01*
X58650000Y-43316000D02*
X56173000Y-43316000D01*
X63183000Y-43356000D02*
X60730000Y-43356000D01*
X58650000Y-43356000D02*
X56197000Y-43356000D01*
X63159000Y-43396000D02*
X60730000Y-43396000D01*
X58650000Y-43396000D02*
X56221000Y-43396000D01*
X63134000Y-43436000D02*
X60730000Y-43436000D01*
X58650000Y-43436000D02*
X56246000Y-43436000D01*
X63108000Y-43476000D02*
X60730000Y-43476000D01*
X58650000Y-43476000D02*
X56272000Y-43476000D01*
X63082000Y-43516000D02*
X60730000Y-43516000D01*
X58650000Y-43516000D02*
X56298000Y-43516000D01*
X63055000Y-43556000D02*
X60730000Y-43556000D01*
X58650000Y-43556000D02*
X56325000Y-43556000D01*
X63028000Y-43596000D02*
X60730000Y-43596000D01*
X58650000Y-43596000D02*
X56352000Y-43596000D01*
X62999000Y-43636000D02*
X60730000Y-43636000D01*
X58650000Y-43636000D02*
X56381000Y-43636000D01*
X62970000Y-43676000D02*
X60730000Y-43676000D01*
X58650000Y-43676000D02*
X56410000Y-43676000D01*
X62940000Y-43716000D02*
X60730000Y-43716000D01*
X58650000Y-43716000D02*
X56440000Y-43716000D01*
X62910000Y-43756000D02*
X60730000Y-43756000D01*
X58650000Y-43756000D02*
X56470000Y-43756000D01*
X62879000Y-43796000D02*
X60730000Y-43796000D01*
X58650000Y-43796000D02*
X56501000Y-43796000D01*
X62846000Y-43836000D02*
X60730000Y-43836000D01*
X58650000Y-43836000D02*
X56534000Y-43836000D01*
X62814000Y-43876000D02*
X60730000Y-43876000D01*
X58650000Y-43876000D02*
X56566000Y-43876000D01*
X62780000Y-43916000D02*
X60730000Y-43916000D01*
X58650000Y-43916000D02*
X56600000Y-43916000D01*
X62745000Y-43956000D02*
X60730000Y-43956000D01*
X58650000Y-43956000D02*
X56635000Y-43956000D01*
X62709000Y-43996000D02*
X60730000Y-43996000D01*
X58650000Y-43996000D02*
X56671000Y-43996000D01*
X62673000Y-44036000D02*
X60730000Y-44036000D01*
X58650000Y-44036000D02*
X56707000Y-44036000D01*
X62635000Y-44076000D02*
X60730000Y-44076000D01*
X58650000Y-44076000D02*
X56745000Y-44076000D01*
X62597000Y-44116000D02*
X60730000Y-44116000D01*
X58650000Y-44116000D02*
X56783000Y-44116000D01*
X62557000Y-44156000D02*
X60730000Y-44156000D01*
X58650000Y-44156000D02*
X56823000Y-44156000D01*
X62516000Y-44196000D02*
X60730000Y-44196000D01*
X58650000Y-44196000D02*
X56864000Y-44196000D01*
X62474000Y-44236000D02*
X60730000Y-44236000D01*
X58650000Y-44236000D02*
X56906000Y-44236000D01*
X62431000Y-44276000D02*
X60730000Y-44276000D01*
X58650000Y-44276000D02*
X56949000Y-44276000D01*
X62387000Y-44316000D02*
X60730000Y-44316000D01*
X58650000Y-44316000D02*
X56993000Y-44316000D01*
X62341000Y-44356000D02*
X60730000Y-44356000D01*
X58650000Y-44356000D02*
X57039000Y-44356000D01*
X62294000Y-44396000D02*
X60730000Y-44396000D01*
X58650000Y-44396000D02*
X57086000Y-44396000D01*
X62246000Y-44436000D02*
X60730000Y-44436000D01*
X58650000Y-44436000D02*
X57134000Y-44436000D01*
X62195000Y-44476000D02*
X60730000Y-44476000D01*
X58650000Y-44476000D02*
X57185000Y-44476000D01*
X62144000Y-44516000D02*
X60730000Y-44516000D01*
X58650000Y-44516000D02*
X57236000Y-44516000D01*
X62090000Y-44556000D02*
X60730000Y-44556000D01*
X58650000Y-44556000D02*
X57290000Y-44556000D01*
X62035000Y-44596000D02*
X60730000Y-44596000D01*
X58650000Y-44596000D02*
X57345000Y-44596000D01*
X61977000Y-44636000D02*
X60730000Y-44636000D01*
X58650000Y-44636000D02*
X57403000Y-44636000D01*
X61918000Y-44676000D02*
X60730000Y-44676000D01*
X58650000Y-44676000D02*
X57462000Y-44676000D01*
X61856000Y-44716000D02*
X60730000Y-44716000D01*
X58650000Y-44716000D02*
X57524000Y-44716000D01*
X61792000Y-44756000D02*
X60730000Y-44756000D01*
X58650000Y-44756000D02*
X57588000Y-44756000D01*
X61724000Y-44796000D02*
X57656000Y-44796000D01*
X61654000Y-44836000D02*
X57726000Y-44836000D01*
X61580000Y-44876000D02*
X57800000Y-44876000D01*
X61503000Y-44916000D02*
X57877000Y-44916000D01*
X61421000Y-44956000D02*
X57959000Y-44956000D01*
X61335000Y-44996000D02*
X58045000Y-44996000D01*
X61242000Y-45036000D02*
X58138000Y-45036000D01*
X61143000Y-45076000D02*
X58237000Y-45076000D01*
X61036000Y-45116000D02*
X58344000Y-45116000D01*
X60919000Y-45156000D02*
X58461000Y-45156000D01*
X60788000Y-45196000D02*
X58592000Y-45196000D01*
X60638000Y-45236000D02*
X58742000Y-45236000D01*
X60458000Y-45276000D02*
X58922000Y-45276000D01*
X60223000Y-45316000D02*
X59157000Y-45316000D01*
X62005000Y-36825302D02*
X62005000Y-37625302D01*
X62405000Y-37225302D02*
X61605000Y-37225302D01*
%TO.C,C9*%
X102315000Y-52435000D02*
G75*
G03*
X102315000Y-52435000I-2620000J0D01*
G01*
X98655000Y-52435000D02*
X97115000Y-52435000D01*
X102275000Y-52435000D02*
X100735000Y-52435000D01*
X98655000Y-52475000D02*
X97115000Y-52475000D01*
X102275000Y-52475000D02*
X100735000Y-52475000D01*
X102274000Y-52515000D02*
X100735000Y-52515000D01*
X98655000Y-52515000D02*
X97116000Y-52515000D01*
X102273000Y-52555000D02*
X100735000Y-52555000D01*
X98655000Y-52555000D02*
X97117000Y-52555000D01*
X102271000Y-52595000D02*
X100735000Y-52595000D01*
X98655000Y-52595000D02*
X97119000Y-52595000D01*
X102268000Y-52635000D02*
X100735000Y-52635000D01*
X98655000Y-52635000D02*
X97122000Y-52635000D01*
X102264000Y-52675000D02*
X100735000Y-52675000D01*
X98655000Y-52675000D02*
X97126000Y-52675000D01*
X102260000Y-52715000D02*
X100735000Y-52715000D01*
X98655000Y-52715000D02*
X97130000Y-52715000D01*
X102256000Y-52755000D02*
X100735000Y-52755000D01*
X98655000Y-52755000D02*
X97134000Y-52755000D01*
X102251000Y-52795000D02*
X100735000Y-52795000D01*
X98655000Y-52795000D02*
X97139000Y-52795000D01*
X102245000Y-52835000D02*
X100735000Y-52835000D01*
X98655000Y-52835000D02*
X97145000Y-52835000D01*
X102238000Y-52875000D02*
X100735000Y-52875000D01*
X98655000Y-52875000D02*
X97152000Y-52875000D01*
X102231000Y-52915000D02*
X100735000Y-52915000D01*
X98655000Y-52915000D02*
X97159000Y-52915000D01*
X102223000Y-52955000D02*
X100735000Y-52955000D01*
X98655000Y-52955000D02*
X97167000Y-52955000D01*
X102215000Y-52995000D02*
X100735000Y-52995000D01*
X98655000Y-52995000D02*
X97175000Y-52995000D01*
X102206000Y-53035000D02*
X100735000Y-53035000D01*
X98655000Y-53035000D02*
X97184000Y-53035000D01*
X102196000Y-53075000D02*
X100735000Y-53075000D01*
X98655000Y-53075000D02*
X97194000Y-53075000D01*
X102186000Y-53115000D02*
X100735000Y-53115000D01*
X98655000Y-53115000D02*
X97204000Y-53115000D01*
X102175000Y-53156000D02*
X100735000Y-53156000D01*
X98655000Y-53156000D02*
X97215000Y-53156000D01*
X102163000Y-53196000D02*
X100735000Y-53196000D01*
X98655000Y-53196000D02*
X97227000Y-53196000D01*
X102150000Y-53236000D02*
X100735000Y-53236000D01*
X98655000Y-53236000D02*
X97240000Y-53236000D01*
X102137000Y-53276000D02*
X100735000Y-53276000D01*
X98655000Y-53276000D02*
X97253000Y-53276000D01*
X102123000Y-53316000D02*
X100735000Y-53316000D01*
X98655000Y-53316000D02*
X97267000Y-53316000D01*
X102109000Y-53356000D02*
X100735000Y-53356000D01*
X98655000Y-53356000D02*
X97281000Y-53356000D01*
X102093000Y-53396000D02*
X100735000Y-53396000D01*
X98655000Y-53396000D02*
X97297000Y-53396000D01*
X102077000Y-53436000D02*
X100735000Y-53436000D01*
X98655000Y-53436000D02*
X97313000Y-53436000D01*
X102060000Y-53476000D02*
X100735000Y-53476000D01*
X98655000Y-53476000D02*
X97330000Y-53476000D01*
X102043000Y-53516000D02*
X100735000Y-53516000D01*
X98655000Y-53516000D02*
X97347000Y-53516000D01*
X102024000Y-53556000D02*
X100735000Y-53556000D01*
X98655000Y-53556000D02*
X97366000Y-53556000D01*
X102005000Y-53596000D02*
X100735000Y-53596000D01*
X98655000Y-53596000D02*
X97385000Y-53596000D01*
X101985000Y-53636000D02*
X100735000Y-53636000D01*
X98655000Y-53636000D02*
X97405000Y-53636000D01*
X101963000Y-53676000D02*
X100735000Y-53676000D01*
X98655000Y-53676000D02*
X97427000Y-53676000D01*
X101942000Y-53716000D02*
X100735000Y-53716000D01*
X98655000Y-53716000D02*
X97448000Y-53716000D01*
X101919000Y-53756000D02*
X100735000Y-53756000D01*
X98655000Y-53756000D02*
X97471000Y-53756000D01*
X101895000Y-53796000D02*
X100735000Y-53796000D01*
X98655000Y-53796000D02*
X97495000Y-53796000D01*
X101870000Y-53836000D02*
X100735000Y-53836000D01*
X98655000Y-53836000D02*
X97520000Y-53836000D01*
X101844000Y-53876000D02*
X100735000Y-53876000D01*
X98655000Y-53876000D02*
X97546000Y-53876000D01*
X101817000Y-53916000D02*
X100735000Y-53916000D01*
X98655000Y-53916000D02*
X97573000Y-53916000D01*
X101790000Y-53956000D02*
X100735000Y-53956000D01*
X98655000Y-53956000D02*
X97600000Y-53956000D01*
X101760000Y-53996000D02*
X100735000Y-53996000D01*
X98655000Y-53996000D02*
X97630000Y-53996000D01*
X101730000Y-54036000D02*
X100735000Y-54036000D01*
X98655000Y-54036000D02*
X97660000Y-54036000D01*
X101699000Y-54076000D02*
X100735000Y-54076000D01*
X98655000Y-54076000D02*
X97691000Y-54076000D01*
X101666000Y-54116000D02*
X100735000Y-54116000D01*
X98655000Y-54116000D02*
X97724000Y-54116000D01*
X101632000Y-54156000D02*
X100735000Y-54156000D01*
X98655000Y-54156000D02*
X97758000Y-54156000D01*
X101596000Y-54196000D02*
X100735000Y-54196000D01*
X98655000Y-54196000D02*
X97794000Y-54196000D01*
X101559000Y-54236000D02*
X100735000Y-54236000D01*
X98655000Y-54236000D02*
X97831000Y-54236000D01*
X101521000Y-54276000D02*
X100735000Y-54276000D01*
X98655000Y-54276000D02*
X97869000Y-54276000D01*
X101480000Y-54316000D02*
X100735000Y-54316000D01*
X98655000Y-54316000D02*
X97910000Y-54316000D01*
X101438000Y-54356000D02*
X100735000Y-54356000D01*
X98655000Y-54356000D02*
X97952000Y-54356000D01*
X101394000Y-54396000D02*
X100735000Y-54396000D01*
X98655000Y-54396000D02*
X97996000Y-54396000D01*
X101348000Y-54436000D02*
X100735000Y-54436000D01*
X98655000Y-54436000D02*
X98042000Y-54436000D01*
X101300000Y-54476000D02*
X98090000Y-54476000D01*
X101249000Y-54516000D02*
X98141000Y-54516000D01*
X101195000Y-54556000D02*
X98195000Y-54556000D01*
X101138000Y-54596000D02*
X98252000Y-54596000D01*
X101078000Y-54636000D02*
X98312000Y-54636000D01*
X101014000Y-54676000D02*
X98376000Y-54676000D01*
X100946000Y-54716000D02*
X98444000Y-54716000D01*
X100873000Y-54756000D02*
X98517000Y-54756000D01*
X100793000Y-54796000D02*
X98597000Y-54796000D01*
X100706000Y-54836000D02*
X98684000Y-54836000D01*
X100610000Y-54876000D02*
X98780000Y-54876000D01*
X100500000Y-54916000D02*
X98890000Y-54916000D01*
X100372000Y-54956000D02*
X99018000Y-54956000D01*
X100213000Y-54996000D02*
X99177000Y-54996000D01*
X99979000Y-55036000D02*
X99411000Y-55036000D01*
X101170000Y-49630225D02*
X101170000Y-50130225D01*
X101420000Y-49880225D02*
X100920000Y-49880225D01*
%TO.C,C11*%
X101420000Y-29560225D02*
X100920000Y-29560225D01*
X101170000Y-29310225D02*
X101170000Y-29810225D01*
X99979000Y-34716000D02*
X99411000Y-34716000D01*
X100213000Y-34676000D02*
X99177000Y-34676000D01*
X100372000Y-34636000D02*
X99018000Y-34636000D01*
X100500000Y-34596000D02*
X98890000Y-34596000D01*
X100610000Y-34556000D02*
X98780000Y-34556000D01*
X100706000Y-34516000D02*
X98684000Y-34516000D01*
X100793000Y-34476000D02*
X98597000Y-34476000D01*
X100873000Y-34436000D02*
X98517000Y-34436000D01*
X100946000Y-34396000D02*
X98444000Y-34396000D01*
X101014000Y-34356000D02*
X98376000Y-34356000D01*
X101078000Y-34316000D02*
X98312000Y-34316000D01*
X101138000Y-34276000D02*
X98252000Y-34276000D01*
X101195000Y-34236000D02*
X98195000Y-34236000D01*
X101249000Y-34196000D02*
X98141000Y-34196000D01*
X101300000Y-34156000D02*
X98090000Y-34156000D01*
X98655000Y-34116000D02*
X98042000Y-34116000D01*
X101348000Y-34116000D02*
X100735000Y-34116000D01*
X98655000Y-34076000D02*
X97996000Y-34076000D01*
X101394000Y-34076000D02*
X100735000Y-34076000D01*
X98655000Y-34036000D02*
X97952000Y-34036000D01*
X101438000Y-34036000D02*
X100735000Y-34036000D01*
X98655000Y-33996000D02*
X97910000Y-33996000D01*
X101480000Y-33996000D02*
X100735000Y-33996000D01*
X98655000Y-33956000D02*
X97869000Y-33956000D01*
X101521000Y-33956000D02*
X100735000Y-33956000D01*
X98655000Y-33916000D02*
X97831000Y-33916000D01*
X101559000Y-33916000D02*
X100735000Y-33916000D01*
X98655000Y-33876000D02*
X97794000Y-33876000D01*
X101596000Y-33876000D02*
X100735000Y-33876000D01*
X98655000Y-33836000D02*
X97758000Y-33836000D01*
X101632000Y-33836000D02*
X100735000Y-33836000D01*
X98655000Y-33796000D02*
X97724000Y-33796000D01*
X101666000Y-33796000D02*
X100735000Y-33796000D01*
X98655000Y-33756000D02*
X97691000Y-33756000D01*
X101699000Y-33756000D02*
X100735000Y-33756000D01*
X98655000Y-33716000D02*
X97660000Y-33716000D01*
X101730000Y-33716000D02*
X100735000Y-33716000D01*
X98655000Y-33676000D02*
X97630000Y-33676000D01*
X101760000Y-33676000D02*
X100735000Y-33676000D01*
X98655000Y-33636000D02*
X97600000Y-33636000D01*
X101790000Y-33636000D02*
X100735000Y-33636000D01*
X98655000Y-33596000D02*
X97573000Y-33596000D01*
X101817000Y-33596000D02*
X100735000Y-33596000D01*
X98655000Y-33556000D02*
X97546000Y-33556000D01*
X101844000Y-33556000D02*
X100735000Y-33556000D01*
X98655000Y-33516000D02*
X97520000Y-33516000D01*
X101870000Y-33516000D02*
X100735000Y-33516000D01*
X98655000Y-33476000D02*
X97495000Y-33476000D01*
X101895000Y-33476000D02*
X100735000Y-33476000D01*
X98655000Y-33436000D02*
X97471000Y-33436000D01*
X101919000Y-33436000D02*
X100735000Y-33436000D01*
X98655000Y-33396000D02*
X97448000Y-33396000D01*
X101942000Y-33396000D02*
X100735000Y-33396000D01*
X98655000Y-33356000D02*
X97427000Y-33356000D01*
X101963000Y-33356000D02*
X100735000Y-33356000D01*
X98655000Y-33316000D02*
X97405000Y-33316000D01*
X101985000Y-33316000D02*
X100735000Y-33316000D01*
X98655000Y-33276000D02*
X97385000Y-33276000D01*
X102005000Y-33276000D02*
X100735000Y-33276000D01*
X98655000Y-33236000D02*
X97366000Y-33236000D01*
X102024000Y-33236000D02*
X100735000Y-33236000D01*
X98655000Y-33196000D02*
X97347000Y-33196000D01*
X102043000Y-33196000D02*
X100735000Y-33196000D01*
X98655000Y-33156000D02*
X97330000Y-33156000D01*
X102060000Y-33156000D02*
X100735000Y-33156000D01*
X98655000Y-33116000D02*
X97313000Y-33116000D01*
X102077000Y-33116000D02*
X100735000Y-33116000D01*
X98655000Y-33076000D02*
X97297000Y-33076000D01*
X102093000Y-33076000D02*
X100735000Y-33076000D01*
X98655000Y-33036000D02*
X97281000Y-33036000D01*
X102109000Y-33036000D02*
X100735000Y-33036000D01*
X98655000Y-32996000D02*
X97267000Y-32996000D01*
X102123000Y-32996000D02*
X100735000Y-32996000D01*
X98655000Y-32956000D02*
X97253000Y-32956000D01*
X102137000Y-32956000D02*
X100735000Y-32956000D01*
X98655000Y-32916000D02*
X97240000Y-32916000D01*
X102150000Y-32916000D02*
X100735000Y-32916000D01*
X98655000Y-32876000D02*
X97227000Y-32876000D01*
X102163000Y-32876000D02*
X100735000Y-32876000D01*
X98655000Y-32836000D02*
X97215000Y-32836000D01*
X102175000Y-32836000D02*
X100735000Y-32836000D01*
X98655000Y-32795000D02*
X97204000Y-32795000D01*
X102186000Y-32795000D02*
X100735000Y-32795000D01*
X98655000Y-32755000D02*
X97194000Y-32755000D01*
X102196000Y-32755000D02*
X100735000Y-32755000D01*
X98655000Y-32715000D02*
X97184000Y-32715000D01*
X102206000Y-32715000D02*
X100735000Y-32715000D01*
X98655000Y-32675000D02*
X97175000Y-32675000D01*
X102215000Y-32675000D02*
X100735000Y-32675000D01*
X98655000Y-32635000D02*
X97167000Y-32635000D01*
X102223000Y-32635000D02*
X100735000Y-32635000D01*
X98655000Y-32595000D02*
X97159000Y-32595000D01*
X102231000Y-32595000D02*
X100735000Y-32595000D01*
X98655000Y-32555000D02*
X97152000Y-32555000D01*
X102238000Y-32555000D02*
X100735000Y-32555000D01*
X98655000Y-32515000D02*
X97145000Y-32515000D01*
X102245000Y-32515000D02*
X100735000Y-32515000D01*
X98655000Y-32475000D02*
X97139000Y-32475000D01*
X102251000Y-32475000D02*
X100735000Y-32475000D01*
X98655000Y-32435000D02*
X97134000Y-32435000D01*
X102256000Y-32435000D02*
X100735000Y-32435000D01*
X98655000Y-32395000D02*
X97130000Y-32395000D01*
X102260000Y-32395000D02*
X100735000Y-32395000D01*
X98655000Y-32355000D02*
X97126000Y-32355000D01*
X102264000Y-32355000D02*
X100735000Y-32355000D01*
X98655000Y-32315000D02*
X97122000Y-32315000D01*
X102268000Y-32315000D02*
X100735000Y-32315000D01*
X98655000Y-32275000D02*
X97119000Y-32275000D01*
X102271000Y-32275000D02*
X100735000Y-32275000D01*
X98655000Y-32235000D02*
X97117000Y-32235000D01*
X102273000Y-32235000D02*
X100735000Y-32235000D01*
X98655000Y-32195000D02*
X97116000Y-32195000D01*
X102274000Y-32195000D02*
X100735000Y-32195000D01*
X102275000Y-32155000D02*
X100735000Y-32155000D01*
X98655000Y-32155000D02*
X97115000Y-32155000D01*
X102275000Y-32115000D02*
X100735000Y-32115000D01*
X98655000Y-32115000D02*
X97115000Y-32115000D01*
X102315000Y-32115000D02*
G75*
G03*
X102315000Y-32115000I-2620000J0D01*
G01*
%TO.C,C4*%
X89012752Y-72036000D02*
X88490248Y-72036000D01*
X89012752Y-73506000D02*
X88490248Y-73506000D01*
%TO.C,C6*%
X89012752Y-65886000D02*
X88490248Y-65886000D01*
X89012752Y-64416000D02*
X88490248Y-64416000D01*
%TO.C,C10*%
X101444248Y-63781000D02*
X101966752Y-63781000D01*
X101444248Y-65251000D02*
X101966752Y-65251000D01*
%TO.C,C16*%
X101614248Y-77316000D02*
X102136752Y-77316000D01*
X101614248Y-75846000D02*
X102136752Y-75846000D01*
%TO.C,C17*%
X102009752Y-72363000D02*
X101487248Y-72363000D01*
X102009752Y-70893000D02*
X101487248Y-70893000D01*
%TO.C,R4*%
X81815000Y-71162936D02*
X81815000Y-71617064D01*
X83285000Y-71162936D02*
X83285000Y-71617064D01*
%TO.C,R5*%
X89016064Y-70966000D02*
X88561936Y-70966000D01*
X89016064Y-69496000D02*
X88561936Y-69496000D01*
%TO.C,R8*%
X88561936Y-68426000D02*
X89016064Y-68426000D01*
X88561936Y-66956000D02*
X89016064Y-66956000D01*
%TO.C,R9*%
X97435936Y-73306000D02*
X97890064Y-73306000D01*
X97435936Y-74776000D02*
X97890064Y-74776000D01*
%TO.C,R10*%
X102065064Y-73306000D02*
X101610936Y-73306000D01*
X102065064Y-74776000D02*
X101610936Y-74776000D01*
%TO.C,R11*%
X101938064Y-70077000D02*
X101483936Y-70077000D01*
X101938064Y-68607000D02*
X101483936Y-68607000D01*
%TO.C,R12*%
X101938064Y-66321000D02*
X101483936Y-66321000D01*
X101938064Y-67791000D02*
X101483936Y-67791000D01*
%TO.C,U1*%
X95058000Y-72537000D02*
X97008000Y-72537000D01*
X95058000Y-72537000D02*
X93108000Y-72537000D01*
X95058000Y-67417000D02*
X97008000Y-67417000D01*
X95058000Y-67417000D02*
X91608000Y-67417000D01*
%TO.C,R13*%
D10*
X52570142Y-80081380D02*
X52236809Y-79605190D01*
X51998714Y-80081380D02*
X51998714Y-79081380D01*
X52379666Y-79081380D01*
X52474904Y-79129000D01*
X52522523Y-79176619D01*
X52570142Y-79271857D01*
X52570142Y-79414714D01*
X52522523Y-79509952D01*
X52474904Y-79557571D01*
X52379666Y-79605190D01*
X51998714Y-79605190D01*
X53522523Y-80081380D02*
X52951095Y-80081380D01*
X53236809Y-80081380D02*
X53236809Y-79081380D01*
X53141571Y-79224238D01*
X53046333Y-79319476D01*
X52951095Y-79367095D01*
X53855857Y-79081380D02*
X54474904Y-79081380D01*
X54141571Y-79462333D01*
X54284428Y-79462333D01*
X54379666Y-79509952D01*
X54427285Y-79557571D01*
X54474904Y-79652809D01*
X54474904Y-79890904D01*
X54427285Y-79986142D01*
X54379666Y-80033761D01*
X54284428Y-80081380D01*
X53998714Y-80081380D01*
X53903476Y-80033761D01*
X53855857Y-79986142D01*
%TO.C,J6*%
X53002380Y-32083333D02*
X53716666Y-32083333D01*
X53859523Y-32130952D01*
X53954761Y-32226190D01*
X54002380Y-32369047D01*
X54002380Y-32464285D01*
X53002380Y-31178571D02*
X53002380Y-31369047D01*
X53050000Y-31464285D01*
X53097619Y-31511904D01*
X53240476Y-31607142D01*
X53430952Y-31654761D01*
X53811904Y-31654761D01*
X53907142Y-31607142D01*
X53954761Y-31559523D01*
X54002380Y-31464285D01*
X54002380Y-31273809D01*
X53954761Y-31178571D01*
X53907142Y-31130952D01*
X53811904Y-31083333D01*
X53573809Y-31083333D01*
X53478571Y-31130952D01*
X53430952Y-31178571D01*
X53383333Y-31273809D01*
X53383333Y-31464285D01*
X53430952Y-31559523D01*
X53478571Y-31607142D01*
X53573809Y-31654761D01*
%TO.C,R7*%
X96226333Y-65603380D02*
X95893000Y-65127190D01*
X95654904Y-65603380D02*
X95654904Y-64603380D01*
X96035857Y-64603380D01*
X96131095Y-64651000D01*
X96178714Y-64698619D01*
X96226333Y-64793857D01*
X96226333Y-64936714D01*
X96178714Y-65031952D01*
X96131095Y-65079571D01*
X96035857Y-65127190D01*
X95654904Y-65127190D01*
X96559666Y-64603380D02*
X97226333Y-64603380D01*
X96797761Y-65603380D01*
%TO.C,U4*%
X67016380Y-30225904D02*
X67825904Y-30225904D01*
X67921142Y-30178285D01*
X67968761Y-30130666D01*
X68016380Y-30035428D01*
X68016380Y-29844952D01*
X67968761Y-29749714D01*
X67921142Y-29702095D01*
X67825904Y-29654476D01*
X67016380Y-29654476D01*
X67349714Y-28749714D02*
X68016380Y-28749714D01*
X66968761Y-28987809D02*
X67683047Y-29225904D01*
X67683047Y-28606857D01*
%TO.C,J4*%
X39422380Y-29983333D02*
X40136666Y-29983333D01*
X40279523Y-30030952D01*
X40374761Y-30126190D01*
X40422380Y-30269047D01*
X40422380Y-30364285D01*
X39755714Y-29078571D02*
X40422380Y-29078571D01*
X39374761Y-29316666D02*
X40089047Y-29554761D01*
X40089047Y-28935714D01*
%TO.C,C15*%
X84955142Y-75922142D02*
X84907523Y-75969761D01*
X84764666Y-76017380D01*
X84669428Y-76017380D01*
X84526571Y-75969761D01*
X84431333Y-75874523D01*
X84383714Y-75779285D01*
X84336095Y-75588809D01*
X84336095Y-75445952D01*
X84383714Y-75255476D01*
X84431333Y-75160238D01*
X84526571Y-75065000D01*
X84669428Y-75017380D01*
X84764666Y-75017380D01*
X84907523Y-75065000D01*
X84955142Y-75112619D01*
X85907523Y-76017380D02*
X85336095Y-76017380D01*
X85621809Y-76017380D02*
X85621809Y-75017380D01*
X85526571Y-75160238D01*
X85431333Y-75255476D01*
X85336095Y-75303095D01*
X86812285Y-75017380D02*
X86336095Y-75017380D01*
X86288476Y-75493571D01*
X86336095Y-75445952D01*
X86431333Y-75398333D01*
X86669428Y-75398333D01*
X86764666Y-75445952D01*
X86812285Y-75493571D01*
X86859904Y-75588809D01*
X86859904Y-75826904D01*
X86812285Y-75922142D01*
X86764666Y-75969761D01*
X86669428Y-76017380D01*
X86431333Y-76017380D01*
X86336095Y-75969761D01*
X86288476Y-75922142D01*
%TO.C,C1*%
X44918333Y-80367142D02*
X44870714Y-80414761D01*
X44727857Y-80462380D01*
X44632619Y-80462380D01*
X44489761Y-80414761D01*
X44394523Y-80319523D01*
X44346904Y-80224285D01*
X44299285Y-80033809D01*
X44299285Y-79890952D01*
X44346904Y-79700476D01*
X44394523Y-79605238D01*
X44489761Y-79510000D01*
X44632619Y-79462380D01*
X44727857Y-79462380D01*
X44870714Y-79510000D01*
X44918333Y-79557619D01*
X45870714Y-80462380D02*
X45299285Y-80462380D01*
X45585000Y-80462380D02*
X45585000Y-79462380D01*
X45489761Y-79605238D01*
X45394523Y-79700476D01*
X45299285Y-79748095D01*
%TO.C,C2*%
X52665333Y-77700142D02*
X52617714Y-77747761D01*
X52474857Y-77795380D01*
X52379619Y-77795380D01*
X52236761Y-77747761D01*
X52141523Y-77652523D01*
X52093904Y-77557285D01*
X52046285Y-77366809D01*
X52046285Y-77223952D01*
X52093904Y-77033476D01*
X52141523Y-76938238D01*
X52236761Y-76843000D01*
X52379619Y-76795380D01*
X52474857Y-76795380D01*
X52617714Y-76843000D01*
X52665333Y-76890619D01*
X53046285Y-76890619D02*
X53093904Y-76843000D01*
X53189142Y-76795380D01*
X53427238Y-76795380D01*
X53522476Y-76843000D01*
X53570095Y-76890619D01*
X53617714Y-76985857D01*
X53617714Y-77081095D01*
X53570095Y-77223952D01*
X52998666Y-77795380D01*
X53617714Y-77795380D01*
%TO.C,C3*%
X55713333Y-80367142D02*
X55665714Y-80414761D01*
X55522857Y-80462380D01*
X55427619Y-80462380D01*
X55284761Y-80414761D01*
X55189523Y-80319523D01*
X55141904Y-80224285D01*
X55094285Y-80033809D01*
X55094285Y-79890952D01*
X55141904Y-79700476D01*
X55189523Y-79605238D01*
X55284761Y-79510000D01*
X55427619Y-79462380D01*
X55522857Y-79462380D01*
X55665714Y-79510000D01*
X55713333Y-79557619D01*
X56046666Y-79462380D02*
X56665714Y-79462380D01*
X56332380Y-79843333D01*
X56475238Y-79843333D01*
X56570476Y-79890952D01*
X56618095Y-79938571D01*
X56665714Y-80033809D01*
X56665714Y-80271904D01*
X56618095Y-80367142D01*
X56570476Y-80414761D01*
X56475238Y-80462380D01*
X56189523Y-80462380D01*
X56094285Y-80414761D01*
X56046666Y-80367142D01*
%TO.C,C5*%
X54443333Y-68937142D02*
X54395714Y-68984761D01*
X54252857Y-69032380D01*
X54157619Y-69032380D01*
X54014761Y-68984761D01*
X53919523Y-68889523D01*
X53871904Y-68794285D01*
X53824285Y-68603809D01*
X53824285Y-68460952D01*
X53871904Y-68270476D01*
X53919523Y-68175238D01*
X54014761Y-68080000D01*
X54157619Y-68032380D01*
X54252857Y-68032380D01*
X54395714Y-68080000D01*
X54443333Y-68127619D01*
X55348095Y-68032380D02*
X54871904Y-68032380D01*
X54824285Y-68508571D01*
X54871904Y-68460952D01*
X54967142Y-68413333D01*
X55205238Y-68413333D01*
X55300476Y-68460952D01*
X55348095Y-68508571D01*
X55395714Y-68603809D01*
X55395714Y-68841904D01*
X55348095Y-68937142D01*
X55300476Y-68984761D01*
X55205238Y-69032380D01*
X54967142Y-69032380D01*
X54871904Y-68984761D01*
X54824285Y-68937142D01*
%TO.C,C8*%
X44537333Y-66905142D02*
X44489714Y-66952761D01*
X44346857Y-67000380D01*
X44251619Y-67000380D01*
X44108761Y-66952761D01*
X44013523Y-66857523D01*
X43965904Y-66762285D01*
X43918285Y-66571809D01*
X43918285Y-66428952D01*
X43965904Y-66238476D01*
X44013523Y-66143238D01*
X44108761Y-66048000D01*
X44251619Y-66000380D01*
X44346857Y-66000380D01*
X44489714Y-66048000D01*
X44537333Y-66095619D01*
X45108761Y-66428952D02*
X45013523Y-66381333D01*
X44965904Y-66333714D01*
X44918285Y-66238476D01*
X44918285Y-66190857D01*
X44965904Y-66095619D01*
X45013523Y-66048000D01*
X45108761Y-66000380D01*
X45299238Y-66000380D01*
X45394476Y-66048000D01*
X45442095Y-66095619D01*
X45489714Y-66190857D01*
X45489714Y-66238476D01*
X45442095Y-66333714D01*
X45394476Y-66381333D01*
X45299238Y-66428952D01*
X45108761Y-66428952D01*
X45013523Y-66476571D01*
X44965904Y-66524190D01*
X44918285Y-66619428D01*
X44918285Y-66809904D01*
X44965904Y-66905142D01*
X45013523Y-66952761D01*
X45108761Y-67000380D01*
X45299238Y-67000380D01*
X45394476Y-66952761D01*
X45442095Y-66905142D01*
X45489714Y-66809904D01*
X45489714Y-66619428D01*
X45442095Y-66524190D01*
X45394476Y-66476571D01*
X45299238Y-66428952D01*
%TO.C,C12*%
X73652142Y-77827142D02*
X73604523Y-77874761D01*
X73461666Y-77922380D01*
X73366428Y-77922380D01*
X73223571Y-77874761D01*
X73128333Y-77779523D01*
X73080714Y-77684285D01*
X73033095Y-77493809D01*
X73033095Y-77350952D01*
X73080714Y-77160476D01*
X73128333Y-77065238D01*
X73223571Y-76970000D01*
X73366428Y-76922380D01*
X73461666Y-76922380D01*
X73604523Y-76970000D01*
X73652142Y-77017619D01*
X74604523Y-77922380D02*
X74033095Y-77922380D01*
X74318809Y-77922380D02*
X74318809Y-76922380D01*
X74223571Y-77065238D01*
X74128333Y-77160476D01*
X74033095Y-77208095D01*
X74985476Y-77017619D02*
X75033095Y-76970000D01*
X75128333Y-76922380D01*
X75366428Y-76922380D01*
X75461666Y-76970000D01*
X75509285Y-77017619D01*
X75556904Y-77112857D01*
X75556904Y-77208095D01*
X75509285Y-77350952D01*
X74937857Y-77922380D01*
X75556904Y-77922380D01*
%TO.C,R1*%
X42378333Y-74747380D02*
X42045000Y-74271190D01*
X41806904Y-74747380D02*
X41806904Y-73747380D01*
X42187857Y-73747380D01*
X42283095Y-73795000D01*
X42330714Y-73842619D01*
X42378333Y-73937857D01*
X42378333Y-74080714D01*
X42330714Y-74175952D01*
X42283095Y-74223571D01*
X42187857Y-74271190D01*
X41806904Y-74271190D01*
X43330714Y-74747380D02*
X42759285Y-74747380D01*
X43045000Y-74747380D02*
X43045000Y-73747380D01*
X42949761Y-73890238D01*
X42854523Y-73985476D01*
X42759285Y-74033095D01*
%TO.C,R2*%
X58253333Y-80462380D02*
X57920000Y-79986190D01*
X57681904Y-80462380D02*
X57681904Y-79462380D01*
X58062857Y-79462380D01*
X58158095Y-79510000D01*
X58205714Y-79557619D01*
X58253333Y-79652857D01*
X58253333Y-79795714D01*
X58205714Y-79890952D01*
X58158095Y-79938571D01*
X58062857Y-79986190D01*
X57681904Y-79986190D01*
X58634285Y-79557619D02*
X58681904Y-79510000D01*
X58777142Y-79462380D01*
X59015238Y-79462380D01*
X59110476Y-79510000D01*
X59158095Y-79557619D01*
X59205714Y-79652857D01*
X59205714Y-79748095D01*
X59158095Y-79890952D01*
X58586666Y-80462380D01*
X59205714Y-80462380D01*
%TO.C,R3*%
X43013333Y-72080380D02*
X42680000Y-71604190D01*
X42441904Y-72080380D02*
X42441904Y-71080380D01*
X42822857Y-71080380D01*
X42918095Y-71128000D01*
X42965714Y-71175619D01*
X43013333Y-71270857D01*
X43013333Y-71413714D01*
X42965714Y-71508952D01*
X42918095Y-71556571D01*
X42822857Y-71604190D01*
X42441904Y-71604190D01*
X43346666Y-71080380D02*
X43965714Y-71080380D01*
X43632380Y-71461333D01*
X43775238Y-71461333D01*
X43870476Y-71508952D01*
X43918095Y-71556571D01*
X43965714Y-71651809D01*
X43965714Y-71889904D01*
X43918095Y-71985142D01*
X43870476Y-72032761D01*
X43775238Y-72080380D01*
X43489523Y-72080380D01*
X43394285Y-72032761D01*
X43346666Y-71985142D01*
%TO.C,R6*%
X56983333Y-69032380D02*
X56650000Y-68556190D01*
X56411904Y-69032380D02*
X56411904Y-68032380D01*
X56792857Y-68032380D01*
X56888095Y-68080000D01*
X56935714Y-68127619D01*
X56983333Y-68222857D01*
X56983333Y-68365714D01*
X56935714Y-68460952D01*
X56888095Y-68508571D01*
X56792857Y-68556190D01*
X56411904Y-68556190D01*
X57840476Y-68032380D02*
X57650000Y-68032380D01*
X57554761Y-68080000D01*
X57507142Y-68127619D01*
X57411904Y-68270476D01*
X57364285Y-68460952D01*
X57364285Y-68841904D01*
X57411904Y-68937142D01*
X57459523Y-68984761D01*
X57554761Y-69032380D01*
X57745238Y-69032380D01*
X57840476Y-68984761D01*
X57888095Y-68937142D01*
X57935714Y-68841904D01*
X57935714Y-68603809D01*
X57888095Y-68508571D01*
X57840476Y-68460952D01*
X57745238Y-68413333D01*
X57554761Y-68413333D01*
X57459523Y-68460952D01*
X57411904Y-68508571D01*
X57364285Y-68603809D01*
%TO.C,U2*%
X47712380Y-72516904D02*
X48521904Y-72516904D01*
X48617142Y-72469285D01*
X48664761Y-72421666D01*
X48712380Y-72326428D01*
X48712380Y-72135952D01*
X48664761Y-72040714D01*
X48617142Y-71993095D01*
X48521904Y-71945476D01*
X47712380Y-71945476D01*
X47807619Y-71516904D02*
X47760000Y-71469285D01*
X47712380Y-71374047D01*
X47712380Y-71135952D01*
X47760000Y-71040714D01*
X47807619Y-70993095D01*
X47902857Y-70945476D01*
X47998095Y-70945476D01*
X48140952Y-70993095D01*
X48712380Y-71564523D01*
X48712380Y-70945476D01*
%TO.C,U3*%
X73328095Y-61317380D02*
X73328095Y-62126904D01*
X73375714Y-62222142D01*
X73423333Y-62269761D01*
X73518571Y-62317380D01*
X73709047Y-62317380D01*
X73804285Y-62269761D01*
X73851904Y-62222142D01*
X73899523Y-62126904D01*
X73899523Y-61317380D01*
X74280476Y-61317380D02*
X74899523Y-61317380D01*
X74566190Y-61698333D01*
X74709047Y-61698333D01*
X74804285Y-61745952D01*
X74851904Y-61793571D01*
X74899523Y-61888809D01*
X74899523Y-62126904D01*
X74851904Y-62222142D01*
X74804285Y-62269761D01*
X74709047Y-62317380D01*
X74423333Y-62317380D01*
X74328095Y-62269761D01*
X74280476Y-62222142D01*
%TO.C,C13*%
X56507142Y-72112142D02*
X56459523Y-72159761D01*
X56316666Y-72207380D01*
X56221428Y-72207380D01*
X56078571Y-72159761D01*
X55983333Y-72064523D01*
X55935714Y-71969285D01*
X55888095Y-71778809D01*
X55888095Y-71635952D01*
X55935714Y-71445476D01*
X55983333Y-71350238D01*
X56078571Y-71255000D01*
X56221428Y-71207380D01*
X56316666Y-71207380D01*
X56459523Y-71255000D01*
X56507142Y-71302619D01*
X57459523Y-72207380D02*
X56888095Y-72207380D01*
X57173809Y-72207380D02*
X57173809Y-71207380D01*
X57078571Y-71350238D01*
X56983333Y-71445476D01*
X56888095Y-71493095D01*
X57792857Y-71207380D02*
X58411904Y-71207380D01*
X58078571Y-71588333D01*
X58221428Y-71588333D01*
X58316666Y-71635952D01*
X58364285Y-71683571D01*
X58411904Y-71778809D01*
X58411904Y-72016904D01*
X58364285Y-72112142D01*
X58316666Y-72159761D01*
X58221428Y-72207380D01*
X57935714Y-72207380D01*
X57840476Y-72159761D01*
X57792857Y-72112142D01*
%TO.C,C14*%
X65397142Y-70842142D02*
X65349523Y-70889761D01*
X65206666Y-70937380D01*
X65111428Y-70937380D01*
X64968571Y-70889761D01*
X64873333Y-70794523D01*
X64825714Y-70699285D01*
X64778095Y-70508809D01*
X64778095Y-70365952D01*
X64825714Y-70175476D01*
X64873333Y-70080238D01*
X64968571Y-69985000D01*
X65111428Y-69937380D01*
X65206666Y-69937380D01*
X65349523Y-69985000D01*
X65397142Y-70032619D01*
X66349523Y-70937380D02*
X65778095Y-70937380D01*
X66063809Y-70937380D02*
X66063809Y-69937380D01*
X65968571Y-70080238D01*
X65873333Y-70175476D01*
X65778095Y-70223095D01*
X67206666Y-70270714D02*
X67206666Y-70937380D01*
X66968571Y-69889761D02*
X66730476Y-70604047D01*
X67349523Y-70604047D01*
%TO.C,C7*%
X59523333Y-47347142D02*
X59475714Y-47394761D01*
X59332857Y-47442380D01*
X59237619Y-47442380D01*
X59094761Y-47394761D01*
X58999523Y-47299523D01*
X58951904Y-47204285D01*
X58904285Y-47013809D01*
X58904285Y-46870952D01*
X58951904Y-46680476D01*
X58999523Y-46585238D01*
X59094761Y-46490000D01*
X59237619Y-46442380D01*
X59332857Y-46442380D01*
X59475714Y-46490000D01*
X59523333Y-46537619D01*
X59856666Y-46442380D02*
X60523333Y-46442380D01*
X60094761Y-47442380D01*
%TO.C,C9*%
X103973333Y-52792142D02*
X103925714Y-52839761D01*
X103782857Y-52887380D01*
X103687619Y-52887380D01*
X103544761Y-52839761D01*
X103449523Y-52744523D01*
X103401904Y-52649285D01*
X103354285Y-52458809D01*
X103354285Y-52315952D01*
X103401904Y-52125476D01*
X103449523Y-52030238D01*
X103544761Y-51935000D01*
X103687619Y-51887380D01*
X103782857Y-51887380D01*
X103925714Y-51935000D01*
X103973333Y-51982619D01*
X104449523Y-52887380D02*
X104640000Y-52887380D01*
X104735238Y-52839761D01*
X104782857Y-52792142D01*
X104878095Y-52649285D01*
X104925714Y-52458809D01*
X104925714Y-52077857D01*
X104878095Y-51982619D01*
X104830476Y-51935000D01*
X104735238Y-51887380D01*
X104544761Y-51887380D01*
X104449523Y-51935000D01*
X104401904Y-51982619D01*
X104354285Y-52077857D01*
X104354285Y-52315952D01*
X104401904Y-52411190D01*
X104449523Y-52458809D01*
X104544761Y-52506428D01*
X104735238Y-52506428D01*
X104830476Y-52458809D01*
X104878095Y-52411190D01*
X104925714Y-52315952D01*
%TO.C,C11*%
X103497142Y-32472142D02*
X103449523Y-32519761D01*
X103306666Y-32567380D01*
X103211428Y-32567380D01*
X103068571Y-32519761D01*
X102973333Y-32424523D01*
X102925714Y-32329285D01*
X102878095Y-32138809D01*
X102878095Y-31995952D01*
X102925714Y-31805476D01*
X102973333Y-31710238D01*
X103068571Y-31615000D01*
X103211428Y-31567380D01*
X103306666Y-31567380D01*
X103449523Y-31615000D01*
X103497142Y-31662619D01*
X104449523Y-32567380D02*
X103878095Y-32567380D01*
X104163809Y-32567380D02*
X104163809Y-31567380D01*
X104068571Y-31710238D01*
X103973333Y-31805476D01*
X103878095Y-31853095D01*
X105401904Y-32567380D02*
X104830476Y-32567380D01*
X105116190Y-32567380D02*
X105116190Y-31567380D01*
X105020952Y-31710238D01*
X104925714Y-31805476D01*
X104830476Y-31853095D01*
%TO.C,C4*%
X85431333Y-73001142D02*
X85383714Y-73048761D01*
X85240857Y-73096380D01*
X85145619Y-73096380D01*
X85002761Y-73048761D01*
X84907523Y-72953523D01*
X84859904Y-72858285D01*
X84812285Y-72667809D01*
X84812285Y-72524952D01*
X84859904Y-72334476D01*
X84907523Y-72239238D01*
X85002761Y-72144000D01*
X85145619Y-72096380D01*
X85240857Y-72096380D01*
X85383714Y-72144000D01*
X85431333Y-72191619D01*
X86288476Y-72429714D02*
X86288476Y-73096380D01*
X86050380Y-72048761D02*
X85812285Y-72763047D01*
X86431333Y-72763047D01*
%TO.C,C6*%
X85431333Y-65508142D02*
X85383714Y-65555761D01*
X85240857Y-65603380D01*
X85145619Y-65603380D01*
X85002761Y-65555761D01*
X84907523Y-65460523D01*
X84859904Y-65365285D01*
X84812285Y-65174809D01*
X84812285Y-65031952D01*
X84859904Y-64841476D01*
X84907523Y-64746238D01*
X85002761Y-64651000D01*
X85145619Y-64603380D01*
X85240857Y-64603380D01*
X85383714Y-64651000D01*
X85431333Y-64698619D01*
X86288476Y-64603380D02*
X86098000Y-64603380D01*
X86002761Y-64651000D01*
X85955142Y-64698619D01*
X85859904Y-64841476D01*
X85812285Y-65031952D01*
X85812285Y-65412904D01*
X85859904Y-65508142D01*
X85907523Y-65555761D01*
X86002761Y-65603380D01*
X86193238Y-65603380D01*
X86288476Y-65555761D01*
X86336095Y-65508142D01*
X86383714Y-65412904D01*
X86383714Y-65174809D01*
X86336095Y-65079571D01*
X86288476Y-65031952D01*
X86193238Y-64984333D01*
X86002761Y-64984333D01*
X85907523Y-65031952D01*
X85859904Y-65079571D01*
X85812285Y-65174809D01*
%TO.C,C10*%
X104640142Y-64873142D02*
X104592523Y-64920761D01*
X104449666Y-64968380D01*
X104354428Y-64968380D01*
X104211571Y-64920761D01*
X104116333Y-64825523D01*
X104068714Y-64730285D01*
X104021095Y-64539809D01*
X104021095Y-64396952D01*
X104068714Y-64206476D01*
X104116333Y-64111238D01*
X104211571Y-64016000D01*
X104354428Y-63968380D01*
X104449666Y-63968380D01*
X104592523Y-64016000D01*
X104640142Y-64063619D01*
X105592523Y-64968380D02*
X105021095Y-64968380D01*
X105306809Y-64968380D02*
X105306809Y-63968380D01*
X105211571Y-64111238D01*
X105116333Y-64206476D01*
X105021095Y-64254095D01*
X106211571Y-63968380D02*
X106306809Y-63968380D01*
X106402047Y-64016000D01*
X106449666Y-64063619D01*
X106497285Y-64158857D01*
X106544904Y-64349333D01*
X106544904Y-64587428D01*
X106497285Y-64777904D01*
X106449666Y-64873142D01*
X106402047Y-64920761D01*
X106306809Y-64968380D01*
X106211571Y-64968380D01*
X106116333Y-64920761D01*
X106068714Y-64873142D01*
X106021095Y-64777904D01*
X105973476Y-64587428D01*
X105973476Y-64349333D01*
X106021095Y-64158857D01*
X106068714Y-64063619D01*
X106116333Y-64016000D01*
X106211571Y-63968380D01*
%TO.C,C16*%
X104640142Y-76938142D02*
X104592523Y-76985761D01*
X104449666Y-77033380D01*
X104354428Y-77033380D01*
X104211571Y-76985761D01*
X104116333Y-76890523D01*
X104068714Y-76795285D01*
X104021095Y-76604809D01*
X104021095Y-76461952D01*
X104068714Y-76271476D01*
X104116333Y-76176238D01*
X104211571Y-76081000D01*
X104354428Y-76033380D01*
X104449666Y-76033380D01*
X104592523Y-76081000D01*
X104640142Y-76128619D01*
X105592523Y-77033380D02*
X105021095Y-77033380D01*
X105306809Y-77033380D02*
X105306809Y-76033380D01*
X105211571Y-76176238D01*
X105116333Y-76271476D01*
X105021095Y-76319095D01*
X106449666Y-76033380D02*
X106259190Y-76033380D01*
X106163952Y-76081000D01*
X106116333Y-76128619D01*
X106021095Y-76271476D01*
X105973476Y-76461952D01*
X105973476Y-76842904D01*
X106021095Y-76938142D01*
X106068714Y-76985761D01*
X106163952Y-77033380D01*
X106354428Y-77033380D01*
X106449666Y-76985761D01*
X106497285Y-76938142D01*
X106544904Y-76842904D01*
X106544904Y-76604809D01*
X106497285Y-76509571D01*
X106449666Y-76461952D01*
X106354428Y-76414333D01*
X106163952Y-76414333D01*
X106068714Y-76461952D01*
X106021095Y-76509571D01*
X105973476Y-76604809D01*
%TO.C,C17*%
X104640142Y-71858142D02*
X104592523Y-71905761D01*
X104449666Y-71953380D01*
X104354428Y-71953380D01*
X104211571Y-71905761D01*
X104116333Y-71810523D01*
X104068714Y-71715285D01*
X104021095Y-71524809D01*
X104021095Y-71381952D01*
X104068714Y-71191476D01*
X104116333Y-71096238D01*
X104211571Y-71001000D01*
X104354428Y-70953380D01*
X104449666Y-70953380D01*
X104592523Y-71001000D01*
X104640142Y-71048619D01*
X105592523Y-71953380D02*
X105021095Y-71953380D01*
X105306809Y-71953380D02*
X105306809Y-70953380D01*
X105211571Y-71096238D01*
X105116333Y-71191476D01*
X105021095Y-71239095D01*
X105925857Y-70953380D02*
X106592523Y-70953380D01*
X106163952Y-71953380D01*
%TO.C,R4*%
X82383333Y-69032380D02*
X82050000Y-68556190D01*
X81811904Y-69032380D02*
X81811904Y-68032380D01*
X82192857Y-68032380D01*
X82288095Y-68080000D01*
X82335714Y-68127619D01*
X82383333Y-68222857D01*
X82383333Y-68365714D01*
X82335714Y-68460952D01*
X82288095Y-68508571D01*
X82192857Y-68556190D01*
X81811904Y-68556190D01*
X83240476Y-68365714D02*
X83240476Y-69032380D01*
X83002380Y-67984761D02*
X82764285Y-68699047D01*
X83383333Y-68699047D01*
%TO.C,R5*%
X85431333Y-70683380D02*
X85098000Y-70207190D01*
X84859904Y-70683380D02*
X84859904Y-69683380D01*
X85240857Y-69683380D01*
X85336095Y-69731000D01*
X85383714Y-69778619D01*
X85431333Y-69873857D01*
X85431333Y-70016714D01*
X85383714Y-70111952D01*
X85336095Y-70159571D01*
X85240857Y-70207190D01*
X84859904Y-70207190D01*
X86336095Y-69683380D02*
X85859904Y-69683380D01*
X85812285Y-70159571D01*
X85859904Y-70111952D01*
X85955142Y-70064333D01*
X86193238Y-70064333D01*
X86288476Y-70111952D01*
X86336095Y-70159571D01*
X86383714Y-70254809D01*
X86383714Y-70492904D01*
X86336095Y-70588142D01*
X86288476Y-70635761D01*
X86193238Y-70683380D01*
X85955142Y-70683380D01*
X85859904Y-70635761D01*
X85812285Y-70588142D01*
%TO.C,R8*%
X85431333Y-68143380D02*
X85098000Y-67667190D01*
X84859904Y-68143380D02*
X84859904Y-67143380D01*
X85240857Y-67143380D01*
X85336095Y-67191000D01*
X85383714Y-67238619D01*
X85431333Y-67333857D01*
X85431333Y-67476714D01*
X85383714Y-67571952D01*
X85336095Y-67619571D01*
X85240857Y-67667190D01*
X84859904Y-67667190D01*
X86002761Y-67571952D02*
X85907523Y-67524333D01*
X85859904Y-67476714D01*
X85812285Y-67381476D01*
X85812285Y-67333857D01*
X85859904Y-67238619D01*
X85907523Y-67191000D01*
X86002761Y-67143380D01*
X86193238Y-67143380D01*
X86288476Y-67191000D01*
X86336095Y-67238619D01*
X86383714Y-67333857D01*
X86383714Y-67381476D01*
X86336095Y-67476714D01*
X86288476Y-67524333D01*
X86193238Y-67571952D01*
X86002761Y-67571952D01*
X85907523Y-67619571D01*
X85859904Y-67667190D01*
X85812285Y-67762428D01*
X85812285Y-67952904D01*
X85859904Y-68048142D01*
X85907523Y-68095761D01*
X86002761Y-68143380D01*
X86193238Y-68143380D01*
X86288476Y-68095761D01*
X86336095Y-68048142D01*
X86383714Y-67952904D01*
X86383714Y-67762428D01*
X86336095Y-67667190D01*
X86288476Y-67619571D01*
X86193238Y-67571952D01*
%TO.C,R9*%
X97496333Y-76398380D02*
X97163000Y-75922190D01*
X96924904Y-76398380D02*
X96924904Y-75398380D01*
X97305857Y-75398380D01*
X97401095Y-75446000D01*
X97448714Y-75493619D01*
X97496333Y-75588857D01*
X97496333Y-75731714D01*
X97448714Y-75826952D01*
X97401095Y-75874571D01*
X97305857Y-75922190D01*
X96924904Y-75922190D01*
X97972523Y-76398380D02*
X98163000Y-76398380D01*
X98258238Y-76350761D01*
X98305857Y-76303142D01*
X98401095Y-76160285D01*
X98448714Y-75969809D01*
X98448714Y-75588857D01*
X98401095Y-75493619D01*
X98353476Y-75446000D01*
X98258238Y-75398380D01*
X98067761Y-75398380D01*
X97972523Y-75446000D01*
X97924904Y-75493619D01*
X97877285Y-75588857D01*
X97877285Y-75826952D01*
X97924904Y-75922190D01*
X97972523Y-75969809D01*
X98067761Y-76017428D01*
X98258238Y-76017428D01*
X98353476Y-75969809D01*
X98401095Y-75922190D01*
X98448714Y-75826952D01*
%TO.C,R10*%
X104640142Y-74493380D02*
X104306809Y-74017190D01*
X104068714Y-74493380D02*
X104068714Y-73493380D01*
X104449666Y-73493380D01*
X104544904Y-73541000D01*
X104592523Y-73588619D01*
X104640142Y-73683857D01*
X104640142Y-73826714D01*
X104592523Y-73921952D01*
X104544904Y-73969571D01*
X104449666Y-74017190D01*
X104068714Y-74017190D01*
X105592523Y-74493380D02*
X105021095Y-74493380D01*
X105306809Y-74493380D02*
X105306809Y-73493380D01*
X105211571Y-73636238D01*
X105116333Y-73731476D01*
X105021095Y-73779095D01*
X106211571Y-73493380D02*
X106306809Y-73493380D01*
X106402047Y-73541000D01*
X106449666Y-73588619D01*
X106497285Y-73683857D01*
X106544904Y-73874333D01*
X106544904Y-74112428D01*
X106497285Y-74302904D01*
X106449666Y-74398142D01*
X106402047Y-74445761D01*
X106306809Y-74493380D01*
X106211571Y-74493380D01*
X106116333Y-74445761D01*
X106068714Y-74398142D01*
X106021095Y-74302904D01*
X105973476Y-74112428D01*
X105973476Y-73874333D01*
X106021095Y-73683857D01*
X106068714Y-73588619D01*
X106116333Y-73541000D01*
X106211571Y-73493380D01*
%TO.C,R11*%
X104640142Y-69794380D02*
X104306809Y-69318190D01*
X104068714Y-69794380D02*
X104068714Y-68794380D01*
X104449666Y-68794380D01*
X104544904Y-68842000D01*
X104592523Y-68889619D01*
X104640142Y-68984857D01*
X104640142Y-69127714D01*
X104592523Y-69222952D01*
X104544904Y-69270571D01*
X104449666Y-69318190D01*
X104068714Y-69318190D01*
X105592523Y-69794380D02*
X105021095Y-69794380D01*
X105306809Y-69794380D02*
X105306809Y-68794380D01*
X105211571Y-68937238D01*
X105116333Y-69032476D01*
X105021095Y-69080095D01*
X106544904Y-69794380D02*
X105973476Y-69794380D01*
X106259190Y-69794380D02*
X106259190Y-68794380D01*
X106163952Y-68937238D01*
X106068714Y-69032476D01*
X105973476Y-69080095D01*
%TO.C,R12*%
X104640142Y-67508380D02*
X104306809Y-67032190D01*
X104068714Y-67508380D02*
X104068714Y-66508380D01*
X104449666Y-66508380D01*
X104544904Y-66556000D01*
X104592523Y-66603619D01*
X104640142Y-66698857D01*
X104640142Y-66841714D01*
X104592523Y-66936952D01*
X104544904Y-66984571D01*
X104449666Y-67032190D01*
X104068714Y-67032190D01*
X105592523Y-67508380D02*
X105021095Y-67508380D01*
X105306809Y-67508380D02*
X105306809Y-66508380D01*
X105211571Y-66651238D01*
X105116333Y-66746476D01*
X105021095Y-66794095D01*
X105973476Y-66603619D02*
X106021095Y-66556000D01*
X106116333Y-66508380D01*
X106354428Y-66508380D01*
X106449666Y-66556000D01*
X106497285Y-66603619D01*
X106544904Y-66698857D01*
X106544904Y-66794095D01*
X106497285Y-66936952D01*
X105925857Y-67508380D01*
X106544904Y-67508380D01*
%TO.C,U1*%
X93091095Y-73493380D02*
X93091095Y-74302904D01*
X93138714Y-74398142D01*
X93186333Y-74445761D01*
X93281571Y-74493380D01*
X93472047Y-74493380D01*
X93567285Y-74445761D01*
X93614904Y-74398142D01*
X93662523Y-74302904D01*
X93662523Y-73493380D01*
X94662523Y-74493380D02*
X94091095Y-74493380D01*
X94376809Y-74493380D02*
X94376809Y-73493380D01*
X94281571Y-73636238D01*
X94186333Y-73731476D01*
X94091095Y-73779095D01*
%TD*%
M02*
