M48
; DRILL file {KiCad (5.1.9)-1} date 05/02/21 14:53:56
; FORMAT={-:-/ absolute / inch / decimal}
; #@! TF.CreationDate,2021-05-02T14:53:56-04:00
; #@! TF.GenerationSoftware,Kicad,Pcbnew,(5.1.9)-1
; #@! TF.FileFunction,Plated,1,4,PTH
FMAT,2
INCH
T1C0.0157
T2C0.0315
T3C0.0394
T4C0.0591
%
G90
G05
T1
X1.35Y-1.1
X1.35Y-1.2
X1.35Y-1.55
X1.35Y-2.05
X1.35Y-2.35
X1.35Y-2.75
X1.35Y-2.95
X1.35Y-3.075
X1.35Y-3.2
X1.35Y-3.3
X1.45Y-3.075
X1.45Y-3.2
X1.45Y-3.3
X1.5Y-1.1
X1.5Y-1.2
X1.5Y-2.625
X1.55Y-2.85
X1.65Y-2.5
X1.775Y-2.25
X1.92Y-2.53
X1.95Y-3.2
X1.95Y-3.3
X2.05Y-2.05
X2.05Y-2.45
X2.05Y-3.2
X2.05Y-3.3
X2.1Y-2.725
X2.15Y-2.45
X2.15Y-3.2
X2.15Y-3.3
X2.25Y-2.35
X2.25Y-2.45
X2.25Y-2.75
X2.25Y-3.2
X2.25Y-3.3
X2.35Y-2.35
X2.35Y-2.45
X2.35Y-2.55
X2.35Y-2.65
X2.35Y-2.75
X2.4Y-1.2
X2.4Y-2.85
X2.45Y-2.35
X2.45Y-2.45
X2.45Y-2.55
X2.45Y-2.65
X2.45Y-2.75
X2.45Y-3.0
X2.45Y-3.1
X2.5Y-1.2
X2.5Y-1.3
X2.55Y-2.35
X2.55Y-2.45
X2.55Y-2.55
X2.55Y-2.65
X2.55Y-2.75
X2.55Y-3.0
X2.55Y-3.1
X2.6Y-1.2
X2.6Y-1.3
X2.6Y-1.4
X2.65Y-2.35
X2.65Y-2.45
X2.65Y-2.55
X2.65Y-2.65
X2.65Y-2.75
X2.65Y-3.0
X2.65Y-3.1
X2.75Y-2.35
X2.75Y-3.0
X2.75Y-3.1
X2.75Y-3.2
X2.75Y-3.3
X2.85Y-2.35
X2.85Y-2.45
X2.85Y-2.65
X2.85Y-2.75
X2.85Y-2.85
X2.85Y-3.1
X2.85Y-3.2
X2.85Y-3.3
X2.95Y-2.35
X2.95Y-2.45
X2.95Y-2.55
X2.95Y-2.75
X2.95Y-2.85
X2.95Y-3.2
X2.95Y-3.3
X3.05Y-2.35
X3.05Y-2.45
X3.05Y-3.2
X3.05Y-3.3
X3.15Y-2.35
X3.175Y-3.05
X3.215Y-2.925
X3.25Y-3.1
X3.3Y-2.35
X3.3Y-2.45
X3.3Y-2.55
X3.3Y-2.7
X3.3Y-2.8
X3.4Y-2.35
X3.4Y-2.45
X3.4Y-2.55
X3.5Y-2.35
X3.5Y-2.45
X3.5Y-2.55
X3.55Y-3.2
X3.55Y-3.3
X3.6Y-2.35
X3.6Y-2.45
X3.6Y-2.55
X3.65Y-3.2
X3.65Y-3.3
X3.7Y-2.35
X3.7Y-2.45
X3.7Y-2.55
X3.715Y-2.865
X3.75Y-3.1
X3.75Y-3.2
X3.75Y-3.3
X3.8Y-2.35
X3.8Y-2.45
X3.8Y-2.55
X3.8Y-2.85
X3.85Y-3.1
X3.85Y-3.2
X3.85Y-3.3
X3.9Y-2.85
X4.0Y-1.4
X4.0Y-1.85
X4.0Y-2.5
X4.0Y-2.75
X4.05Y-2.9
X4.15Y-2.9
X4.15Y-3.0
X4.25Y-2.5
X4.25Y-2.75
X4.25Y-3.0
X4.25Y-3.1
X4.3Y-1.1
X4.3Y-1.2
X4.35Y-3.0
X4.35Y-3.1
X4.35Y-3.2
X4.35Y-3.3
X4.45Y-1.1
X4.45Y-1.2
X4.45Y-1.8
X4.45Y-2.2
X4.45Y-2.6
X4.45Y-3.2
X4.45Y-3.3
T2
X2.45Y-1.525
X2.45Y-1.7219
X3.925Y-1.225
X3.925Y-1.3037
X3.925Y-2.025
X3.925Y-2.1037
T4
X2.8Y-1.52
X2.8Y-1.72
X3.6Y-1.22
X3.6Y-1.62
X3.6Y-2.02
T3
G00X1.815Y-1.3425
M15
G01X1.815Y-1.4213
M16
G05
G00X2.0394Y-1.2638
M15
G01X1.9606Y-1.2638
M16
G05
G00X2.0394Y-1.5
M15
G01X1.9606Y-1.5
M16
G05
T0
M30
