%TF.GenerationSoftware,KiCad,Pcbnew,(5.1.9)-1*%
%TF.CreationDate,2021-05-02T14:53:51-04:00*%
%TF.ProjectId,openEPR_Lock-In,6f70656e-4550-4525-9f4c-6f636b2d496e,rev?*%
%TF.SameCoordinates,Original*%
%TF.FileFunction,Soldermask,Top*%
%TF.FilePolarity,Negative*%
%FSLAX46Y46*%
G04 Gerber Fmt 4.6, Leading zero omitted, Abs format (unit mm)*
G04 Created by KiCad (PCBNEW (5.1.9)-1) date 2021-05-02 14:53:51*
%MOMM*%
%LPD*%
G01*
G04 APERTURE LIST*
%ADD10C,2.000000*%
%ADD11R,1.350000X4.200000*%
%ADD12R,1.270000X3.600000*%
%ADD13R,3.500000X3.500000*%
%ADD14R,1.600000X1.600000*%
%ADD15C,1.600000*%
G04 APERTURE END LIST*
%TO.C,R7*%
G36*
G01*
X88992000Y-78289999D02*
X88992000Y-79190001D01*
G75*
G02*
X88742001Y-79440000I-249999J0D01*
G01*
X88041999Y-79440000D01*
G75*
G02*
X87792000Y-79190001I0J249999D01*
G01*
X87792000Y-78289999D01*
G75*
G02*
X88041999Y-78040000I249999J0D01*
G01*
X88742001Y-78040000D01*
G75*
G02*
X88992000Y-78289999I0J-249999D01*
G01*
G37*
G36*
G01*
X86992000Y-78289999D02*
X86992000Y-79190001D01*
G75*
G02*
X86742001Y-79440000I-249999J0D01*
G01*
X86041999Y-79440000D01*
G75*
G02*
X85792000Y-79190001I0J249999D01*
G01*
X85792000Y-78289999D01*
G75*
G02*
X86041999Y-78040000I249999J0D01*
G01*
X86742001Y-78040000D01*
G75*
G02*
X86992000Y-78289999I0J-249999D01*
G01*
G37*
%TD*%
D10*
%TO.C,U4*%
X71120000Y-38608000D03*
X71120000Y-43688000D03*
X91440000Y-51308000D03*
X91440000Y-41148000D03*
X91440000Y-30988000D03*
%TD*%
%TO.C,C1*%
G36*
G01*
X44610000Y-75612500D02*
X45560000Y-75612500D01*
G75*
G02*
X45810000Y-75862500I0J-250000D01*
G01*
X45810000Y-76537500D01*
G75*
G02*
X45560000Y-76787500I-250000J0D01*
G01*
X44610000Y-76787500D01*
G75*
G02*
X44360000Y-76537500I0J250000D01*
G01*
X44360000Y-75862500D01*
G75*
G02*
X44610000Y-75612500I250000J0D01*
G01*
G37*
G36*
G01*
X44610000Y-77687500D02*
X45560000Y-77687500D01*
G75*
G02*
X45810000Y-77937500I0J-250000D01*
G01*
X45810000Y-78612500D01*
G75*
G02*
X45560000Y-78862500I-250000J0D01*
G01*
X44610000Y-78862500D01*
G75*
G02*
X44360000Y-78612500I0J250000D01*
G01*
X44360000Y-77937500D01*
G75*
G02*
X44610000Y-77687500I250000J0D01*
G01*
G37*
%TD*%
%TO.C,C2*%
G36*
G01*
X49482500Y-76741000D02*
X49482500Y-77691000D01*
G75*
G02*
X49232500Y-77941000I-250000J0D01*
G01*
X48557500Y-77941000D01*
G75*
G02*
X48307500Y-77691000I0J250000D01*
G01*
X48307500Y-76741000D01*
G75*
G02*
X48557500Y-76491000I250000J0D01*
G01*
X49232500Y-76491000D01*
G75*
G02*
X49482500Y-76741000I0J-250000D01*
G01*
G37*
G36*
G01*
X51557500Y-76741000D02*
X51557500Y-77691000D01*
G75*
G02*
X51307500Y-77941000I-250000J0D01*
G01*
X50632500Y-77941000D01*
G75*
G02*
X50382500Y-77691000I0J250000D01*
G01*
X50382500Y-76741000D01*
G75*
G02*
X50632500Y-76491000I250000J0D01*
G01*
X51307500Y-76491000D01*
G75*
G02*
X51557500Y-76741000I0J-250000D01*
G01*
G37*
%TD*%
%TO.C,C3*%
G36*
G01*
X56355000Y-76787500D02*
X55405000Y-76787500D01*
G75*
G02*
X55155000Y-76537500I0J250000D01*
G01*
X55155000Y-75862500D01*
G75*
G02*
X55405000Y-75612500I250000J0D01*
G01*
X56355000Y-75612500D01*
G75*
G02*
X56605000Y-75862500I0J-250000D01*
G01*
X56605000Y-76537500D01*
G75*
G02*
X56355000Y-76787500I-250000J0D01*
G01*
G37*
G36*
G01*
X56355000Y-78862500D02*
X55405000Y-78862500D01*
G75*
G02*
X55155000Y-78612500I0J250000D01*
G01*
X55155000Y-77937500D01*
G75*
G02*
X55405000Y-77687500I250000J0D01*
G01*
X56355000Y-77687500D01*
G75*
G02*
X56605000Y-77937500I0J-250000D01*
G01*
X56605000Y-78612500D01*
G75*
G02*
X56355000Y-78862500I-250000J0D01*
G01*
G37*
%TD*%
%TO.C,C4*%
G36*
G01*
X93467500Y-69375000D02*
X93467500Y-70325000D01*
G75*
G02*
X93217500Y-70575000I-250000J0D01*
G01*
X92542500Y-70575000D01*
G75*
G02*
X92292500Y-70325000I0J250000D01*
G01*
X92292500Y-69375000D01*
G75*
G02*
X92542500Y-69125000I250000J0D01*
G01*
X93217500Y-69125000D01*
G75*
G02*
X93467500Y-69375000I0J-250000D01*
G01*
G37*
G36*
G01*
X91392500Y-69375000D02*
X91392500Y-70325000D01*
G75*
G02*
X91142500Y-70575000I-250000J0D01*
G01*
X90467500Y-70575000D01*
G75*
G02*
X90217500Y-70325000I0J250000D01*
G01*
X90217500Y-69375000D01*
G75*
G02*
X90467500Y-69125000I250000J0D01*
G01*
X91142500Y-69125000D01*
G75*
G02*
X91392500Y-69375000I0J-250000D01*
G01*
G37*
%TD*%
%TO.C,C5*%
G36*
G01*
X54160400Y-64080900D02*
X55110400Y-64080900D01*
G75*
G02*
X55360400Y-64330900I0J-250000D01*
G01*
X55360400Y-65005900D01*
G75*
G02*
X55110400Y-65255900I-250000J0D01*
G01*
X54160400Y-65255900D01*
G75*
G02*
X53910400Y-65005900I0J250000D01*
G01*
X53910400Y-64330900D01*
G75*
G02*
X54160400Y-64080900I250000J0D01*
G01*
G37*
G36*
G01*
X54160400Y-66155900D02*
X55110400Y-66155900D01*
G75*
G02*
X55360400Y-66405900I0J-250000D01*
G01*
X55360400Y-67080900D01*
G75*
G02*
X55110400Y-67330900I-250000J0D01*
G01*
X54160400Y-67330900D01*
G75*
G02*
X53910400Y-67080900I0J250000D01*
G01*
X53910400Y-66405900D01*
G75*
G02*
X54160400Y-66155900I250000J0D01*
G01*
G37*
%TD*%
%TO.C,C6*%
G36*
G01*
X86947500Y-66835000D02*
X86947500Y-67785000D01*
G75*
G02*
X86697500Y-68035000I-250000J0D01*
G01*
X86022500Y-68035000D01*
G75*
G02*
X85772500Y-67785000I0J250000D01*
G01*
X85772500Y-66835000D01*
G75*
G02*
X86022500Y-66585000I250000J0D01*
G01*
X86697500Y-66585000D01*
G75*
G02*
X86947500Y-66835000I0J-250000D01*
G01*
G37*
G36*
G01*
X89022500Y-66835000D02*
X89022500Y-67785000D01*
G75*
G02*
X88772500Y-68035000I-250000J0D01*
G01*
X88097500Y-68035000D01*
G75*
G02*
X87847500Y-67785000I0J250000D01*
G01*
X87847500Y-66835000D01*
G75*
G02*
X88097500Y-66585000I250000J0D01*
G01*
X88772500Y-66585000D01*
G75*
G02*
X89022500Y-66835000I0J-250000D01*
G01*
G37*
%TD*%
%TO.C,C8*%
G36*
G01*
X49355500Y-66073000D02*
X49355500Y-67023000D01*
G75*
G02*
X49105500Y-67273000I-250000J0D01*
G01*
X48430500Y-67273000D01*
G75*
G02*
X48180500Y-67023000I0J250000D01*
G01*
X48180500Y-66073000D01*
G75*
G02*
X48430500Y-65823000I250000J0D01*
G01*
X49105500Y-65823000D01*
G75*
G02*
X49355500Y-66073000I0J-250000D01*
G01*
G37*
G36*
G01*
X47280500Y-66073000D02*
X47280500Y-67023000D01*
G75*
G02*
X47030500Y-67273000I-250000J0D01*
G01*
X46355500Y-67273000D01*
G75*
G02*
X46105500Y-67023000I0J250000D01*
G01*
X46105500Y-66073000D01*
G75*
G02*
X46355500Y-65823000I250000J0D01*
G01*
X47030500Y-65823000D01*
G75*
G02*
X47280500Y-66073000I0J-250000D01*
G01*
G37*
%TD*%
%TO.C,C10*%
G36*
G01*
X95848500Y-75405000D02*
X95848500Y-74455000D01*
G75*
G02*
X96098500Y-74205000I250000J0D01*
G01*
X96773500Y-74205000D01*
G75*
G02*
X97023500Y-74455000I0J-250000D01*
G01*
X97023500Y-75405000D01*
G75*
G02*
X96773500Y-75655000I-250000J0D01*
G01*
X96098500Y-75655000D01*
G75*
G02*
X95848500Y-75405000I0J250000D01*
G01*
G37*
G36*
G01*
X93773500Y-75405000D02*
X93773500Y-74455000D01*
G75*
G02*
X94023500Y-74205000I250000J0D01*
G01*
X94698500Y-74205000D01*
G75*
G02*
X94948500Y-74455000I0J-250000D01*
G01*
X94948500Y-75405000D01*
G75*
G02*
X94698500Y-75655000I-250000J0D01*
G01*
X94023500Y-75655000D01*
G75*
G02*
X93773500Y-75405000I0J250000D01*
G01*
G37*
%TD*%
%TO.C,C12*%
G36*
G01*
X79497500Y-76995000D02*
X79497500Y-77945000D01*
G75*
G02*
X79247500Y-78195000I-250000J0D01*
G01*
X78572500Y-78195000D01*
G75*
G02*
X78322500Y-77945000I0J250000D01*
G01*
X78322500Y-76995000D01*
G75*
G02*
X78572500Y-76745000I250000J0D01*
G01*
X79247500Y-76745000D01*
G75*
G02*
X79497500Y-76995000I0J-250000D01*
G01*
G37*
G36*
G01*
X77422500Y-76995000D02*
X77422500Y-77945000D01*
G75*
G02*
X77172500Y-78195000I-250000J0D01*
G01*
X76497500Y-78195000D01*
G75*
G02*
X76247500Y-77945000I0J250000D01*
G01*
X76247500Y-76995000D01*
G75*
G02*
X76497500Y-76745000I250000J0D01*
G01*
X77172500Y-76745000D01*
G75*
G02*
X77422500Y-76995000I0J-250000D01*
G01*
G37*
%TD*%
D11*
%TO.C,J1*%
X60675000Y-84128000D03*
X66325000Y-84128000D03*
D12*
X63500000Y-84328000D03*
%TD*%
%TO.C,J2*%
X43180000Y-84328000D03*
D11*
X46005000Y-84128000D03*
X40355000Y-84128000D03*
%TD*%
%TO.C,J3*%
X101315000Y-84128000D03*
X106965000Y-84128000D03*
D12*
X104140000Y-84328000D03*
%TD*%
D13*
%TO.C,J4*%
X50800000Y-38100000D03*
G36*
G01*
X49800000Y-30600000D02*
X51800000Y-30600000D01*
G75*
G02*
X52550000Y-31350000I0J-750000D01*
G01*
X52550000Y-32850000D01*
G75*
G02*
X51800000Y-33600000I-750000J0D01*
G01*
X49800000Y-33600000D01*
G75*
G02*
X49050000Y-32850000I0J750000D01*
G01*
X49050000Y-31350000D01*
G75*
G02*
X49800000Y-30600000I750000J0D01*
G01*
G37*
G36*
G01*
X45225000Y-33350000D02*
X46975000Y-33350000D01*
G75*
G02*
X47850000Y-34225000I0J-875000D01*
G01*
X47850000Y-35975000D01*
G75*
G02*
X46975000Y-36850000I-875000J0D01*
G01*
X45225000Y-36850000D01*
G75*
G02*
X44350000Y-35975000I0J875000D01*
G01*
X44350000Y-34225000D01*
G75*
G02*
X45225000Y-33350000I875000J0D01*
G01*
G37*
%TD*%
%TO.C,R1*%
G36*
G01*
X42094999Y-75600000D02*
X42995001Y-75600000D01*
G75*
G02*
X43245000Y-75849999I0J-249999D01*
G01*
X43245000Y-76550001D01*
G75*
G02*
X42995001Y-76800000I-249999J0D01*
G01*
X42094999Y-76800000D01*
G75*
G02*
X41845000Y-76550001I0J249999D01*
G01*
X41845000Y-75849999D01*
G75*
G02*
X42094999Y-75600000I249999J0D01*
G01*
G37*
G36*
G01*
X42094999Y-77600000D02*
X42995001Y-77600000D01*
G75*
G02*
X43245000Y-77849999I0J-249999D01*
G01*
X43245000Y-78550001D01*
G75*
G02*
X42995001Y-78800000I-249999J0D01*
G01*
X42094999Y-78800000D01*
G75*
G02*
X41845000Y-78550001I0J249999D01*
G01*
X41845000Y-77849999D01*
G75*
G02*
X42094999Y-77600000I249999J0D01*
G01*
G37*
%TD*%
%TO.C,R2*%
G36*
G01*
X57969999Y-77632000D02*
X58870001Y-77632000D01*
G75*
G02*
X59120000Y-77881999I0J-249999D01*
G01*
X59120000Y-78582001D01*
G75*
G02*
X58870001Y-78832000I-249999J0D01*
G01*
X57969999Y-78832000D01*
G75*
G02*
X57720000Y-78582001I0J249999D01*
G01*
X57720000Y-77881999D01*
G75*
G02*
X57969999Y-77632000I249999J0D01*
G01*
G37*
G36*
G01*
X57969999Y-75632000D02*
X58870001Y-75632000D01*
G75*
G02*
X59120000Y-75881999I0J-249999D01*
G01*
X59120000Y-76582001D01*
G75*
G02*
X58870001Y-76832000I-249999J0D01*
G01*
X57969999Y-76832000D01*
G75*
G02*
X57720000Y-76582001I0J249999D01*
G01*
X57720000Y-75881999D01*
G75*
G02*
X57969999Y-75632000I249999J0D01*
G01*
G37*
%TD*%
%TO.C,R3*%
G36*
G01*
X44761999Y-72044000D02*
X45662001Y-72044000D01*
G75*
G02*
X45912000Y-72293999I0J-249999D01*
G01*
X45912000Y-72994001D01*
G75*
G02*
X45662001Y-73244000I-249999J0D01*
G01*
X44761999Y-73244000D01*
G75*
G02*
X44512000Y-72994001I0J249999D01*
G01*
X44512000Y-72293999D01*
G75*
G02*
X44761999Y-72044000I249999J0D01*
G01*
G37*
G36*
G01*
X44761999Y-70044000D02*
X45662001Y-70044000D01*
G75*
G02*
X45912000Y-70293999I0J-249999D01*
G01*
X45912000Y-70994001D01*
G75*
G02*
X45662001Y-71244000I-249999J0D01*
G01*
X44761999Y-71244000D01*
G75*
G02*
X44512000Y-70994001I0J249999D01*
G01*
X44512000Y-70293999D01*
G75*
G02*
X44761999Y-70044000I249999J0D01*
G01*
G37*
%TD*%
%TO.C,R4*%
G36*
G01*
X91405000Y-66859999D02*
X91405000Y-67760001D01*
G75*
G02*
X91155001Y-68010000I-249999J0D01*
G01*
X90454999Y-68010000D01*
G75*
G02*
X90205000Y-67760001I0J249999D01*
G01*
X90205000Y-66859999D01*
G75*
G02*
X90454999Y-66610000I249999J0D01*
G01*
X91155001Y-66610000D01*
G75*
G02*
X91405000Y-66859999I0J-249999D01*
G01*
G37*
G36*
G01*
X93405000Y-66859999D02*
X93405000Y-67760001D01*
G75*
G02*
X93155001Y-68010000I-249999J0D01*
G01*
X92454999Y-68010000D01*
G75*
G02*
X92205000Y-67760001I0J249999D01*
G01*
X92205000Y-66859999D01*
G75*
G02*
X92454999Y-66610000I249999J0D01*
G01*
X93155001Y-66610000D01*
G75*
G02*
X93405000Y-66859999I0J-249999D01*
G01*
G37*
%TD*%
%TO.C,R5*%
G36*
G01*
X88960000Y-69399999D02*
X88960000Y-70300001D01*
G75*
G02*
X88710001Y-70550000I-249999J0D01*
G01*
X88009999Y-70550000D01*
G75*
G02*
X87760000Y-70300001I0J249999D01*
G01*
X87760000Y-69399999D01*
G75*
G02*
X88009999Y-69150000I249999J0D01*
G01*
X88710001Y-69150000D01*
G75*
G02*
X88960000Y-69399999I0J-249999D01*
G01*
G37*
G36*
G01*
X86960000Y-69399999D02*
X86960000Y-70300001D01*
G75*
G02*
X86710001Y-70550000I-249999J0D01*
G01*
X86009999Y-70550000D01*
G75*
G02*
X85760000Y-70300001I0J249999D01*
G01*
X85760000Y-69399999D01*
G75*
G02*
X86009999Y-69150000I249999J0D01*
G01*
X86710001Y-69150000D01*
G75*
G02*
X86960000Y-69399999I0J-249999D01*
G01*
G37*
%TD*%
%TO.C,R6*%
G36*
G01*
X57600001Y-67275000D02*
X56699999Y-67275000D01*
G75*
G02*
X56450000Y-67025001I0J249999D01*
G01*
X56450000Y-66324999D01*
G75*
G02*
X56699999Y-66075000I249999J0D01*
G01*
X57600001Y-66075000D01*
G75*
G02*
X57850000Y-66324999I0J-249999D01*
G01*
X57850000Y-67025001D01*
G75*
G02*
X57600001Y-67275000I-249999J0D01*
G01*
G37*
G36*
G01*
X57600001Y-65275000D02*
X56699999Y-65275000D01*
G75*
G02*
X56450000Y-65025001I0J249999D01*
G01*
X56450000Y-64324999D01*
G75*
G02*
X56699999Y-64075000I249999J0D01*
G01*
X57600001Y-64075000D01*
G75*
G02*
X57850000Y-64324999I0J-249999D01*
G01*
X57850000Y-65025001D01*
G75*
G02*
X57600001Y-65275000I-249999J0D01*
G01*
G37*
%TD*%
%TO.C,U1*%
G36*
G01*
X90716000Y-72540000D02*
X90716000Y-72240000D01*
G75*
G02*
X90866000Y-72090000I150000J0D01*
G01*
X92516000Y-72090000D01*
G75*
G02*
X92666000Y-72240000I0J-150000D01*
G01*
X92666000Y-72540000D01*
G75*
G02*
X92516000Y-72690000I-150000J0D01*
G01*
X90866000Y-72690000D01*
G75*
G02*
X90716000Y-72540000I0J150000D01*
G01*
G37*
G36*
G01*
X90716000Y-73810000D02*
X90716000Y-73510000D01*
G75*
G02*
X90866000Y-73360000I150000J0D01*
G01*
X92516000Y-73360000D01*
G75*
G02*
X92666000Y-73510000I0J-150000D01*
G01*
X92666000Y-73810000D01*
G75*
G02*
X92516000Y-73960000I-150000J0D01*
G01*
X90866000Y-73960000D01*
G75*
G02*
X90716000Y-73810000I0J150000D01*
G01*
G37*
G36*
G01*
X90716000Y-75080000D02*
X90716000Y-74780000D01*
G75*
G02*
X90866000Y-74630000I150000J0D01*
G01*
X92516000Y-74630000D01*
G75*
G02*
X92666000Y-74780000I0J-150000D01*
G01*
X92666000Y-75080000D01*
G75*
G02*
X92516000Y-75230000I-150000J0D01*
G01*
X90866000Y-75230000D01*
G75*
G02*
X90716000Y-75080000I0J150000D01*
G01*
G37*
G36*
G01*
X90716000Y-76350000D02*
X90716000Y-76050000D01*
G75*
G02*
X90866000Y-75900000I150000J0D01*
G01*
X92516000Y-75900000D01*
G75*
G02*
X92666000Y-76050000I0J-150000D01*
G01*
X92666000Y-76350000D01*
G75*
G02*
X92516000Y-76500000I-150000J0D01*
G01*
X90866000Y-76500000D01*
G75*
G02*
X90716000Y-76350000I0J150000D01*
G01*
G37*
G36*
G01*
X85766000Y-76350000D02*
X85766000Y-76050000D01*
G75*
G02*
X85916000Y-75900000I150000J0D01*
G01*
X87566000Y-75900000D01*
G75*
G02*
X87716000Y-76050000I0J-150000D01*
G01*
X87716000Y-76350000D01*
G75*
G02*
X87566000Y-76500000I-150000J0D01*
G01*
X85916000Y-76500000D01*
G75*
G02*
X85766000Y-76350000I0J150000D01*
G01*
G37*
G36*
G01*
X85766000Y-75080000D02*
X85766000Y-74780000D01*
G75*
G02*
X85916000Y-74630000I150000J0D01*
G01*
X87566000Y-74630000D01*
G75*
G02*
X87716000Y-74780000I0J-150000D01*
G01*
X87716000Y-75080000D01*
G75*
G02*
X87566000Y-75230000I-150000J0D01*
G01*
X85916000Y-75230000D01*
G75*
G02*
X85766000Y-75080000I0J150000D01*
G01*
G37*
G36*
G01*
X85766000Y-73810000D02*
X85766000Y-73510000D01*
G75*
G02*
X85916000Y-73360000I150000J0D01*
G01*
X87566000Y-73360000D01*
G75*
G02*
X87716000Y-73510000I0J-150000D01*
G01*
X87716000Y-73810000D01*
G75*
G02*
X87566000Y-73960000I-150000J0D01*
G01*
X85916000Y-73960000D01*
G75*
G02*
X85766000Y-73810000I0J150000D01*
G01*
G37*
G36*
G01*
X85766000Y-72540000D02*
X85766000Y-72240000D01*
G75*
G02*
X85916000Y-72090000I150000J0D01*
G01*
X87566000Y-72090000D01*
G75*
G02*
X87716000Y-72240000I0J-150000D01*
G01*
X87716000Y-72540000D01*
G75*
G02*
X87566000Y-72690000I-150000J0D01*
G01*
X85916000Y-72690000D01*
G75*
G02*
X85766000Y-72540000I0J150000D01*
G01*
G37*
%TD*%
%TO.C,U2*%
G36*
G01*
X48156000Y-75143000D02*
X47856000Y-75143000D01*
G75*
G02*
X47706000Y-74993000I0J150000D01*
G01*
X47706000Y-73343000D01*
G75*
G02*
X47856000Y-73193000I150000J0D01*
G01*
X48156000Y-73193000D01*
G75*
G02*
X48306000Y-73343000I0J-150000D01*
G01*
X48306000Y-74993000D01*
G75*
G02*
X48156000Y-75143000I-150000J0D01*
G01*
G37*
G36*
G01*
X49426000Y-75143000D02*
X49126000Y-75143000D01*
G75*
G02*
X48976000Y-74993000I0J150000D01*
G01*
X48976000Y-73343000D01*
G75*
G02*
X49126000Y-73193000I150000J0D01*
G01*
X49426000Y-73193000D01*
G75*
G02*
X49576000Y-73343000I0J-150000D01*
G01*
X49576000Y-74993000D01*
G75*
G02*
X49426000Y-75143000I-150000J0D01*
G01*
G37*
G36*
G01*
X50696000Y-75143000D02*
X50396000Y-75143000D01*
G75*
G02*
X50246000Y-74993000I0J150000D01*
G01*
X50246000Y-73343000D01*
G75*
G02*
X50396000Y-73193000I150000J0D01*
G01*
X50696000Y-73193000D01*
G75*
G02*
X50846000Y-73343000I0J-150000D01*
G01*
X50846000Y-74993000D01*
G75*
G02*
X50696000Y-75143000I-150000J0D01*
G01*
G37*
G36*
G01*
X51966000Y-75143000D02*
X51666000Y-75143000D01*
G75*
G02*
X51516000Y-74993000I0J150000D01*
G01*
X51516000Y-73343000D01*
G75*
G02*
X51666000Y-73193000I150000J0D01*
G01*
X51966000Y-73193000D01*
G75*
G02*
X52116000Y-73343000I0J-150000D01*
G01*
X52116000Y-74993000D01*
G75*
G02*
X51966000Y-75143000I-150000J0D01*
G01*
G37*
G36*
G01*
X51966000Y-70193000D02*
X51666000Y-70193000D01*
G75*
G02*
X51516000Y-70043000I0J150000D01*
G01*
X51516000Y-68393000D01*
G75*
G02*
X51666000Y-68243000I150000J0D01*
G01*
X51966000Y-68243000D01*
G75*
G02*
X52116000Y-68393000I0J-150000D01*
G01*
X52116000Y-70043000D01*
G75*
G02*
X51966000Y-70193000I-150000J0D01*
G01*
G37*
G36*
G01*
X50696000Y-70193000D02*
X50396000Y-70193000D01*
G75*
G02*
X50246000Y-70043000I0J150000D01*
G01*
X50246000Y-68393000D01*
G75*
G02*
X50396000Y-68243000I150000J0D01*
G01*
X50696000Y-68243000D01*
G75*
G02*
X50846000Y-68393000I0J-150000D01*
G01*
X50846000Y-70043000D01*
G75*
G02*
X50696000Y-70193000I-150000J0D01*
G01*
G37*
G36*
G01*
X49426000Y-70193000D02*
X49126000Y-70193000D01*
G75*
G02*
X48976000Y-70043000I0J150000D01*
G01*
X48976000Y-68393000D01*
G75*
G02*
X49126000Y-68243000I150000J0D01*
G01*
X49426000Y-68243000D01*
G75*
G02*
X49576000Y-68393000I0J-150000D01*
G01*
X49576000Y-70043000D01*
G75*
G02*
X49426000Y-70193000I-150000J0D01*
G01*
G37*
G36*
G01*
X48156000Y-70193000D02*
X47856000Y-70193000D01*
G75*
G02*
X47706000Y-70043000I0J150000D01*
G01*
X47706000Y-68393000D01*
G75*
G02*
X47856000Y-68243000I150000J0D01*
G01*
X48156000Y-68243000D01*
G75*
G02*
X48306000Y-68393000I0J-150000D01*
G01*
X48306000Y-70043000D01*
G75*
G02*
X48156000Y-70193000I-150000J0D01*
G01*
G37*
%TD*%
%TO.C,U3*%
G36*
G01*
X68415000Y-63650000D02*
X68415000Y-63350000D01*
G75*
G02*
X68565000Y-63200000I150000J0D01*
G01*
X70315000Y-63200000D01*
G75*
G02*
X70465000Y-63350000I0J-150000D01*
G01*
X70465000Y-63650000D01*
G75*
G02*
X70315000Y-63800000I-150000J0D01*
G01*
X68565000Y-63800000D01*
G75*
G02*
X68415000Y-63650000I0J150000D01*
G01*
G37*
G36*
G01*
X68415000Y-64920000D02*
X68415000Y-64620000D01*
G75*
G02*
X68565000Y-64470000I150000J0D01*
G01*
X70315000Y-64470000D01*
G75*
G02*
X70465000Y-64620000I0J-150000D01*
G01*
X70465000Y-64920000D01*
G75*
G02*
X70315000Y-65070000I-150000J0D01*
G01*
X68565000Y-65070000D01*
G75*
G02*
X68415000Y-64920000I0J150000D01*
G01*
G37*
G36*
G01*
X68415000Y-66190000D02*
X68415000Y-65890000D01*
G75*
G02*
X68565000Y-65740000I150000J0D01*
G01*
X70315000Y-65740000D01*
G75*
G02*
X70465000Y-65890000I0J-150000D01*
G01*
X70465000Y-66190000D01*
G75*
G02*
X70315000Y-66340000I-150000J0D01*
G01*
X68565000Y-66340000D01*
G75*
G02*
X68415000Y-66190000I0J150000D01*
G01*
G37*
G36*
G01*
X68415000Y-67460000D02*
X68415000Y-67160000D01*
G75*
G02*
X68565000Y-67010000I150000J0D01*
G01*
X70315000Y-67010000D01*
G75*
G02*
X70465000Y-67160000I0J-150000D01*
G01*
X70465000Y-67460000D01*
G75*
G02*
X70315000Y-67610000I-150000J0D01*
G01*
X68565000Y-67610000D01*
G75*
G02*
X68415000Y-67460000I0J150000D01*
G01*
G37*
G36*
G01*
X68415000Y-68730000D02*
X68415000Y-68430000D01*
G75*
G02*
X68565000Y-68280000I150000J0D01*
G01*
X70315000Y-68280000D01*
G75*
G02*
X70465000Y-68430000I0J-150000D01*
G01*
X70465000Y-68730000D01*
G75*
G02*
X70315000Y-68880000I-150000J0D01*
G01*
X68565000Y-68880000D01*
G75*
G02*
X68415000Y-68730000I0J150000D01*
G01*
G37*
G36*
G01*
X68415000Y-70000000D02*
X68415000Y-69700000D01*
G75*
G02*
X68565000Y-69550000I150000J0D01*
G01*
X70315000Y-69550000D01*
G75*
G02*
X70465000Y-69700000I0J-150000D01*
G01*
X70465000Y-70000000D01*
G75*
G02*
X70315000Y-70150000I-150000J0D01*
G01*
X68565000Y-70150000D01*
G75*
G02*
X68415000Y-70000000I0J150000D01*
G01*
G37*
G36*
G01*
X68415000Y-71270000D02*
X68415000Y-70970000D01*
G75*
G02*
X68565000Y-70820000I150000J0D01*
G01*
X70315000Y-70820000D01*
G75*
G02*
X70465000Y-70970000I0J-150000D01*
G01*
X70465000Y-71270000D01*
G75*
G02*
X70315000Y-71420000I-150000J0D01*
G01*
X68565000Y-71420000D01*
G75*
G02*
X68415000Y-71270000I0J150000D01*
G01*
G37*
G36*
G01*
X68415000Y-72540000D02*
X68415000Y-72240000D01*
G75*
G02*
X68565000Y-72090000I150000J0D01*
G01*
X70315000Y-72090000D01*
G75*
G02*
X70465000Y-72240000I0J-150000D01*
G01*
X70465000Y-72540000D01*
G75*
G02*
X70315000Y-72690000I-150000J0D01*
G01*
X68565000Y-72690000D01*
G75*
G02*
X68415000Y-72540000I0J150000D01*
G01*
G37*
G36*
G01*
X68415000Y-73810000D02*
X68415000Y-73510000D01*
G75*
G02*
X68565000Y-73360000I150000J0D01*
G01*
X70315000Y-73360000D01*
G75*
G02*
X70465000Y-73510000I0J-150000D01*
G01*
X70465000Y-73810000D01*
G75*
G02*
X70315000Y-73960000I-150000J0D01*
G01*
X68565000Y-73960000D01*
G75*
G02*
X68415000Y-73810000I0J150000D01*
G01*
G37*
G36*
G01*
X68415000Y-75080000D02*
X68415000Y-74780000D01*
G75*
G02*
X68565000Y-74630000I150000J0D01*
G01*
X70315000Y-74630000D01*
G75*
G02*
X70465000Y-74780000I0J-150000D01*
G01*
X70465000Y-75080000D01*
G75*
G02*
X70315000Y-75230000I-150000J0D01*
G01*
X68565000Y-75230000D01*
G75*
G02*
X68415000Y-75080000I0J150000D01*
G01*
G37*
G36*
G01*
X77715000Y-75080000D02*
X77715000Y-74780000D01*
G75*
G02*
X77865000Y-74630000I150000J0D01*
G01*
X79615000Y-74630000D01*
G75*
G02*
X79765000Y-74780000I0J-150000D01*
G01*
X79765000Y-75080000D01*
G75*
G02*
X79615000Y-75230000I-150000J0D01*
G01*
X77865000Y-75230000D01*
G75*
G02*
X77715000Y-75080000I0J150000D01*
G01*
G37*
G36*
G01*
X77715000Y-73810000D02*
X77715000Y-73510000D01*
G75*
G02*
X77865000Y-73360000I150000J0D01*
G01*
X79615000Y-73360000D01*
G75*
G02*
X79765000Y-73510000I0J-150000D01*
G01*
X79765000Y-73810000D01*
G75*
G02*
X79615000Y-73960000I-150000J0D01*
G01*
X77865000Y-73960000D01*
G75*
G02*
X77715000Y-73810000I0J150000D01*
G01*
G37*
G36*
G01*
X77715000Y-72540000D02*
X77715000Y-72240000D01*
G75*
G02*
X77865000Y-72090000I150000J0D01*
G01*
X79615000Y-72090000D01*
G75*
G02*
X79765000Y-72240000I0J-150000D01*
G01*
X79765000Y-72540000D01*
G75*
G02*
X79615000Y-72690000I-150000J0D01*
G01*
X77865000Y-72690000D01*
G75*
G02*
X77715000Y-72540000I0J150000D01*
G01*
G37*
G36*
G01*
X77715000Y-71270000D02*
X77715000Y-70970000D01*
G75*
G02*
X77865000Y-70820000I150000J0D01*
G01*
X79615000Y-70820000D01*
G75*
G02*
X79765000Y-70970000I0J-150000D01*
G01*
X79765000Y-71270000D01*
G75*
G02*
X79615000Y-71420000I-150000J0D01*
G01*
X77865000Y-71420000D01*
G75*
G02*
X77715000Y-71270000I0J150000D01*
G01*
G37*
G36*
G01*
X77715000Y-70000000D02*
X77715000Y-69700000D01*
G75*
G02*
X77865000Y-69550000I150000J0D01*
G01*
X79615000Y-69550000D01*
G75*
G02*
X79765000Y-69700000I0J-150000D01*
G01*
X79765000Y-70000000D01*
G75*
G02*
X79615000Y-70150000I-150000J0D01*
G01*
X77865000Y-70150000D01*
G75*
G02*
X77715000Y-70000000I0J150000D01*
G01*
G37*
G36*
G01*
X77715000Y-68730000D02*
X77715000Y-68430000D01*
G75*
G02*
X77865000Y-68280000I150000J0D01*
G01*
X79615000Y-68280000D01*
G75*
G02*
X79765000Y-68430000I0J-150000D01*
G01*
X79765000Y-68730000D01*
G75*
G02*
X79615000Y-68880000I-150000J0D01*
G01*
X77865000Y-68880000D01*
G75*
G02*
X77715000Y-68730000I0J150000D01*
G01*
G37*
G36*
G01*
X77715000Y-67460000D02*
X77715000Y-67160000D01*
G75*
G02*
X77865000Y-67010000I150000J0D01*
G01*
X79615000Y-67010000D01*
G75*
G02*
X79765000Y-67160000I0J-150000D01*
G01*
X79765000Y-67460000D01*
G75*
G02*
X79615000Y-67610000I-150000J0D01*
G01*
X77865000Y-67610000D01*
G75*
G02*
X77715000Y-67460000I0J150000D01*
G01*
G37*
G36*
G01*
X77715000Y-66190000D02*
X77715000Y-65890000D01*
G75*
G02*
X77865000Y-65740000I150000J0D01*
G01*
X79615000Y-65740000D01*
G75*
G02*
X79765000Y-65890000I0J-150000D01*
G01*
X79765000Y-66190000D01*
G75*
G02*
X79615000Y-66340000I-150000J0D01*
G01*
X77865000Y-66340000D01*
G75*
G02*
X77715000Y-66190000I0J150000D01*
G01*
G37*
G36*
G01*
X77715000Y-64920000D02*
X77715000Y-64620000D01*
G75*
G02*
X77865000Y-64470000I150000J0D01*
G01*
X79615000Y-64470000D01*
G75*
G02*
X79765000Y-64620000I0J-150000D01*
G01*
X79765000Y-64920000D01*
G75*
G02*
X79615000Y-65070000I-150000J0D01*
G01*
X77865000Y-65070000D01*
G75*
G02*
X77715000Y-64920000I0J150000D01*
G01*
G37*
G36*
G01*
X77715000Y-63650000D02*
X77715000Y-63350000D01*
G75*
G02*
X77865000Y-63200000I150000J0D01*
G01*
X79615000Y-63200000D01*
G75*
G02*
X79765000Y-63350000I0J-150000D01*
G01*
X79765000Y-63650000D01*
G75*
G02*
X79615000Y-63800000I-150000J0D01*
G01*
X77865000Y-63800000D01*
G75*
G02*
X77715000Y-63650000I0J150000D01*
G01*
G37*
%TD*%
D11*
%TO.C,J5*%
X80995000Y-84128000D03*
X86645000Y-84128000D03*
D12*
X83820000Y-84328000D03*
%TD*%
%TO.C,C13*%
G36*
G01*
X55085000Y-72172500D02*
X54135000Y-72172500D01*
G75*
G02*
X53885000Y-71922500I0J250000D01*
G01*
X53885000Y-71247500D01*
G75*
G02*
X54135000Y-70997500I250000J0D01*
G01*
X55085000Y-70997500D01*
G75*
G02*
X55335000Y-71247500I0J-250000D01*
G01*
X55335000Y-71922500D01*
G75*
G02*
X55085000Y-72172500I-250000J0D01*
G01*
G37*
G36*
G01*
X55085000Y-74247500D02*
X54135000Y-74247500D01*
G75*
G02*
X53885000Y-73997500I0J250000D01*
G01*
X53885000Y-73322500D01*
G75*
G02*
X54135000Y-73072500I250000J0D01*
G01*
X55085000Y-73072500D01*
G75*
G02*
X55335000Y-73322500I0J-250000D01*
G01*
X55335000Y-73997500D01*
G75*
G02*
X55085000Y-74247500I-250000J0D01*
G01*
G37*
%TD*%
%TO.C,C14*%
G36*
G01*
X65565000Y-71802500D02*
X66515000Y-71802500D01*
G75*
G02*
X66765000Y-72052500I0J-250000D01*
G01*
X66765000Y-72727500D01*
G75*
G02*
X66515000Y-72977500I-250000J0D01*
G01*
X65565000Y-72977500D01*
G75*
G02*
X65315000Y-72727500I0J250000D01*
G01*
X65315000Y-72052500D01*
G75*
G02*
X65565000Y-71802500I250000J0D01*
G01*
G37*
G36*
G01*
X65565000Y-73877500D02*
X66515000Y-73877500D01*
G75*
G02*
X66765000Y-74127500I0J-250000D01*
G01*
X66765000Y-74802500D01*
G75*
G02*
X66515000Y-75052500I-250000J0D01*
G01*
X65565000Y-75052500D01*
G75*
G02*
X65315000Y-74802500I0J250000D01*
G01*
X65315000Y-74127500D01*
G75*
G02*
X65565000Y-73877500I250000J0D01*
G01*
G37*
%TD*%
%TO.C,C15*%
G36*
G01*
X83345000Y-73707500D02*
X84295000Y-73707500D01*
G75*
G02*
X84545000Y-73957500I0J-250000D01*
G01*
X84545000Y-74632500D01*
G75*
G02*
X84295000Y-74882500I-250000J0D01*
G01*
X83345000Y-74882500D01*
G75*
G02*
X83095000Y-74632500I0J250000D01*
G01*
X83095000Y-73957500D01*
G75*
G02*
X83345000Y-73707500I250000J0D01*
G01*
G37*
G36*
G01*
X83345000Y-75782500D02*
X84295000Y-75782500D01*
G75*
G02*
X84545000Y-76032500I0J-250000D01*
G01*
X84545000Y-76707500D01*
G75*
G02*
X84295000Y-76957500I-250000J0D01*
G01*
X83345000Y-76957500D01*
G75*
G02*
X83095000Y-76707500I0J250000D01*
G01*
X83095000Y-76032500D01*
G75*
G02*
X83345000Y-75782500I250000J0D01*
G01*
G37*
%TD*%
D14*
%TO.C,C7*%
X62230000Y-38735000D03*
D15*
X62230000Y-43735000D03*
%TD*%
D14*
%TO.C,C9*%
X99695000Y-51435000D03*
D15*
X99695000Y-53435000D03*
%TD*%
%TO.C,C11*%
X99695000Y-33115000D03*
D14*
X99695000Y-31115000D03*
%TD*%
%TO.C,R8*%
G36*
G01*
X92205000Y-79190001D02*
X92205000Y-78289999D01*
G75*
G02*
X92454999Y-78040000I249999J0D01*
G01*
X93155001Y-78040000D01*
G75*
G02*
X93405000Y-78289999I0J-249999D01*
G01*
X93405000Y-79190001D01*
G75*
G02*
X93155001Y-79440000I-249999J0D01*
G01*
X92454999Y-79440000D01*
G75*
G02*
X92205000Y-79190001I0J249999D01*
G01*
G37*
G36*
G01*
X90205000Y-79190001D02*
X90205000Y-78289999D01*
G75*
G02*
X90454999Y-78040000I249999J0D01*
G01*
X91155001Y-78040000D01*
G75*
G02*
X91405000Y-78289999I0J-249999D01*
G01*
X91405000Y-79190001D01*
G75*
G02*
X91155001Y-79440000I-249999J0D01*
G01*
X90454999Y-79440000D01*
G75*
G02*
X90205000Y-79190001I0J249999D01*
G01*
G37*
%TD*%
M02*
