%TF.GenerationSoftware,KiCad,Pcbnew,(5.1.9)-1*%
%TF.CreationDate,2021-05-02T14:53:51-04:00*%
%TF.ProjectId,openEPR_Lock-In,6f70656e-4550-4525-9f4c-6f636b2d496e,rev?*%
%TF.SameCoordinates,Original*%
%TF.FileFunction,Copper,L2,Inr*%
%TF.FilePolarity,Positive*%
%FSLAX46Y46*%
G04 Gerber Fmt 4.6, Leading zero omitted, Abs format (unit mm)*
G04 Created by KiCad (PCBNEW (5.1.9)-1) date 2021-05-02 14:53:51*
%MOMM*%
%LPD*%
G01*
G04 APERTURE LIST*
%TA.AperFunction,ComponentPad*%
%ADD10C,2.000000*%
%TD*%
%TA.AperFunction,ComponentPad*%
%ADD11R,3.500000X3.500000*%
%TD*%
%TA.AperFunction,ComponentPad*%
%ADD12R,1.600000X1.600000*%
%TD*%
%TA.AperFunction,ComponentPad*%
%ADD13C,1.600000*%
%TD*%
%TA.AperFunction,ViaPad*%
%ADD14C,0.800000*%
%TD*%
%TA.AperFunction,Conductor*%
%ADD15C,0.254000*%
%TD*%
%TA.AperFunction,Conductor*%
%ADD16C,0.100000*%
%TD*%
G04 APERTURE END LIST*
D10*
%TO.N,GND*%
%TO.C,U4*%
X71120000Y-38608000D03*
%TO.N,/Vin*%
X71120000Y-43688000D03*
%TO.N,/V+*%
X91440000Y-51308000D03*
%TO.N,GND*%
X91440000Y-41148000D03*
%TO.N,/V-*%
X91440000Y-30988000D03*
%TD*%
D11*
%TO.N,GND*%
%TO.C,J4*%
X50800000Y-38100000D03*
%TO.N,/Vin*%
%TA.AperFunction,ComponentPad*%
G36*
G01*
X49800000Y-30600000D02*
X51800000Y-30600000D01*
G75*
G02*
X52550000Y-31350000I0J-750000D01*
G01*
X52550000Y-32850000D01*
G75*
G02*
X51800000Y-33600000I-750000J0D01*
G01*
X49800000Y-33600000D01*
G75*
G02*
X49050000Y-32850000I0J750000D01*
G01*
X49050000Y-31350000D01*
G75*
G02*
X49800000Y-30600000I750000J0D01*
G01*
G37*
%TD.AperFunction*%
%TO.N,N/C*%
%TA.AperFunction,ComponentPad*%
G36*
G01*
X45225000Y-33350000D02*
X46975000Y-33350000D01*
G75*
G02*
X47850000Y-34225000I0J-875000D01*
G01*
X47850000Y-35975000D01*
G75*
G02*
X46975000Y-36850000I-875000J0D01*
G01*
X45225000Y-36850000D01*
G75*
G02*
X44350000Y-35975000I0J875000D01*
G01*
X44350000Y-34225000D01*
G75*
G02*
X45225000Y-33350000I875000J0D01*
G01*
G37*
%TD.AperFunction*%
%TD*%
D12*
%TO.N,/Vin*%
%TO.C,C7*%
X62230000Y-38735000D03*
D13*
%TO.N,GND*%
X62230000Y-43735000D03*
%TD*%
D12*
%TO.N,/V+*%
%TO.C,C9*%
X99695000Y-51435000D03*
D13*
%TO.N,GND*%
X99695000Y-53435000D03*
%TD*%
%TO.N,/V-*%
%TO.C,C11*%
X99695000Y-33115000D03*
D12*
%TO.N,GND*%
X99695000Y-31115000D03*
%TD*%
D14*
%TO.N,GND*%
X53340000Y-69215000D03*
X69850000Y-83820000D03*
X72390000Y-83820000D03*
X74930000Y-83820000D03*
X77470000Y-83820000D03*
X69850000Y-81280000D03*
X72390000Y-81280000D03*
X74930000Y-81280000D03*
X77470000Y-81280000D03*
X72390000Y-78740000D03*
X69850000Y-78740000D03*
X67310000Y-78740000D03*
X64770000Y-78740000D03*
X62230000Y-78740000D03*
X62230000Y-76200000D03*
X64770000Y-76200000D03*
X67310000Y-76200000D03*
X69850000Y-76200000D03*
X62230000Y-69850000D03*
X64770000Y-69850000D03*
X67310000Y-69850000D03*
X67310000Y-67310000D03*
X64770000Y-67310000D03*
X62230000Y-67310000D03*
X59690000Y-67310000D03*
X59690000Y-69850000D03*
X57150000Y-69850000D03*
X59690000Y-64770000D03*
X62230000Y-64770000D03*
X64770000Y-64770000D03*
X67310000Y-64770000D03*
X67310000Y-62230000D03*
X64770000Y-62230000D03*
X62230000Y-62230000D03*
X59690000Y-62230000D03*
X72390000Y-72390000D03*
X74930000Y-72390000D03*
X74930000Y-69850000D03*
X72390000Y-69850000D03*
X72390000Y-67310000D03*
X74930000Y-64770000D03*
X72390000Y-62230000D03*
X74930000Y-62230000D03*
X77470000Y-62230000D03*
X83820000Y-71120000D03*
X83820000Y-68580000D03*
X83820000Y-64770000D03*
X90170000Y-83820000D03*
X92710000Y-83820000D03*
X95250000Y-83820000D03*
X97790000Y-83820000D03*
X97790000Y-81280000D03*
X95250000Y-81280000D03*
X92710000Y-81280000D03*
X90170000Y-81280000D03*
X49530000Y-83820000D03*
X52070000Y-83820000D03*
X54610000Y-83820000D03*
X57150000Y-83820000D03*
X57150000Y-81280000D03*
X54610000Y-81280000D03*
X52070000Y-81280000D03*
X49530000Y-81280000D03*
X82550000Y-78740000D03*
X95250000Y-78740000D03*
X97790000Y-78740000D03*
X110490000Y-83820000D03*
X113030000Y-83820000D03*
X113030000Y-81280000D03*
X110490000Y-81280000D03*
X36830000Y-83820000D03*
X34290000Y-83820000D03*
X34290000Y-81280000D03*
X36830000Y-81280000D03*
X39370000Y-72390000D03*
X41910000Y-63500000D03*
X59690000Y-59690000D03*
X62230000Y-59690000D03*
X64770000Y-59690000D03*
X67310000Y-59690000D03*
X69850000Y-59690000D03*
X72390000Y-59690000D03*
X74930000Y-59690000D03*
X77470000Y-59690000D03*
X80010000Y-59690000D03*
X83820000Y-59690000D03*
X83820000Y-62230000D03*
X86360000Y-64770000D03*
X88900000Y-64770000D03*
X91440000Y-64770000D03*
X91440000Y-62230000D03*
X88900000Y-62230000D03*
X86360000Y-62230000D03*
X86360000Y-59690000D03*
X88900000Y-59690000D03*
X91440000Y-59690000D03*
X93980000Y-64770000D03*
X96520000Y-64770000D03*
X96520000Y-72390000D03*
X93980000Y-62230000D03*
X93980000Y-59690000D03*
X96520000Y-59690000D03*
X96520000Y-62230000D03*
X110490000Y-78740000D03*
X110490000Y-76200000D03*
X107950000Y-76200000D03*
X107950000Y-78740000D03*
X105410000Y-76200000D03*
X102870000Y-73660000D03*
X105410000Y-73660000D03*
X99060000Y-72390000D03*
X57150000Y-59690000D03*
X54610000Y-62230000D03*
X57150000Y-62230000D03*
X52070000Y-62230000D03*
X34290000Y-27940000D03*
X38100000Y-27940000D03*
X38100000Y-30480000D03*
X34290000Y-30480000D03*
X34290000Y-52070000D03*
X34290000Y-59690000D03*
X113030000Y-27940000D03*
X109220000Y-27940000D03*
X109220000Y-30480000D03*
X113030000Y-30480000D03*
X113030000Y-45720000D03*
X113030000Y-55880000D03*
X101600000Y-46990000D03*
X101600000Y-35560000D03*
X113030000Y-66040000D03*
X34290000Y-39370000D03*
X34290000Y-69850000D03*
X38100000Y-66675000D03*
X34290000Y-74930000D03*
X34290000Y-78105000D03*
X36830000Y-78105000D03*
X101600000Y-63500000D03*
X101600000Y-69850000D03*
X107950000Y-63500000D03*
X107950000Y-69850000D03*
X52070000Y-52070000D03*
X45085000Y-57150000D03*
X63500000Y-33020000D03*
X63500000Y-30480000D03*
X60960000Y-30480000D03*
X66040000Y-35560000D03*
X66040000Y-33020000D03*
X66040000Y-30480000D03*
%TO.N,/V+*%
X80645000Y-77470000D03*
X94361000Y-72771000D03*
X48768000Y-64262000D03*
%TO.N,/V-*%
X60960000Y-72390000D03*
X81661000Y-74295000D03*
%TD*%
D15*
%TO.N,GND*%
X116180001Y-29242419D02*
X116182802Y-29270855D01*
X116182747Y-29278682D01*
X116183646Y-29287853D01*
X116209554Y-29534357D01*
X116221589Y-29592986D01*
X116232792Y-29651716D01*
X116235456Y-29660538D01*
X116308751Y-29897314D01*
X116331931Y-29952457D01*
X116354339Y-30007920D01*
X116358665Y-30016054D01*
X116358667Y-30016059D01*
X116358670Y-30016064D01*
X116476553Y-30234086D01*
X116509988Y-30283654D01*
X116542759Y-30333735D01*
X116548584Y-30340876D01*
X116706577Y-30531856D01*
X116749012Y-30573995D01*
X116790875Y-30616745D01*
X116797976Y-30622618D01*
X116990053Y-30779273D01*
X117039875Y-30812374D01*
X117089237Y-30846173D01*
X117097343Y-30850556D01*
X117316191Y-30966919D01*
X117371479Y-30989707D01*
X117426475Y-31013279D01*
X117435278Y-31016003D01*
X117672559Y-31087643D01*
X117731246Y-31099264D01*
X117789752Y-31111700D01*
X117798915Y-31112663D01*
X117798917Y-31112663D01*
X118045595Y-31136850D01*
X118045598Y-31136850D01*
X118077581Y-31140000D01*
X121260000Y-31140000D01*
X121260001Y-80620000D01*
X118077581Y-80620000D01*
X118049135Y-80622802D01*
X118041318Y-80622747D01*
X118032147Y-80623646D01*
X117785644Y-80649554D01*
X117727028Y-80661586D01*
X117668284Y-80672792D01*
X117659462Y-80675456D01*
X117422686Y-80748751D01*
X117367555Y-80771926D01*
X117312080Y-80794339D01*
X117303944Y-80798666D01*
X117085914Y-80916554D01*
X117036346Y-80949988D01*
X116986265Y-80982760D01*
X116979124Y-80988584D01*
X116788144Y-81146577D01*
X116746005Y-81189012D01*
X116703255Y-81230875D01*
X116697381Y-81237976D01*
X116540727Y-81430054D01*
X116507655Y-81479831D01*
X116473826Y-81529237D01*
X116469444Y-81537343D01*
X116353081Y-81756191D01*
X116330298Y-81811468D01*
X116306721Y-81866475D01*
X116303997Y-81875278D01*
X116232357Y-82112559D01*
X116220736Y-82171246D01*
X116208300Y-82229752D01*
X116207337Y-82238917D01*
X116183150Y-82485595D01*
X116180000Y-82517582D01*
X116180001Y-85700000D01*
X31140000Y-85700000D01*
X31140000Y-82517581D01*
X31137198Y-82489135D01*
X31137253Y-82481318D01*
X31136354Y-82472147D01*
X31110446Y-82225644D01*
X31098414Y-82167028D01*
X31087208Y-82108284D01*
X31084544Y-82099462D01*
X31011249Y-81862686D01*
X30988074Y-81807555D01*
X30965661Y-81752080D01*
X30961334Y-81743944D01*
X30843446Y-81525914D01*
X30810012Y-81476346D01*
X30777240Y-81426265D01*
X30771416Y-81419124D01*
X30613423Y-81228144D01*
X30570988Y-81186005D01*
X30529125Y-81143255D01*
X30522024Y-81137381D01*
X30329946Y-80980727D01*
X30280169Y-80947655D01*
X30230763Y-80913826D01*
X30222657Y-80909444D01*
X30003809Y-80793081D01*
X29948532Y-80770298D01*
X29893525Y-80746721D01*
X29884722Y-80743997D01*
X29647441Y-80672357D01*
X29588754Y-80660736D01*
X29530248Y-80648300D01*
X29521085Y-80647337D01*
X29521083Y-80647337D01*
X29274405Y-80623150D01*
X29274402Y-80623150D01*
X29242419Y-80620000D01*
X26060000Y-80620000D01*
X26060000Y-77368061D01*
X79610000Y-77368061D01*
X79610000Y-77571939D01*
X79649774Y-77771898D01*
X79727795Y-77960256D01*
X79841063Y-78129774D01*
X79985226Y-78273937D01*
X80154744Y-78387205D01*
X80343102Y-78465226D01*
X80543061Y-78505000D01*
X80746939Y-78505000D01*
X80946898Y-78465226D01*
X81135256Y-78387205D01*
X81304774Y-78273937D01*
X81448937Y-78129774D01*
X81562205Y-77960256D01*
X81640226Y-77771898D01*
X81680000Y-77571939D01*
X81680000Y-77368061D01*
X81640226Y-77168102D01*
X81562205Y-76979744D01*
X81448937Y-76810226D01*
X81304774Y-76666063D01*
X81135256Y-76552795D01*
X80946898Y-76474774D01*
X80746939Y-76435000D01*
X80543061Y-76435000D01*
X80343102Y-76474774D01*
X80154744Y-76552795D01*
X79985226Y-76666063D01*
X79841063Y-76810226D01*
X79727795Y-76979744D01*
X79649774Y-77168102D01*
X79610000Y-77368061D01*
X26060000Y-77368061D01*
X26060000Y-74193061D01*
X80626000Y-74193061D01*
X80626000Y-74396939D01*
X80665774Y-74596898D01*
X80743795Y-74785256D01*
X80857063Y-74954774D01*
X81001226Y-75098937D01*
X81170744Y-75212205D01*
X81359102Y-75290226D01*
X81559061Y-75330000D01*
X81762939Y-75330000D01*
X81962898Y-75290226D01*
X82151256Y-75212205D01*
X82320774Y-75098937D01*
X82464937Y-74954774D01*
X82578205Y-74785256D01*
X82656226Y-74596898D01*
X82696000Y-74396939D01*
X82696000Y-74193061D01*
X82656226Y-73993102D01*
X82578205Y-73804744D01*
X82464937Y-73635226D01*
X82320774Y-73491063D01*
X82151256Y-73377795D01*
X81962898Y-73299774D01*
X81762939Y-73260000D01*
X81559061Y-73260000D01*
X81359102Y-73299774D01*
X81170744Y-73377795D01*
X81001226Y-73491063D01*
X80857063Y-73635226D01*
X80743795Y-73804744D01*
X80665774Y-73993102D01*
X80626000Y-74193061D01*
X26060000Y-74193061D01*
X26060000Y-72288061D01*
X59925000Y-72288061D01*
X59925000Y-72491939D01*
X59964774Y-72691898D01*
X60042795Y-72880256D01*
X60156063Y-73049774D01*
X60300226Y-73193937D01*
X60469744Y-73307205D01*
X60658102Y-73385226D01*
X60858061Y-73425000D01*
X61061939Y-73425000D01*
X61261898Y-73385226D01*
X61450256Y-73307205D01*
X61619774Y-73193937D01*
X61763937Y-73049774D01*
X61877205Y-72880256D01*
X61955226Y-72691898D01*
X61959768Y-72669061D01*
X93326000Y-72669061D01*
X93326000Y-72872939D01*
X93365774Y-73072898D01*
X93443795Y-73261256D01*
X93557063Y-73430774D01*
X93701226Y-73574937D01*
X93870744Y-73688205D01*
X94059102Y-73766226D01*
X94259061Y-73806000D01*
X94462939Y-73806000D01*
X94662898Y-73766226D01*
X94851256Y-73688205D01*
X95020774Y-73574937D01*
X95164937Y-73430774D01*
X95278205Y-73261256D01*
X95356226Y-73072898D01*
X95396000Y-72872939D01*
X95396000Y-72669061D01*
X95356226Y-72469102D01*
X95278205Y-72280744D01*
X95164937Y-72111226D01*
X95020774Y-71967063D01*
X94851256Y-71853795D01*
X94662898Y-71775774D01*
X94462939Y-71736000D01*
X94259061Y-71736000D01*
X94059102Y-71775774D01*
X93870744Y-71853795D01*
X93701226Y-71967063D01*
X93557063Y-72111226D01*
X93443795Y-72280744D01*
X93365774Y-72469102D01*
X93326000Y-72669061D01*
X61959768Y-72669061D01*
X61995000Y-72491939D01*
X61995000Y-72288061D01*
X61955226Y-72088102D01*
X61877205Y-71899744D01*
X61763937Y-71730226D01*
X61619774Y-71586063D01*
X61450256Y-71472795D01*
X61261898Y-71394774D01*
X61061939Y-71355000D01*
X60858061Y-71355000D01*
X60658102Y-71394774D01*
X60469744Y-71472795D01*
X60300226Y-71586063D01*
X60156063Y-71730226D01*
X60042795Y-71899744D01*
X59964774Y-72088102D01*
X59925000Y-72288061D01*
X26060000Y-72288061D01*
X26060000Y-64160061D01*
X47733000Y-64160061D01*
X47733000Y-64363939D01*
X47772774Y-64563898D01*
X47850795Y-64752256D01*
X47964063Y-64921774D01*
X48108226Y-65065937D01*
X48277744Y-65179205D01*
X48466102Y-65257226D01*
X48666061Y-65297000D01*
X48869939Y-65297000D01*
X49069898Y-65257226D01*
X49258256Y-65179205D01*
X49427774Y-65065937D01*
X49571937Y-64921774D01*
X49685205Y-64752256D01*
X49763226Y-64563898D01*
X49803000Y-64363939D01*
X49803000Y-64160061D01*
X49763226Y-63960102D01*
X49685205Y-63771744D01*
X49571937Y-63602226D01*
X49427774Y-63458063D01*
X49258256Y-63344795D01*
X49069898Y-63266774D01*
X48869939Y-63227000D01*
X48666061Y-63227000D01*
X48466102Y-63266774D01*
X48277744Y-63344795D01*
X48108226Y-63458063D01*
X47964063Y-63602226D01*
X47850795Y-63771744D01*
X47772774Y-63960102D01*
X47733000Y-64160061D01*
X26060000Y-64160061D01*
X26060000Y-54427702D01*
X98881903Y-54427702D01*
X98953486Y-54671671D01*
X99208996Y-54792571D01*
X99483184Y-54861300D01*
X99765512Y-54875217D01*
X100045130Y-54833787D01*
X100311292Y-54738603D01*
X100436514Y-54671671D01*
X100508097Y-54427702D01*
X99695000Y-53614605D01*
X98881903Y-54427702D01*
X26060000Y-54427702D01*
X26060000Y-53505512D01*
X98254783Y-53505512D01*
X98296213Y-53785130D01*
X98391397Y-54051292D01*
X98458329Y-54176514D01*
X98702298Y-54248097D01*
X99515395Y-53435000D01*
X99501253Y-53420858D01*
X99680858Y-53241253D01*
X99695000Y-53255395D01*
X99709143Y-53241253D01*
X99888748Y-53420858D01*
X99874605Y-53435000D01*
X100687702Y-54248097D01*
X100931671Y-54176514D01*
X101052571Y-53921004D01*
X101121300Y-53646816D01*
X101135217Y-53364488D01*
X101093787Y-53084870D01*
X100998603Y-52818708D01*
X100933384Y-52696691D01*
X100946185Y-52686185D01*
X101025537Y-52589494D01*
X101084502Y-52479180D01*
X101120812Y-52359482D01*
X101133072Y-52235000D01*
X101133072Y-50635000D01*
X101120812Y-50510518D01*
X101084502Y-50390820D01*
X101025537Y-50280506D01*
X100946185Y-50183815D01*
X100849494Y-50104463D01*
X100739180Y-50045498D01*
X100619482Y-50009188D01*
X100495000Y-49996928D01*
X98895000Y-49996928D01*
X98770518Y-50009188D01*
X98650820Y-50045498D01*
X98540506Y-50104463D01*
X98443815Y-50183815D01*
X98364463Y-50280506D01*
X98305498Y-50390820D01*
X98269188Y-50510518D01*
X98256928Y-50635000D01*
X98256928Y-52235000D01*
X98269188Y-52359482D01*
X98305498Y-52479180D01*
X98364463Y-52589494D01*
X98443815Y-52686185D01*
X98456758Y-52696807D01*
X98337429Y-52948996D01*
X98268700Y-53223184D01*
X98254783Y-53505512D01*
X26060000Y-53505512D01*
X26060000Y-51146967D01*
X89805000Y-51146967D01*
X89805000Y-51469033D01*
X89867832Y-51784912D01*
X89991082Y-52082463D01*
X90170013Y-52350252D01*
X90397748Y-52577987D01*
X90665537Y-52756918D01*
X90963088Y-52880168D01*
X91278967Y-52943000D01*
X91601033Y-52943000D01*
X91916912Y-52880168D01*
X92214463Y-52756918D01*
X92482252Y-52577987D01*
X92709987Y-52350252D01*
X92888918Y-52082463D01*
X93012168Y-51784912D01*
X93075000Y-51469033D01*
X93075000Y-51146967D01*
X93012168Y-50831088D01*
X92888918Y-50533537D01*
X92709987Y-50265748D01*
X92482252Y-50038013D01*
X92214463Y-49859082D01*
X91916912Y-49735832D01*
X91601033Y-49673000D01*
X91278967Y-49673000D01*
X90963088Y-49735832D01*
X90665537Y-49859082D01*
X90397748Y-50038013D01*
X90170013Y-50265748D01*
X89991082Y-50533537D01*
X89867832Y-50831088D01*
X89805000Y-51146967D01*
X26060000Y-51146967D01*
X26060000Y-44727702D01*
X61416903Y-44727702D01*
X61488486Y-44971671D01*
X61743996Y-45092571D01*
X62018184Y-45161300D01*
X62300512Y-45175217D01*
X62580130Y-45133787D01*
X62846292Y-45038603D01*
X62971514Y-44971671D01*
X63043097Y-44727702D01*
X62230000Y-43914605D01*
X61416903Y-44727702D01*
X26060000Y-44727702D01*
X26060000Y-43805512D01*
X60789783Y-43805512D01*
X60831213Y-44085130D01*
X60926397Y-44351292D01*
X60993329Y-44476514D01*
X61237298Y-44548097D01*
X62050395Y-43735000D01*
X62409605Y-43735000D01*
X63222702Y-44548097D01*
X63466671Y-44476514D01*
X63587571Y-44221004D01*
X63656300Y-43946816D01*
X63670217Y-43664488D01*
X63649842Y-43526967D01*
X69485000Y-43526967D01*
X69485000Y-43849033D01*
X69547832Y-44164912D01*
X69671082Y-44462463D01*
X69850013Y-44730252D01*
X70077748Y-44957987D01*
X70345537Y-45136918D01*
X70643088Y-45260168D01*
X70958967Y-45323000D01*
X71281033Y-45323000D01*
X71596912Y-45260168D01*
X71894463Y-45136918D01*
X72162252Y-44957987D01*
X72389987Y-44730252D01*
X72568918Y-44462463D01*
X72692168Y-44164912D01*
X72755000Y-43849033D01*
X72755000Y-43526967D01*
X72692168Y-43211088D01*
X72568918Y-42913537D01*
X72389987Y-42645748D01*
X72162252Y-42418013D01*
X71960809Y-42283413D01*
X90484192Y-42283413D01*
X90579956Y-42547814D01*
X90869571Y-42688704D01*
X91181108Y-42770384D01*
X91502595Y-42789718D01*
X91821675Y-42745961D01*
X92126088Y-42640795D01*
X92300044Y-42547814D01*
X92395808Y-42283413D01*
X91440000Y-41327605D01*
X90484192Y-42283413D01*
X71960809Y-42283413D01*
X71894463Y-42239082D01*
X71596912Y-42115832D01*
X71281033Y-42053000D01*
X70958967Y-42053000D01*
X70643088Y-42115832D01*
X70345537Y-42239082D01*
X70077748Y-42418013D01*
X69850013Y-42645748D01*
X69671082Y-42913537D01*
X69547832Y-43211088D01*
X69485000Y-43526967D01*
X63649842Y-43526967D01*
X63628787Y-43384870D01*
X63533603Y-43118708D01*
X63466671Y-42993486D01*
X63222702Y-42921903D01*
X62409605Y-43735000D01*
X62050395Y-43735000D01*
X61237298Y-42921903D01*
X60993329Y-42993486D01*
X60872429Y-43248996D01*
X60803700Y-43523184D01*
X60789783Y-43805512D01*
X26060000Y-43805512D01*
X26060000Y-42742298D01*
X61416903Y-42742298D01*
X62230000Y-43555395D01*
X63043097Y-42742298D01*
X62971514Y-42498329D01*
X62716004Y-42377429D01*
X62441816Y-42308700D01*
X62159488Y-42294783D01*
X61879870Y-42336213D01*
X61613708Y-42431397D01*
X61488486Y-42498329D01*
X61416903Y-42742298D01*
X26060000Y-42742298D01*
X26060000Y-41210595D01*
X89798282Y-41210595D01*
X89842039Y-41529675D01*
X89947205Y-41834088D01*
X90040186Y-42008044D01*
X90304587Y-42103808D01*
X91260395Y-41148000D01*
X91619605Y-41148000D01*
X92575413Y-42103808D01*
X92839814Y-42008044D01*
X92980704Y-41718429D01*
X93062384Y-41406892D01*
X93081718Y-41085405D01*
X93037961Y-40766325D01*
X92932795Y-40461912D01*
X92839814Y-40287956D01*
X92575413Y-40192192D01*
X91619605Y-41148000D01*
X91260395Y-41148000D01*
X90304587Y-40192192D01*
X90040186Y-40287956D01*
X89899296Y-40577571D01*
X89817616Y-40889108D01*
X89798282Y-41210595D01*
X26060000Y-41210595D01*
X26060000Y-39850000D01*
X48411928Y-39850000D01*
X48424188Y-39974482D01*
X48460498Y-40094180D01*
X48519463Y-40204494D01*
X48598815Y-40301185D01*
X48695506Y-40380537D01*
X48805820Y-40439502D01*
X48925518Y-40475812D01*
X49050000Y-40488072D01*
X50514250Y-40485000D01*
X50673000Y-40326250D01*
X50673000Y-38227000D01*
X50927000Y-38227000D01*
X50927000Y-40326250D01*
X51085750Y-40485000D01*
X52550000Y-40488072D01*
X52674482Y-40475812D01*
X52794180Y-40439502D01*
X52904494Y-40380537D01*
X53001185Y-40301185D01*
X53080537Y-40204494D01*
X53139502Y-40094180D01*
X53175812Y-39974482D01*
X53188072Y-39850000D01*
X53185000Y-38385750D01*
X53026250Y-38227000D01*
X50927000Y-38227000D01*
X50673000Y-38227000D01*
X48573750Y-38227000D01*
X48415000Y-38385750D01*
X48411928Y-39850000D01*
X26060000Y-39850000D01*
X26060000Y-34225000D01*
X43711928Y-34225000D01*
X43711928Y-35975000D01*
X43741001Y-36270186D01*
X43827104Y-36554028D01*
X43966927Y-36815618D01*
X44155097Y-37044903D01*
X44384382Y-37233073D01*
X44645972Y-37372896D01*
X44929814Y-37458999D01*
X45225000Y-37488072D01*
X46975000Y-37488072D01*
X47270186Y-37458999D01*
X47554028Y-37372896D01*
X47815618Y-37233073D01*
X48044903Y-37044903D01*
X48233073Y-36815618D01*
X48372896Y-36554028D01*
X48412085Y-36424840D01*
X48415000Y-37814250D01*
X48573750Y-37973000D01*
X50673000Y-37973000D01*
X50673000Y-35873750D01*
X50927000Y-35873750D01*
X50927000Y-37973000D01*
X53026250Y-37973000D01*
X53064250Y-37935000D01*
X60791928Y-37935000D01*
X60791928Y-39535000D01*
X60804188Y-39659482D01*
X60840498Y-39779180D01*
X60899463Y-39889494D01*
X60978815Y-39986185D01*
X61075506Y-40065537D01*
X61185820Y-40124502D01*
X61305518Y-40160812D01*
X61430000Y-40173072D01*
X63030000Y-40173072D01*
X63154482Y-40160812D01*
X63274180Y-40124502D01*
X63384494Y-40065537D01*
X63481185Y-39986185D01*
X63560537Y-39889494D01*
X63619502Y-39779180D01*
X63630351Y-39743413D01*
X70164192Y-39743413D01*
X70259956Y-40007814D01*
X70549571Y-40148704D01*
X70861108Y-40230384D01*
X71182595Y-40249718D01*
X71501675Y-40205961D01*
X71806088Y-40100795D01*
X71971114Y-40012587D01*
X90484192Y-40012587D01*
X91440000Y-40968395D01*
X92395808Y-40012587D01*
X92300044Y-39748186D01*
X92010429Y-39607296D01*
X91698892Y-39525616D01*
X91377405Y-39506282D01*
X91058325Y-39550039D01*
X90753912Y-39655205D01*
X90579956Y-39748186D01*
X90484192Y-40012587D01*
X71971114Y-40012587D01*
X71980044Y-40007814D01*
X72075808Y-39743413D01*
X71120000Y-38787605D01*
X70164192Y-39743413D01*
X63630351Y-39743413D01*
X63655812Y-39659482D01*
X63668072Y-39535000D01*
X63668072Y-38670595D01*
X69478282Y-38670595D01*
X69522039Y-38989675D01*
X69627205Y-39294088D01*
X69720186Y-39468044D01*
X69984587Y-39563808D01*
X70940395Y-38608000D01*
X71299605Y-38608000D01*
X72255413Y-39563808D01*
X72519814Y-39468044D01*
X72660704Y-39178429D01*
X72742384Y-38866892D01*
X72761718Y-38545405D01*
X72717961Y-38226325D01*
X72612795Y-37921912D01*
X72519814Y-37747956D01*
X72255413Y-37652192D01*
X71299605Y-38608000D01*
X70940395Y-38608000D01*
X69984587Y-37652192D01*
X69720186Y-37747956D01*
X69579296Y-38037571D01*
X69497616Y-38349108D01*
X69478282Y-38670595D01*
X63668072Y-38670595D01*
X63668072Y-37935000D01*
X63655812Y-37810518D01*
X63619502Y-37690820D01*
X63560537Y-37580506D01*
X63481185Y-37483815D01*
X63467504Y-37472587D01*
X70164192Y-37472587D01*
X71120000Y-38428395D01*
X72075808Y-37472587D01*
X71980044Y-37208186D01*
X71690429Y-37067296D01*
X71378892Y-36985616D01*
X71057405Y-36966282D01*
X70738325Y-37010039D01*
X70433912Y-37115205D01*
X70259956Y-37208186D01*
X70164192Y-37472587D01*
X63467504Y-37472587D01*
X63384494Y-37404463D01*
X63274180Y-37345498D01*
X63154482Y-37309188D01*
X63030000Y-37296928D01*
X61430000Y-37296928D01*
X61305518Y-37309188D01*
X61185820Y-37345498D01*
X61075506Y-37404463D01*
X60978815Y-37483815D01*
X60899463Y-37580506D01*
X60840498Y-37690820D01*
X60804188Y-37810518D01*
X60791928Y-37935000D01*
X53064250Y-37935000D01*
X53185000Y-37814250D01*
X53188072Y-36350000D01*
X53175812Y-36225518D01*
X53139502Y-36105820D01*
X53080537Y-35995506D01*
X53001185Y-35898815D01*
X52904494Y-35819463D01*
X52794180Y-35760498D01*
X52674482Y-35724188D01*
X52550000Y-35711928D01*
X51085750Y-35715000D01*
X50927000Y-35873750D01*
X50673000Y-35873750D01*
X50514250Y-35715000D01*
X49050000Y-35711928D01*
X48925518Y-35724188D01*
X48805820Y-35760498D01*
X48695506Y-35819463D01*
X48598815Y-35898815D01*
X48519463Y-35995506D01*
X48478506Y-36072131D01*
X48488072Y-35975000D01*
X48488072Y-34225000D01*
X48458999Y-33929814D01*
X48372896Y-33645972D01*
X48233073Y-33384382D01*
X48044903Y-33155097D01*
X47815618Y-32966927D01*
X47554028Y-32827104D01*
X47270186Y-32741001D01*
X46975000Y-32711928D01*
X45225000Y-32711928D01*
X44929814Y-32741001D01*
X44645972Y-32827104D01*
X44384382Y-32966927D01*
X44155097Y-33155097D01*
X43966927Y-33384382D01*
X43827104Y-33645972D01*
X43741001Y-33929814D01*
X43711928Y-34225000D01*
X26060000Y-34225000D01*
X26060000Y-31350000D01*
X48411928Y-31350000D01*
X48411928Y-32850000D01*
X48438599Y-33120799D01*
X48517589Y-33381192D01*
X48645860Y-33621171D01*
X48818485Y-33831515D01*
X49028829Y-34004140D01*
X49268808Y-34132411D01*
X49529201Y-34211401D01*
X49800000Y-34238072D01*
X51800000Y-34238072D01*
X52070799Y-34211401D01*
X52331192Y-34132411D01*
X52571171Y-34004140D01*
X52781515Y-33831515D01*
X52954140Y-33621171D01*
X53082411Y-33381192D01*
X53161401Y-33120799D01*
X53188072Y-32850000D01*
X53188072Y-31350000D01*
X53161401Y-31079201D01*
X53084887Y-30826967D01*
X89805000Y-30826967D01*
X89805000Y-31149033D01*
X89867832Y-31464912D01*
X89991082Y-31762463D01*
X90170013Y-32030252D01*
X90397748Y-32257987D01*
X90665537Y-32436918D01*
X90963088Y-32560168D01*
X91278967Y-32623000D01*
X91601033Y-32623000D01*
X91916912Y-32560168D01*
X92214463Y-32436918D01*
X92482252Y-32257987D01*
X92709987Y-32030252D01*
X92786995Y-31915000D01*
X98256928Y-31915000D01*
X98269188Y-32039482D01*
X98305498Y-32159180D01*
X98364463Y-32269494D01*
X98443815Y-32366185D01*
X98460393Y-32379790D01*
X98423320Y-32435273D01*
X98315147Y-32696426D01*
X98260000Y-32973665D01*
X98260000Y-33256335D01*
X98315147Y-33533574D01*
X98423320Y-33794727D01*
X98580363Y-34029759D01*
X98780241Y-34229637D01*
X99015273Y-34386680D01*
X99276426Y-34494853D01*
X99553665Y-34550000D01*
X99836335Y-34550000D01*
X100113574Y-34494853D01*
X100374727Y-34386680D01*
X100609759Y-34229637D01*
X100809637Y-34029759D01*
X100966680Y-33794727D01*
X101074853Y-33533574D01*
X101130000Y-33256335D01*
X101130000Y-32973665D01*
X101074853Y-32696426D01*
X100966680Y-32435273D01*
X100929607Y-32379790D01*
X100946185Y-32366185D01*
X101025537Y-32269494D01*
X101084502Y-32159180D01*
X101120812Y-32039482D01*
X101133072Y-31915000D01*
X101130000Y-31400750D01*
X100971250Y-31242000D01*
X99822000Y-31242000D01*
X99822000Y-31262000D01*
X99568000Y-31262000D01*
X99568000Y-31242000D01*
X98418750Y-31242000D01*
X98260000Y-31400750D01*
X98256928Y-31915000D01*
X92786995Y-31915000D01*
X92888918Y-31762463D01*
X93012168Y-31464912D01*
X93075000Y-31149033D01*
X93075000Y-30826967D01*
X93012168Y-30511088D01*
X92930946Y-30315000D01*
X98256928Y-30315000D01*
X98260000Y-30829250D01*
X98418750Y-30988000D01*
X99568000Y-30988000D01*
X99568000Y-29838750D01*
X99822000Y-29838750D01*
X99822000Y-30988000D01*
X100971250Y-30988000D01*
X101130000Y-30829250D01*
X101133072Y-30315000D01*
X101120812Y-30190518D01*
X101084502Y-30070820D01*
X101025537Y-29960506D01*
X100946185Y-29863815D01*
X100849494Y-29784463D01*
X100739180Y-29725498D01*
X100619482Y-29689188D01*
X100495000Y-29676928D01*
X99980750Y-29680000D01*
X99822000Y-29838750D01*
X99568000Y-29838750D01*
X99409250Y-29680000D01*
X98895000Y-29676928D01*
X98770518Y-29689188D01*
X98650820Y-29725498D01*
X98540506Y-29784463D01*
X98443815Y-29863815D01*
X98364463Y-29960506D01*
X98305498Y-30070820D01*
X98269188Y-30190518D01*
X98256928Y-30315000D01*
X92930946Y-30315000D01*
X92888918Y-30213537D01*
X92709987Y-29945748D01*
X92482252Y-29718013D01*
X92214463Y-29539082D01*
X91916912Y-29415832D01*
X91601033Y-29353000D01*
X91278967Y-29353000D01*
X90963088Y-29415832D01*
X90665537Y-29539082D01*
X90397748Y-29718013D01*
X90170013Y-29945748D01*
X89991082Y-30213537D01*
X89867832Y-30511088D01*
X89805000Y-30826967D01*
X53084887Y-30826967D01*
X53082411Y-30818808D01*
X52954140Y-30578829D01*
X52781515Y-30368485D01*
X52571171Y-30195860D01*
X52331192Y-30067589D01*
X52070799Y-29988599D01*
X51800000Y-29961928D01*
X49800000Y-29961928D01*
X49529201Y-29988599D01*
X49268808Y-30067589D01*
X49028829Y-30195860D01*
X48818485Y-30368485D01*
X48645860Y-30578829D01*
X48517589Y-30818808D01*
X48438599Y-31079201D01*
X48411928Y-31350000D01*
X26060000Y-31350000D01*
X26060000Y-31140000D01*
X29242419Y-31140000D01*
X29270865Y-31137198D01*
X29278682Y-31137253D01*
X29287853Y-31136354D01*
X29534357Y-31110446D01*
X29592986Y-31098411D01*
X29651716Y-31087208D01*
X29660532Y-31084546D01*
X29660536Y-31084545D01*
X29660539Y-31084544D01*
X29897314Y-31011249D01*
X29952457Y-30988069D01*
X30007920Y-30965661D01*
X30016054Y-30961335D01*
X30016059Y-30961333D01*
X30016064Y-30961330D01*
X30234086Y-30843447D01*
X30283654Y-30810012D01*
X30333735Y-30777241D01*
X30340876Y-30771416D01*
X30531856Y-30613423D01*
X30573995Y-30570988D01*
X30616745Y-30529125D01*
X30622618Y-30522024D01*
X30779273Y-30329947D01*
X30812374Y-30280125D01*
X30846173Y-30230763D01*
X30850556Y-30222657D01*
X30966919Y-30003809D01*
X30989707Y-29948521D01*
X31013279Y-29893525D01*
X31016003Y-29884722D01*
X31087643Y-29647441D01*
X31099264Y-29588754D01*
X31111700Y-29530248D01*
X31112663Y-29521083D01*
X31136850Y-29274405D01*
X31136850Y-29274402D01*
X31140000Y-29242419D01*
X31140000Y-26060000D01*
X116180000Y-26060000D01*
X116180001Y-29242419D01*
%TA.AperFunction,Conductor*%
D16*
G36*
X116180001Y-29242419D02*
G01*
X116182802Y-29270855D01*
X116182747Y-29278682D01*
X116183646Y-29287853D01*
X116209554Y-29534357D01*
X116221589Y-29592986D01*
X116232792Y-29651716D01*
X116235456Y-29660538D01*
X116308751Y-29897314D01*
X116331931Y-29952457D01*
X116354339Y-30007920D01*
X116358665Y-30016054D01*
X116358667Y-30016059D01*
X116358670Y-30016064D01*
X116476553Y-30234086D01*
X116509988Y-30283654D01*
X116542759Y-30333735D01*
X116548584Y-30340876D01*
X116706577Y-30531856D01*
X116749012Y-30573995D01*
X116790875Y-30616745D01*
X116797976Y-30622618D01*
X116990053Y-30779273D01*
X117039875Y-30812374D01*
X117089237Y-30846173D01*
X117097343Y-30850556D01*
X117316191Y-30966919D01*
X117371479Y-30989707D01*
X117426475Y-31013279D01*
X117435278Y-31016003D01*
X117672559Y-31087643D01*
X117731246Y-31099264D01*
X117789752Y-31111700D01*
X117798915Y-31112663D01*
X117798917Y-31112663D01*
X118045595Y-31136850D01*
X118045598Y-31136850D01*
X118077581Y-31140000D01*
X121260000Y-31140000D01*
X121260001Y-80620000D01*
X118077581Y-80620000D01*
X118049135Y-80622802D01*
X118041318Y-80622747D01*
X118032147Y-80623646D01*
X117785644Y-80649554D01*
X117727028Y-80661586D01*
X117668284Y-80672792D01*
X117659462Y-80675456D01*
X117422686Y-80748751D01*
X117367555Y-80771926D01*
X117312080Y-80794339D01*
X117303944Y-80798666D01*
X117085914Y-80916554D01*
X117036346Y-80949988D01*
X116986265Y-80982760D01*
X116979124Y-80988584D01*
X116788144Y-81146577D01*
X116746005Y-81189012D01*
X116703255Y-81230875D01*
X116697381Y-81237976D01*
X116540727Y-81430054D01*
X116507655Y-81479831D01*
X116473826Y-81529237D01*
X116469444Y-81537343D01*
X116353081Y-81756191D01*
X116330298Y-81811468D01*
X116306721Y-81866475D01*
X116303997Y-81875278D01*
X116232357Y-82112559D01*
X116220736Y-82171246D01*
X116208300Y-82229752D01*
X116207337Y-82238917D01*
X116183150Y-82485595D01*
X116180000Y-82517582D01*
X116180001Y-85700000D01*
X31140000Y-85700000D01*
X31140000Y-82517581D01*
X31137198Y-82489135D01*
X31137253Y-82481318D01*
X31136354Y-82472147D01*
X31110446Y-82225644D01*
X31098414Y-82167028D01*
X31087208Y-82108284D01*
X31084544Y-82099462D01*
X31011249Y-81862686D01*
X30988074Y-81807555D01*
X30965661Y-81752080D01*
X30961334Y-81743944D01*
X30843446Y-81525914D01*
X30810012Y-81476346D01*
X30777240Y-81426265D01*
X30771416Y-81419124D01*
X30613423Y-81228144D01*
X30570988Y-81186005D01*
X30529125Y-81143255D01*
X30522024Y-81137381D01*
X30329946Y-80980727D01*
X30280169Y-80947655D01*
X30230763Y-80913826D01*
X30222657Y-80909444D01*
X30003809Y-80793081D01*
X29948532Y-80770298D01*
X29893525Y-80746721D01*
X29884722Y-80743997D01*
X29647441Y-80672357D01*
X29588754Y-80660736D01*
X29530248Y-80648300D01*
X29521085Y-80647337D01*
X29521083Y-80647337D01*
X29274405Y-80623150D01*
X29274402Y-80623150D01*
X29242419Y-80620000D01*
X26060000Y-80620000D01*
X26060000Y-77368061D01*
X79610000Y-77368061D01*
X79610000Y-77571939D01*
X79649774Y-77771898D01*
X79727795Y-77960256D01*
X79841063Y-78129774D01*
X79985226Y-78273937D01*
X80154744Y-78387205D01*
X80343102Y-78465226D01*
X80543061Y-78505000D01*
X80746939Y-78505000D01*
X80946898Y-78465226D01*
X81135256Y-78387205D01*
X81304774Y-78273937D01*
X81448937Y-78129774D01*
X81562205Y-77960256D01*
X81640226Y-77771898D01*
X81680000Y-77571939D01*
X81680000Y-77368061D01*
X81640226Y-77168102D01*
X81562205Y-76979744D01*
X81448937Y-76810226D01*
X81304774Y-76666063D01*
X81135256Y-76552795D01*
X80946898Y-76474774D01*
X80746939Y-76435000D01*
X80543061Y-76435000D01*
X80343102Y-76474774D01*
X80154744Y-76552795D01*
X79985226Y-76666063D01*
X79841063Y-76810226D01*
X79727795Y-76979744D01*
X79649774Y-77168102D01*
X79610000Y-77368061D01*
X26060000Y-77368061D01*
X26060000Y-74193061D01*
X80626000Y-74193061D01*
X80626000Y-74396939D01*
X80665774Y-74596898D01*
X80743795Y-74785256D01*
X80857063Y-74954774D01*
X81001226Y-75098937D01*
X81170744Y-75212205D01*
X81359102Y-75290226D01*
X81559061Y-75330000D01*
X81762939Y-75330000D01*
X81962898Y-75290226D01*
X82151256Y-75212205D01*
X82320774Y-75098937D01*
X82464937Y-74954774D01*
X82578205Y-74785256D01*
X82656226Y-74596898D01*
X82696000Y-74396939D01*
X82696000Y-74193061D01*
X82656226Y-73993102D01*
X82578205Y-73804744D01*
X82464937Y-73635226D01*
X82320774Y-73491063D01*
X82151256Y-73377795D01*
X81962898Y-73299774D01*
X81762939Y-73260000D01*
X81559061Y-73260000D01*
X81359102Y-73299774D01*
X81170744Y-73377795D01*
X81001226Y-73491063D01*
X80857063Y-73635226D01*
X80743795Y-73804744D01*
X80665774Y-73993102D01*
X80626000Y-74193061D01*
X26060000Y-74193061D01*
X26060000Y-72288061D01*
X59925000Y-72288061D01*
X59925000Y-72491939D01*
X59964774Y-72691898D01*
X60042795Y-72880256D01*
X60156063Y-73049774D01*
X60300226Y-73193937D01*
X60469744Y-73307205D01*
X60658102Y-73385226D01*
X60858061Y-73425000D01*
X61061939Y-73425000D01*
X61261898Y-73385226D01*
X61450256Y-73307205D01*
X61619774Y-73193937D01*
X61763937Y-73049774D01*
X61877205Y-72880256D01*
X61955226Y-72691898D01*
X61959768Y-72669061D01*
X93326000Y-72669061D01*
X93326000Y-72872939D01*
X93365774Y-73072898D01*
X93443795Y-73261256D01*
X93557063Y-73430774D01*
X93701226Y-73574937D01*
X93870744Y-73688205D01*
X94059102Y-73766226D01*
X94259061Y-73806000D01*
X94462939Y-73806000D01*
X94662898Y-73766226D01*
X94851256Y-73688205D01*
X95020774Y-73574937D01*
X95164937Y-73430774D01*
X95278205Y-73261256D01*
X95356226Y-73072898D01*
X95396000Y-72872939D01*
X95396000Y-72669061D01*
X95356226Y-72469102D01*
X95278205Y-72280744D01*
X95164937Y-72111226D01*
X95020774Y-71967063D01*
X94851256Y-71853795D01*
X94662898Y-71775774D01*
X94462939Y-71736000D01*
X94259061Y-71736000D01*
X94059102Y-71775774D01*
X93870744Y-71853795D01*
X93701226Y-71967063D01*
X93557063Y-72111226D01*
X93443795Y-72280744D01*
X93365774Y-72469102D01*
X93326000Y-72669061D01*
X61959768Y-72669061D01*
X61995000Y-72491939D01*
X61995000Y-72288061D01*
X61955226Y-72088102D01*
X61877205Y-71899744D01*
X61763937Y-71730226D01*
X61619774Y-71586063D01*
X61450256Y-71472795D01*
X61261898Y-71394774D01*
X61061939Y-71355000D01*
X60858061Y-71355000D01*
X60658102Y-71394774D01*
X60469744Y-71472795D01*
X60300226Y-71586063D01*
X60156063Y-71730226D01*
X60042795Y-71899744D01*
X59964774Y-72088102D01*
X59925000Y-72288061D01*
X26060000Y-72288061D01*
X26060000Y-64160061D01*
X47733000Y-64160061D01*
X47733000Y-64363939D01*
X47772774Y-64563898D01*
X47850795Y-64752256D01*
X47964063Y-64921774D01*
X48108226Y-65065937D01*
X48277744Y-65179205D01*
X48466102Y-65257226D01*
X48666061Y-65297000D01*
X48869939Y-65297000D01*
X49069898Y-65257226D01*
X49258256Y-65179205D01*
X49427774Y-65065937D01*
X49571937Y-64921774D01*
X49685205Y-64752256D01*
X49763226Y-64563898D01*
X49803000Y-64363939D01*
X49803000Y-64160061D01*
X49763226Y-63960102D01*
X49685205Y-63771744D01*
X49571937Y-63602226D01*
X49427774Y-63458063D01*
X49258256Y-63344795D01*
X49069898Y-63266774D01*
X48869939Y-63227000D01*
X48666061Y-63227000D01*
X48466102Y-63266774D01*
X48277744Y-63344795D01*
X48108226Y-63458063D01*
X47964063Y-63602226D01*
X47850795Y-63771744D01*
X47772774Y-63960102D01*
X47733000Y-64160061D01*
X26060000Y-64160061D01*
X26060000Y-54427702D01*
X98881903Y-54427702D01*
X98953486Y-54671671D01*
X99208996Y-54792571D01*
X99483184Y-54861300D01*
X99765512Y-54875217D01*
X100045130Y-54833787D01*
X100311292Y-54738603D01*
X100436514Y-54671671D01*
X100508097Y-54427702D01*
X99695000Y-53614605D01*
X98881903Y-54427702D01*
X26060000Y-54427702D01*
X26060000Y-53505512D01*
X98254783Y-53505512D01*
X98296213Y-53785130D01*
X98391397Y-54051292D01*
X98458329Y-54176514D01*
X98702298Y-54248097D01*
X99515395Y-53435000D01*
X99501253Y-53420858D01*
X99680858Y-53241253D01*
X99695000Y-53255395D01*
X99709143Y-53241253D01*
X99888748Y-53420858D01*
X99874605Y-53435000D01*
X100687702Y-54248097D01*
X100931671Y-54176514D01*
X101052571Y-53921004D01*
X101121300Y-53646816D01*
X101135217Y-53364488D01*
X101093787Y-53084870D01*
X100998603Y-52818708D01*
X100933384Y-52696691D01*
X100946185Y-52686185D01*
X101025537Y-52589494D01*
X101084502Y-52479180D01*
X101120812Y-52359482D01*
X101133072Y-52235000D01*
X101133072Y-50635000D01*
X101120812Y-50510518D01*
X101084502Y-50390820D01*
X101025537Y-50280506D01*
X100946185Y-50183815D01*
X100849494Y-50104463D01*
X100739180Y-50045498D01*
X100619482Y-50009188D01*
X100495000Y-49996928D01*
X98895000Y-49996928D01*
X98770518Y-50009188D01*
X98650820Y-50045498D01*
X98540506Y-50104463D01*
X98443815Y-50183815D01*
X98364463Y-50280506D01*
X98305498Y-50390820D01*
X98269188Y-50510518D01*
X98256928Y-50635000D01*
X98256928Y-52235000D01*
X98269188Y-52359482D01*
X98305498Y-52479180D01*
X98364463Y-52589494D01*
X98443815Y-52686185D01*
X98456758Y-52696807D01*
X98337429Y-52948996D01*
X98268700Y-53223184D01*
X98254783Y-53505512D01*
X26060000Y-53505512D01*
X26060000Y-51146967D01*
X89805000Y-51146967D01*
X89805000Y-51469033D01*
X89867832Y-51784912D01*
X89991082Y-52082463D01*
X90170013Y-52350252D01*
X90397748Y-52577987D01*
X90665537Y-52756918D01*
X90963088Y-52880168D01*
X91278967Y-52943000D01*
X91601033Y-52943000D01*
X91916912Y-52880168D01*
X92214463Y-52756918D01*
X92482252Y-52577987D01*
X92709987Y-52350252D01*
X92888918Y-52082463D01*
X93012168Y-51784912D01*
X93075000Y-51469033D01*
X93075000Y-51146967D01*
X93012168Y-50831088D01*
X92888918Y-50533537D01*
X92709987Y-50265748D01*
X92482252Y-50038013D01*
X92214463Y-49859082D01*
X91916912Y-49735832D01*
X91601033Y-49673000D01*
X91278967Y-49673000D01*
X90963088Y-49735832D01*
X90665537Y-49859082D01*
X90397748Y-50038013D01*
X90170013Y-50265748D01*
X89991082Y-50533537D01*
X89867832Y-50831088D01*
X89805000Y-51146967D01*
X26060000Y-51146967D01*
X26060000Y-44727702D01*
X61416903Y-44727702D01*
X61488486Y-44971671D01*
X61743996Y-45092571D01*
X62018184Y-45161300D01*
X62300512Y-45175217D01*
X62580130Y-45133787D01*
X62846292Y-45038603D01*
X62971514Y-44971671D01*
X63043097Y-44727702D01*
X62230000Y-43914605D01*
X61416903Y-44727702D01*
X26060000Y-44727702D01*
X26060000Y-43805512D01*
X60789783Y-43805512D01*
X60831213Y-44085130D01*
X60926397Y-44351292D01*
X60993329Y-44476514D01*
X61237298Y-44548097D01*
X62050395Y-43735000D01*
X62409605Y-43735000D01*
X63222702Y-44548097D01*
X63466671Y-44476514D01*
X63587571Y-44221004D01*
X63656300Y-43946816D01*
X63670217Y-43664488D01*
X63649842Y-43526967D01*
X69485000Y-43526967D01*
X69485000Y-43849033D01*
X69547832Y-44164912D01*
X69671082Y-44462463D01*
X69850013Y-44730252D01*
X70077748Y-44957987D01*
X70345537Y-45136918D01*
X70643088Y-45260168D01*
X70958967Y-45323000D01*
X71281033Y-45323000D01*
X71596912Y-45260168D01*
X71894463Y-45136918D01*
X72162252Y-44957987D01*
X72389987Y-44730252D01*
X72568918Y-44462463D01*
X72692168Y-44164912D01*
X72755000Y-43849033D01*
X72755000Y-43526967D01*
X72692168Y-43211088D01*
X72568918Y-42913537D01*
X72389987Y-42645748D01*
X72162252Y-42418013D01*
X71960809Y-42283413D01*
X90484192Y-42283413D01*
X90579956Y-42547814D01*
X90869571Y-42688704D01*
X91181108Y-42770384D01*
X91502595Y-42789718D01*
X91821675Y-42745961D01*
X92126088Y-42640795D01*
X92300044Y-42547814D01*
X92395808Y-42283413D01*
X91440000Y-41327605D01*
X90484192Y-42283413D01*
X71960809Y-42283413D01*
X71894463Y-42239082D01*
X71596912Y-42115832D01*
X71281033Y-42053000D01*
X70958967Y-42053000D01*
X70643088Y-42115832D01*
X70345537Y-42239082D01*
X70077748Y-42418013D01*
X69850013Y-42645748D01*
X69671082Y-42913537D01*
X69547832Y-43211088D01*
X69485000Y-43526967D01*
X63649842Y-43526967D01*
X63628787Y-43384870D01*
X63533603Y-43118708D01*
X63466671Y-42993486D01*
X63222702Y-42921903D01*
X62409605Y-43735000D01*
X62050395Y-43735000D01*
X61237298Y-42921903D01*
X60993329Y-42993486D01*
X60872429Y-43248996D01*
X60803700Y-43523184D01*
X60789783Y-43805512D01*
X26060000Y-43805512D01*
X26060000Y-42742298D01*
X61416903Y-42742298D01*
X62230000Y-43555395D01*
X63043097Y-42742298D01*
X62971514Y-42498329D01*
X62716004Y-42377429D01*
X62441816Y-42308700D01*
X62159488Y-42294783D01*
X61879870Y-42336213D01*
X61613708Y-42431397D01*
X61488486Y-42498329D01*
X61416903Y-42742298D01*
X26060000Y-42742298D01*
X26060000Y-41210595D01*
X89798282Y-41210595D01*
X89842039Y-41529675D01*
X89947205Y-41834088D01*
X90040186Y-42008044D01*
X90304587Y-42103808D01*
X91260395Y-41148000D01*
X91619605Y-41148000D01*
X92575413Y-42103808D01*
X92839814Y-42008044D01*
X92980704Y-41718429D01*
X93062384Y-41406892D01*
X93081718Y-41085405D01*
X93037961Y-40766325D01*
X92932795Y-40461912D01*
X92839814Y-40287956D01*
X92575413Y-40192192D01*
X91619605Y-41148000D01*
X91260395Y-41148000D01*
X90304587Y-40192192D01*
X90040186Y-40287956D01*
X89899296Y-40577571D01*
X89817616Y-40889108D01*
X89798282Y-41210595D01*
X26060000Y-41210595D01*
X26060000Y-39850000D01*
X48411928Y-39850000D01*
X48424188Y-39974482D01*
X48460498Y-40094180D01*
X48519463Y-40204494D01*
X48598815Y-40301185D01*
X48695506Y-40380537D01*
X48805820Y-40439502D01*
X48925518Y-40475812D01*
X49050000Y-40488072D01*
X50514250Y-40485000D01*
X50673000Y-40326250D01*
X50673000Y-38227000D01*
X50927000Y-38227000D01*
X50927000Y-40326250D01*
X51085750Y-40485000D01*
X52550000Y-40488072D01*
X52674482Y-40475812D01*
X52794180Y-40439502D01*
X52904494Y-40380537D01*
X53001185Y-40301185D01*
X53080537Y-40204494D01*
X53139502Y-40094180D01*
X53175812Y-39974482D01*
X53188072Y-39850000D01*
X53185000Y-38385750D01*
X53026250Y-38227000D01*
X50927000Y-38227000D01*
X50673000Y-38227000D01*
X48573750Y-38227000D01*
X48415000Y-38385750D01*
X48411928Y-39850000D01*
X26060000Y-39850000D01*
X26060000Y-34225000D01*
X43711928Y-34225000D01*
X43711928Y-35975000D01*
X43741001Y-36270186D01*
X43827104Y-36554028D01*
X43966927Y-36815618D01*
X44155097Y-37044903D01*
X44384382Y-37233073D01*
X44645972Y-37372896D01*
X44929814Y-37458999D01*
X45225000Y-37488072D01*
X46975000Y-37488072D01*
X47270186Y-37458999D01*
X47554028Y-37372896D01*
X47815618Y-37233073D01*
X48044903Y-37044903D01*
X48233073Y-36815618D01*
X48372896Y-36554028D01*
X48412085Y-36424840D01*
X48415000Y-37814250D01*
X48573750Y-37973000D01*
X50673000Y-37973000D01*
X50673000Y-35873750D01*
X50927000Y-35873750D01*
X50927000Y-37973000D01*
X53026250Y-37973000D01*
X53064250Y-37935000D01*
X60791928Y-37935000D01*
X60791928Y-39535000D01*
X60804188Y-39659482D01*
X60840498Y-39779180D01*
X60899463Y-39889494D01*
X60978815Y-39986185D01*
X61075506Y-40065537D01*
X61185820Y-40124502D01*
X61305518Y-40160812D01*
X61430000Y-40173072D01*
X63030000Y-40173072D01*
X63154482Y-40160812D01*
X63274180Y-40124502D01*
X63384494Y-40065537D01*
X63481185Y-39986185D01*
X63560537Y-39889494D01*
X63619502Y-39779180D01*
X63630351Y-39743413D01*
X70164192Y-39743413D01*
X70259956Y-40007814D01*
X70549571Y-40148704D01*
X70861108Y-40230384D01*
X71182595Y-40249718D01*
X71501675Y-40205961D01*
X71806088Y-40100795D01*
X71971114Y-40012587D01*
X90484192Y-40012587D01*
X91440000Y-40968395D01*
X92395808Y-40012587D01*
X92300044Y-39748186D01*
X92010429Y-39607296D01*
X91698892Y-39525616D01*
X91377405Y-39506282D01*
X91058325Y-39550039D01*
X90753912Y-39655205D01*
X90579956Y-39748186D01*
X90484192Y-40012587D01*
X71971114Y-40012587D01*
X71980044Y-40007814D01*
X72075808Y-39743413D01*
X71120000Y-38787605D01*
X70164192Y-39743413D01*
X63630351Y-39743413D01*
X63655812Y-39659482D01*
X63668072Y-39535000D01*
X63668072Y-38670595D01*
X69478282Y-38670595D01*
X69522039Y-38989675D01*
X69627205Y-39294088D01*
X69720186Y-39468044D01*
X69984587Y-39563808D01*
X70940395Y-38608000D01*
X71299605Y-38608000D01*
X72255413Y-39563808D01*
X72519814Y-39468044D01*
X72660704Y-39178429D01*
X72742384Y-38866892D01*
X72761718Y-38545405D01*
X72717961Y-38226325D01*
X72612795Y-37921912D01*
X72519814Y-37747956D01*
X72255413Y-37652192D01*
X71299605Y-38608000D01*
X70940395Y-38608000D01*
X69984587Y-37652192D01*
X69720186Y-37747956D01*
X69579296Y-38037571D01*
X69497616Y-38349108D01*
X69478282Y-38670595D01*
X63668072Y-38670595D01*
X63668072Y-37935000D01*
X63655812Y-37810518D01*
X63619502Y-37690820D01*
X63560537Y-37580506D01*
X63481185Y-37483815D01*
X63467504Y-37472587D01*
X70164192Y-37472587D01*
X71120000Y-38428395D01*
X72075808Y-37472587D01*
X71980044Y-37208186D01*
X71690429Y-37067296D01*
X71378892Y-36985616D01*
X71057405Y-36966282D01*
X70738325Y-37010039D01*
X70433912Y-37115205D01*
X70259956Y-37208186D01*
X70164192Y-37472587D01*
X63467504Y-37472587D01*
X63384494Y-37404463D01*
X63274180Y-37345498D01*
X63154482Y-37309188D01*
X63030000Y-37296928D01*
X61430000Y-37296928D01*
X61305518Y-37309188D01*
X61185820Y-37345498D01*
X61075506Y-37404463D01*
X60978815Y-37483815D01*
X60899463Y-37580506D01*
X60840498Y-37690820D01*
X60804188Y-37810518D01*
X60791928Y-37935000D01*
X53064250Y-37935000D01*
X53185000Y-37814250D01*
X53188072Y-36350000D01*
X53175812Y-36225518D01*
X53139502Y-36105820D01*
X53080537Y-35995506D01*
X53001185Y-35898815D01*
X52904494Y-35819463D01*
X52794180Y-35760498D01*
X52674482Y-35724188D01*
X52550000Y-35711928D01*
X51085750Y-35715000D01*
X50927000Y-35873750D01*
X50673000Y-35873750D01*
X50514250Y-35715000D01*
X49050000Y-35711928D01*
X48925518Y-35724188D01*
X48805820Y-35760498D01*
X48695506Y-35819463D01*
X48598815Y-35898815D01*
X48519463Y-35995506D01*
X48478506Y-36072131D01*
X48488072Y-35975000D01*
X48488072Y-34225000D01*
X48458999Y-33929814D01*
X48372896Y-33645972D01*
X48233073Y-33384382D01*
X48044903Y-33155097D01*
X47815618Y-32966927D01*
X47554028Y-32827104D01*
X47270186Y-32741001D01*
X46975000Y-32711928D01*
X45225000Y-32711928D01*
X44929814Y-32741001D01*
X44645972Y-32827104D01*
X44384382Y-32966927D01*
X44155097Y-33155097D01*
X43966927Y-33384382D01*
X43827104Y-33645972D01*
X43741001Y-33929814D01*
X43711928Y-34225000D01*
X26060000Y-34225000D01*
X26060000Y-31350000D01*
X48411928Y-31350000D01*
X48411928Y-32850000D01*
X48438599Y-33120799D01*
X48517589Y-33381192D01*
X48645860Y-33621171D01*
X48818485Y-33831515D01*
X49028829Y-34004140D01*
X49268808Y-34132411D01*
X49529201Y-34211401D01*
X49800000Y-34238072D01*
X51800000Y-34238072D01*
X52070799Y-34211401D01*
X52331192Y-34132411D01*
X52571171Y-34004140D01*
X52781515Y-33831515D01*
X52954140Y-33621171D01*
X53082411Y-33381192D01*
X53161401Y-33120799D01*
X53188072Y-32850000D01*
X53188072Y-31350000D01*
X53161401Y-31079201D01*
X53084887Y-30826967D01*
X89805000Y-30826967D01*
X89805000Y-31149033D01*
X89867832Y-31464912D01*
X89991082Y-31762463D01*
X90170013Y-32030252D01*
X90397748Y-32257987D01*
X90665537Y-32436918D01*
X90963088Y-32560168D01*
X91278967Y-32623000D01*
X91601033Y-32623000D01*
X91916912Y-32560168D01*
X92214463Y-32436918D01*
X92482252Y-32257987D01*
X92709987Y-32030252D01*
X92786995Y-31915000D01*
X98256928Y-31915000D01*
X98269188Y-32039482D01*
X98305498Y-32159180D01*
X98364463Y-32269494D01*
X98443815Y-32366185D01*
X98460393Y-32379790D01*
X98423320Y-32435273D01*
X98315147Y-32696426D01*
X98260000Y-32973665D01*
X98260000Y-33256335D01*
X98315147Y-33533574D01*
X98423320Y-33794727D01*
X98580363Y-34029759D01*
X98780241Y-34229637D01*
X99015273Y-34386680D01*
X99276426Y-34494853D01*
X99553665Y-34550000D01*
X99836335Y-34550000D01*
X100113574Y-34494853D01*
X100374727Y-34386680D01*
X100609759Y-34229637D01*
X100809637Y-34029759D01*
X100966680Y-33794727D01*
X101074853Y-33533574D01*
X101130000Y-33256335D01*
X101130000Y-32973665D01*
X101074853Y-32696426D01*
X100966680Y-32435273D01*
X100929607Y-32379790D01*
X100946185Y-32366185D01*
X101025537Y-32269494D01*
X101084502Y-32159180D01*
X101120812Y-32039482D01*
X101133072Y-31915000D01*
X101130000Y-31400750D01*
X100971250Y-31242000D01*
X99822000Y-31242000D01*
X99822000Y-31262000D01*
X99568000Y-31262000D01*
X99568000Y-31242000D01*
X98418750Y-31242000D01*
X98260000Y-31400750D01*
X98256928Y-31915000D01*
X92786995Y-31915000D01*
X92888918Y-31762463D01*
X93012168Y-31464912D01*
X93075000Y-31149033D01*
X93075000Y-30826967D01*
X93012168Y-30511088D01*
X92930946Y-30315000D01*
X98256928Y-30315000D01*
X98260000Y-30829250D01*
X98418750Y-30988000D01*
X99568000Y-30988000D01*
X99568000Y-29838750D01*
X99822000Y-29838750D01*
X99822000Y-30988000D01*
X100971250Y-30988000D01*
X101130000Y-30829250D01*
X101133072Y-30315000D01*
X101120812Y-30190518D01*
X101084502Y-30070820D01*
X101025537Y-29960506D01*
X100946185Y-29863815D01*
X100849494Y-29784463D01*
X100739180Y-29725498D01*
X100619482Y-29689188D01*
X100495000Y-29676928D01*
X99980750Y-29680000D01*
X99822000Y-29838750D01*
X99568000Y-29838750D01*
X99409250Y-29680000D01*
X98895000Y-29676928D01*
X98770518Y-29689188D01*
X98650820Y-29725498D01*
X98540506Y-29784463D01*
X98443815Y-29863815D01*
X98364463Y-29960506D01*
X98305498Y-30070820D01*
X98269188Y-30190518D01*
X98256928Y-30315000D01*
X92930946Y-30315000D01*
X92888918Y-30213537D01*
X92709987Y-29945748D01*
X92482252Y-29718013D01*
X92214463Y-29539082D01*
X91916912Y-29415832D01*
X91601033Y-29353000D01*
X91278967Y-29353000D01*
X90963088Y-29415832D01*
X90665537Y-29539082D01*
X90397748Y-29718013D01*
X90170013Y-29945748D01*
X89991082Y-30213537D01*
X89867832Y-30511088D01*
X89805000Y-30826967D01*
X53084887Y-30826967D01*
X53082411Y-30818808D01*
X52954140Y-30578829D01*
X52781515Y-30368485D01*
X52571171Y-30195860D01*
X52331192Y-30067589D01*
X52070799Y-29988599D01*
X51800000Y-29961928D01*
X49800000Y-29961928D01*
X49529201Y-29988599D01*
X49268808Y-30067589D01*
X49028829Y-30195860D01*
X48818485Y-30368485D01*
X48645860Y-30578829D01*
X48517589Y-30818808D01*
X48438599Y-31079201D01*
X48411928Y-31350000D01*
X26060000Y-31350000D01*
X26060000Y-31140000D01*
X29242419Y-31140000D01*
X29270865Y-31137198D01*
X29278682Y-31137253D01*
X29287853Y-31136354D01*
X29534357Y-31110446D01*
X29592986Y-31098411D01*
X29651716Y-31087208D01*
X29660532Y-31084546D01*
X29660536Y-31084545D01*
X29660539Y-31084544D01*
X29897314Y-31011249D01*
X29952457Y-30988069D01*
X30007920Y-30965661D01*
X30016054Y-30961335D01*
X30016059Y-30961333D01*
X30016064Y-30961330D01*
X30234086Y-30843447D01*
X30283654Y-30810012D01*
X30333735Y-30777241D01*
X30340876Y-30771416D01*
X30531856Y-30613423D01*
X30573995Y-30570988D01*
X30616745Y-30529125D01*
X30622618Y-30522024D01*
X30779273Y-30329947D01*
X30812374Y-30280125D01*
X30846173Y-30230763D01*
X30850556Y-30222657D01*
X30966919Y-30003809D01*
X30989707Y-29948521D01*
X31013279Y-29893525D01*
X31016003Y-29884722D01*
X31087643Y-29647441D01*
X31099264Y-29588754D01*
X31111700Y-29530248D01*
X31112663Y-29521083D01*
X31136850Y-29274405D01*
X31136850Y-29274402D01*
X31140000Y-29242419D01*
X31140000Y-26060000D01*
X116180000Y-26060000D01*
X116180001Y-29242419D01*
G37*
%TD.AperFunction*%
%TD*%
M02*
