%TF.GenerationSoftware,KiCad,Pcbnew,(5.1.9)-1*%
%TF.CreationDate,2021-05-02T14:53:51-04:00*%
%TF.ProjectId,openEPR_Lock-In,6f70656e-4550-4525-9f4c-6f636b2d496e,rev?*%
%TF.SameCoordinates,Original*%
%TF.FileFunction,Legend,Top*%
%TF.FilePolarity,Positive*%
%FSLAX46Y46*%
G04 Gerber Fmt 4.6, Leading zero omitted, Abs format (unit mm)*
G04 Created by KiCad (PCBNEW (5.1.9)-1) date 2021-05-02 14:53:51*
%MOMM*%
%LPD*%
G01*
G04 APERTURE LIST*
%ADD10C,0.150000*%
%ADD11C,0.120000*%
G04 APERTURE END LIST*
D10*
X119832380Y-64641666D02*
X119784761Y-64736904D01*
X119737142Y-64784523D01*
X119641904Y-64832142D01*
X119356190Y-64832142D01*
X119260952Y-64784523D01*
X119213333Y-64736904D01*
X119165714Y-64641666D01*
X119165714Y-64498809D01*
X119213333Y-64403571D01*
X119260952Y-64355952D01*
X119356190Y-64308333D01*
X119641904Y-64308333D01*
X119737142Y-64355952D01*
X119784761Y-64403571D01*
X119832380Y-64498809D01*
X119832380Y-64641666D01*
X119165714Y-63879761D02*
X120165714Y-63879761D01*
X119213333Y-63879761D02*
X119165714Y-63784523D01*
X119165714Y-63594047D01*
X119213333Y-63498809D01*
X119260952Y-63451190D01*
X119356190Y-63403571D01*
X119641904Y-63403571D01*
X119737142Y-63451190D01*
X119784761Y-63498809D01*
X119832380Y-63594047D01*
X119832380Y-63784523D01*
X119784761Y-63879761D01*
X119784761Y-62594047D02*
X119832380Y-62689285D01*
X119832380Y-62879761D01*
X119784761Y-62975000D01*
X119689523Y-63022619D01*
X119308571Y-63022619D01*
X119213333Y-62975000D01*
X119165714Y-62879761D01*
X119165714Y-62689285D01*
X119213333Y-62594047D01*
X119308571Y-62546428D01*
X119403809Y-62546428D01*
X119499047Y-63022619D01*
X119165714Y-62117857D02*
X119832380Y-62117857D01*
X119260952Y-62117857D02*
X119213333Y-62070238D01*
X119165714Y-61975000D01*
X119165714Y-61832142D01*
X119213333Y-61736904D01*
X119308571Y-61689285D01*
X119832380Y-61689285D01*
X119308571Y-61213095D02*
X119308571Y-60879761D01*
X119832380Y-60736904D02*
X119832380Y-61213095D01*
X118832380Y-61213095D01*
X118832380Y-60736904D01*
X119832380Y-60308333D02*
X118832380Y-60308333D01*
X118832380Y-59927380D01*
X118880000Y-59832142D01*
X118927619Y-59784523D01*
X119022857Y-59736904D01*
X119165714Y-59736904D01*
X119260952Y-59784523D01*
X119308571Y-59832142D01*
X119356190Y-59927380D01*
X119356190Y-60308333D01*
X119832380Y-58736904D02*
X119356190Y-59070238D01*
X119832380Y-59308333D02*
X118832380Y-59308333D01*
X118832380Y-58927380D01*
X118880000Y-58832142D01*
X118927619Y-58784523D01*
X119022857Y-58736904D01*
X119165714Y-58736904D01*
X119260952Y-58784523D01*
X119308571Y-58832142D01*
X119356190Y-58927380D01*
X119356190Y-59308333D01*
X119832380Y-57070238D02*
X119832380Y-57546428D01*
X118832380Y-57546428D01*
X119832380Y-56594047D02*
X119784761Y-56689285D01*
X119737142Y-56736904D01*
X119641904Y-56784523D01*
X119356190Y-56784523D01*
X119260952Y-56736904D01*
X119213333Y-56689285D01*
X119165714Y-56594047D01*
X119165714Y-56451190D01*
X119213333Y-56355952D01*
X119260952Y-56308333D01*
X119356190Y-56260714D01*
X119641904Y-56260714D01*
X119737142Y-56308333D01*
X119784761Y-56355952D01*
X119832380Y-56451190D01*
X119832380Y-56594047D01*
X119784761Y-55403571D02*
X119832380Y-55498809D01*
X119832380Y-55689285D01*
X119784761Y-55784523D01*
X119737142Y-55832142D01*
X119641904Y-55879761D01*
X119356190Y-55879761D01*
X119260952Y-55832142D01*
X119213333Y-55784523D01*
X119165714Y-55689285D01*
X119165714Y-55498809D01*
X119213333Y-55403571D01*
X119832380Y-54975000D02*
X118832380Y-54975000D01*
X119451428Y-54879761D02*
X119832380Y-54594047D01*
X119165714Y-54594047D02*
X119546666Y-54975000D01*
X119451428Y-54165476D02*
X119451428Y-53403571D01*
X119832380Y-52927380D02*
X118832380Y-52927380D01*
X119165714Y-52451190D02*
X119832380Y-52451190D01*
X119260952Y-52451190D02*
X119213333Y-52403571D01*
X119165714Y-52308333D01*
X119165714Y-52165476D01*
X119213333Y-52070238D01*
X119308571Y-52022619D01*
X119832380Y-52022619D01*
X119546666Y-50832142D02*
X119546666Y-50355952D01*
X119832380Y-50927380D02*
X118832380Y-50594047D01*
X119832380Y-50260714D01*
X119832380Y-49927380D02*
X119165714Y-49927380D01*
X119260952Y-49927380D02*
X119213333Y-49879761D01*
X119165714Y-49784523D01*
X119165714Y-49641666D01*
X119213333Y-49546428D01*
X119308571Y-49498809D01*
X119832380Y-49498809D01*
X119308571Y-49498809D02*
X119213333Y-49451190D01*
X119165714Y-49355952D01*
X119165714Y-49213095D01*
X119213333Y-49117857D01*
X119308571Y-49070238D01*
X119832380Y-49070238D01*
X119165714Y-48594047D02*
X120165714Y-48594047D01*
X119213333Y-48594047D02*
X119165714Y-48498809D01*
X119165714Y-48308333D01*
X119213333Y-48213095D01*
X119260952Y-48165476D01*
X119356190Y-48117857D01*
X119641904Y-48117857D01*
X119737142Y-48165476D01*
X119784761Y-48213095D01*
X119832380Y-48308333D01*
X119832380Y-48498809D01*
X119784761Y-48594047D01*
X119832380Y-46355952D02*
X119356190Y-46689285D01*
X119832380Y-46927380D02*
X118832380Y-46927380D01*
X118832380Y-46546428D01*
X118880000Y-46451190D01*
X118927619Y-46403571D01*
X119022857Y-46355952D01*
X119165714Y-46355952D01*
X119260952Y-46403571D01*
X119308571Y-46451190D01*
X119356190Y-46546428D01*
X119356190Y-46927380D01*
X119784761Y-45546428D02*
X119832380Y-45641666D01*
X119832380Y-45832142D01*
X119784761Y-45927380D01*
X119689523Y-45975000D01*
X119308571Y-45975000D01*
X119213333Y-45927380D01*
X119165714Y-45832142D01*
X119165714Y-45641666D01*
X119213333Y-45546428D01*
X119308571Y-45498809D01*
X119403809Y-45498809D01*
X119499047Y-45975000D01*
X119165714Y-45165476D02*
X119832380Y-44927380D01*
X119165714Y-44689285D01*
X119546666Y-43594047D02*
X119546666Y-43117857D01*
X119832380Y-43689285D02*
X118832380Y-43355952D01*
X119832380Y-43022619D01*
X95512190Y-82002380D02*
X95702666Y-82002380D01*
X95797904Y-82050000D01*
X95893142Y-82145238D01*
X95940761Y-82335714D01*
X95940761Y-82669047D01*
X95893142Y-82859523D01*
X95797904Y-82954761D01*
X95702666Y-83002380D01*
X95512190Y-83002380D01*
X95416952Y-82954761D01*
X95321714Y-82859523D01*
X95274095Y-82669047D01*
X95274095Y-82335714D01*
X95321714Y-82145238D01*
X95416952Y-82050000D01*
X95512190Y-82002380D01*
X96797904Y-82335714D02*
X96797904Y-83002380D01*
X96369333Y-82335714D02*
X96369333Y-82859523D01*
X96416952Y-82954761D01*
X96512190Y-83002380D01*
X96655047Y-83002380D01*
X96750285Y-82954761D01*
X96797904Y-82907142D01*
X97131238Y-82335714D02*
X97512190Y-82335714D01*
X97274095Y-82002380D02*
X97274095Y-82859523D01*
X97321714Y-82954761D01*
X97416952Y-83002380D01*
X97512190Y-83002380D01*
X97845523Y-82335714D02*
X97845523Y-83335714D01*
X97845523Y-82383333D02*
X97940761Y-82335714D01*
X98131238Y-82335714D01*
X98226476Y-82383333D01*
X98274095Y-82430952D01*
X98321714Y-82526190D01*
X98321714Y-82811904D01*
X98274095Y-82907142D01*
X98226476Y-82954761D01*
X98131238Y-83002380D01*
X97940761Y-83002380D01*
X97845523Y-82954761D01*
X99178857Y-82335714D02*
X99178857Y-83002380D01*
X98750285Y-82335714D02*
X98750285Y-82859523D01*
X98797904Y-82954761D01*
X98893142Y-83002380D01*
X99036000Y-83002380D01*
X99131238Y-82954761D01*
X99178857Y-82907142D01*
X99512190Y-82335714D02*
X99893142Y-82335714D01*
X99655047Y-82002380D02*
X99655047Y-82859523D01*
X99702666Y-82954761D01*
X99797904Y-83002380D01*
X99893142Y-83002380D01*
X77827238Y-83002380D02*
X77493904Y-82526190D01*
X77255809Y-83002380D02*
X77255809Y-82002380D01*
X77636761Y-82002380D01*
X77732000Y-82050000D01*
X77779619Y-82097619D01*
X77827238Y-82192857D01*
X77827238Y-82335714D01*
X77779619Y-82430952D01*
X77732000Y-82478571D01*
X77636761Y-82526190D01*
X77255809Y-82526190D01*
X78636761Y-82954761D02*
X78541523Y-83002380D01*
X78351047Y-83002380D01*
X78255809Y-82954761D01*
X78208190Y-82859523D01*
X78208190Y-82478571D01*
X78255809Y-82383333D01*
X78351047Y-82335714D01*
X78541523Y-82335714D01*
X78636761Y-82383333D01*
X78684380Y-82478571D01*
X78684380Y-82573809D01*
X78208190Y-82669047D01*
X78970095Y-82335714D02*
X79351047Y-82335714D01*
X79112952Y-83002380D02*
X79112952Y-82145238D01*
X79160571Y-82050000D01*
X79255809Y-82002380D01*
X79351047Y-82002380D01*
X53626095Y-82954761D02*
X53768952Y-83002380D01*
X54007047Y-83002380D01*
X54102285Y-82954761D01*
X54149904Y-82907142D01*
X54197523Y-82811904D01*
X54197523Y-82716666D01*
X54149904Y-82621428D01*
X54102285Y-82573809D01*
X54007047Y-82526190D01*
X53816571Y-82478571D01*
X53721333Y-82430952D01*
X53673714Y-82383333D01*
X53626095Y-82288095D01*
X53626095Y-82192857D01*
X53673714Y-82097619D01*
X53721333Y-82050000D01*
X53816571Y-82002380D01*
X54054666Y-82002380D01*
X54197523Y-82050000D01*
X54626095Y-83002380D02*
X54626095Y-82335714D01*
X54626095Y-82002380D02*
X54578476Y-82050000D01*
X54626095Y-82097619D01*
X54673714Y-82050000D01*
X54626095Y-82002380D01*
X54626095Y-82097619D01*
X55530857Y-82335714D02*
X55530857Y-83145238D01*
X55483238Y-83240476D01*
X55435619Y-83288095D01*
X55340380Y-83335714D01*
X55197523Y-83335714D01*
X55102285Y-83288095D01*
X55530857Y-82954761D02*
X55435619Y-83002380D01*
X55245142Y-83002380D01*
X55149904Y-82954761D01*
X55102285Y-82907142D01*
X55054666Y-82811904D01*
X55054666Y-82526190D01*
X55102285Y-82430952D01*
X55149904Y-82383333D01*
X55245142Y-82335714D01*
X55435619Y-82335714D01*
X55530857Y-82383333D01*
X56007047Y-82335714D02*
X56007047Y-83002380D01*
X56007047Y-82430952D02*
X56054666Y-82383333D01*
X56149904Y-82335714D01*
X56292761Y-82335714D01*
X56388000Y-82383333D01*
X56435619Y-82478571D01*
X56435619Y-83002380D01*
X57340380Y-83002380D02*
X57340380Y-82478571D01*
X57292761Y-82383333D01*
X57197523Y-82335714D01*
X57007047Y-82335714D01*
X56911809Y-82383333D01*
X57340380Y-82954761D02*
X57245142Y-83002380D01*
X57007047Y-83002380D01*
X56911809Y-82954761D01*
X56864190Y-82859523D01*
X56864190Y-82764285D01*
X56911809Y-82669047D01*
X57007047Y-82621428D01*
X57245142Y-82621428D01*
X57340380Y-82573809D01*
X57959428Y-83002380D02*
X57864190Y-82954761D01*
X57816571Y-82859523D01*
X57816571Y-82002380D01*
X58340380Y-82621428D02*
X59102285Y-82621428D01*
X58721333Y-83002380D02*
X58721333Y-82240476D01*
X33306095Y-82954761D02*
X33448952Y-83002380D01*
X33687047Y-83002380D01*
X33782285Y-82954761D01*
X33829904Y-82907142D01*
X33877523Y-82811904D01*
X33877523Y-82716666D01*
X33829904Y-82621428D01*
X33782285Y-82573809D01*
X33687047Y-82526190D01*
X33496571Y-82478571D01*
X33401333Y-82430952D01*
X33353714Y-82383333D01*
X33306095Y-82288095D01*
X33306095Y-82192857D01*
X33353714Y-82097619D01*
X33401333Y-82050000D01*
X33496571Y-82002380D01*
X33734666Y-82002380D01*
X33877523Y-82050000D01*
X34306095Y-83002380D02*
X34306095Y-82335714D01*
X34306095Y-82002380D02*
X34258476Y-82050000D01*
X34306095Y-82097619D01*
X34353714Y-82050000D01*
X34306095Y-82002380D01*
X34306095Y-82097619D01*
X35210857Y-82335714D02*
X35210857Y-83145238D01*
X35163238Y-83240476D01*
X35115619Y-83288095D01*
X35020380Y-83335714D01*
X34877523Y-83335714D01*
X34782285Y-83288095D01*
X35210857Y-82954761D02*
X35115619Y-83002380D01*
X34925142Y-83002380D01*
X34829904Y-82954761D01*
X34782285Y-82907142D01*
X34734666Y-82811904D01*
X34734666Y-82526190D01*
X34782285Y-82430952D01*
X34829904Y-82383333D01*
X34925142Y-82335714D01*
X35115619Y-82335714D01*
X35210857Y-82383333D01*
X35687047Y-82335714D02*
X35687047Y-83002380D01*
X35687047Y-82430952D02*
X35734666Y-82383333D01*
X35829904Y-82335714D01*
X35972761Y-82335714D01*
X36068000Y-82383333D01*
X36115619Y-82478571D01*
X36115619Y-83002380D01*
X37020380Y-83002380D02*
X37020380Y-82478571D01*
X36972761Y-82383333D01*
X36877523Y-82335714D01*
X36687047Y-82335714D01*
X36591809Y-82383333D01*
X37020380Y-82954761D02*
X36925142Y-83002380D01*
X36687047Y-83002380D01*
X36591809Y-82954761D01*
X36544190Y-82859523D01*
X36544190Y-82764285D01*
X36591809Y-82669047D01*
X36687047Y-82621428D01*
X36925142Y-82621428D01*
X37020380Y-82573809D01*
X37639428Y-83002380D02*
X37544190Y-82954761D01*
X37496571Y-82859523D01*
X37496571Y-82002380D01*
X38020380Y-82621428D02*
X38782285Y-82621428D01*
D11*
%TO.C,R7*%
X87619064Y-79475000D02*
X87164936Y-79475000D01*
X87619064Y-78005000D02*
X87164936Y-78005000D01*
%TO.C,U4*%
X68580000Y-28448000D02*
X68580000Y-30988000D01*
X73660000Y-28448000D02*
X68580000Y-28448000D01*
X83820000Y-28448000D02*
X78740000Y-28448000D01*
X68580000Y-38608000D02*
X68580000Y-33528000D01*
X68580000Y-48768000D02*
X68580000Y-43688000D01*
X68580000Y-53848000D02*
X68580000Y-51308000D01*
X73660000Y-53848000D02*
X68580000Y-53848000D01*
X83820000Y-53848000D02*
X78740000Y-53848000D01*
X93980000Y-53848000D02*
X88900000Y-53848000D01*
X93980000Y-51308000D02*
X93980000Y-53848000D01*
X91440000Y-28448000D02*
X88900000Y-28448000D01*
X91440000Y-28448000D02*
X93980000Y-28448000D01*
X93980000Y-30988000D02*
X93980000Y-28448000D01*
X93980000Y-38608000D02*
X93980000Y-33528000D01*
X93980000Y-43688000D02*
X93980000Y-48768000D01*
%TO.C,C1*%
X44350000Y-76976248D02*
X44350000Y-77498752D01*
X45820000Y-76976248D02*
X45820000Y-77498752D01*
%TO.C,C2*%
X50193752Y-77951000D02*
X49671248Y-77951000D01*
X50193752Y-76481000D02*
X49671248Y-76481000D01*
%TO.C,C3*%
X55145000Y-77498752D02*
X55145000Y-76976248D01*
X56615000Y-77498752D02*
X56615000Y-76976248D01*
%TO.C,C4*%
X92103752Y-69115000D02*
X91581248Y-69115000D01*
X92103752Y-70585000D02*
X91581248Y-70585000D01*
%TO.C,C5*%
X53900400Y-65444648D02*
X53900400Y-65967152D01*
X55370400Y-65444648D02*
X55370400Y-65967152D01*
%TO.C,C6*%
X87658752Y-68045000D02*
X87136248Y-68045000D01*
X87658752Y-66575000D02*
X87136248Y-66575000D01*
%TO.C,C8*%
X47991752Y-65813000D02*
X47469248Y-65813000D01*
X47991752Y-67283000D02*
X47469248Y-67283000D01*
%TO.C,C10*%
X95137248Y-74195000D02*
X95659752Y-74195000D01*
X95137248Y-75665000D02*
X95659752Y-75665000D01*
%TO.C,C12*%
X78133752Y-76735000D02*
X77611248Y-76735000D01*
X78133752Y-78205000D02*
X77611248Y-78205000D01*
%TO.C,J1*%
X64340000Y-82418000D02*
X65450000Y-82418000D01*
X61550000Y-82418000D02*
X62660000Y-82418000D01*
X64340000Y-86128000D02*
X65450000Y-86128000D01*
X61550000Y-86128000D02*
X62660000Y-86128000D01*
X63500000Y-81868000D02*
X63750000Y-81368000D01*
X63750000Y-81368000D02*
X63250000Y-81368000D01*
X63250000Y-81368000D02*
X63500000Y-81868000D01*
%TO.C,J2*%
X42930000Y-81368000D02*
X43180000Y-81868000D01*
X43430000Y-81368000D02*
X42930000Y-81368000D01*
X43180000Y-81868000D02*
X43430000Y-81368000D01*
X41230000Y-86128000D02*
X42340000Y-86128000D01*
X44020000Y-86128000D02*
X45130000Y-86128000D01*
X41230000Y-82418000D02*
X42340000Y-82418000D01*
X44020000Y-82418000D02*
X45130000Y-82418000D01*
%TO.C,J3*%
X104980000Y-82418000D02*
X106090000Y-82418000D01*
X102190000Y-82418000D02*
X103300000Y-82418000D01*
X104980000Y-86128000D02*
X106090000Y-86128000D01*
X102190000Y-86128000D02*
X103300000Y-86128000D01*
X104140000Y-81868000D02*
X104390000Y-81368000D01*
X104390000Y-81368000D02*
X103890000Y-81368000D01*
X103890000Y-81368000D02*
X104140000Y-81868000D01*
%TO.C,J4*%
X55400000Y-39000000D02*
X52800000Y-39000000D01*
X55400000Y-24300000D02*
X55400000Y-39000000D01*
X46200000Y-39000000D02*
X46200000Y-37100000D01*
X48900000Y-39000000D02*
X46200000Y-39000000D01*
X46200000Y-24300000D02*
X55400000Y-24300000D01*
X46200000Y-33100000D02*
X46200000Y-24300000D01*
X55600000Y-38150000D02*
X55600000Y-39200000D01*
X54550000Y-39200000D02*
X55600000Y-39200000D01*
%TO.C,R1*%
X41810000Y-76972936D02*
X41810000Y-77427064D01*
X43280000Y-76972936D02*
X43280000Y-77427064D01*
%TO.C,R2*%
X59155000Y-77004936D02*
X59155000Y-77459064D01*
X57685000Y-77004936D02*
X57685000Y-77459064D01*
%TO.C,R3*%
X45947000Y-71416936D02*
X45947000Y-71871064D01*
X44477000Y-71416936D02*
X44477000Y-71871064D01*
%TO.C,R4*%
X92032064Y-68045000D02*
X91577936Y-68045000D01*
X92032064Y-66575000D02*
X91577936Y-66575000D01*
%TO.C,R5*%
X87587064Y-69115000D02*
X87132936Y-69115000D01*
X87587064Y-70585000D02*
X87132936Y-70585000D01*
%TO.C,R6*%
X57885000Y-65902064D02*
X57885000Y-65447936D01*
X56415000Y-65902064D02*
X56415000Y-65447936D01*
%TO.C,U1*%
X89216000Y-76855000D02*
X91166000Y-76855000D01*
X89216000Y-76855000D02*
X87266000Y-76855000D01*
X89216000Y-71735000D02*
X91166000Y-71735000D01*
X89216000Y-71735000D02*
X85766000Y-71735000D01*
%TO.C,U2*%
X47351000Y-71693000D02*
X47351000Y-75143000D01*
X47351000Y-71693000D02*
X47351000Y-69743000D01*
X52471000Y-71693000D02*
X52471000Y-73643000D01*
X52471000Y-71693000D02*
X52471000Y-69743000D01*
%TO.C,U3*%
X70230000Y-62940000D02*
X68415000Y-62940000D01*
X70230000Y-62705000D02*
X70230000Y-62940000D01*
X74090000Y-62705000D02*
X70230000Y-62705000D01*
X77950000Y-62705000D02*
X77950000Y-62940000D01*
X74090000Y-62705000D02*
X77950000Y-62705000D01*
X70230000Y-75725000D02*
X70230000Y-75490000D01*
X74090000Y-75725000D02*
X70230000Y-75725000D01*
X77950000Y-75725000D02*
X77950000Y-75490000D01*
X74090000Y-75725000D02*
X77950000Y-75725000D01*
%TO.C,J5*%
X84660000Y-82418000D02*
X85770000Y-82418000D01*
X81870000Y-82418000D02*
X82980000Y-82418000D01*
X84660000Y-86128000D02*
X85770000Y-86128000D01*
X81870000Y-86128000D02*
X82980000Y-86128000D01*
X83820000Y-81868000D02*
X84070000Y-81368000D01*
X84070000Y-81368000D02*
X83570000Y-81368000D01*
X83570000Y-81368000D02*
X83820000Y-81868000D01*
%TO.C,C13*%
X53875000Y-72883752D02*
X53875000Y-72361248D01*
X55345000Y-72883752D02*
X55345000Y-72361248D01*
%TO.C,C14*%
X65305000Y-73166248D02*
X65305000Y-73688752D01*
X66775000Y-73166248D02*
X66775000Y-73688752D01*
%TO.C,C15*%
X83085000Y-75071248D02*
X83085000Y-75593752D01*
X84555000Y-75071248D02*
X84555000Y-75593752D01*
%TO.C,C7*%
X66350000Y-41235000D02*
G75*
G03*
X66350000Y-41235000I-4120000J0D01*
G01*
X66310000Y-41235000D02*
X58150000Y-41235000D01*
X66310000Y-41275000D02*
X58150000Y-41275000D01*
X66310000Y-41315000D02*
X58150000Y-41315000D01*
X66309000Y-41355000D02*
X58151000Y-41355000D01*
X66307000Y-41395000D02*
X58153000Y-41395000D01*
X66306000Y-41435000D02*
X58154000Y-41435000D01*
X66304000Y-41475000D02*
X58156000Y-41475000D01*
X66301000Y-41515000D02*
X58159000Y-41515000D01*
X66298000Y-41555000D02*
X58162000Y-41555000D01*
X66295000Y-41595000D02*
X58165000Y-41595000D01*
X66291000Y-41635000D02*
X58169000Y-41635000D01*
X66287000Y-41675000D02*
X58173000Y-41675000D01*
X66282000Y-41715000D02*
X58178000Y-41715000D01*
X66278000Y-41755000D02*
X58182000Y-41755000D01*
X66272000Y-41795000D02*
X58188000Y-41795000D01*
X66267000Y-41835000D02*
X58193000Y-41835000D01*
X66260000Y-41875000D02*
X58200000Y-41875000D01*
X66254000Y-41915000D02*
X58206000Y-41915000D01*
X66247000Y-41956000D02*
X58213000Y-41956000D01*
X66240000Y-41996000D02*
X58220000Y-41996000D01*
X66232000Y-42036000D02*
X58228000Y-42036000D01*
X66224000Y-42076000D02*
X58236000Y-42076000D01*
X66215000Y-42116000D02*
X58245000Y-42116000D01*
X66206000Y-42156000D02*
X58254000Y-42156000D01*
X66197000Y-42196000D02*
X58263000Y-42196000D01*
X66187000Y-42236000D02*
X58273000Y-42236000D01*
X66177000Y-42276000D02*
X58283000Y-42276000D01*
X66166000Y-42316000D02*
X58294000Y-42316000D01*
X66155000Y-42356000D02*
X58305000Y-42356000D01*
X66144000Y-42396000D02*
X58316000Y-42396000D01*
X66132000Y-42436000D02*
X58328000Y-42436000D01*
X66119000Y-42476000D02*
X58341000Y-42476000D01*
X66107000Y-42516000D02*
X58353000Y-42516000D01*
X66093000Y-42556000D02*
X58367000Y-42556000D01*
X66080000Y-42596000D02*
X58380000Y-42596000D01*
X66065000Y-42636000D02*
X58395000Y-42636000D01*
X66051000Y-42676000D02*
X58409000Y-42676000D01*
X66035000Y-42716000D02*
X63270000Y-42716000D01*
X61190000Y-42716000D02*
X58425000Y-42716000D01*
X66020000Y-42756000D02*
X63270000Y-42756000D01*
X61190000Y-42756000D02*
X58440000Y-42756000D01*
X66004000Y-42796000D02*
X63270000Y-42796000D01*
X61190000Y-42796000D02*
X58456000Y-42796000D01*
X65987000Y-42836000D02*
X63270000Y-42836000D01*
X61190000Y-42836000D02*
X58473000Y-42836000D01*
X65970000Y-42876000D02*
X63270000Y-42876000D01*
X61190000Y-42876000D02*
X58490000Y-42876000D01*
X65952000Y-42916000D02*
X63270000Y-42916000D01*
X61190000Y-42916000D02*
X58508000Y-42916000D01*
X65934000Y-42956000D02*
X63270000Y-42956000D01*
X61190000Y-42956000D02*
X58526000Y-42956000D01*
X65916000Y-42996000D02*
X63270000Y-42996000D01*
X61190000Y-42996000D02*
X58544000Y-42996000D01*
X65896000Y-43036000D02*
X63270000Y-43036000D01*
X61190000Y-43036000D02*
X58564000Y-43036000D01*
X65877000Y-43076000D02*
X63270000Y-43076000D01*
X61190000Y-43076000D02*
X58583000Y-43076000D01*
X65857000Y-43116000D02*
X63270000Y-43116000D01*
X61190000Y-43116000D02*
X58603000Y-43116000D01*
X65836000Y-43156000D02*
X63270000Y-43156000D01*
X61190000Y-43156000D02*
X58624000Y-43156000D01*
X65814000Y-43196000D02*
X63270000Y-43196000D01*
X61190000Y-43196000D02*
X58646000Y-43196000D01*
X65792000Y-43236000D02*
X63270000Y-43236000D01*
X61190000Y-43236000D02*
X58668000Y-43236000D01*
X65770000Y-43276000D02*
X63270000Y-43276000D01*
X61190000Y-43276000D02*
X58690000Y-43276000D01*
X65747000Y-43316000D02*
X63270000Y-43316000D01*
X61190000Y-43316000D02*
X58713000Y-43316000D01*
X65723000Y-43356000D02*
X63270000Y-43356000D01*
X61190000Y-43356000D02*
X58737000Y-43356000D01*
X65699000Y-43396000D02*
X63270000Y-43396000D01*
X61190000Y-43396000D02*
X58761000Y-43396000D01*
X65674000Y-43436000D02*
X63270000Y-43436000D01*
X61190000Y-43436000D02*
X58786000Y-43436000D01*
X65648000Y-43476000D02*
X63270000Y-43476000D01*
X61190000Y-43476000D02*
X58812000Y-43476000D01*
X65622000Y-43516000D02*
X63270000Y-43516000D01*
X61190000Y-43516000D02*
X58838000Y-43516000D01*
X65595000Y-43556000D02*
X63270000Y-43556000D01*
X61190000Y-43556000D02*
X58865000Y-43556000D01*
X65568000Y-43596000D02*
X63270000Y-43596000D01*
X61190000Y-43596000D02*
X58892000Y-43596000D01*
X65539000Y-43636000D02*
X63270000Y-43636000D01*
X61190000Y-43636000D02*
X58921000Y-43636000D01*
X65510000Y-43676000D02*
X63270000Y-43676000D01*
X61190000Y-43676000D02*
X58950000Y-43676000D01*
X65480000Y-43716000D02*
X63270000Y-43716000D01*
X61190000Y-43716000D02*
X58980000Y-43716000D01*
X65450000Y-43756000D02*
X63270000Y-43756000D01*
X61190000Y-43756000D02*
X59010000Y-43756000D01*
X65419000Y-43796000D02*
X63270000Y-43796000D01*
X61190000Y-43796000D02*
X59041000Y-43796000D01*
X65386000Y-43836000D02*
X63270000Y-43836000D01*
X61190000Y-43836000D02*
X59074000Y-43836000D01*
X65354000Y-43876000D02*
X63270000Y-43876000D01*
X61190000Y-43876000D02*
X59106000Y-43876000D01*
X65320000Y-43916000D02*
X63270000Y-43916000D01*
X61190000Y-43916000D02*
X59140000Y-43916000D01*
X65285000Y-43956000D02*
X63270000Y-43956000D01*
X61190000Y-43956000D02*
X59175000Y-43956000D01*
X65249000Y-43996000D02*
X63270000Y-43996000D01*
X61190000Y-43996000D02*
X59211000Y-43996000D01*
X65213000Y-44036000D02*
X63270000Y-44036000D01*
X61190000Y-44036000D02*
X59247000Y-44036000D01*
X65175000Y-44076000D02*
X63270000Y-44076000D01*
X61190000Y-44076000D02*
X59285000Y-44076000D01*
X65137000Y-44116000D02*
X63270000Y-44116000D01*
X61190000Y-44116000D02*
X59323000Y-44116000D01*
X65097000Y-44156000D02*
X63270000Y-44156000D01*
X61190000Y-44156000D02*
X59363000Y-44156000D01*
X65056000Y-44196000D02*
X63270000Y-44196000D01*
X61190000Y-44196000D02*
X59404000Y-44196000D01*
X65014000Y-44236000D02*
X63270000Y-44236000D01*
X61190000Y-44236000D02*
X59446000Y-44236000D01*
X64971000Y-44276000D02*
X63270000Y-44276000D01*
X61190000Y-44276000D02*
X59489000Y-44276000D01*
X64927000Y-44316000D02*
X63270000Y-44316000D01*
X61190000Y-44316000D02*
X59533000Y-44316000D01*
X64881000Y-44356000D02*
X63270000Y-44356000D01*
X61190000Y-44356000D02*
X59579000Y-44356000D01*
X64834000Y-44396000D02*
X63270000Y-44396000D01*
X61190000Y-44396000D02*
X59626000Y-44396000D01*
X64786000Y-44436000D02*
X63270000Y-44436000D01*
X61190000Y-44436000D02*
X59674000Y-44436000D01*
X64735000Y-44476000D02*
X63270000Y-44476000D01*
X61190000Y-44476000D02*
X59725000Y-44476000D01*
X64684000Y-44516000D02*
X63270000Y-44516000D01*
X61190000Y-44516000D02*
X59776000Y-44516000D01*
X64630000Y-44556000D02*
X63270000Y-44556000D01*
X61190000Y-44556000D02*
X59830000Y-44556000D01*
X64575000Y-44596000D02*
X63270000Y-44596000D01*
X61190000Y-44596000D02*
X59885000Y-44596000D01*
X64517000Y-44636000D02*
X63270000Y-44636000D01*
X61190000Y-44636000D02*
X59943000Y-44636000D01*
X64458000Y-44676000D02*
X63270000Y-44676000D01*
X61190000Y-44676000D02*
X60002000Y-44676000D01*
X64396000Y-44716000D02*
X63270000Y-44716000D01*
X61190000Y-44716000D02*
X60064000Y-44716000D01*
X64332000Y-44756000D02*
X63270000Y-44756000D01*
X61190000Y-44756000D02*
X60128000Y-44756000D01*
X64264000Y-44796000D02*
X60196000Y-44796000D01*
X64194000Y-44836000D02*
X60266000Y-44836000D01*
X64120000Y-44876000D02*
X60340000Y-44876000D01*
X64043000Y-44916000D02*
X60417000Y-44916000D01*
X63961000Y-44956000D02*
X60499000Y-44956000D01*
X63875000Y-44996000D02*
X60585000Y-44996000D01*
X63782000Y-45036000D02*
X60678000Y-45036000D01*
X63683000Y-45076000D02*
X60777000Y-45076000D01*
X63576000Y-45116000D02*
X60884000Y-45116000D01*
X63459000Y-45156000D02*
X61001000Y-45156000D01*
X63328000Y-45196000D02*
X61132000Y-45196000D01*
X63178000Y-45236000D02*
X61282000Y-45236000D01*
X62998000Y-45276000D02*
X61462000Y-45276000D01*
X62763000Y-45316000D02*
X61697000Y-45316000D01*
X64545000Y-36825302D02*
X64545000Y-37625302D01*
X64945000Y-37225302D02*
X64145000Y-37225302D01*
%TO.C,C9*%
X102315000Y-52435000D02*
G75*
G03*
X102315000Y-52435000I-2620000J0D01*
G01*
X98655000Y-52435000D02*
X97115000Y-52435000D01*
X102275000Y-52435000D02*
X100735000Y-52435000D01*
X98655000Y-52475000D02*
X97115000Y-52475000D01*
X102275000Y-52475000D02*
X100735000Y-52475000D01*
X102274000Y-52515000D02*
X100735000Y-52515000D01*
X98655000Y-52515000D02*
X97116000Y-52515000D01*
X102273000Y-52555000D02*
X100735000Y-52555000D01*
X98655000Y-52555000D02*
X97117000Y-52555000D01*
X102271000Y-52595000D02*
X100735000Y-52595000D01*
X98655000Y-52595000D02*
X97119000Y-52595000D01*
X102268000Y-52635000D02*
X100735000Y-52635000D01*
X98655000Y-52635000D02*
X97122000Y-52635000D01*
X102264000Y-52675000D02*
X100735000Y-52675000D01*
X98655000Y-52675000D02*
X97126000Y-52675000D01*
X102260000Y-52715000D02*
X100735000Y-52715000D01*
X98655000Y-52715000D02*
X97130000Y-52715000D01*
X102256000Y-52755000D02*
X100735000Y-52755000D01*
X98655000Y-52755000D02*
X97134000Y-52755000D01*
X102251000Y-52795000D02*
X100735000Y-52795000D01*
X98655000Y-52795000D02*
X97139000Y-52795000D01*
X102245000Y-52835000D02*
X100735000Y-52835000D01*
X98655000Y-52835000D02*
X97145000Y-52835000D01*
X102238000Y-52875000D02*
X100735000Y-52875000D01*
X98655000Y-52875000D02*
X97152000Y-52875000D01*
X102231000Y-52915000D02*
X100735000Y-52915000D01*
X98655000Y-52915000D02*
X97159000Y-52915000D01*
X102223000Y-52955000D02*
X100735000Y-52955000D01*
X98655000Y-52955000D02*
X97167000Y-52955000D01*
X102215000Y-52995000D02*
X100735000Y-52995000D01*
X98655000Y-52995000D02*
X97175000Y-52995000D01*
X102206000Y-53035000D02*
X100735000Y-53035000D01*
X98655000Y-53035000D02*
X97184000Y-53035000D01*
X102196000Y-53075000D02*
X100735000Y-53075000D01*
X98655000Y-53075000D02*
X97194000Y-53075000D01*
X102186000Y-53115000D02*
X100735000Y-53115000D01*
X98655000Y-53115000D02*
X97204000Y-53115000D01*
X102175000Y-53156000D02*
X100735000Y-53156000D01*
X98655000Y-53156000D02*
X97215000Y-53156000D01*
X102163000Y-53196000D02*
X100735000Y-53196000D01*
X98655000Y-53196000D02*
X97227000Y-53196000D01*
X102150000Y-53236000D02*
X100735000Y-53236000D01*
X98655000Y-53236000D02*
X97240000Y-53236000D01*
X102137000Y-53276000D02*
X100735000Y-53276000D01*
X98655000Y-53276000D02*
X97253000Y-53276000D01*
X102123000Y-53316000D02*
X100735000Y-53316000D01*
X98655000Y-53316000D02*
X97267000Y-53316000D01*
X102109000Y-53356000D02*
X100735000Y-53356000D01*
X98655000Y-53356000D02*
X97281000Y-53356000D01*
X102093000Y-53396000D02*
X100735000Y-53396000D01*
X98655000Y-53396000D02*
X97297000Y-53396000D01*
X102077000Y-53436000D02*
X100735000Y-53436000D01*
X98655000Y-53436000D02*
X97313000Y-53436000D01*
X102060000Y-53476000D02*
X100735000Y-53476000D01*
X98655000Y-53476000D02*
X97330000Y-53476000D01*
X102043000Y-53516000D02*
X100735000Y-53516000D01*
X98655000Y-53516000D02*
X97347000Y-53516000D01*
X102024000Y-53556000D02*
X100735000Y-53556000D01*
X98655000Y-53556000D02*
X97366000Y-53556000D01*
X102005000Y-53596000D02*
X100735000Y-53596000D01*
X98655000Y-53596000D02*
X97385000Y-53596000D01*
X101985000Y-53636000D02*
X100735000Y-53636000D01*
X98655000Y-53636000D02*
X97405000Y-53636000D01*
X101963000Y-53676000D02*
X100735000Y-53676000D01*
X98655000Y-53676000D02*
X97427000Y-53676000D01*
X101942000Y-53716000D02*
X100735000Y-53716000D01*
X98655000Y-53716000D02*
X97448000Y-53716000D01*
X101919000Y-53756000D02*
X100735000Y-53756000D01*
X98655000Y-53756000D02*
X97471000Y-53756000D01*
X101895000Y-53796000D02*
X100735000Y-53796000D01*
X98655000Y-53796000D02*
X97495000Y-53796000D01*
X101870000Y-53836000D02*
X100735000Y-53836000D01*
X98655000Y-53836000D02*
X97520000Y-53836000D01*
X101844000Y-53876000D02*
X100735000Y-53876000D01*
X98655000Y-53876000D02*
X97546000Y-53876000D01*
X101817000Y-53916000D02*
X100735000Y-53916000D01*
X98655000Y-53916000D02*
X97573000Y-53916000D01*
X101790000Y-53956000D02*
X100735000Y-53956000D01*
X98655000Y-53956000D02*
X97600000Y-53956000D01*
X101760000Y-53996000D02*
X100735000Y-53996000D01*
X98655000Y-53996000D02*
X97630000Y-53996000D01*
X101730000Y-54036000D02*
X100735000Y-54036000D01*
X98655000Y-54036000D02*
X97660000Y-54036000D01*
X101699000Y-54076000D02*
X100735000Y-54076000D01*
X98655000Y-54076000D02*
X97691000Y-54076000D01*
X101666000Y-54116000D02*
X100735000Y-54116000D01*
X98655000Y-54116000D02*
X97724000Y-54116000D01*
X101632000Y-54156000D02*
X100735000Y-54156000D01*
X98655000Y-54156000D02*
X97758000Y-54156000D01*
X101596000Y-54196000D02*
X100735000Y-54196000D01*
X98655000Y-54196000D02*
X97794000Y-54196000D01*
X101559000Y-54236000D02*
X100735000Y-54236000D01*
X98655000Y-54236000D02*
X97831000Y-54236000D01*
X101521000Y-54276000D02*
X100735000Y-54276000D01*
X98655000Y-54276000D02*
X97869000Y-54276000D01*
X101480000Y-54316000D02*
X100735000Y-54316000D01*
X98655000Y-54316000D02*
X97910000Y-54316000D01*
X101438000Y-54356000D02*
X100735000Y-54356000D01*
X98655000Y-54356000D02*
X97952000Y-54356000D01*
X101394000Y-54396000D02*
X100735000Y-54396000D01*
X98655000Y-54396000D02*
X97996000Y-54396000D01*
X101348000Y-54436000D02*
X100735000Y-54436000D01*
X98655000Y-54436000D02*
X98042000Y-54436000D01*
X101300000Y-54476000D02*
X98090000Y-54476000D01*
X101249000Y-54516000D02*
X98141000Y-54516000D01*
X101195000Y-54556000D02*
X98195000Y-54556000D01*
X101138000Y-54596000D02*
X98252000Y-54596000D01*
X101078000Y-54636000D02*
X98312000Y-54636000D01*
X101014000Y-54676000D02*
X98376000Y-54676000D01*
X100946000Y-54716000D02*
X98444000Y-54716000D01*
X100873000Y-54756000D02*
X98517000Y-54756000D01*
X100793000Y-54796000D02*
X98597000Y-54796000D01*
X100706000Y-54836000D02*
X98684000Y-54836000D01*
X100610000Y-54876000D02*
X98780000Y-54876000D01*
X100500000Y-54916000D02*
X98890000Y-54916000D01*
X100372000Y-54956000D02*
X99018000Y-54956000D01*
X100213000Y-54996000D02*
X99177000Y-54996000D01*
X99979000Y-55036000D02*
X99411000Y-55036000D01*
X101170000Y-49630225D02*
X101170000Y-50130225D01*
X101420000Y-49880225D02*
X100920000Y-49880225D01*
%TO.C,C11*%
X101420000Y-29560225D02*
X100920000Y-29560225D01*
X101170000Y-29310225D02*
X101170000Y-29810225D01*
X99979000Y-34716000D02*
X99411000Y-34716000D01*
X100213000Y-34676000D02*
X99177000Y-34676000D01*
X100372000Y-34636000D02*
X99018000Y-34636000D01*
X100500000Y-34596000D02*
X98890000Y-34596000D01*
X100610000Y-34556000D02*
X98780000Y-34556000D01*
X100706000Y-34516000D02*
X98684000Y-34516000D01*
X100793000Y-34476000D02*
X98597000Y-34476000D01*
X100873000Y-34436000D02*
X98517000Y-34436000D01*
X100946000Y-34396000D02*
X98444000Y-34396000D01*
X101014000Y-34356000D02*
X98376000Y-34356000D01*
X101078000Y-34316000D02*
X98312000Y-34316000D01*
X101138000Y-34276000D02*
X98252000Y-34276000D01*
X101195000Y-34236000D02*
X98195000Y-34236000D01*
X101249000Y-34196000D02*
X98141000Y-34196000D01*
X101300000Y-34156000D02*
X98090000Y-34156000D01*
X98655000Y-34116000D02*
X98042000Y-34116000D01*
X101348000Y-34116000D02*
X100735000Y-34116000D01*
X98655000Y-34076000D02*
X97996000Y-34076000D01*
X101394000Y-34076000D02*
X100735000Y-34076000D01*
X98655000Y-34036000D02*
X97952000Y-34036000D01*
X101438000Y-34036000D02*
X100735000Y-34036000D01*
X98655000Y-33996000D02*
X97910000Y-33996000D01*
X101480000Y-33996000D02*
X100735000Y-33996000D01*
X98655000Y-33956000D02*
X97869000Y-33956000D01*
X101521000Y-33956000D02*
X100735000Y-33956000D01*
X98655000Y-33916000D02*
X97831000Y-33916000D01*
X101559000Y-33916000D02*
X100735000Y-33916000D01*
X98655000Y-33876000D02*
X97794000Y-33876000D01*
X101596000Y-33876000D02*
X100735000Y-33876000D01*
X98655000Y-33836000D02*
X97758000Y-33836000D01*
X101632000Y-33836000D02*
X100735000Y-33836000D01*
X98655000Y-33796000D02*
X97724000Y-33796000D01*
X101666000Y-33796000D02*
X100735000Y-33796000D01*
X98655000Y-33756000D02*
X97691000Y-33756000D01*
X101699000Y-33756000D02*
X100735000Y-33756000D01*
X98655000Y-33716000D02*
X97660000Y-33716000D01*
X101730000Y-33716000D02*
X100735000Y-33716000D01*
X98655000Y-33676000D02*
X97630000Y-33676000D01*
X101760000Y-33676000D02*
X100735000Y-33676000D01*
X98655000Y-33636000D02*
X97600000Y-33636000D01*
X101790000Y-33636000D02*
X100735000Y-33636000D01*
X98655000Y-33596000D02*
X97573000Y-33596000D01*
X101817000Y-33596000D02*
X100735000Y-33596000D01*
X98655000Y-33556000D02*
X97546000Y-33556000D01*
X101844000Y-33556000D02*
X100735000Y-33556000D01*
X98655000Y-33516000D02*
X97520000Y-33516000D01*
X101870000Y-33516000D02*
X100735000Y-33516000D01*
X98655000Y-33476000D02*
X97495000Y-33476000D01*
X101895000Y-33476000D02*
X100735000Y-33476000D01*
X98655000Y-33436000D02*
X97471000Y-33436000D01*
X101919000Y-33436000D02*
X100735000Y-33436000D01*
X98655000Y-33396000D02*
X97448000Y-33396000D01*
X101942000Y-33396000D02*
X100735000Y-33396000D01*
X98655000Y-33356000D02*
X97427000Y-33356000D01*
X101963000Y-33356000D02*
X100735000Y-33356000D01*
X98655000Y-33316000D02*
X97405000Y-33316000D01*
X101985000Y-33316000D02*
X100735000Y-33316000D01*
X98655000Y-33276000D02*
X97385000Y-33276000D01*
X102005000Y-33276000D02*
X100735000Y-33276000D01*
X98655000Y-33236000D02*
X97366000Y-33236000D01*
X102024000Y-33236000D02*
X100735000Y-33236000D01*
X98655000Y-33196000D02*
X97347000Y-33196000D01*
X102043000Y-33196000D02*
X100735000Y-33196000D01*
X98655000Y-33156000D02*
X97330000Y-33156000D01*
X102060000Y-33156000D02*
X100735000Y-33156000D01*
X98655000Y-33116000D02*
X97313000Y-33116000D01*
X102077000Y-33116000D02*
X100735000Y-33116000D01*
X98655000Y-33076000D02*
X97297000Y-33076000D01*
X102093000Y-33076000D02*
X100735000Y-33076000D01*
X98655000Y-33036000D02*
X97281000Y-33036000D01*
X102109000Y-33036000D02*
X100735000Y-33036000D01*
X98655000Y-32996000D02*
X97267000Y-32996000D01*
X102123000Y-32996000D02*
X100735000Y-32996000D01*
X98655000Y-32956000D02*
X97253000Y-32956000D01*
X102137000Y-32956000D02*
X100735000Y-32956000D01*
X98655000Y-32916000D02*
X97240000Y-32916000D01*
X102150000Y-32916000D02*
X100735000Y-32916000D01*
X98655000Y-32876000D02*
X97227000Y-32876000D01*
X102163000Y-32876000D02*
X100735000Y-32876000D01*
X98655000Y-32836000D02*
X97215000Y-32836000D01*
X102175000Y-32836000D02*
X100735000Y-32836000D01*
X98655000Y-32795000D02*
X97204000Y-32795000D01*
X102186000Y-32795000D02*
X100735000Y-32795000D01*
X98655000Y-32755000D02*
X97194000Y-32755000D01*
X102196000Y-32755000D02*
X100735000Y-32755000D01*
X98655000Y-32715000D02*
X97184000Y-32715000D01*
X102206000Y-32715000D02*
X100735000Y-32715000D01*
X98655000Y-32675000D02*
X97175000Y-32675000D01*
X102215000Y-32675000D02*
X100735000Y-32675000D01*
X98655000Y-32635000D02*
X97167000Y-32635000D01*
X102223000Y-32635000D02*
X100735000Y-32635000D01*
X98655000Y-32595000D02*
X97159000Y-32595000D01*
X102231000Y-32595000D02*
X100735000Y-32595000D01*
X98655000Y-32555000D02*
X97152000Y-32555000D01*
X102238000Y-32555000D02*
X100735000Y-32555000D01*
X98655000Y-32515000D02*
X97145000Y-32515000D01*
X102245000Y-32515000D02*
X100735000Y-32515000D01*
X98655000Y-32475000D02*
X97139000Y-32475000D01*
X102251000Y-32475000D02*
X100735000Y-32475000D01*
X98655000Y-32435000D02*
X97134000Y-32435000D01*
X102256000Y-32435000D02*
X100735000Y-32435000D01*
X98655000Y-32395000D02*
X97130000Y-32395000D01*
X102260000Y-32395000D02*
X100735000Y-32395000D01*
X98655000Y-32355000D02*
X97126000Y-32355000D01*
X102264000Y-32355000D02*
X100735000Y-32355000D01*
X98655000Y-32315000D02*
X97122000Y-32315000D01*
X102268000Y-32315000D02*
X100735000Y-32315000D01*
X98655000Y-32275000D02*
X97119000Y-32275000D01*
X102271000Y-32275000D02*
X100735000Y-32275000D01*
X98655000Y-32235000D02*
X97117000Y-32235000D01*
X102273000Y-32235000D02*
X100735000Y-32235000D01*
X98655000Y-32195000D02*
X97116000Y-32195000D01*
X102274000Y-32195000D02*
X100735000Y-32195000D01*
X102275000Y-32155000D02*
X100735000Y-32155000D01*
X98655000Y-32155000D02*
X97115000Y-32155000D01*
X102275000Y-32115000D02*
X100735000Y-32115000D01*
X98655000Y-32115000D02*
X97115000Y-32115000D01*
X102315000Y-32115000D02*
G75*
G03*
X102315000Y-32115000I-2620000J0D01*
G01*
%TO.C,R8*%
X91577936Y-79475000D02*
X92032064Y-79475000D01*
X91577936Y-78005000D02*
X92032064Y-78005000D01*
%TO.C,R7*%
D10*
X87225333Y-81097380D02*
X86892000Y-80621190D01*
X86653904Y-81097380D02*
X86653904Y-80097380D01*
X87034857Y-80097380D01*
X87130095Y-80145000D01*
X87177714Y-80192619D01*
X87225333Y-80287857D01*
X87225333Y-80430714D01*
X87177714Y-80525952D01*
X87130095Y-80573571D01*
X87034857Y-80621190D01*
X86653904Y-80621190D01*
X87558666Y-80097380D02*
X88225333Y-80097380D01*
X87796761Y-81097380D01*
%TO.C,U4*%
X70572380Y-29209904D02*
X71381904Y-29209904D01*
X71477142Y-29162285D01*
X71524761Y-29114666D01*
X71572380Y-29019428D01*
X71572380Y-28828952D01*
X71524761Y-28733714D01*
X71477142Y-28686095D01*
X71381904Y-28638476D01*
X70572380Y-28638476D01*
X70905714Y-27733714D02*
X71572380Y-27733714D01*
X70524761Y-27971809D02*
X71239047Y-28209904D01*
X71239047Y-27590857D01*
%TO.C,C1*%
X44918333Y-80367142D02*
X44870714Y-80414761D01*
X44727857Y-80462380D01*
X44632619Y-80462380D01*
X44489761Y-80414761D01*
X44394523Y-80319523D01*
X44346904Y-80224285D01*
X44299285Y-80033809D01*
X44299285Y-79890952D01*
X44346904Y-79700476D01*
X44394523Y-79605238D01*
X44489761Y-79510000D01*
X44632619Y-79462380D01*
X44727857Y-79462380D01*
X44870714Y-79510000D01*
X44918333Y-79557619D01*
X45870714Y-80462380D02*
X45299285Y-80462380D01*
X45585000Y-80462380D02*
X45585000Y-79462380D01*
X45489761Y-79605238D01*
X45394523Y-79700476D01*
X45299285Y-79748095D01*
%TO.C,C2*%
X49765833Y-79253142D02*
X49718214Y-79300761D01*
X49575357Y-79348380D01*
X49480119Y-79348380D01*
X49337261Y-79300761D01*
X49242023Y-79205523D01*
X49194404Y-79110285D01*
X49146785Y-78919809D01*
X49146785Y-78776952D01*
X49194404Y-78586476D01*
X49242023Y-78491238D01*
X49337261Y-78396000D01*
X49480119Y-78348380D01*
X49575357Y-78348380D01*
X49718214Y-78396000D01*
X49765833Y-78443619D01*
X50146785Y-78443619D02*
X50194404Y-78396000D01*
X50289642Y-78348380D01*
X50527738Y-78348380D01*
X50622976Y-78396000D01*
X50670595Y-78443619D01*
X50718214Y-78538857D01*
X50718214Y-78634095D01*
X50670595Y-78776952D01*
X50099166Y-79348380D01*
X50718214Y-79348380D01*
%TO.C,C3*%
X55713333Y-80367142D02*
X55665714Y-80414761D01*
X55522857Y-80462380D01*
X55427619Y-80462380D01*
X55284761Y-80414761D01*
X55189523Y-80319523D01*
X55141904Y-80224285D01*
X55094285Y-80033809D01*
X55094285Y-79890952D01*
X55141904Y-79700476D01*
X55189523Y-79605238D01*
X55284761Y-79510000D01*
X55427619Y-79462380D01*
X55522857Y-79462380D01*
X55665714Y-79510000D01*
X55713333Y-79557619D01*
X56046666Y-79462380D02*
X56665714Y-79462380D01*
X56332380Y-79843333D01*
X56475238Y-79843333D01*
X56570476Y-79890952D01*
X56618095Y-79938571D01*
X56665714Y-80033809D01*
X56665714Y-80271904D01*
X56618095Y-80367142D01*
X56570476Y-80414761D01*
X56475238Y-80462380D01*
X56189523Y-80462380D01*
X56094285Y-80414761D01*
X56046666Y-80367142D01*
%TO.C,C4*%
X95083333Y-70207142D02*
X95035714Y-70254761D01*
X94892857Y-70302380D01*
X94797619Y-70302380D01*
X94654761Y-70254761D01*
X94559523Y-70159523D01*
X94511904Y-70064285D01*
X94464285Y-69873809D01*
X94464285Y-69730952D01*
X94511904Y-69540476D01*
X94559523Y-69445238D01*
X94654761Y-69350000D01*
X94797619Y-69302380D01*
X94892857Y-69302380D01*
X95035714Y-69350000D01*
X95083333Y-69397619D01*
X95940476Y-69635714D02*
X95940476Y-70302380D01*
X95702380Y-69254761D02*
X95464285Y-69969047D01*
X96083333Y-69969047D01*
%TO.C,C5*%
X54443333Y-68937142D02*
X54395714Y-68984761D01*
X54252857Y-69032380D01*
X54157619Y-69032380D01*
X54014761Y-68984761D01*
X53919523Y-68889523D01*
X53871904Y-68794285D01*
X53824285Y-68603809D01*
X53824285Y-68460952D01*
X53871904Y-68270476D01*
X53919523Y-68175238D01*
X54014761Y-68080000D01*
X54157619Y-68032380D01*
X54252857Y-68032380D01*
X54395714Y-68080000D01*
X54443333Y-68127619D01*
X55348095Y-68032380D02*
X54871904Y-68032380D01*
X54824285Y-68508571D01*
X54871904Y-68460952D01*
X54967142Y-68413333D01*
X55205238Y-68413333D01*
X55300476Y-68460952D01*
X55348095Y-68508571D01*
X55395714Y-68603809D01*
X55395714Y-68841904D01*
X55348095Y-68937142D01*
X55300476Y-68984761D01*
X55205238Y-69032380D01*
X54967142Y-69032380D01*
X54871904Y-68984761D01*
X54824285Y-68937142D01*
%TO.C,C6*%
X84288333Y-67667142D02*
X84240714Y-67714761D01*
X84097857Y-67762380D01*
X84002619Y-67762380D01*
X83859761Y-67714761D01*
X83764523Y-67619523D01*
X83716904Y-67524285D01*
X83669285Y-67333809D01*
X83669285Y-67190952D01*
X83716904Y-67000476D01*
X83764523Y-66905238D01*
X83859761Y-66810000D01*
X84002619Y-66762380D01*
X84097857Y-66762380D01*
X84240714Y-66810000D01*
X84288333Y-66857619D01*
X85145476Y-66762380D02*
X84955000Y-66762380D01*
X84859761Y-66810000D01*
X84812142Y-66857619D01*
X84716904Y-67000476D01*
X84669285Y-67190952D01*
X84669285Y-67571904D01*
X84716904Y-67667142D01*
X84764523Y-67714761D01*
X84859761Y-67762380D01*
X85050238Y-67762380D01*
X85145476Y-67714761D01*
X85193095Y-67667142D01*
X85240714Y-67571904D01*
X85240714Y-67333809D01*
X85193095Y-67238571D01*
X85145476Y-67190952D01*
X85050238Y-67143333D01*
X84859761Y-67143333D01*
X84764523Y-67190952D01*
X84716904Y-67238571D01*
X84669285Y-67333809D01*
%TO.C,C8*%
X44537333Y-66905142D02*
X44489714Y-66952761D01*
X44346857Y-67000380D01*
X44251619Y-67000380D01*
X44108761Y-66952761D01*
X44013523Y-66857523D01*
X43965904Y-66762285D01*
X43918285Y-66571809D01*
X43918285Y-66428952D01*
X43965904Y-66238476D01*
X44013523Y-66143238D01*
X44108761Y-66048000D01*
X44251619Y-66000380D01*
X44346857Y-66000380D01*
X44489714Y-66048000D01*
X44537333Y-66095619D01*
X45108761Y-66428952D02*
X45013523Y-66381333D01*
X44965904Y-66333714D01*
X44918285Y-66238476D01*
X44918285Y-66190857D01*
X44965904Y-66095619D01*
X45013523Y-66048000D01*
X45108761Y-66000380D01*
X45299238Y-66000380D01*
X45394476Y-66048000D01*
X45442095Y-66095619D01*
X45489714Y-66190857D01*
X45489714Y-66238476D01*
X45442095Y-66333714D01*
X45394476Y-66381333D01*
X45299238Y-66428952D01*
X45108761Y-66428952D01*
X45013523Y-66476571D01*
X44965904Y-66524190D01*
X44918285Y-66619428D01*
X44918285Y-66809904D01*
X44965904Y-66905142D01*
X45013523Y-66952761D01*
X45108761Y-67000380D01*
X45299238Y-67000380D01*
X45394476Y-66952761D01*
X45442095Y-66905142D01*
X45489714Y-66809904D01*
X45489714Y-66619428D01*
X45442095Y-66524190D01*
X45394476Y-66476571D01*
X45299238Y-66428952D01*
%TO.C,C10*%
X98417142Y-75287142D02*
X98369523Y-75334761D01*
X98226666Y-75382380D01*
X98131428Y-75382380D01*
X97988571Y-75334761D01*
X97893333Y-75239523D01*
X97845714Y-75144285D01*
X97798095Y-74953809D01*
X97798095Y-74810952D01*
X97845714Y-74620476D01*
X97893333Y-74525238D01*
X97988571Y-74430000D01*
X98131428Y-74382380D01*
X98226666Y-74382380D01*
X98369523Y-74430000D01*
X98417142Y-74477619D01*
X99369523Y-75382380D02*
X98798095Y-75382380D01*
X99083809Y-75382380D02*
X99083809Y-74382380D01*
X98988571Y-74525238D01*
X98893333Y-74620476D01*
X98798095Y-74668095D01*
X99988571Y-74382380D02*
X100083809Y-74382380D01*
X100179047Y-74430000D01*
X100226666Y-74477619D01*
X100274285Y-74572857D01*
X100321904Y-74763333D01*
X100321904Y-75001428D01*
X100274285Y-75191904D01*
X100226666Y-75287142D01*
X100179047Y-75334761D01*
X100083809Y-75382380D01*
X99988571Y-75382380D01*
X99893333Y-75334761D01*
X99845714Y-75287142D01*
X99798095Y-75191904D01*
X99750476Y-75001428D01*
X99750476Y-74763333D01*
X99798095Y-74572857D01*
X99845714Y-74477619D01*
X99893333Y-74430000D01*
X99988571Y-74382380D01*
%TO.C,C12*%
X73652142Y-77827142D02*
X73604523Y-77874761D01*
X73461666Y-77922380D01*
X73366428Y-77922380D01*
X73223571Y-77874761D01*
X73128333Y-77779523D01*
X73080714Y-77684285D01*
X73033095Y-77493809D01*
X73033095Y-77350952D01*
X73080714Y-77160476D01*
X73128333Y-77065238D01*
X73223571Y-76970000D01*
X73366428Y-76922380D01*
X73461666Y-76922380D01*
X73604523Y-76970000D01*
X73652142Y-77017619D01*
X74604523Y-77922380D02*
X74033095Y-77922380D01*
X74318809Y-77922380D02*
X74318809Y-76922380D01*
X74223571Y-77065238D01*
X74128333Y-77160476D01*
X74033095Y-77208095D01*
X74985476Y-77017619D02*
X75033095Y-76970000D01*
X75128333Y-76922380D01*
X75366428Y-76922380D01*
X75461666Y-76970000D01*
X75509285Y-77017619D01*
X75556904Y-77112857D01*
X75556904Y-77208095D01*
X75509285Y-77350952D01*
X74937857Y-77922380D01*
X75556904Y-77922380D01*
%TO.C,J4*%
X44502380Y-29983333D02*
X45216666Y-29983333D01*
X45359523Y-30030952D01*
X45454761Y-30126190D01*
X45502380Y-30269047D01*
X45502380Y-30364285D01*
X44835714Y-29078571D02*
X45502380Y-29078571D01*
X44454761Y-29316666D02*
X45169047Y-29554761D01*
X45169047Y-28935714D01*
%TO.C,R1*%
X42378333Y-74747380D02*
X42045000Y-74271190D01*
X41806904Y-74747380D02*
X41806904Y-73747380D01*
X42187857Y-73747380D01*
X42283095Y-73795000D01*
X42330714Y-73842619D01*
X42378333Y-73937857D01*
X42378333Y-74080714D01*
X42330714Y-74175952D01*
X42283095Y-74223571D01*
X42187857Y-74271190D01*
X41806904Y-74271190D01*
X43330714Y-74747380D02*
X42759285Y-74747380D01*
X43045000Y-74747380D02*
X43045000Y-73747380D01*
X42949761Y-73890238D01*
X42854523Y-73985476D01*
X42759285Y-74033095D01*
%TO.C,R2*%
X58253333Y-80462380D02*
X57920000Y-79986190D01*
X57681904Y-80462380D02*
X57681904Y-79462380D01*
X58062857Y-79462380D01*
X58158095Y-79510000D01*
X58205714Y-79557619D01*
X58253333Y-79652857D01*
X58253333Y-79795714D01*
X58205714Y-79890952D01*
X58158095Y-79938571D01*
X58062857Y-79986190D01*
X57681904Y-79986190D01*
X58634285Y-79557619D02*
X58681904Y-79510000D01*
X58777142Y-79462380D01*
X59015238Y-79462380D01*
X59110476Y-79510000D01*
X59158095Y-79557619D01*
X59205714Y-79652857D01*
X59205714Y-79748095D01*
X59158095Y-79890952D01*
X58586666Y-80462380D01*
X59205714Y-80462380D01*
%TO.C,R3*%
X43013333Y-72080380D02*
X42680000Y-71604190D01*
X42441904Y-72080380D02*
X42441904Y-71080380D01*
X42822857Y-71080380D01*
X42918095Y-71128000D01*
X42965714Y-71175619D01*
X43013333Y-71270857D01*
X43013333Y-71413714D01*
X42965714Y-71508952D01*
X42918095Y-71556571D01*
X42822857Y-71604190D01*
X42441904Y-71604190D01*
X43346666Y-71080380D02*
X43965714Y-71080380D01*
X43632380Y-71461333D01*
X43775238Y-71461333D01*
X43870476Y-71508952D01*
X43918095Y-71556571D01*
X43965714Y-71651809D01*
X43965714Y-71889904D01*
X43918095Y-71985142D01*
X43870476Y-72032761D01*
X43775238Y-72080380D01*
X43489523Y-72080380D01*
X43394285Y-72032761D01*
X43346666Y-71985142D01*
%TO.C,R4*%
X95083333Y-67762380D02*
X94750000Y-67286190D01*
X94511904Y-67762380D02*
X94511904Y-66762380D01*
X94892857Y-66762380D01*
X94988095Y-66810000D01*
X95035714Y-66857619D01*
X95083333Y-66952857D01*
X95083333Y-67095714D01*
X95035714Y-67190952D01*
X94988095Y-67238571D01*
X94892857Y-67286190D01*
X94511904Y-67286190D01*
X95940476Y-67095714D02*
X95940476Y-67762380D01*
X95702380Y-66714761D02*
X95464285Y-67429047D01*
X96083333Y-67429047D01*
%TO.C,R5*%
X84288333Y-70302380D02*
X83955000Y-69826190D01*
X83716904Y-70302380D02*
X83716904Y-69302380D01*
X84097857Y-69302380D01*
X84193095Y-69350000D01*
X84240714Y-69397619D01*
X84288333Y-69492857D01*
X84288333Y-69635714D01*
X84240714Y-69730952D01*
X84193095Y-69778571D01*
X84097857Y-69826190D01*
X83716904Y-69826190D01*
X85193095Y-69302380D02*
X84716904Y-69302380D01*
X84669285Y-69778571D01*
X84716904Y-69730952D01*
X84812142Y-69683333D01*
X85050238Y-69683333D01*
X85145476Y-69730952D01*
X85193095Y-69778571D01*
X85240714Y-69873809D01*
X85240714Y-70111904D01*
X85193095Y-70207142D01*
X85145476Y-70254761D01*
X85050238Y-70302380D01*
X84812142Y-70302380D01*
X84716904Y-70254761D01*
X84669285Y-70207142D01*
%TO.C,R6*%
X56983333Y-69032380D02*
X56650000Y-68556190D01*
X56411904Y-69032380D02*
X56411904Y-68032380D01*
X56792857Y-68032380D01*
X56888095Y-68080000D01*
X56935714Y-68127619D01*
X56983333Y-68222857D01*
X56983333Y-68365714D01*
X56935714Y-68460952D01*
X56888095Y-68508571D01*
X56792857Y-68556190D01*
X56411904Y-68556190D01*
X57840476Y-68032380D02*
X57650000Y-68032380D01*
X57554761Y-68080000D01*
X57507142Y-68127619D01*
X57411904Y-68270476D01*
X57364285Y-68460952D01*
X57364285Y-68841904D01*
X57411904Y-68937142D01*
X57459523Y-68984761D01*
X57554761Y-69032380D01*
X57745238Y-69032380D01*
X57840476Y-68984761D01*
X57888095Y-68937142D01*
X57935714Y-68841904D01*
X57935714Y-68603809D01*
X57888095Y-68508571D01*
X57840476Y-68460952D01*
X57745238Y-68413333D01*
X57554761Y-68413333D01*
X57459523Y-68460952D01*
X57411904Y-68508571D01*
X57364285Y-68603809D01*
%TO.C,U1*%
X88454095Y-72477380D02*
X88454095Y-73286904D01*
X88501714Y-73382142D01*
X88549333Y-73429761D01*
X88644571Y-73477380D01*
X88835047Y-73477380D01*
X88930285Y-73429761D01*
X88977904Y-73382142D01*
X89025523Y-73286904D01*
X89025523Y-72477380D01*
X90025523Y-73477380D02*
X89454095Y-73477380D01*
X89739809Y-73477380D02*
X89739809Y-72477380D01*
X89644571Y-72620238D01*
X89549333Y-72715476D01*
X89454095Y-72763095D01*
%TO.C,U2*%
X47712380Y-72516904D02*
X48521904Y-72516904D01*
X48617142Y-72469285D01*
X48664761Y-72421666D01*
X48712380Y-72326428D01*
X48712380Y-72135952D01*
X48664761Y-72040714D01*
X48617142Y-71993095D01*
X48521904Y-71945476D01*
X47712380Y-71945476D01*
X47807619Y-71516904D02*
X47760000Y-71469285D01*
X47712380Y-71374047D01*
X47712380Y-71135952D01*
X47760000Y-71040714D01*
X47807619Y-70993095D01*
X47902857Y-70945476D01*
X47998095Y-70945476D01*
X48140952Y-70993095D01*
X48712380Y-71564523D01*
X48712380Y-70945476D01*
%TO.C,U3*%
X73328095Y-61317380D02*
X73328095Y-62126904D01*
X73375714Y-62222142D01*
X73423333Y-62269761D01*
X73518571Y-62317380D01*
X73709047Y-62317380D01*
X73804285Y-62269761D01*
X73851904Y-62222142D01*
X73899523Y-62126904D01*
X73899523Y-61317380D01*
X74280476Y-61317380D02*
X74899523Y-61317380D01*
X74566190Y-61698333D01*
X74709047Y-61698333D01*
X74804285Y-61745952D01*
X74851904Y-61793571D01*
X74899523Y-61888809D01*
X74899523Y-62126904D01*
X74851904Y-62222142D01*
X74804285Y-62269761D01*
X74709047Y-62317380D01*
X74423333Y-62317380D01*
X74328095Y-62269761D01*
X74280476Y-62222142D01*
%TO.C,C13*%
X56507142Y-72112142D02*
X56459523Y-72159761D01*
X56316666Y-72207380D01*
X56221428Y-72207380D01*
X56078571Y-72159761D01*
X55983333Y-72064523D01*
X55935714Y-71969285D01*
X55888095Y-71778809D01*
X55888095Y-71635952D01*
X55935714Y-71445476D01*
X55983333Y-71350238D01*
X56078571Y-71255000D01*
X56221428Y-71207380D01*
X56316666Y-71207380D01*
X56459523Y-71255000D01*
X56507142Y-71302619D01*
X57459523Y-72207380D02*
X56888095Y-72207380D01*
X57173809Y-72207380D02*
X57173809Y-71207380D01*
X57078571Y-71350238D01*
X56983333Y-71445476D01*
X56888095Y-71493095D01*
X57792857Y-71207380D02*
X58411904Y-71207380D01*
X58078571Y-71588333D01*
X58221428Y-71588333D01*
X58316666Y-71635952D01*
X58364285Y-71683571D01*
X58411904Y-71778809D01*
X58411904Y-72016904D01*
X58364285Y-72112142D01*
X58316666Y-72159761D01*
X58221428Y-72207380D01*
X57935714Y-72207380D01*
X57840476Y-72159761D01*
X57792857Y-72112142D01*
%TO.C,C14*%
X65397142Y-70842142D02*
X65349523Y-70889761D01*
X65206666Y-70937380D01*
X65111428Y-70937380D01*
X64968571Y-70889761D01*
X64873333Y-70794523D01*
X64825714Y-70699285D01*
X64778095Y-70508809D01*
X64778095Y-70365952D01*
X64825714Y-70175476D01*
X64873333Y-70080238D01*
X64968571Y-69985000D01*
X65111428Y-69937380D01*
X65206666Y-69937380D01*
X65349523Y-69985000D01*
X65397142Y-70032619D01*
X66349523Y-70937380D02*
X65778095Y-70937380D01*
X66063809Y-70937380D02*
X66063809Y-69937380D01*
X65968571Y-70080238D01*
X65873333Y-70175476D01*
X65778095Y-70223095D01*
X67206666Y-70270714D02*
X67206666Y-70937380D01*
X66968571Y-69889761D02*
X66730476Y-70604047D01*
X67349523Y-70604047D01*
%TO.C,C15*%
X83177142Y-78462142D02*
X83129523Y-78509761D01*
X82986666Y-78557380D01*
X82891428Y-78557380D01*
X82748571Y-78509761D01*
X82653333Y-78414523D01*
X82605714Y-78319285D01*
X82558095Y-78128809D01*
X82558095Y-77985952D01*
X82605714Y-77795476D01*
X82653333Y-77700238D01*
X82748571Y-77605000D01*
X82891428Y-77557380D01*
X82986666Y-77557380D01*
X83129523Y-77605000D01*
X83177142Y-77652619D01*
X84129523Y-78557380D02*
X83558095Y-78557380D01*
X83843809Y-78557380D02*
X83843809Y-77557380D01*
X83748571Y-77700238D01*
X83653333Y-77795476D01*
X83558095Y-77843095D01*
X85034285Y-77557380D02*
X84558095Y-77557380D01*
X84510476Y-78033571D01*
X84558095Y-77985952D01*
X84653333Y-77938333D01*
X84891428Y-77938333D01*
X84986666Y-77985952D01*
X85034285Y-78033571D01*
X85081904Y-78128809D01*
X85081904Y-78366904D01*
X85034285Y-78462142D01*
X84986666Y-78509761D01*
X84891428Y-78557380D01*
X84653333Y-78557380D01*
X84558095Y-78509761D01*
X84510476Y-78462142D01*
%TO.C,C7*%
X62063333Y-47347142D02*
X62015714Y-47394761D01*
X61872857Y-47442380D01*
X61777619Y-47442380D01*
X61634761Y-47394761D01*
X61539523Y-47299523D01*
X61491904Y-47204285D01*
X61444285Y-47013809D01*
X61444285Y-46870952D01*
X61491904Y-46680476D01*
X61539523Y-46585238D01*
X61634761Y-46490000D01*
X61777619Y-46442380D01*
X61872857Y-46442380D01*
X62015714Y-46490000D01*
X62063333Y-46537619D01*
X62396666Y-46442380D02*
X63063333Y-46442380D01*
X62634761Y-47442380D01*
%TO.C,C9*%
X103973333Y-52792142D02*
X103925714Y-52839761D01*
X103782857Y-52887380D01*
X103687619Y-52887380D01*
X103544761Y-52839761D01*
X103449523Y-52744523D01*
X103401904Y-52649285D01*
X103354285Y-52458809D01*
X103354285Y-52315952D01*
X103401904Y-52125476D01*
X103449523Y-52030238D01*
X103544761Y-51935000D01*
X103687619Y-51887380D01*
X103782857Y-51887380D01*
X103925714Y-51935000D01*
X103973333Y-51982619D01*
X104449523Y-52887380D02*
X104640000Y-52887380D01*
X104735238Y-52839761D01*
X104782857Y-52792142D01*
X104878095Y-52649285D01*
X104925714Y-52458809D01*
X104925714Y-52077857D01*
X104878095Y-51982619D01*
X104830476Y-51935000D01*
X104735238Y-51887380D01*
X104544761Y-51887380D01*
X104449523Y-51935000D01*
X104401904Y-51982619D01*
X104354285Y-52077857D01*
X104354285Y-52315952D01*
X104401904Y-52411190D01*
X104449523Y-52458809D01*
X104544761Y-52506428D01*
X104735238Y-52506428D01*
X104830476Y-52458809D01*
X104878095Y-52411190D01*
X104925714Y-52315952D01*
%TO.C,C11*%
X103497142Y-32472142D02*
X103449523Y-32519761D01*
X103306666Y-32567380D01*
X103211428Y-32567380D01*
X103068571Y-32519761D01*
X102973333Y-32424523D01*
X102925714Y-32329285D01*
X102878095Y-32138809D01*
X102878095Y-31995952D01*
X102925714Y-31805476D01*
X102973333Y-31710238D01*
X103068571Y-31615000D01*
X103211428Y-31567380D01*
X103306666Y-31567380D01*
X103449523Y-31615000D01*
X103497142Y-31662619D01*
X104449523Y-32567380D02*
X103878095Y-32567380D01*
X104163809Y-32567380D02*
X104163809Y-31567380D01*
X104068571Y-31710238D01*
X103973333Y-31805476D01*
X103878095Y-31853095D01*
X105401904Y-32567380D02*
X104830476Y-32567380D01*
X105116190Y-32567380D02*
X105116190Y-31567380D01*
X105020952Y-31710238D01*
X104925714Y-31805476D01*
X104830476Y-31853095D01*
%TO.C,R8*%
X91273333Y-81097380D02*
X90940000Y-80621190D01*
X90701904Y-81097380D02*
X90701904Y-80097380D01*
X91082857Y-80097380D01*
X91178095Y-80145000D01*
X91225714Y-80192619D01*
X91273333Y-80287857D01*
X91273333Y-80430714D01*
X91225714Y-80525952D01*
X91178095Y-80573571D01*
X91082857Y-80621190D01*
X90701904Y-80621190D01*
X91844761Y-80525952D02*
X91749523Y-80478333D01*
X91701904Y-80430714D01*
X91654285Y-80335476D01*
X91654285Y-80287857D01*
X91701904Y-80192619D01*
X91749523Y-80145000D01*
X91844761Y-80097380D01*
X92035238Y-80097380D01*
X92130476Y-80145000D01*
X92178095Y-80192619D01*
X92225714Y-80287857D01*
X92225714Y-80335476D01*
X92178095Y-80430714D01*
X92130476Y-80478333D01*
X92035238Y-80525952D01*
X91844761Y-80525952D01*
X91749523Y-80573571D01*
X91701904Y-80621190D01*
X91654285Y-80716428D01*
X91654285Y-80906904D01*
X91701904Y-81002142D01*
X91749523Y-81049761D01*
X91844761Y-81097380D01*
X92035238Y-81097380D01*
X92130476Y-81049761D01*
X92178095Y-81002142D01*
X92225714Y-80906904D01*
X92225714Y-80716428D01*
X92178095Y-80621190D01*
X92130476Y-80573571D01*
X92035238Y-80525952D01*
%TD*%
M02*
